<?xml version="1.0" encoding="UTF-8" standalone="no"?>
<!-- Created with Inkscape (http://www.inkscape.org/) -->

<svg
   xmlns:dc="http://purl.org/dc/elements/1.1/"
   xmlns:cc="http://creativecommons.org/ns#"
   xmlns:rdf="http://www.w3.org/1999/02/22-rdf-syntax-ns#"
   xmlns:svg="http://www.w3.org/2000/svg"
   xmlns="http://www.w3.org/2000/svg"
   xmlns:xlink="http://www.w3.org/1999/xlink"
   xmlns:sodipodi="http://sodipodi.sourceforge.net/DTD/sodipodi-0.dtd"
   xmlns:inkscape="http://www.inkscape.org/namespaces/inkscape"
   width="640"
   height="960"
   id="svg2"
   version="1.1"
   inkscape:version="0.48.2 r9819"
   sodipodi:docname="splash-nemo-960x540.svg"
   inkscape:export-filename="C:\Users\Stephan\Desktop\Photoshop Zeugs\nemoux-master\boot_shutdown\splash-nemo-960x540.png"
   inkscape:export-xdpi="90"
   inkscape:export-ydpi="90">
  <defs
     id="defs4">
    <linearGradient
       id="linearGradient4535">
      <stop
         style="stop-color:#dcdcdc;stop-opacity:1;"
         offset="0"
         id="stop4537" />
      <stop
         style="stop-color:#dcdcdc;stop-opacity:0;"
         offset="1"
         id="stop4539" />
    </linearGradient>
    <linearGradient
       id="linearGradient4398">
      <stop
         style="stop-color:#ffffff;stop-opacity:1;"
         offset="0"
         id="stop4400" />
      <stop
         style="stop-color:#ffffff;stop-opacity:1;"
         offset="1"
         id="stop4402" />
    </linearGradient>
    <linearGradient
       inkscape:collect="always"
       xlink:href="#linearGradient4398"
       id="linearGradient4404"
       x1="248.67709"
       y1="639.30884"
       x2="248.67709"
       y2="146.70293"
       gradientUnits="userSpaceOnUse" />
    <linearGradient
       inkscape:collect="always"
       xlink:href="#linearGradient4535"
       id="linearGradient4541"
       x1="435"
       y1="782"
       x2="435"
       y2="732"
       gradientUnits="userSpaceOnUse"
       gradientTransform="translate(160,0)" />
  </defs>
  <sodipodi:namedview
     id="base"
     pagecolor="#000000"
     bordercolor="#666666"
     borderopacity="1.0"
     inkscape:pageopacity="1"
     inkscape:pageshadow="2"
     inkscape:zoom="0.7"
     inkscape:cx="288.42365"
     inkscape:cy="411.48323"
     inkscape:document-units="px"
     inkscape:current-layer="layer2"
     showgrid="true"
     inkscape:window-width="1180"
     inkscape:window-height="1133"
     inkscape:window-x="4"
     inkscape:window-y="0"
     inkscape:window-maximized="0">
    <inkscape:grid
       type="xygrid"
       id="grid2985"
       empspacing="5"
       visible="false"
       enabled="true"
       snapvisiblegridlinesonly="true"
       color="#ffffff"
       opacity="0.1254902"
       empcolor="#ffffff"
       empopacity="0.25098039" />
  </sodipodi:namedview>
  <metadata
     id="metadata7">
    <rdf:RDF>
      <cc:Work
         rdf:about="">
        <dc:format>image/svg+xml</dc:format>
        <dc:type
           rdf:resource="http://purl.org/dc/dcmitype/StillImage" />
        <dc:title></dc:title>
      </cc:Work>
    </rdf:RDF>
  </metadata>
  <g
     inkscape:label="nemo Logo"
     inkscape:groupmode="layer"
     id="layer1"
     transform="translate(0,-92.36218)" />
  <g
     inkscape:groupmode="layer"
     id="layer2"
     inkscape:label="mer Logo"
     transform="translate(0,120)"
     style="display:inline">
    <path
       style="fill:url(#linearGradient4541);fill-opacity:1;fill-rule:evenodd;stroke:#ffffff;stroke-width:0;stroke-linecap:round;stroke-linejoin:round;stroke-miterlimit:4;stroke-opacity:1;stroke-dasharray:none;display:inline"
       d="m 593.53125,732.0625 c -1.17365,0.14017 -2.11785,1.09602 -2.21875,2.3125 -0.11531,1.39026 0.91364,2.60415 2.3125,2.71875 1.39886,0.1146 2.63469,-0.92224 2.75,-2.3125 l 0,-0.0625 c 0.0754,-1.36595 -0.97193,-2.54386 -2.34375,-2.65625 -0.17486,-0.0143 -0.33234,-0.02 -0.5,0 z m -3.5,9.78125 c -0.66678,0.0796 -1.22393,0.62139 -1.28125,1.3125 -0.0655,0.78984 0.54903,1.49739 1.34375,1.5625 0.79472,0.0651 1.49699,-0.52266 1.5625,-1.3125 l 0,-0.0625 c 0.0429,-0.77603 -0.56439,-1.43615 -1.34375,-1.5 -0.0993,-0.008 -0.186,-0.0114 -0.28125,0 z m 5.4375,0.0312 c -1.66373,0.20499 -3.01288,1.58394 -3.15625,3.3125 -0.16385,1.9755 1.29353,3.6809 3.28125,3.84375 1.98772,0.16285 3.7424,-1.30575 3.90625,-3.28125 l 0,-0.0937 c 0.10719,-1.94096 -1.36321,-3.62155 -3.3125,-3.78125 -0.24847,-0.0204 -0.48107,-0.0293 -0.71875,0 z m -6.6875,8.21875 c -2.98287,0.0562 -5.49962,2.32506 -5.75,5.34375 -0.26707,3.21993 2.16639,6.04707 5.40625,6.3125 3.23986,0.26543 6.07668,-2.12382 6.34375,-5.34375 l 0,-0.15625 c 0.17471,-3.16364 -2.19777,-5.89595 -5.375,-6.15625 -0.20249,-0.0166 -0.42614,-0.004 -0.625,0 z M 598,760.3437 c -0.8238,0.10027 -1.49207,0.77583 -1.5625,1.625 -0.0805,0.97048 0.64852,1.82625 1.625,1.90625 0.97648,0.08 1.82576,-0.65452 1.90625,-1.625 L 600,762.21875 c 0.0527,-0.95351 -0.6674,-1.79655 -1.625,-1.875 -0.12206,-0.01 -0.25731,-0.0143 -0.375,0 z M 593.03125,767 c -7.657,0.14618 -14.13862,6.09956 -14.78125,13.90625 -0.68548,8.32715 5.52809,15.62608 13.84375,16.3125 8.31568,0.68643 15.62701,-5.5166 16.3125,-13.84375 l 0.0312,-0.40625 c 0.44929,-8.19722 -5.70446,-15.23181 -13.875,-15.90625 -0.51972,-0.0429 -1.02079,-0.0723 -1.53125,-0.0625 z m -30.6875,5.09375 c -2.46761,0.0173 -4.93056,0.89201 -5.84375,2.53125 -0.96617,-1.66537 -3.43948,-2.54375 -5.9375,-2.5 -4.62629,-0.045 -8.68298,3.85332 -8.5625,7.0625 l 0,12.96875 5.59375,0 0,-12.5625 c 0.0356,-0.79072 0.97522,-2.03702 3.03125,-2.0625 2.02102,0.01 3.0469,1.32373 3.03125,2.0625 l 0.0312,12.5625 5.59375,0 0.0625,-12.5625 c 0.007,-0.89323 0.93783,-1.97073 3.0625,-2 1.91113,0.0124 2.96834,1.32247 2.96875,2.0625 l 0,12.5 5.59375,0 0.0312,-12.5 c 0.0456,-4.17252 -3.6971,-7.56086 -8.65625,-7.5625 z m 63.96875,0.0625 c -5.71076,-0.0208 -8.65261,4.06106 -8.5,8.0625 0,0 -0.009,0.13727 -0.0312,12 l 5.5625,0 0,-13.0625 c 0.009,-1.07655 1.54979,-1.86645 3.0625,-1.90625 0.93038,0.0301 1.29584,0.27015 2.21875,0.78125 l 3.375,-3.5 c -1.24342,-1.32496 -1.97281,-2.3576 -5.6875,-2.375 z m -33,0.65625 c 5.59391,0.0565 9.93131,4.67954 9.15625,10.65625 -14.0692,0.0426 -14.0625,-10e-6 -14.0625,0 -0.0269,4.27439 5.78374,5.72329 9.4375,2.28125 l 3.3125,1.6875 c -0.228,0.58892 -3.01551,3.98626 -8.21875,4.03125 -6.68262,-0.18869 -9.03804,-5.47668 -9.0625,-9.71875 0.077,-5.05326 4.71932,-8.88001 9.4375,-8.9375 z m -0.125,3.8125 c -1.92087,-0.018 -4.61928,1.38549 -4.59375,3.34375 l 9.15625,0 c -6.5e-4,-1.85144 -2.47573,-3.37462 -4.5625,-3.34375 z m -7.15625,22.09375 c -0.91096,0.1088 -1.64044,0.83705 -1.71875,1.78125 -0.0895,1.07909 0.72674,2.03605 1.8125,2.125 1.08576,0.0889 2.0355,-0.70216 2.125,-1.78125 l 0,-0.0625 c 0.0586,-1.06022 -0.74773,-1.97527 -1.8125,-2.0625 -0.13572,-0.0111 -0.27611,-0.0155 -0.40625,0 z m 9.84375,2.15625 c -2.83796,0.0535 -5.23054,2.22171 -5.46875,5.09375 -0.2541,3.06351 2.04254,5.74747 5.125,6 3.08246,0.25253 5.8084,-1.99899 6.0625,-5.0625 l 0,-0.15625 c 0.16623,-3.00995 -2.10212,-5.62735 -5.125,-5.875 -0.19265,-0.0158 -0.40455,-0.004 -0.59375,0 z m -0.75,13.78125 c -0.8156,0.0974 -1.49238,0.74839 -1.5625,1.59375 -0.0801,0.96613 0.65289,1.82661 1.625,1.90625 0.97211,0.0796 1.82612,-0.65887 1.90625,-1.625 l 0,-0.0312 c 0.0524,-0.94924 -0.67168,-1.76565 -1.625,-1.84375 -0.12151,-0.01 -0.22724,-0.0139 -0.34375,0 z m -7.5625,1.125 c -1.69587,0.20437 -3.07317,1.58858 -3.21875,3.34375 -0.16638,2.00591 1.32543,3.77215 3.34375,3.9375 2.01832,0.16535 3.80237,-1.33784 3.96875,-3.34375 l 0,-0.0937 c 0.10884,-1.97084 -1.36445,-3.68159 -3.34375,-3.84375 -0.25229,-0.0207 -0.50773,-0.0292 -0.75,0 z m 6.34375,11.25 c -1.16632,0.13929 -2.11848,1.10363 -2.21875,2.3125 -0.11459,1.38157 0.92238,2.57361 2.3125,2.6875 1.39012,0.11389 2.60416,-0.89968 2.71875,-2.28125 l 0.0312,-0.0625 c 0.075,-1.35742 -0.9805,-2.54457 -2.34375,-2.65625 -0.17376,-0.0142 -0.33338,-0.0199 -0.5,0 z"
       id="path2722"
       inkscape:connector-curvature="0" />
    <g
       id="g5392"
       transform="translate(80,-59.999972)">
      <path
         inkscape:export-ydpi="180"
         inkscape:export-xdpi="180"
         inkscape:export-filename="/home/paulo/Desktop/nemo.png"
         d="m 112,529.79294 0,-38.78788 c 0,-2.10097 0.72727,-3.91915 2.18181,-5.45455 1.53536,-1.45449 3.39394,-2.18175 5.57576,-2.18182 l 0,-0.12114 31.03029,0 0,0.12114 c 2.10097,7e-5 3.91915,0.72733 5.45454,2.18182 1.53532,1.5354 2.30298,3.35358 2.30302,5.45455 l 0,38.78788 -7.75756,0 0,-35.27272 c -0.16172,-0.88886 -0.5657,-1.65654 -1.21211,-2.30302 -0.72732,-0.80805 -1.61619,-1.2121 -2.66665,-1.21214 l -23.27274,0 c -1.13132,4e-5 -2.06061,0.40409 -2.78789,1.21214 -0.64646,0.64648 -1.0101,1.41416 -1.0909,2.30302 l 0,35.27272 -7.75757,0"
         style="font-size:56.56915665px;font-style:normal;font-variant:normal;font-weight:normal;font-stretch:normal;line-height:125%;letter-spacing:0px;word-spacing:0px;fill:#313131;fill-opacity:1;stroke:none;font-family:Cynthe;-inkscape-font-specification:Cynthe"
         id="path3826"
         inkscape:connector-curvature="0" />
      <path
         inkscape:export-ydpi="180"
         inkscape:export-xdpi="180"
         inkscape:export-filename="/home/paulo/Desktop/nemo.png"
         d="m 209.0259,502.44162 c 1.05047,3e-5 3.82322,0.004 3.82322,0.004 0.0604,-2.63836 0.0604,-5.28418 -8.9e-4,-7.92627 -0.16172,-0.88887 -0.56571,-1.65654 -1.21213,-2.30303 -0.72731,-0.80805 -1.61621,-1.21209 -2.66668,-1.21213 l -23.27271,0 c -1.13133,4e-5 -2.06061,0.40408 -2.78788,1.21213 -0.64647,0.64649 -1.0101,1.41416 -1.09091,2.30303 l -0.0453,8.00642 m 0.0453,27.26636 0,0 -0.12114,0 c -2.101,0 -3.91918,-0.72728 -5.45453,-2.18183 -1.45455,-1.53536 -2.18183,-3.39393 -2.18183,-5.57577 l 0,-31.03029 c 0,-2.10097 0.72728,-3.91914 2.18183,-5.45455 1.53535,-1.45448 3.39391,-2.18175 5.57574,-2.18182 l 0,-0.12114 31.0303,0 0,10e-4 c 2.10096,7e-5 3.91915,0.84735 5.45455,2.30183 1.5353,1.5354 2.30298,3.35358 2.30303,5.45455 l 1e-5,11.46714 c -5e-5,2.18183 -0.15975,4.45846 -2.28702,6.00981 -2.28212,1.53874 -3.72509,1.83674 -5.47323,1.89008 l -31.08219,-0.003 0.0546,8.27198 c 0.0807,0.8889 0.44444,1.6566 1.09091,2.30304 0.72727,0.72729 1.65655,1.09092 2.78788,1.0909 l 34.85759,-0.0351 0.0175,7.78431 -38.75368,0.009"
         style="font-size:56.56915665px;font-style:normal;font-variant:normal;font-weight:normal;font-stretch:normal;line-height:125%;letter-spacing:0px;word-spacing:0px;fill:#313131;fill-opacity:1;stroke:none;font-family:Cynthe;-inkscape-font-specification:Cynthe"
         id="path3828"
         inkscape:connector-curvature="0"
         sodipodi:nodetypes="cccccccccccscssccccccccccccccccc" />
      <path
         inkscape:export-ydpi="180"
         inkscape:export-xdpi="180"
         inkscape:export-filename="/home/paulo/Desktop/nemo.png"
         d="m 236.12118,529.79294 0,-38.78788 c 0,-2.10097 0.72728,-3.91915 2.18183,-5.45455 1.53533,-1.45449 3.39393,-2.18175 5.57574,-2.18182 l 0,-0.12114 54.30303,0 0,0.12114 c 2.10095,7e-5 3.91913,0.72733 5.45454,2.18182 1.53527,1.5354 2.30296,3.35358 2.30303,5.45455 l 0,38.78788 -7.75757,0 0,-35.27272 c -0.1617,-0.88886 -0.56572,-1.65654 -1.21213,-2.30302 -0.72733,-0.80805 -1.61621,-1.2121 -2.66667,-1.21214 l -19.39393,0 0,38.78788 -7.75757,0 0,-38.78788 -19.39392,0 c -1.13133,4e-5 -2.06062,0.40409 -2.7879,1.21214 -0.64646,0.64648 -1.0101,1.41416 -1.09091,2.30302 l 0,35.27272 -7.75757,0"
         style="font-size:56.56915665px;font-style:normal;font-variant:normal;font-weight:normal;font-stretch:normal;line-height:125%;letter-spacing:0px;word-spacing:0px;fill:#313131;fill-opacity:1;stroke:none;font-family:Cynthe;-inkscape-font-specification:Cynthe"
         id="path3830"
         inkscape:connector-curvature="0" />
      <path
         inkscape:export-ydpi="180"
         inkscape:export-xdpi="180"
         inkscape:export-filename="/home/paulo/Desktop/nemo.png"
         d="m 356.36358,522.03535 c 1.05045,3e-5 1.93933,-0.36361 2.66666,-1.0909 0.64642,-0.64644 1.05047,-1.41413 1.21211,-2.30304 l 0,-24.12119 c -0.16171,-0.88886 -0.56569,-1.65654 -1.21211,-2.30302 -0.72733,-0.80805 -1.61621,-1.2121 -2.66666,-1.21214 l -23.27273,0 c -1.13133,4e-5 -2.06061,0.40409 -2.78789,1.21214 -0.64646,0.64648 -1.01009,1.41416 -1.0909,2.30302 l 0,24.12119 c 0.0807,0.88891 0.44444,1.6566 1.0909,2.30304 0.72728,0.72729 1.65656,1.09093 2.78789,1.0909 l 23.27273,0 m -27.15152,7.75759 0,0 -0.12114,0 c -2.101,0 -3.91919,-0.72727 -5.45455,-2.18182 -1.45454,-1.53536 -2.18181,-3.39393 -2.18181,-5.57577 l 0,-31.03029 c 0,-2.10097 0.72727,-3.91915 2.18181,-5.45455 1.53536,-1.45449 3.39394,-2.18175 5.57576,-2.18182 l 0,-0.12114 31.0303,0 0,0.12114 c 2.10096,7e-5 3.91914,0.72733 5.45454,2.18182 1.53531,1.5354 2.30297,3.35358 2.30303,5.45455 l 0,31.03029 c -6e-5,2.18184 -0.76772,4.04041 -2.30303,5.57577 -1.5354,1.45455 -3.35358,2.18182 -5.45454,2.18182 l 0,0 0,0 -31.0303,0"
         style="font-size:56.56915665px;font-style:normal;font-variant:normal;font-weight:normal;font-stretch:normal;line-height:125%;letter-spacing:0px;word-spacing:0px;fill:#313131;fill-opacity:1;stroke:none;font-family:Cynthe;-inkscape-font-specification:Cynthe"
         id="path3832"
         inkscape:connector-curvature="0" />
      <rect
         inkscape:export-ydpi="180"
         inkscape:export-xdpi="180"
         inkscape:export-filename="/home/paulo/Desktop/nemo.png"
         ry="2.8672001"
         y="405.58878"
         x="175.7952"
         height="14.336"
         width="128"
         id="rect2989"
         style="fill:#005f96;fill-opacity:1;stroke:none" />
      <rect
         inkscape:export-ydpi="180"
         inkscape:export-xdpi="180"
         inkscape:export-filename="/home/paulo/Desktop/nemo.png"
         ry="2.8672001"
         y="428.57364"
         x="175.7952"
         height="14.336"
         width="128"
         id="rect2989-7"
         style="fill:#005f96;fill-opacity:1;stroke:none" />
      <rect
         inkscape:export-ydpi="180"
         inkscape:export-xdpi="180"
         inkscape:export-filename="/home/paulo/Desktop/nemo.png"
         ry="2.8672001"
         y="451.55719"
         x="175.7952"
         height="14.336"
         width="128"
         id="rect2989-8"
         style="fill:#005f96;fill-opacity:1;stroke:none" />
      <path
         inkscape:export-ydpi="180"
         inkscape:export-xdpi="180"
         inkscape:export-filename="/home/paulo/Desktop/nemo.png"
         transform="matrix(3.5840001,0,0,3.5840001,-458.57281,-1160.5311)"
         d="m 205,422.36218 c 0,5.52285 -4.47715,10 -10,10 -5.52285,0 -10,-4.47715 -10,-10 0,-5.52284 4.47715,-10 10,-10 5.52285,0 10,4.47716 10,10 z"
         sodipodi:ry="10"
         sodipodi:rx="10"
         sodipodi:cy="422.36218"
         sodipodi:cx="195"
         id="path3786"
         style="fill:none;stroke:#005f96;stroke-width:4;stroke-miterlimit:4;stroke-opacity:1;stroke-dasharray:none"
         sodipodi:type="arc" />
      <rect
         inkscape:export-ydpi="180"
         inkscape:export-xdpi="180"
         inkscape:export-filename="/home/paulo/Desktop/nemo.png"
         ry="2.8672001"
         y="382.61819"
         x="175.7952"
         height="14.336"
         width="128"
         id="rect2989-4"
         style="fill:#005f96;fill-opacity:1;stroke:none" />
    </g>
  </g>
</svg>
