<?xml version="1.0" encoding="UTF-8" standalone="no"?>
<!-- Created with Inkscape (http://www.inkscape.org/) -->

<svg
   xmlns:dc="http://purl.org/dc/elements/1.1/"
   xmlns:cc="http://creativecommons.org/ns#"
   xmlns:rdf="http://www.w3.org/1999/02/22-rdf-syntax-ns#"
   xmlns:svg="http://www.w3.org/2000/svg"
   xmlns="http://www.w3.org/2000/svg"
   xmlns:xlink="http://www.w3.org/1999/xlink"
   xmlns:sodipodi="http://sodipodi.sourceforge.net/DTD/sodipodi-0.dtd"
   xmlns:inkscape="http://www.inkscape.org/namespaces/inkscape"
   width="480"
   height="840"
   id="svg2"
   version="1.1"
   inkscape:version="0.48.2 r9819"
   sodipodi:docname="boot_shutdown.svg">
  <defs
     id="defs4">
    <linearGradient
       id="linearGradient4535">
      <stop
         style="stop-color:#dcdcdc;stop-opacity:1;"
         offset="0"
         id="stop4537" />
      <stop
         style="stop-color:#dcdcdc;stop-opacity:0;"
         offset="1"
         id="stop4539" />
    </linearGradient>
    <linearGradient
       id="linearGradient4398">
      <stop
         style="stop-color:#ffffff;stop-opacity:1;"
         offset="0"
         id="stop4400" />
      <stop
         style="stop-color:#ffffff;stop-opacity:1;"
         offset="1"
         id="stop4402" />
    </linearGradient>
    <linearGradient
       inkscape:collect="always"
       xlink:href="#linearGradient4398"
       id="linearGradient4404"
       x1="248.67709"
       y1="639.30884"
       x2="248.67709"
       y2="146.70293"
       gradientUnits="userSpaceOnUse" />
    <linearGradient
       inkscape:collect="always"
       xlink:href="#linearGradient4535"
       id="linearGradient4541"
       x1="435"
       y1="782"
       x2="435"
       y2="732"
       gradientUnits="userSpaceOnUse" />
  </defs>
  <sodipodi:namedview
     id="base"
     pagecolor="#000000"
     bordercolor="#666666"
     borderopacity="1.0"
     inkscape:pageopacity="1"
     inkscape:pageshadow="2"
     inkscape:zoom="0.98994949"
     inkscape:cx="283.96476"
     inkscape:cy="419.45129"
     inkscape:document-units="px"
     inkscape:current-layer="layer2"
     showgrid="true"
     inkscape:window-width="1920"
     inkscape:window-height="1148"
     inkscape:window-x="-8"
     inkscape:window-y="-8"
     inkscape:window-maximized="1">
    <inkscape:grid
       type="xygrid"
       id="grid2985"
       empspacing="5"
       visible="false"
       enabled="true"
       snapvisiblegridlinesonly="true"
       color="#ffffff"
       opacity="0.1254902"
       empcolor="#ffffff"
       empopacity="0.25098039" />
  </sodipodi:namedview>
  <metadata
     id="metadata7">
    <rdf:RDF>
      <cc:Work
         rdf:about="">
        <dc:format>image/svg+xml</dc:format>
        <dc:type
           rdf:resource="http://purl.org/dc/dcmitype/StillImage" />
        <dc:title></dc:title>
      </cc:Work>
    </rdf:RDF>
  </metadata>
  <g
     inkscape:label="nemo Logo"
     inkscape:groupmode="layer"
     id="layer1"
     transform="translate(0,-212.36218)" />
  <g
     inkscape:groupmode="layer"
     id="layer2"
     inkscape:label="mer Logo">
    <path
       style="fill:url(#linearGradient4541);fill-opacity:1;fill-rule:evenodd;stroke:#ffffff;stroke-width:0;stroke-linecap:round;stroke-linejoin:round;stroke-miterlimit:4;stroke-opacity:1;stroke-dasharray:none;display:inline"
       d="M 433.53125 732.0625 C 432.3576 732.20267 431.4134 733.15852 431.3125 734.375 C 431.19719 735.76526 432.22614 736.97915 433.625 737.09375 C 435.02386 737.20835 436.25969 736.17151 436.375 734.78125 L 436.375 734.71875 C 436.45044 733.3528 435.40307 732.17489 434.03125 732.0625 C 433.85639 732.04817 433.69891 732.04248 433.53125 732.0625 z M 430.03125 741.84375 C 429.36447 741.92338 428.80732 742.46514 428.75 743.15625 C 428.68449 743.94609 429.29903 744.65364 430.09375 744.71875 C 430.88847 744.78386 431.59074 744.19609 431.65625 743.40625 L 431.65625 743.34375 C 431.69911 742.56772 431.09186 741.9076 430.3125 741.84375 C 430.21316 741.83561 430.1265 741.83237 430.03125 741.84375 z M 435.46875 741.875 C 433.80502 742.07999 432.45587 743.45894 432.3125 745.1875 C 432.14865 747.163 433.60603 748.8684 435.59375 749.03125 C 437.58147 749.1941 439.33615 747.7255 439.5 745.75 L 439.5 745.65625 C 439.60719 743.71529 438.13679 742.0347 436.1875 741.875 C 435.93903 741.85464 435.70643 741.84572 435.46875 741.875 z M 428.78125 750.09375 C 425.79838 750.14997 423.28163 752.41881 423.03125 755.4375 C 422.76418 758.65743 425.19764 761.48457 428.4375 761.75 C 431.67736 762.01543 434.51418 759.62618 434.78125 756.40625 L 434.78125 756.25 C 434.95596 753.08636 432.58348 750.35405 429.40625 750.09375 C 429.20376 750.07716 428.98011 750.09 428.78125 750.09375 z M 438 760.34375 C 437.1762 760.44402 436.50793 761.11958 436.4375 761.96875 C 436.35701 762.93923 437.08602 763.795 438.0625 763.875 C 439.03898 763.955 439.88826 763.22048 439.96875 762.25 L 440 762.21875 C 440.05266 761.26524 439.3326 760.4222 438.375 760.34375 C 438.25294 760.33375 438.11769 760.32943 438 760.34375 z M 433.03125 767 C 425.37425 767.14618 418.89263 773.09956 418.25 780.90625 C 417.56452 789.2334 423.77809 796.53233 432.09375 797.21875 C 440.40943 797.90518 447.72076 791.70215 448.40625 783.375 L 448.4375 782.96875 C 448.88679 774.77153 442.73304 767.73694 434.5625 767.0625 C 434.04278 767.0196 433.54171 766.9902 433.03125 767 z M 402.34375 772.09375 C 399.87614 772.11105 397.41319 772.98576 396.5 774.625 C 395.53383 772.95963 393.06052 772.08125 390.5625 772.125 C 385.93621 772.08 381.87952 775.97832 382 779.1875 L 382 792.15625 L 387.59375 792.15625 L 387.59375 779.59375 C 387.62935 778.80303 388.56897 777.55673 390.625 777.53125 C 392.64602 777.54125 393.6719 778.85498 393.65625 779.59375 L 393.6875 792.15625 L 399.28125 792.15625 L 399.34375 779.59375 C 399.35075 778.70052 400.28158 777.62302 402.40625 777.59375 C 404.31738 777.60615 405.37459 778.91622 405.375 779.65625 L 405.375 792.15625 L 410.96875 792.15625 L 411 779.65625 C 411.0456 775.48373 407.3029 772.09539 402.34375 772.09375 z M 466.3125 772.15625 C 460.60174 772.13546 457.65989 776.21731 457.8125 780.21875 C 457.8125 780.21875 457.80395 780.35602 457.78125 792.21875 L 463.34375 792.21875 L 463.34375 779.15625 C 463.35259 778.0797 464.89354 777.2898 466.40625 777.25 C 467.33663 777.28007 467.70209 777.52015 468.625 778.03125 L 472 774.53125 C 470.75658 773.20629 470.02719 772.17365 466.3125 772.15625 z M 433.3125 772.8125 C 438.90641 772.869 443.24381 777.49204 442.46875 783.46875 C 428.39955 783.51135 428.40625 783.46874 428.40625 783.46875 C 428.37935 787.74314 434.18999 789.19204 437.84375 785.75 L 441.15625 787.4375 C 440.92825 788.02642 438.14074 791.42376 432.9375 791.46875 C 426.25488 791.28006 423.89946 785.99207 423.875 781.75 C 423.952 776.69674 428.59432 772.86999 433.3125 772.8125 z M 433.1875 776.625 C 431.26663 776.607 428.56822 778.01049 428.59375 779.96875 L 437.75 779.96875 C 437.74935 778.11731 435.27427 776.59413 433.1875 776.625 z M 426.03125 798.71875 C 425.12029 798.82755 424.39081 799.5558 424.3125 800.5 C 424.223 801.57909 425.03924 802.53605 426.125 802.625 C 427.21076 802.71395 428.1605 801.92284 428.25 800.84375 L 428.25 800.78125 C 428.30855 799.72103 427.50227 798.80598 426.4375 798.71875 C 426.30178 798.70763 426.16139 798.70321 426.03125 798.71875 z M 435.875 800.875 C 433.03704 800.92849 430.64446 803.09671 430.40625 805.96875 C 430.15215 809.03226 432.44879 811.71622 435.53125 811.96875 C 438.61371 812.22128 441.33965 809.96976 441.59375 806.90625 L 441.59375 806.75 C 441.75998 803.74005 439.49163 801.12265 436.46875 800.875 C 436.2761 800.85922 436.0642 800.87143 435.875 800.875 z M 435.125 814.65625 C 434.3094 814.75366 433.63262 815.40464 433.5625 816.25 C 433.48237 817.21613 434.21539 818.07661 435.1875 818.15625 C 436.15961 818.23589 437.01362 817.49738 437.09375 816.53125 L 437.09375 816.5 C 437.14617 815.55076 436.42207 814.73435 435.46875 814.65625 C 435.34724 814.64629 435.24151 814.64233 435.125 814.65625 z M 427.5625 815.78125 C 425.86663 815.98562 424.48933 817.36983 424.34375 819.125 C 424.17737 821.13091 425.66918 822.89715 427.6875 823.0625 C 429.70582 823.22785 431.48987 821.72466 431.65625 819.71875 L 431.65625 819.625 C 431.76509 817.65416 430.2918 815.94341 428.3125 815.78125 C 428.06021 815.76058 427.80477 815.75205 427.5625 815.78125 z M 433.90625 827.03125 C 432.73993 827.17054 431.78777 828.13488 431.6875 829.34375 C 431.57291 830.72532 432.60988 831.91736 434 832.03125 C 435.39012 832.14514 436.60416 831.13157 436.71875 829.75 L 436.75 829.6875 C 436.82496 828.33008 435.7695 827.14293 434.40625 827.03125 C 434.23249 827.01701 434.07287 827.01135 433.90625 827.03125 z "
       id="path2722" />
    <path
       inkscape:connector-curvature="0"
       id="path3826"
       style="font-size:56.56915664999999600px;font-style:normal;font-variant:normal;font-weight:normal;font-stretch:normal;line-height:125%;letter-spacing:0px;word-spacing:0px;fill:#313131;fill-opacity:1;stroke:none;font-family:Cynthe;-inkscape-font-specification:Cynthe"
       d="m 112,529.79294 0,-38.78788 c 0,-2.10097 0.72727,-3.91915 2.18181,-5.45455 1.53536,-1.45449 3.39394,-2.18175 5.57576,-2.18182 l 0,-0.12114 31.03029,0 0,0.12114 c 2.10097,7e-5 3.91915,0.72733 5.45454,2.18182 1.53532,1.5354 2.30298,3.35358 2.30302,5.45455 l 0,38.78788 -7.75756,0 0,-35.27272 c -0.16172,-0.88886 -0.5657,-1.65654 -1.21211,-2.30302 -0.72732,-0.80805 -1.61619,-1.2121 -2.66665,-1.21214 l -23.27274,0 c -1.13132,4e-5 -2.06061,0.40409 -2.78789,1.21214 -0.64646,0.64648 -1.0101,1.41416 -1.0909,2.30302 l 0,35.27272 -7.75757,0"
       inkscape:export-filename="/home/paulo/Desktop/nemo.png"
       inkscape:export-xdpi="180"
       inkscape:export-ydpi="180" />
    <path
       sodipodi:nodetypes="cccccccccccscssccccccccccccccccc"
       inkscape:connector-curvature="0"
       id="path3828"
       style="font-size:56.56915664999999600px;font-style:normal;font-variant:normal;font-weight:normal;font-stretch:normal;line-height:125%;letter-spacing:0px;word-spacing:0px;fill:#313131;fill-opacity:1;stroke:none;font-family:Cynthe;-inkscape-font-specification:Cynthe"
       d="m 209.0259,502.44162 c 1.05047,3e-5 3.82322,0.004 3.82322,0.004 0.0604,-2.63836 0.0604,-5.28418 -8.9e-4,-7.92627 -0.16172,-0.88887 -0.56571,-1.65654 -1.21213,-2.30303 -0.72731,-0.80805 -1.61621,-1.21209 -2.66668,-1.21213 l -23.27271,0 c -1.13133,4e-5 -2.06061,0.40408 -2.78788,1.21213 -0.64647,0.64649 -1.0101,1.41416 -1.09091,2.30303 l -0.0453,8.00642 m 0.0453,27.26636 0,0 -0.12114,0 c -2.101,0 -3.91918,-0.72728 -5.45453,-2.18183 -1.45455,-1.53536 -2.18183,-3.39393 -2.18183,-5.57577 l 0,-31.03029 c 0,-2.10097 0.72728,-3.91914 2.18183,-5.45455 1.53535,-1.45448 3.39391,-2.18175 5.57574,-2.18182 l 0,-0.12114 31.0303,0 0,0.001 c 2.10096,7e-5 3.91915,0.84735 5.45455,2.30183 1.5353,1.5354 2.30298,3.35358 2.30303,5.45455 l 1e-5,11.46714 c -5e-5,2.18183 -0.15975,4.45846 -2.28702,6.00981 -2.28212,1.53874 -3.72509,1.83674 -5.47323,1.89008 l -31.08219,-0.003 0.0546,8.27198 c 0.0807,0.8889 0.44444,1.6566 1.09091,2.30304 0.72727,0.72729 1.65655,1.09092 2.78788,1.0909 l 34.85759,-0.0351 0.0175,7.78431 -38.75368,0.009"
       inkscape:export-filename="/home/paulo/Desktop/nemo.png"
       inkscape:export-xdpi="180"
       inkscape:export-ydpi="180" />
    <path
       inkscape:connector-curvature="0"
       id="path3830"
       style="font-size:56.56915664999999600px;font-style:normal;font-variant:normal;font-weight:normal;font-stretch:normal;line-height:125%;letter-spacing:0px;word-spacing:0px;fill:#313131;fill-opacity:1;stroke:none;font-family:Cynthe;-inkscape-font-specification:Cynthe"
       d="m 236.12118,529.79294 0,-38.78788 c 0,-2.10097 0.72728,-3.91915 2.18183,-5.45455 1.53533,-1.45449 3.39393,-2.18175 5.57574,-2.18182 l 0,-0.12114 54.30303,0 0,0.12114 c 2.10095,7e-5 3.91913,0.72733 5.45454,2.18182 1.53527,1.5354 2.30296,3.35358 2.30303,5.45455 l 0,38.78788 -7.75757,0 0,-35.27272 c -0.1617,-0.88886 -0.56572,-1.65654 -1.21213,-2.30302 -0.72733,-0.80805 -1.61621,-1.2121 -2.66667,-1.21214 l -19.39393,0 0,38.78788 -7.75757,0 0,-38.78788 -19.39392,0 c -1.13133,4e-5 -2.06062,0.40409 -2.7879,1.21214 -0.64646,0.64648 -1.0101,1.41416 -1.09091,2.30302 l 0,35.27272 -7.75757,0"
       inkscape:export-filename="/home/paulo/Desktop/nemo.png"
       inkscape:export-xdpi="180"
       inkscape:export-ydpi="180" />
    <path
       inkscape:connector-curvature="0"
       id="path3832"
       style="font-size:56.56915664999999600px;font-style:normal;font-variant:normal;font-weight:normal;font-stretch:normal;line-height:125%;letter-spacing:0px;word-spacing:0px;fill:#313131;fill-opacity:1;stroke:none;font-family:Cynthe;-inkscape-font-specification:Cynthe"
       d="m 356.36358,522.03535 c 1.05045,3e-5 1.93933,-0.36361 2.66666,-1.0909 0.64642,-0.64644 1.05047,-1.41413 1.21211,-2.30304 l 0,-24.12119 c -0.16171,-0.88886 -0.56569,-1.65654 -1.21211,-2.30302 -0.72733,-0.80805 -1.61621,-1.2121 -2.66666,-1.21214 l -23.27273,0 c -1.13133,4e-5 -2.06061,0.40409 -2.78789,1.21214 -0.64646,0.64648 -1.01009,1.41416 -1.0909,2.30302 l 0,24.12119 c 0.0807,0.88891 0.44444,1.6566 1.0909,2.30304 0.72728,0.72729 1.65656,1.09093 2.78789,1.0909 l 23.27273,0 m -27.15152,7.75759 0,0 -0.12114,0 c -2.101,0 -3.91919,-0.72727 -5.45455,-2.18182 -1.45454,-1.53536 -2.18181,-3.39393 -2.18181,-5.57577 l 0,-31.03029 c 0,-2.10097 0.72727,-3.91915 2.18181,-5.45455 1.53536,-1.45449 3.39394,-2.18175 5.57576,-2.18182 l 0,-0.12114 31.0303,0 0,0.12114 c 2.10096,7e-5 3.91914,0.72733 5.45454,2.18182 1.53531,1.5354 2.30297,3.35358 2.30303,5.45455 l 0,31.03029 c -6e-5,2.18184 -0.76772,4.04041 -2.30303,5.57577 -1.5354,1.45455 -3.35358,2.18182 -5.45454,2.18182 l 0,0 0,0 -31.0303,0"
       inkscape:export-filename="/home/paulo/Desktop/nemo.png"
       inkscape:export-xdpi="180"
       inkscape:export-ydpi="180" />
    <rect
       style="fill:#005f96;fill-opacity:1;stroke:none"
       id="rect2989"
       width="128"
       height="14.336"
       x="175.7952"
       y="405.58878"
       ry="2.8672001"
       inkscape:export-filename="/home/paulo/Desktop/nemo.png"
       inkscape:export-xdpi="180"
       inkscape:export-ydpi="180" />
    <rect
       style="fill:#005f96;fill-opacity:1;stroke:none"
       id="rect2989-7"
       width="128"
       height="14.336"
       x="175.7952"
       y="428.57364"
       ry="2.8672001"
       inkscape:export-filename="/home/paulo/Desktop/nemo.png"
       inkscape:export-xdpi="180"
       inkscape:export-ydpi="180" />
    <rect
       style="fill:#005f96;fill-opacity:1;stroke:none"
       id="rect2989-8"
       width="128"
       height="14.336"
       x="175.7952"
       y="451.55719"
       ry="2.8672001"
       inkscape:export-filename="/home/paulo/Desktop/nemo.png"
       inkscape:export-xdpi="180"
       inkscape:export-ydpi="180" />
    <path
       sodipodi:type="arc"
       style="fill:none;stroke:#005f96;stroke-width:4;stroke-miterlimit:4;stroke-opacity:1;stroke-dasharray:none;fill-opacity:1"
       id="path3786"
       sodipodi:cx="195"
       sodipodi:cy="422.36218"
       sodipodi:rx="10"
       sodipodi:ry="10"
       d="m 205,422.36218 a 10,10 0 1 1 -20,0 10,10 0 1 1 20,0 z"
       transform="matrix(3.5840001,0,0,3.5840001,-458.57281,-1160.5311)"
       inkscape:export-filename="/home/paulo/Desktop/nemo.png"
       inkscape:export-xdpi="180"
       inkscape:export-ydpi="180" />
    <rect
       style="fill:#005f96;fill-opacity:1;stroke:none"
       id="rect2989-4"
       width="128"
       height="14.336"
       x="175.7952"
       y="382.61819"
       ry="2.8672001"
       inkscape:export-filename="/home/paulo/Desktop/nemo.png"
       inkscape:export-xdpi="180"
       inkscape:export-ydpi="180" />
  </g>
</svg>
