<?xml version="1.0" encoding="UTF-8" standalone="no"?>
<!-- Created with Inkscape (http://www.inkscape.org/) -->

<svg
   xmlns:dc="http://purl.org/dc/elements/1.1/"
   xmlns:cc="http://creativecommons.org/ns#"
   xmlns:rdf="http://www.w3.org/1999/02/22-rdf-syntax-ns#"
   xmlns:svg="http://www.w3.org/2000/svg"
   xmlns="http://www.w3.org/2000/svg"
   xmlns:xlink="http://www.w3.org/1999/xlink"
   xmlns:sodipodi="http://sodipodi.sourceforge.net/DTD/sodipodi-0.dtd"
   xmlns:inkscape="http://www.inkscape.org/namespaces/inkscape"
   width="1080"
   height="1920"
   id="svg2"
   version="1.1"
   inkscape:version="0.48.2 r9819"
   sodipodi:docname="splash-nemo-1920x1080.svg"
   inkscape:export-filename="C:\Users\Stephan\Desktop\Photoshop Zeugs\nemoux-master\boot_shutdown\splash-nemo-1920x1080.png"
   inkscape:export-xdpi="90"
   inkscape:export-ydpi="90">
  <defs
     id="defs4">
    <linearGradient
       id="linearGradient4535">
      <stop
         style="stop-color:#dcdcdc;stop-opacity:1;"
         offset="0"
         id="stop4537" />
      <stop
         style="stop-color:#dcdcdc;stop-opacity:0;"
         offset="1"
         id="stop4539" />
    </linearGradient>
    <linearGradient
       id="linearGradient4398">
      <stop
         style="stop-color:#ffffff;stop-opacity:1;"
         offset="0"
         id="stop4400" />
      <stop
         style="stop-color:#ffffff;stop-opacity:1;"
         offset="1"
         id="stop4402" />
    </linearGradient>
    <linearGradient
       inkscape:collect="always"
       xlink:href="#linearGradient4398"
       id="linearGradient4404"
       x1="248.67709"
       y1="639.30884"
       x2="248.67709"
       y2="146.70293"
       gradientUnits="userSpaceOnUse" />
    <linearGradient
       inkscape:collect="always"
       xlink:href="#linearGradient4535"
       id="linearGradient4541"
       x1="435"
       y1="782"
       x2="435"
       y2="732"
       gradientUnits="userSpaceOnUse"
       gradientTransform="matrix(1.777725,0,0,1.777725,232.91103,-647.09836)" />
  </defs>
  <sodipodi:namedview
     id="base"
     pagecolor="#000000"
     bordercolor="#666666"
     borderopacity="1.0"
     inkscape:pageopacity="1"
     inkscape:pageshadow="2"
     inkscape:zoom="0.24748737"
     inkscape:cx="641.05573"
     inkscape:cy="1071.4525"
     inkscape:document-units="px"
     inkscape:current-layer="layer2"
     showgrid="true"
     inkscape:window-width="1180"
     inkscape:window-height="1133"
     inkscape:window-x="4"
     inkscape:window-y="0"
     inkscape:window-maximized="0">
    <inkscape:grid
       type="xygrid"
       id="grid2985"
       empspacing="5"
       visible="false"
       enabled="true"
       snapvisiblegridlinesonly="true"
       color="#ffffff"
       opacity="0.1254902"
       empcolor="#ffffff"
       empopacity="0.25098039" />
  </sodipodi:namedview>
  <metadata
     id="metadata7">
    <rdf:RDF>
      <cc:Work
         rdf:about="">
        <dc:format>image/svg+xml</dc:format>
        <dc:type
           rdf:resource="http://purl.org/dc/dcmitype/StillImage" />
        <dc:title></dc:title>
      </cc:Work>
    </rdf:RDF>
  </metadata>
  <g
     inkscape:label="nemo Logo"
     inkscape:groupmode="layer"
     id="layer1"
     transform="translate(0,867.63782)" />
  <g
     inkscape:groupmode="layer"
     id="layer2"
     inkscape:label="mer Logo"
     transform="translate(0,1080)"
     style="display:inline">
    <path
       style="fill:url(#linearGradient4541);fill-opacity:1;fill-rule:evenodd;stroke:#ffffff;stroke-width:0;stroke-linecap:round;stroke-linejoin:round;stroke-miterlimit:4;stroke-opacity:1;stroke-dasharray:none;display:inline"
       d="m 1003.6104,654.30751 c -2.0864,0.24919 -3.7649,1.94843 -3.9443,4.111 -0.205,2.47149 1.6242,4.62945 4.111,4.83319 2.4868,0.20372 4.6837,-1.6395 4.8887,-4.11099 l 0,-0.11107 c 0.1341,-2.42829 -1.7278,-4.52229 -4.1665,-4.72209 -0.3109,-0.0255 -0.5908,-0.0356 -0.8889,0 z m -6.222,17.38837 c -1.1853,0.14151 -2.1758,1.10467 -2.2777,2.33327 -0.1164,1.40412 0.976,2.66195 2.3888,2.77769 1.4128,0.11574 2.6612,-0.92914 2.7777,-2.33325 l 0,-0.11107 c 0.076,-1.37956 -1.0033,-2.55306 -2.3888,-2.66658 -0.1765,-0.0143 -0.3307,-0.0203 -0.5,0 z m 9.6664,0.0555 c -2.9577,0.36441 -5.3561,2.81581 -5.611,5.88872 -0.2912,3.51189 2.2996,6.54363 5.8332,6.83313 3.5336,0.2895 6.6529,-2.32126 6.9442,-5.83316 l 0,-0.16657 c 0.1906,-3.45049 -2.4234,-6.43812 -5.8887,-6.72203 -0.4417,-0.0363 -0.8552,-0.0521 -1.2777,0 z m -11.8886,14.61068 c -5.30269,0.0999 -9.77678,4.13332 -10.22189,9.49972 -0.47477,5.72415 3.85126,10.75003 9.61079,11.22189 5.7596,0.47186 10.8027,-3.77557 11.2775,-9.49972 l 0,-0.27777 c 0.3106,-5.62408 -3.907,-10.48137 -9.5553,-10.94412 -0.36,-0.0295 -0.7575,-0.007 -1.1111,0 z m 16.3884,18.22168 c -1.4645,0.17825 -2.6525,1.37921 -2.7777,2.88881 -0.1431,1.72524 1.1529,3.24656 2.8888,3.38879 1.736,0.14221 3.2458,-1.16356 3.3888,-2.88881 l 0.056,-0.0555 c 0.094,-1.69508 -1.1864,-3.19377 -2.8888,-3.33324 -0.217,-0.0177 -0.4574,-0.0255 -0.6666,0 z m -8.833,11.83308 c -13.61207,0.25987 -25.13461,10.84333 -26.27703,24.72148 -1.21859,14.80339 9.82742,27.77888 24.61043,28.99915 14.7829,1.22028 27.7805,-9.807 28.9991,-24.61039 l 0.056,-0.7222 c 0.7987,-14.5724 -10.141,-27.07797 -24.6659,-28.27693 -0.924,-0.0763 -1.8147,-0.12854 -2.7222,-0.11107 z m -54.55397,9.05528 c -4.38673,0.0308 -8.76518,1.58575 -10.38858,4.49987 -1.71759,-2.96058 -6.11444,-4.52208 -10.55524,-4.44431 -8.22427,-0.08 -15.43595,6.85015 -15.22178,12.55519 l 0,23.05486 9.94415,0 0,-22.33266 c 0.0633,-1.4057 1.73368,-3.62127 5.38873,-3.66656 3.59282,0.0177 5.41655,2.35322 5.38874,3.66656 l 0.0555,22.33266 9.94415,0 0.11107,-22.33266 c 0.012,-1.58792 1.6672,-3.50343 5.44428,-3.55546 3.39746,0.022 5.27689,2.35099 5.27762,3.66656 l 0,22.22156 9.94415,0 0.0555,-22.22156 c 0.0811,-7.4176 -6.57243,-13.44113 -15.38843,-13.44405 z m 113.71887,0.11107 c -10.1522,-0.0369 -15.382,7.21945 -15.1107,14.3329 0,0 -0.016,0.24404 -0.056,21.33271 l 9.8886,0 0,-23.22153 c 0.016,-1.91382 2.7551,-3.31804 5.4443,-3.38879 1.654,0.0535 2.3037,0.48025 3.9443,1.38884 l 5.9998,-6.22203 c -2.2104,-2.35541 -3.5071,-4.19117 -10.1108,-4.2221 z m -58.6649,1.16664 c 9.9444,0.1004 17.6551,8.31893 16.2772,18.94388 -25.0111,0.0757 -24.9992,-2e-5 -24.9992,0 -0.048,7.59869 10.2819,10.17444 16.7773,4.05544 l 5.8887,2.9999 c -0.4053,1.04694 -5.3608,7.08648 -14.6107,7.16646 -11.8798,-0.33544 -16.06715,-9.73603 -16.11063,-17.27727 0.13688,-8.98331 8.38963,-15.78621 16.77733,-15.88841 z m -0.2223,6.77757 c -3.4147,-0.032 -8.2118,2.46303 -8.1664,5.94427 l 16.2773,0 c -10e-4,-3.29135 -4.4012,-5.99915 -8.1109,-5.94427 z m -12.7218,39.27661 c -1.61944,0.19342 -2.91625,1.48804 -3.05547,3.16658 -0.1591,1.91832 1.29195,3.61953 3.22217,3.77766 1.9301,0.15804 3.6185,-1.24825 3.7776,-3.16657 l 0,-0.11107 c 0.1042,-1.88478 -1.3292,-3.51149 -3.2221,-3.66656 -0.2413,-0.0197 -0.4908,-0.0276 -0.7222,0 z m 17.4995,3.83323 c -5.0451,0.0951 -9.2985,3.94959 -9.7219,9.05528 -0.4518,5.44608 3.631,10.21743 9.1108,10.66635 5.4797,0.44893 10.3257,-3.55366 10.7774,-8.99974 l 0,-0.27776 c 0.2955,-5.35086 -3.737,-10.00388 -9.1108,-10.44413 -0.3425,-0.0281 -0.7192,-0.007 -1.0555,0 z m -1.3333,24.49927 c -1.4499,0.17314 -2.653,1.33042 -2.7777,2.83325 -0.1424,1.71751 1.1606,3.24721 2.8888,3.38879 1.7281,0.1415 3.2463,-1.1713 3.3888,-2.8888 l 0,-0.0555 c 0.093,-1.68749 -1.1941,-3.13884 -2.8888,-3.27768 -0.216,-0.0177 -0.404,-0.0247 -0.6111,0 z m -13.4441,1.99994 c -3.01475,0.36331 -5.46322,2.82406 -5.72202,5.94427 -0.29577,3.56595 2.35625,6.70584 5.94432,6.99979 3.588,0.29394 6.7595,-2.37831 7.0553,-5.94427 l 0,-0.16657 c 0.1935,-3.50362 -2.4256,-6.54486 -5.9443,-6.83314 -0.4485,-0.0368 -0.9026,-0.0519 -1.3333,0 z m 11.2775,19.9994 c -2.0734,0.24763 -3.7661,1.96195 -3.9443,4.11099 -0.2038,2.45605 1.6397,4.57517 4.1109,4.77764 2.4713,0.20247 4.6295,-1.59939 4.8332,-4.05544 l 0.056,-0.11107 c 0.1334,-2.41312 -1.743,-4.52354 -4.1665,-4.72208 -0.3089,-0.0252 -0.5927,-0.0353 -0.8889,0 z"
       id="path2722"
       inkscape:connector-curvature="0" />
    <g
       id="g5392"
       transform="matrix(2,0,0,2,60,-959.99994)">
      <path
         inkscape:export-ydpi="180"
         inkscape:export-xdpi="180"
         inkscape:export-filename="/home/paulo/Desktop/nemo.png"
         d="m 112,529.79294 0,-38.78788 c 0,-2.10097 0.72727,-3.91915 2.18181,-5.45455 1.53536,-1.45449 3.39394,-2.18175 5.57576,-2.18182 l 0,-0.12114 31.03029,0 0,0.12114 c 2.10097,7e-5 3.91915,0.72733 5.45454,2.18182 1.53532,1.5354 2.30298,3.35358 2.30302,5.45455 l 0,38.78788 -7.75756,0 0,-35.27272 c -0.16172,-0.88886 -0.5657,-1.65654 -1.21211,-2.30302 -0.72732,-0.80805 -1.61619,-1.2121 -2.66665,-1.21214 l -23.27274,0 c -1.13132,4e-5 -2.06061,0.40409 -2.78789,1.21214 -0.64646,0.64648 -1.0101,1.41416 -1.0909,2.30302 l 0,35.27272 -7.75757,0"
         style="font-size:56.56915665px;font-style:normal;font-variant:normal;font-weight:normal;font-stretch:normal;line-height:125%;letter-spacing:0px;word-spacing:0px;fill:#313131;fill-opacity:1;stroke:none;font-family:Cynthe;-inkscape-font-specification:Cynthe"
         id="path3826"
         inkscape:connector-curvature="0" />
      <path
         inkscape:export-ydpi="180"
         inkscape:export-xdpi="180"
         inkscape:export-filename="/home/paulo/Desktop/nemo.png"
         d="m 209.0259,502.44162 c 1.05047,3e-5 3.82322,0.004 3.82322,0.004 0.0604,-2.63836 0.0604,-5.28418 -8.9e-4,-7.92627 -0.16172,-0.88887 -0.56571,-1.65654 -1.21213,-2.30303 -0.72731,-0.80805 -1.61621,-1.21209 -2.66668,-1.21213 l -23.27271,0 c -1.13133,4e-5 -2.06061,0.40408 -2.78788,1.21213 -0.64647,0.64649 -1.0101,1.41416 -1.09091,2.30303 l -0.0453,8.00642 m 0.0453,27.26636 0,0 -0.12114,0 c -2.101,0 -3.91918,-0.72728 -5.45453,-2.18183 -1.45455,-1.53536 -2.18183,-3.39393 -2.18183,-5.57577 l 0,-31.03029 c 0,-2.10097 0.72728,-3.91914 2.18183,-5.45455 1.53535,-1.45448 3.39391,-2.18175 5.57574,-2.18182 l 0,-0.12114 31.0303,0 0,10e-4 c 2.10096,7e-5 3.91915,0.84735 5.45455,2.30183 1.5353,1.5354 2.30298,3.35358 2.30303,5.45455 l 1e-5,11.46714 c -5e-5,2.18183 -0.15975,4.45846 -2.28702,6.00981 -2.28212,1.53874 -3.72509,1.83674 -5.47323,1.89008 l -31.08219,-0.003 0.0546,8.27198 c 0.0807,0.8889 0.44444,1.6566 1.09091,2.30304 0.72727,0.72729 1.65655,1.09092 2.78788,1.0909 l 34.85759,-0.0351 0.0175,7.78431 -38.75368,0.009"
         style="font-size:56.56915665px;font-style:normal;font-variant:normal;font-weight:normal;font-stretch:normal;line-height:125%;letter-spacing:0px;word-spacing:0px;fill:#313131;fill-opacity:1;stroke:none;font-family:Cynthe;-inkscape-font-specification:Cynthe"
         id="path3828"
         inkscape:connector-curvature="0"
         sodipodi:nodetypes="cccccccccccscssccccccccccccccccc" />
      <path
         inkscape:export-ydpi="180"
         inkscape:export-xdpi="180"
         inkscape:export-filename="/home/paulo/Desktop/nemo.png"
         d="m 236.12118,529.79294 0,-38.78788 c 0,-2.10097 0.72728,-3.91915 2.18183,-5.45455 1.53533,-1.45449 3.39393,-2.18175 5.57574,-2.18182 l 0,-0.12114 54.30303,0 0,0.12114 c 2.10095,7e-5 3.91913,0.72733 5.45454,2.18182 1.53527,1.5354 2.30296,3.35358 2.30303,5.45455 l 0,38.78788 -7.75757,0 0,-35.27272 c -0.1617,-0.88886 -0.56572,-1.65654 -1.21213,-2.30302 -0.72733,-0.80805 -1.61621,-1.2121 -2.66667,-1.21214 l -19.39393,0 0,38.78788 -7.75757,0 0,-38.78788 -19.39392,0 c -1.13133,4e-5 -2.06062,0.40409 -2.7879,1.21214 -0.64646,0.64648 -1.0101,1.41416 -1.09091,2.30302 l 0,35.27272 -7.75757,0"
         style="font-size:56.56915665px;font-style:normal;font-variant:normal;font-weight:normal;font-stretch:normal;line-height:125%;letter-spacing:0px;word-spacing:0px;fill:#313131;fill-opacity:1;stroke:none;font-family:Cynthe;-inkscape-font-specification:Cynthe"
         id="path3830"
         inkscape:connector-curvature="0" />
      <path
         inkscape:export-ydpi="180"
         inkscape:export-xdpi="180"
         inkscape:export-filename="/home/paulo/Desktop/nemo.png"
         d="m 356.36358,522.03535 c 1.05045,3e-5 1.93933,-0.36361 2.66666,-1.0909 0.64642,-0.64644 1.05047,-1.41413 1.21211,-2.30304 l 0,-24.12119 c -0.16171,-0.88886 -0.56569,-1.65654 -1.21211,-2.30302 -0.72733,-0.80805 -1.61621,-1.2121 -2.66666,-1.21214 l -23.27273,0 c -1.13133,4e-5 -2.06061,0.40409 -2.78789,1.21214 -0.64646,0.64648 -1.01009,1.41416 -1.0909,2.30302 l 0,24.12119 c 0.0807,0.88891 0.44444,1.6566 1.0909,2.30304 0.72728,0.72729 1.65656,1.09093 2.78789,1.0909 l 23.27273,0 m -27.15152,7.75759 0,0 -0.12114,0 c -2.101,0 -3.91919,-0.72727 -5.45455,-2.18182 -1.45454,-1.53536 -2.18181,-3.39393 -2.18181,-5.57577 l 0,-31.03029 c 0,-2.10097 0.72727,-3.91915 2.18181,-5.45455 1.53536,-1.45449 3.39394,-2.18175 5.57576,-2.18182 l 0,-0.12114 31.0303,0 0,0.12114 c 2.10096,7e-5 3.91914,0.72733 5.45454,2.18182 1.53531,1.5354 2.30297,3.35358 2.30303,5.45455 l 0,31.03029 c -6e-5,2.18184 -0.76772,4.04041 -2.30303,5.57577 -1.5354,1.45455 -3.35358,2.18182 -5.45454,2.18182 l 0,0 0,0 -31.0303,0"
         style="font-size:56.56915665px;font-style:normal;font-variant:normal;font-weight:normal;font-stretch:normal;line-height:125%;letter-spacing:0px;word-spacing:0px;fill:#313131;fill-opacity:1;stroke:none;font-family:Cynthe;-inkscape-font-specification:Cynthe"
         id="path3832"
         inkscape:connector-curvature="0" />
      <rect
         inkscape:export-ydpi="180"
         inkscape:export-xdpi="180"
         inkscape:export-filename="/home/paulo/Desktop/nemo.png"
         ry="2.8672001"
         y="405.58878"
         x="175.7952"
         height="14.336"
         width="128"
         id="rect2989"
         style="fill:#005f96;fill-opacity:1;stroke:none" />
      <rect
         inkscape:export-ydpi="180"
         inkscape:export-xdpi="180"
         inkscape:export-filename="/home/paulo/Desktop/nemo.png"
         ry="2.8672001"
         y="428.57364"
         x="175.7952"
         height="14.336"
         width="128"
         id="rect2989-7"
         style="fill:#005f96;fill-opacity:1;stroke:none" />
      <rect
         inkscape:export-ydpi="180"
         inkscape:export-xdpi="180"
         inkscape:export-filename="/home/paulo/Desktop/nemo.png"
         ry="2.8672001"
         y="451.55719"
         x="175.7952"
         height="14.336"
         width="128"
         id="rect2989-8"
         style="fill:#005f96;fill-opacity:1;stroke:none" />
      <path
         inkscape:export-ydpi="180"
         inkscape:export-xdpi="180"
         inkscape:export-filename="/home/paulo/Desktop/nemo.png"
         transform="matrix(3.5840001,0,0,3.5840001,-458.57281,-1160.5311)"
         d="m 205,422.36218 c 0,5.52285 -4.47715,10 -10,10 -5.52285,0 -10,-4.47715 -10,-10 0,-5.52284 4.47715,-10 10,-10 5.52285,0 10,4.47716 10,10 z"
         sodipodi:ry="10"
         sodipodi:rx="10"
         sodipodi:cy="422.36218"
         sodipodi:cx="195"
         id="path3786"
         style="fill:none;stroke:#005f96;stroke-width:4;stroke-miterlimit:4;stroke-opacity:1;stroke-dasharray:none"
         sodipodi:type="arc" />
      <rect
         inkscape:export-ydpi="180"
         inkscape:export-xdpi="180"
         inkscape:export-filename="/home/paulo/Desktop/nemo.png"
         ry="2.8672001"
         y="382.61819"
         x="175.7952"
         height="14.336"
         width="128"
         id="rect2989-4"
         style="fill:#005f96;fill-opacity:1;stroke:none" />
    </g>
  </g>
</svg>
