<?xml version="1.0" encoding="UTF-8" standalone="no"?>
<!-- Created with Inkscape (http://www.inkscape.org/) -->

<svg
   xmlns:dc="http://purl.org/dc/elements/1.1/"
   xmlns:cc="http://creativecommons.org/ns#"
   xmlns:rdf="http://www.w3.org/1999/02/22-rdf-syntax-ns#"
   xmlns:svg="http://www.w3.org/2000/svg"
   xmlns="http://www.w3.org/2000/svg"
   xmlns:xlink="http://www.w3.org/1999/xlink"
   xmlns:sodipodi="http://sodipodi.sourceforge.net/DTD/sodipodi-0.dtd"
   xmlns:inkscape="http://www.inkscape.org/namespaces/inkscape"
   width="768"
   height="1280"
   id="svg2"
   version="1.1"
   inkscape:version="0.48.2 r9819"
   sodipodi:docname="splash-nemo-1280x720.svg"
   inkscape:export-filename="C:\Users\Stephan\Desktop\Photoshop Zeugs\nemoux-master\boot_shutdown\splash-nemo-1280x720.png"
   inkscape:export-xdpi="90"
   inkscape:export-ydpi="90">
  <defs
     id="defs4">
    <linearGradient
       id="linearGradient4535">
      <stop
         style="stop-color:#dcdcdc;stop-opacity:1;"
         offset="0"
         id="stop4537" />
      <stop
         style="stop-color:#dcdcdc;stop-opacity:0;"
         offset="1"
         id="stop4539" />
    </linearGradient>
    <linearGradient
       id="linearGradient4398">
      <stop
         style="stop-color:#ffffff;stop-opacity:1;"
         offset="0"
         id="stop4400" />
      <stop
         style="stop-color:#ffffff;stop-opacity:1;"
         offset="1"
         id="stop4402" />
    </linearGradient>
    <linearGradient
       inkscape:collect="always"
       xlink:href="#linearGradient4398"
       id="linearGradient4404"
       x1="248.67709"
       y1="639.30884"
       x2="248.67709"
       y2="146.70293"
       gradientUnits="userSpaceOnUse" />
    <linearGradient
       inkscape:collect="always"
       xlink:href="#linearGradient4535"
       id="linearGradient4541"
       x1="435"
       y1="782"
       x2="435"
       y2="732"
       gradientUnits="userSpaceOnUse"
       gradientTransform="matrix(1.3332938,0,0,1.3332938,130.68263,-277.31378)" />
  </defs>
  <sodipodi:namedview
     id="base"
     pagecolor="#000000"
     bordercolor="#666666"
     borderopacity="1.0"
     inkscape:pageopacity="1"
     inkscape:pageshadow="2"
     inkscape:zoom="0.49497475"
     inkscape:cx="404.88806"
     inkscape:cy="674.9833"
     inkscape:document-units="px"
     inkscape:current-layer="layer2"
     showgrid="true"
     inkscape:window-width="1180"
     inkscape:window-height="1133"
     inkscape:window-x="4"
     inkscape:window-y="0"
     inkscape:window-maximized="0">
    <inkscape:grid
       type="xygrid"
       id="grid2985"
       empspacing="5"
       visible="false"
       enabled="true"
       snapvisiblegridlinesonly="true"
       color="#ffffff"
       opacity="0.1254902"
       empcolor="#ffffff"
       empopacity="0.25098039" />
  </sodipodi:namedview>
  <metadata
     id="metadata7">
    <rdf:RDF>
      <cc:Work
         rdf:about="">
        <dc:format>image/svg+xml</dc:format>
        <dc:type
           rdf:resource="http://purl.org/dc/dcmitype/StillImage" />
        <dc:title></dc:title>
      </cc:Work>
    </rdf:RDF>
  </metadata>
  <g
     inkscape:label="nemo Logo"
     inkscape:groupmode="layer"
     id="layer1"
     transform="translate(0,227.63782)" />
  <g
     inkscape:groupmode="layer"
     id="layer2"
     inkscape:label="mer Logo"
     transform="translate(0,440)"
     style="display:inline">
    <path
       style="fill:url(#linearGradient4541);fill-opacity:1;fill-rule:evenodd;stroke:#ffffff;stroke-width:0;stroke-linecap:round;stroke-linejoin:round;stroke-miterlimit:4;stroke-opacity:1;stroke-dasharray:none;display:inline"
       d="m 708.70717,698.74062 c -1.56482,0.18689 -2.82372,1.46132 -2.95825,3.08325 -0.15374,1.85362 1.21815,3.47209 3.08325,3.62489 1.86509,0.15279 3.51281,-1.22962 3.66655,-3.08324 l 0,-0.0833 c 0.10053,-1.82122 -1.29586,-3.39172 -3.1249,-3.54157 -0.23314,-0.0191 -0.44311,-0.0267 -0.66665,0 z m -4.66653,13.04128 c -0.88901,0.10613 -1.63186,0.8285 -1.70828,1.74995 -0.0873,1.05309 0.73202,1.99646 1.79161,2.08327 1.0596,0.0868 1.99593,-0.69686 2.08327,-1.74994 l 0,-0.0833 c 0.0572,-1.03467 -0.75249,-1.9148 -1.79161,-1.99994 -0.1324,-0.0107 -0.24799,-0.0152 -0.37499,0 z m 7.24979,0.0416 c -2.21824,0.27331 -4.01706,2.11186 -4.20821,4.41654 -0.21846,2.63392 1.72465,4.90772 4.37487,5.12485 2.65021,0.21712 4.98972,-1.74095 5.20818,-4.37487 l 0,-0.12493 c 0.14291,-2.58787 -1.81756,-4.82859 -4.41654,-5.04152 -0.33128,-0.0272 -0.64141,-0.0391 -0.9583,0 z m -8.91641,10.95801 c -3.97704,0.0749 -7.33261,3.09999 -7.66644,7.12479 -0.35608,4.29311 2.88844,8.06252 7.20812,8.41642 4.31969,0.35389 8.102,-2.83168 8.45809,-7.12479 l 0,-0.20833 c 0.23294,-4.21806 -2.93028,-7.86103 -7.16646,-8.20809 -0.26998,-0.0221 -0.56817,-0.005 -0.83331,0 z m 12.29131,13.66626 c -1.09837,0.13369 -1.98937,1.03441 -2.08328,2.16661 -0.10733,1.29393 0.86467,2.43492 2.16661,2.54159 1.30193,0.10666 2.43427,-0.87267 2.54159,-2.16661 l 0.0417,-0.0416 c 0.0703,-1.27131 -0.88984,-2.39533 -2.1666,-2.49993 -0.16274,-0.0133 -0.34307,-0.0191 -0.49998,0 z m -6.62481,8.87481 c -10.20903,0.1949 -18.85093,8.1325 -19.70775,18.54111 -0.91394,11.10254 7.37057,20.83416 18.45779,21.74936 11.08724,0.91521 20.8354,-7.35525 21.74936,-18.45779 l 0.0416,-0.54165 c 0.59904,-10.9293 -7.60572,-20.30848 -18.49945,-21.2077 -0.69294,-0.0572 -1.36101,-0.0964 -2.0416,-0.0833 z m -40.91545,6.79146 c -3.29005,0.0231 -6.57389,1.18931 -7.79144,3.3749 -1.28819,-2.22043 -4.58583,-3.39156 -7.91643,-3.33323 -6.1682,-0.06 -11.57696,5.13761 -11.41633,9.41639 l 0,17.29115 7.45811,0 0,-16.7495 c 0.0475,-1.05427 1.30026,-2.71595 4.04155,-2.74992 2.69461,0.0133 4.06241,1.76492 4.04155,2.74992 l 0.0416,16.7495 7.45811,0 0.0833,-16.7495 c 0.009,-1.19094 1.2504,-2.62757 4.08321,-2.66659 2.5481,0.0165 3.95767,1.76324 3.95822,2.74992 l 0,16.66617 7.45811,0 0.0416,-16.66617 c 0.0608,-5.5632 -4.92932,-10.08085 -11.54132,-10.08304 z m 85.28914,0.0833 c -7.61412,-0.0277 -11.53647,5.41459 -11.333,10.74968 0,0 -0.012,0.18303 -0.0416,15.99953 l 7.41645,0 0,-17.41615 c 0.012,-1.43536 2.06632,-2.48853 4.08321,-2.54159 1.24047,0.0401 1.72774,0.36019 2.95825,1.04163 l 4.49986,-4.66652 c -1.65784,-1.76656 -2.63033,-3.14338 -7.58311,-3.16658 z m -43.9987,0.87498 c 7.45833,0.0753 13.24136,6.2392 12.20797,14.20791 -18.75837,0.0568 -18.74944,-10e-6 -18.74944,0 -0.0359,5.69902 7.71142,7.63083 12.58296,3.04158 l 4.41653,2.24993 c -0.30399,0.7852 -4.02056,5.31486 -10.958,5.37484 -8.9099,-0.25158 -12.05037,-7.30202 -12.08298,-12.95795 0.10266,-6.73748 6.29224,-11.83966 12.58296,-11.91631 z m -0.16666,5.08318 c -2.56108,-0.024 -6.15886,1.84727 -6.12482,4.4582 l 12.20797,0 c -8.6e-4,-2.46851 -3.30087,-4.49936 -6.08315,-4.4582 z m -9.54138,29.45746 c -1.21458,0.14506 -2.18719,1.11603 -2.2916,2.37493 -0.11933,1.43874 0.96896,2.71465 2.41659,2.83325 1.44764,0.11853 2.71392,-0.93619 2.83325,-2.37493 l 0,-0.0833 c 0.0781,-1.41359 -0.99694,-2.63362 -2.41659,-2.74992 -0.18096,-0.0148 -0.36814,-0.0207 -0.54165,0 z m 13.12461,2.87492 c -3.78384,0.0713 -6.97385,2.96219 -7.29145,6.79146 -0.33879,4.08456 2.7233,7.66307 6.83313,7.99976 4.10982,0.3367 7.7443,-2.66524 8.08309,-6.7498 l 0,-0.20832 c 0.22163,-4.01315 -2.80274,-7.50291 -6.83313,-7.8331 -0.25686,-0.0211 -0.53938,-0.005 -0.79164,0 z m -0.99997,18.37445 c -1.08744,0.12986 -1.98978,0.99782 -2.08328,2.12494 -0.10679,1.28813 0.8705,2.43541 2.16661,2.54159 1.29611,0.10613 2.43475,-0.87847 2.54159,-2.1666 l 0,-0.0416 c 0.0699,-1.26562 -0.89555,-2.35413 -2.1666,-2.45826 -0.16201,-0.0133 -0.30298,-0.0185 -0.45832,0 z m -10.08304,1.49996 c -2.26109,0.27248 -4.09744,2.11804 -4.29154,4.4582 -0.22183,2.67446 1.76719,5.02938 4.4582,5.24984 2.69102,0.22046 5.06968,-1.78373 5.29151,-4.4582 l 0,-0.12493 c 0.14512,-2.62771 -1.81921,-4.90864 -4.4582,-5.12485 -0.33637,-0.0276 -0.67695,-0.0389 -0.99997,0 z m 8.45808,14.99955 c -1.55504,0.18572 -2.82455,1.47146 -2.95824,3.08324 -0.15278,1.84204 1.2298,3.43138 3.08324,3.58323 1.85344,0.15185 3.47211,-1.19954 3.62489,-3.04158 l 0.0416,-0.0833 c 0.1,-1.80984 -1.30729,-3.39266 -3.12491,-3.54156 -0.23167,-0.0189 -0.44449,-0.0265 -0.66664,0 z"
       id="path2722"
       inkscape:connector-curvature="0" />
    <g
       id="g5392"
       transform="matrix(1.5,0,0,1.5,24,-429.99996)">
      <path
         inkscape:export-ydpi="180"
         inkscape:export-xdpi="180"
         inkscape:export-filename="/home/paulo/Desktop/nemo.png"
         d="m 112,529.79294 0,-38.78788 c 0,-2.10097 0.72727,-3.91915 2.18181,-5.45455 1.53536,-1.45449 3.39394,-2.18175 5.57576,-2.18182 l 0,-0.12114 31.03029,0 0,0.12114 c 2.10097,7e-5 3.91915,0.72733 5.45454,2.18182 1.53532,1.5354 2.30298,3.35358 2.30302,5.45455 l 0,38.78788 -7.75756,0 0,-35.27272 c -0.16172,-0.88886 -0.5657,-1.65654 -1.21211,-2.30302 -0.72732,-0.80805 -1.61619,-1.2121 -2.66665,-1.21214 l -23.27274,0 c -1.13132,4e-5 -2.06061,0.40409 -2.78789,1.21214 -0.64646,0.64648 -1.0101,1.41416 -1.0909,2.30302 l 0,35.27272 -7.75757,0"
         style="font-size:56.56915665px;font-style:normal;font-variant:normal;font-weight:normal;font-stretch:normal;line-height:125%;letter-spacing:0px;word-spacing:0px;fill:#313131;fill-opacity:1;stroke:none;font-family:Cynthe;-inkscape-font-specification:Cynthe"
         id="path3826"
         inkscape:connector-curvature="0" />
      <path
         inkscape:export-ydpi="180"
         inkscape:export-xdpi="180"
         inkscape:export-filename="/home/paulo/Desktop/nemo.png"
         d="m 209.0259,502.44162 c 1.05047,3e-5 3.82322,0.004 3.82322,0.004 0.0604,-2.63836 0.0604,-5.28418 -8.9e-4,-7.92627 -0.16172,-0.88887 -0.56571,-1.65654 -1.21213,-2.30303 -0.72731,-0.80805 -1.61621,-1.21209 -2.66668,-1.21213 l -23.27271,0 c -1.13133,4e-5 -2.06061,0.40408 -2.78788,1.21213 -0.64647,0.64649 -1.0101,1.41416 -1.09091,2.30303 l -0.0453,8.00642 m 0.0453,27.26636 0,0 -0.12114,0 c -2.101,0 -3.91918,-0.72728 -5.45453,-2.18183 -1.45455,-1.53536 -2.18183,-3.39393 -2.18183,-5.57577 l 0,-31.03029 c 0,-2.10097 0.72728,-3.91914 2.18183,-5.45455 1.53535,-1.45448 3.39391,-2.18175 5.57574,-2.18182 l 0,-0.12114 31.0303,0 0,10e-4 c 2.10096,7e-5 3.91915,0.84735 5.45455,2.30183 1.5353,1.5354 2.30298,3.35358 2.30303,5.45455 l 1e-5,11.46714 c -5e-5,2.18183 -0.15975,4.45846 -2.28702,6.00981 -2.28212,1.53874 -3.72509,1.83674 -5.47323,1.89008 l -31.08219,-0.003 0.0546,8.27198 c 0.0807,0.8889 0.44444,1.6566 1.09091,2.30304 0.72727,0.72729 1.65655,1.09092 2.78788,1.0909 l 34.85759,-0.0351 0.0175,7.78431 -38.75368,0.009"
         style="font-size:56.56915665px;font-style:normal;font-variant:normal;font-weight:normal;font-stretch:normal;line-height:125%;letter-spacing:0px;word-spacing:0px;fill:#313131;fill-opacity:1;stroke:none;font-family:Cynthe;-inkscape-font-specification:Cynthe"
         id="path3828"
         inkscape:connector-curvature="0"
         sodipodi:nodetypes="cccccccccccscssccccccccccccccccc" />
      <path
         inkscape:export-ydpi="180"
         inkscape:export-xdpi="180"
         inkscape:export-filename="/home/paulo/Desktop/nemo.png"
         d="m 236.12118,529.79294 0,-38.78788 c 0,-2.10097 0.72728,-3.91915 2.18183,-5.45455 1.53533,-1.45449 3.39393,-2.18175 5.57574,-2.18182 l 0,-0.12114 54.30303,0 0,0.12114 c 2.10095,7e-5 3.91913,0.72733 5.45454,2.18182 1.53527,1.5354 2.30296,3.35358 2.30303,5.45455 l 0,38.78788 -7.75757,0 0,-35.27272 c -0.1617,-0.88886 -0.56572,-1.65654 -1.21213,-2.30302 -0.72733,-0.80805 -1.61621,-1.2121 -2.66667,-1.21214 l -19.39393,0 0,38.78788 -7.75757,0 0,-38.78788 -19.39392,0 c -1.13133,4e-5 -2.06062,0.40409 -2.7879,1.21214 -0.64646,0.64648 -1.0101,1.41416 -1.09091,2.30302 l 0,35.27272 -7.75757,0"
         style="font-size:56.56915665px;font-style:normal;font-variant:normal;font-weight:normal;font-stretch:normal;line-height:125%;letter-spacing:0px;word-spacing:0px;fill:#313131;fill-opacity:1;stroke:none;font-family:Cynthe;-inkscape-font-specification:Cynthe"
         id="path3830"
         inkscape:connector-curvature="0" />
      <path
         inkscape:export-ydpi="180"
         inkscape:export-xdpi="180"
         inkscape:export-filename="/home/paulo/Desktop/nemo.png"
         d="m 356.36358,522.03535 c 1.05045,3e-5 1.93933,-0.36361 2.66666,-1.0909 0.64642,-0.64644 1.05047,-1.41413 1.21211,-2.30304 l 0,-24.12119 c -0.16171,-0.88886 -0.56569,-1.65654 -1.21211,-2.30302 -0.72733,-0.80805 -1.61621,-1.2121 -2.66666,-1.21214 l -23.27273,0 c -1.13133,4e-5 -2.06061,0.40409 -2.78789,1.21214 -0.64646,0.64648 -1.01009,1.41416 -1.0909,2.30302 l 0,24.12119 c 0.0807,0.88891 0.44444,1.6566 1.0909,2.30304 0.72728,0.72729 1.65656,1.09093 2.78789,1.0909 l 23.27273,0 m -27.15152,7.75759 0,0 -0.12114,0 c -2.101,0 -3.91919,-0.72727 -5.45455,-2.18182 -1.45454,-1.53536 -2.18181,-3.39393 -2.18181,-5.57577 l 0,-31.03029 c 0,-2.10097 0.72727,-3.91915 2.18181,-5.45455 1.53536,-1.45449 3.39394,-2.18175 5.57576,-2.18182 l 0,-0.12114 31.0303,0 0,0.12114 c 2.10096,7e-5 3.91914,0.72733 5.45454,2.18182 1.53531,1.5354 2.30297,3.35358 2.30303,5.45455 l 0,31.03029 c -6e-5,2.18184 -0.76772,4.04041 -2.30303,5.57577 -1.5354,1.45455 -3.35358,2.18182 -5.45454,2.18182 l 0,0 0,0 -31.0303,0"
         style="font-size:56.56915665px;font-style:normal;font-variant:normal;font-weight:normal;font-stretch:normal;line-height:125%;letter-spacing:0px;word-spacing:0px;fill:#313131;fill-opacity:1;stroke:none;font-family:Cynthe;-inkscape-font-specification:Cynthe"
         id="path3832"
         inkscape:connector-curvature="0" />
      <rect
         inkscape:export-ydpi="180"
         inkscape:export-xdpi="180"
         inkscape:export-filename="/home/paulo/Desktop/nemo.png"
         ry="2.8672001"
         y="405.58878"
         x="175.7952"
         height="14.336"
         width="128"
         id="rect2989"
         style="fill:#005f96;fill-opacity:1;stroke:none" />
      <rect
         inkscape:export-ydpi="180"
         inkscape:export-xdpi="180"
         inkscape:export-filename="/home/paulo/Desktop/nemo.png"
         ry="2.8672001"
         y="428.57364"
         x="175.7952"
         height="14.336"
         width="128"
         id="rect2989-7"
         style="fill:#005f96;fill-opacity:1;stroke:none" />
      <rect
         inkscape:export-ydpi="180"
         inkscape:export-xdpi="180"
         inkscape:export-filename="/home/paulo/Desktop/nemo.png"
         ry="2.8672001"
         y="451.55719"
         x="175.7952"
         height="14.336"
         width="128"
         id="rect2989-8"
         style="fill:#005f96;fill-opacity:1;stroke:none" />
      <path
         inkscape:export-ydpi="180"
         inkscape:export-xdpi="180"
         inkscape:export-filename="/home/paulo/Desktop/nemo.png"
         transform="matrix(3.5840001,0,0,3.5840001,-458.57281,-1160.5311)"
         d="m 205,422.36218 c 0,5.52285 -4.47715,10 -10,10 -5.52285,0 -10,-4.47715 -10,-10 0,-5.52284 4.47715,-10 10,-10 5.52285,0 10,4.47716 10,10 z"
         sodipodi:ry="10"
         sodipodi:rx="10"
         sodipodi:cy="422.36218"
         sodipodi:cx="195"
         id="path3786"
         style="fill:none;stroke:#005f96;stroke-width:4;stroke-miterlimit:4;stroke-opacity:1;stroke-dasharray:none"
         sodipodi:type="arc" />
      <rect
         inkscape:export-ydpi="180"
         inkscape:export-xdpi="180"
         inkscape:export-filename="/home/paulo/Desktop/nemo.png"
         ry="2.8672001"
         y="382.61819"
         x="175.7952"
         height="14.336"
         width="128"
         id="rect2989-4"
         style="fill:#005f96;fill-opacity:1;stroke:none" />
    </g>
  </g>
</svg>
