<?xml version="1.0" encoding="UTF-8" standalone="no"?>
<!-- Created with Inkscape (http://www.inkscape.org/) -->

<svg
   xmlns:dc="http://purl.org/dc/elements/1.1/"
   xmlns:cc="http://creativecommons.org/ns#"
   xmlns:rdf="http://www.w3.org/1999/02/22-rdf-syntax-ns#"
   xmlns:svg="http://www.w3.org/2000/svg"
   xmlns="http://www.w3.org/2000/svg"
   xmlns:sodipodi="http://sodipodi.sourceforge.net/DTD/sodipodi-0.dtd"
   xmlns:inkscape="http://www.inkscape.org/namespaces/inkscape"
   width="240"
   height="240"
   id="svg5985"
   version="1.1"
   inkscape:version="0.48.2 r9819"
   sodipodi:docname="Neues Dokument 10">
  <defs
     id="defs5987" />
  <sodipodi:namedview
     id="base"
     pagecolor="#ffffff"
     bordercolor="#666666"
     borderopacity="1.0"
     inkscape:pageopacity="0.0"
     inkscape:pageshadow="2"
     inkscape:zoom="2.8"
     inkscape:cx="112.14988"
     inkscape:cy="110.95128"
     inkscape:document-units="px"
     inkscape:current-layer="layer1"
     showgrid="true"
     inkscape:window-width="1920"
     inkscape:window-height="1148"
     inkscape:window-x="-8"
     inkscape:window-y="-8"
     inkscape:window-maximized="1">
    <inkscape:grid
       type="xygrid"
       id="grid5993"
       empspacing="5"
       visible="true"
       enabled="true"
       snapvisiblegridlinesonly="true" />
  </sodipodi:namedview>
  <metadata
     id="metadata5990">
    <rdf:RDF>
      <cc:Work
         rdf:about="">
        <dc:format>image/svg+xml</dc:format>
        <dc:type
           rdf:resource="http://purl.org/dc/dcmitype/StillImage" />
        <dc:title></dc:title>
      </cc:Work>
    </rdf:RDF>
  </metadata>
  <g
     inkscape:label="Ebene 1"
     inkscape:groupmode="layer"
     id="layer1"
     transform="translate(0,-812.36218)">
    <g
       id="g5392"
       transform="matrix(0.8359375,0,0,0.8359375,-80.625,564.13651)">
      <path
         inkscape:export-ydpi="180"
         inkscape:export-xdpi="180"
         inkscape:export-filename="/home/paulo/Desktop/nemo.png"
         d="m 112,529.79294 0,-38.78788 c 0,-2.10097 0.72727,-3.91915 2.18181,-5.45455 1.53536,-1.45449 3.39394,-2.18175 5.57576,-2.18182 l 0,-0.12114 31.03029,0 0,0.12114 c 2.10097,7e-5 3.91915,0.72733 5.45454,2.18182 1.53532,1.5354 2.30298,3.35358 2.30302,5.45455 l 0,38.78788 -7.75756,0 0,-35.27272 c -0.16172,-0.88886 -0.5657,-1.65654 -1.21211,-2.30302 -0.72732,-0.80805 -1.61619,-1.2121 -2.66665,-1.21214 l -23.27274,0 c -1.13132,4e-5 -2.06061,0.40409 -2.78789,1.21214 -0.64646,0.64648 -1.0101,1.41416 -1.0909,2.30302 l 0,35.27272 -7.75757,0"
         style="font-size:56.56915665px;font-style:normal;font-variant:normal;font-weight:normal;font-stretch:normal;line-height:125%;letter-spacing:0px;word-spacing:0px;fill:#313131;fill-opacity:1;stroke:none;font-family:Cynthe;-inkscape-font-specification:Cynthe"
         id="path3826"
         inkscape:connector-curvature="0" />
      <path
         inkscape:export-ydpi="180"
         inkscape:export-xdpi="180"
         inkscape:export-filename="/home/paulo/Desktop/nemo.png"
         d="m 209.0259,502.44162 c 1.05047,3e-5 3.82322,0.004 3.82322,0.004 0.0604,-2.63836 0.0604,-5.28418 -8.9e-4,-7.92627 -0.16172,-0.88887 -0.56571,-1.65654 -1.21213,-2.30303 -0.72731,-0.80805 -1.61621,-1.21209 -2.66668,-1.21213 l -23.27271,0 c -1.13133,4e-5 -2.06061,0.40408 -2.78788,1.21213 -0.64647,0.64649 -1.0101,1.41416 -1.09091,2.30303 l -0.0453,8.00642 m 0.0453,27.26636 0,0 -0.12114,0 c -2.101,0 -3.91918,-0.72728 -5.45453,-2.18183 -1.45455,-1.53536 -2.18183,-3.39393 -2.18183,-5.57577 l 0,-31.03029 c 0,-2.10097 0.72728,-3.91914 2.18183,-5.45455 1.53535,-1.45448 3.39391,-2.18175 5.57574,-2.18182 l 0,-0.12114 31.0303,0 0,10e-4 c 2.10096,7e-5 3.91915,0.84735 5.45455,2.30183 1.5353,1.5354 2.30298,3.35358 2.30303,5.45455 l 1e-5,11.46714 c -5e-5,2.18183 -0.15975,4.45846 -2.28702,6.00981 -2.28212,1.53874 -3.72509,1.83674 -5.47323,1.89008 l -31.08219,-0.003 0.0546,8.27198 c 0.0807,0.8889 0.44444,1.6566 1.09091,2.30304 0.72727,0.72729 1.65655,1.09092 2.78788,1.0909 l 34.85759,-0.0351 0.0175,7.78431 -38.75368,0.009"
         style="font-size:56.56915665px;font-style:normal;font-variant:normal;font-weight:normal;font-stretch:normal;line-height:125%;letter-spacing:0px;word-spacing:0px;fill:#313131;fill-opacity:1;stroke:none;font-family:Cynthe;-inkscape-font-specification:Cynthe"
         id="path3828"
         inkscape:connector-curvature="0"
         sodipodi:nodetypes="cccccccccccscssccccccccccccccccc" />
      <path
         inkscape:export-ydpi="180"
         inkscape:export-xdpi="180"
         inkscape:export-filename="/home/paulo/Desktop/nemo.png"
         d="m 236.12118,529.79294 0,-38.78788 c 0,-2.10097 0.72728,-3.91915 2.18183,-5.45455 1.53533,-1.45449 3.39393,-2.18175 5.57574,-2.18182 l 0,-0.12114 54.30303,0 0,0.12114 c 2.10095,7e-5 3.91913,0.72733 5.45454,2.18182 1.53527,1.5354 2.30296,3.35358 2.30303,5.45455 l 0,38.78788 -7.75757,0 0,-35.27272 c -0.1617,-0.88886 -0.56572,-1.65654 -1.21213,-2.30302 -0.72733,-0.80805 -1.61621,-1.2121 -2.66667,-1.21214 l -19.39393,0 0,38.78788 -7.75757,0 0,-38.78788 -19.39392,0 c -1.13133,4e-5 -2.06062,0.40409 -2.7879,1.21214 -0.64646,0.64648 -1.0101,1.41416 -1.09091,2.30302 l 0,35.27272 -7.75757,0"
         style="font-size:56.56915665px;font-style:normal;font-variant:normal;font-weight:normal;font-stretch:normal;line-height:125%;letter-spacing:0px;word-spacing:0px;fill:#313131;fill-opacity:1;stroke:none;font-family:Cynthe;-inkscape-font-specification:Cynthe"
         id="path3830"
         inkscape:connector-curvature="0" />
      <path
         inkscape:export-ydpi="180"
         inkscape:export-xdpi="180"
         inkscape:export-filename="/home/paulo/Desktop/nemo.png"
         d="m 356.36358,522.03535 c 1.05045,3e-5 1.93933,-0.36361 2.66666,-1.0909 0.64642,-0.64644 1.05047,-1.41413 1.21211,-2.30304 l 0,-24.12119 c -0.16171,-0.88886 -0.56569,-1.65654 -1.21211,-2.30302 -0.72733,-0.80805 -1.61621,-1.2121 -2.66666,-1.21214 l -23.27273,0 c -1.13133,4e-5 -2.06061,0.40409 -2.78789,1.21214 -0.64646,0.64648 -1.01009,1.41416 -1.0909,2.30302 l 0,24.12119 c 0.0807,0.88891 0.44444,1.6566 1.0909,2.30304 0.72728,0.72729 1.65656,1.09093 2.78789,1.0909 l 23.27273,0 m -27.15152,7.75759 0,0 -0.12114,0 c -2.101,0 -3.91919,-0.72727 -5.45455,-2.18182 -1.45454,-1.53536 -2.18181,-3.39393 -2.18181,-5.57577 l 0,-31.03029 c 0,-2.10097 0.72727,-3.91915 2.18181,-5.45455 1.53536,-1.45449 3.39394,-2.18175 5.57576,-2.18182 l 0,-0.12114 31.0303,0 0,0.12114 c 2.10096,7e-5 3.91914,0.72733 5.45454,2.18182 1.53531,1.5354 2.30297,3.35358 2.30303,5.45455 l 0,31.03029 c -6e-5,2.18184 -0.76772,4.04041 -2.30303,5.57577 -1.5354,1.45455 -3.35358,2.18182 -5.45454,2.18182 l 0,0 0,0 -31.0303,0"
         style="font-size:56.56915665px;font-style:normal;font-variant:normal;font-weight:normal;font-stretch:normal;line-height:125%;letter-spacing:0px;word-spacing:0px;fill:#313131;fill-opacity:1;stroke:none;font-family:Cynthe;-inkscape-font-specification:Cynthe"
         id="path3832"
         inkscape:connector-curvature="0" />
      <rect
         inkscape:export-ydpi="180"
         inkscape:export-xdpi="180"
         inkscape:export-filename="/home/paulo/Desktop/nemo.png"
         ry="2.8672001"
         y="405.58878"
         x="175.7952"
         height="14.336"
         width="128"
         id="rect2989"
         style="fill:#005f96;fill-opacity:1;stroke:none" />
      <rect
         inkscape:export-ydpi="180"
         inkscape:export-xdpi="180"
         inkscape:export-filename="/home/paulo/Desktop/nemo.png"
         ry="2.8672001"
         y="428.57364"
         x="175.7952"
         height="14.336"
         width="128"
         id="rect2989-7"
         style="fill:#005f96;fill-opacity:1;stroke:none" />
      <rect
         inkscape:export-ydpi="180"
         inkscape:export-xdpi="180"
         inkscape:export-filename="/home/paulo/Desktop/nemo.png"
         ry="2.8672001"
         y="451.55719"
         x="175.7952"
         height="14.336"
         width="128"
         id="rect2989-8"
         style="fill:#005f96;fill-opacity:1;stroke:none" />
      <path
         inkscape:export-ydpi="180"
         inkscape:export-xdpi="180"
         inkscape:export-filename="/home/paulo/Desktop/nemo.png"
         transform="matrix(3.5840001,0,0,3.5840001,-458.57281,-1160.5311)"
         d="m 205,422.36218 c 0,5.52285 -4.47715,10 -10,10 -5.52285,0 -10,-4.47715 -10,-10 0,-5.52284 4.47715,-10 10,-10 5.52285,0 10,4.47716 10,10 z"
         sodipodi:ry="10"
         sodipodi:rx="10"
         sodipodi:cy="422.36218"
         sodipodi:cx="195"
         id="path3786"
         style="fill:none;stroke:#005f96;stroke-width:4;stroke-miterlimit:4;stroke-opacity:1;stroke-dasharray:none"
         sodipodi:type="arc" />
      <rect
         inkscape:export-ydpi="180"
         inkscape:export-xdpi="180"
         inkscape:export-filename="/home/paulo/Desktop/nemo.png"
         ry="2.8672001"
         y="382.61819"
         x="175.7952"
         height="14.336"
         width="128"
         id="rect2989-4"
         style="fill:#005f96;fill-opacity:1;stroke:none" />
    </g>
    <flowRoot
       xml:space="preserve"
       id="flowRoot6051"
       style="font-size:17px;font-style:normal;font-variant:normal;font-weight:normal;font-stretch:normal;line-height:125%;letter-spacing:0px;word-spacing:0px;fill:#dcdcdc;fill-opacity:1;stroke:none;font-family:Open Sans;-inkscape-font-specification:Open Sans"
       transform="translate(32,812.36218)"><flowRegion
         id="flowRegion6053"><rect
           id="rect6055"
           width="187.85715"
           height="28.571428"
           x="26.785715"
           y="211.78572"
           style="font-size:17px;fill:#dcdcdc;fill-opacity:1" /></flowRegion><flowPara
         id="flowPara6057"
         style="font-size:17px;font-weight:bold;-inkscape-font-specification:Open Sans Bold;fill:#dcdcdc;fill-opacity:1">Shutting down</flowPara></flowRoot>  </g>
</svg>
