<?xml version="1.0" encoding="UTF-8" standalone="no"?>
<!-- Created with Inkscape (http://www.inkscape.org/) -->

<svg
   xmlns:dc="http://purl.org/dc/elements/1.1/"
   xmlns:cc="http://creativecommons.org/ns#"
   xmlns:rdf="http://www.w3.org/1999/02/22-rdf-syntax-ns#"
   xmlns:svg="http://www.w3.org/2000/svg"
   xmlns="http://www.w3.org/2000/svg"
   xmlns:xlink="http://www.w3.org/1999/xlink"
   xmlns:sodipodi="http://sodipodi.sourceforge.net/DTD/sodipodi-0.dtd"
   xmlns:inkscape="http://www.inkscape.org/namespaces/inkscape"
   width="175"
   height="89"
   id="svg5403"
   version="1.1"
   inkscape:version="0.48.2 r9819"
   sodipodi:docname="graphic-shutdown-disclaimer.svg"
   inkscape:export-filename="C:\Users\Stephan\Desktop\Photoshop Zeugs\nemoux-master\boot_shutdown\graphic-shutdown-disclaimer.png"
   inkscape:export-xdpi="90"
   inkscape:export-ydpi="90">
  <defs
     id="defs5405">
    <linearGradient
       inkscape:collect="always"
       xlink:href="#linearGradient4535"
       id="linearGradient4541"
       x1="435"
       y1="782"
       x2="435"
       y2="732"
       gradientUnits="userSpaceOnUse" />
    <linearGradient
       id="linearGradient4535">
      <stop
         style="stop-color:#dcdcdc;stop-opacity:1;"
         offset="0"
         id="stop4537" />
      <stop
         style="stop-color:#dcdcdc;stop-opacity:0;"
         offset="1"
         id="stop4539" />
    </linearGradient>
    <linearGradient
       gradientTransform="matrix(0.88886288,0,0,0.89009615,-244.54329,311.76723)"
       y2="732"
       x2="435"
       y1="782"
       x1="435"
       gradientUnits="userSpaceOnUse"
       id="linearGradient5450"
       xlink:href="#linearGradient4535"
       inkscape:collect="always" />
  </defs>
  <sodipodi:namedview
     id="base"
     pagecolor="#ffffff"
     bordercolor="#666666"
     borderopacity="1.0"
     inkscape:pageopacity="0.0"
     inkscape:pageshadow="2"
     inkscape:zoom="5.6"
     inkscape:cx="48.479652"
     inkscape:cy="69.706959"
     inkscape:document-units="px"
     inkscape:current-layer="layer1"
     showgrid="true"
     inkscape:window-width="1920"
     inkscape:window-height="1148"
     inkscape:window-x="-8"
     inkscape:window-y="-8"
     inkscape:window-maximized="1">
    <inkscape:grid
       type="xygrid"
       id="grid5411"
       empspacing="5"
       visible="true"
       enabled="true"
       snapvisiblegridlinesonly="true" />
  </sodipodi:namedview>
  <metadata
     id="metadata5408">
    <rdf:RDF>
      <cc:Work
         rdf:about="">
        <dc:format>image/svg+xml</dc:format>
        <dc:type
           rdf:resource="http://purl.org/dc/dcmitype/StillImage" />
        <dc:title></dc:title>
      </cc:Work>
    </rdf:RDF>
  </metadata>
  <g
     inkscape:label="Ebene 1"
     inkscape:groupmode="layer"
     id="layer1"
     transform="translate(0,-963.36218)">
    <path
       style="fill:url(#linearGradient5450);fill-opacity:1;fill-rule:evenodd;stroke:#ffffff;stroke-width:0;stroke-linecap:round;stroke-linejoin:round;stroke-miterlimit:4;stroke-opacity:1;stroke-dasharray:none;display:inline"
       d="m 140.80654,963.37326 c -1.04321,0.12479 -1.88247,0.97555 -1.97216,2.05835 -0.1025,1.23741 0.8121,2.3179 2.0555,2.4199 1.24339,0.10201 2.34187,-0.82084 2.44437,-2.05834 l 0,-0.0552 c 0.067,-1.21578 -0.86391,-2.26423 -2.08327,-2.36427 -0.15543,-0.0125 -0.29541,-0.0178 -0.44444,0 z m -3.11102,8.70621 c -0.59268,0.0712 -1.0879,0.5531 -1.13885,1.16825 -0.0582,0.70309 0.48801,1.33283 1.1944,1.39078 0.7064,0.0579 1.33063,-0.46517 1.38886,-1.16826 l 0,-0.0552 c 0.0381,-0.69072 -0.50167,-1.27827 -1.19442,-1.33515 -0.0883,-0.009 -0.16533,-0.01 -0.24999,0 z m 4.8332,0.0276 c -1.47883,0.18247 -2.67804,1.40991 -2.80548,2.94845 -0.14564,1.75838 1.14977,3.27635 2.91658,3.42135 1.76681,0.1449 3.32649,-1.16229 3.47212,-2.92068 l 0,-0.0837 c 0.0953,-1.72759 -1.2117,-3.22349 -2.94435,-3.36564 -0.22085,-0.0178 -0.42761,-0.0258 -0.63887,0 z m -5.94428,7.31552 c -2.65136,0.0498 -4.8884,2.06948 -5.11096,4.75641 -0.23739,2.86611 1.92563,5.38254 4.80542,5.61874 2.87979,0.2363 5.40133,-1.89039 5.63872,-4.75641 l 0,-0.13913 c 0.1553,-2.8159 -1.95352,-5.24791 -4.77764,-5.47961 -0.17998,-0.0151 -0.37877,0 -0.55554,0 z m 8.19421,9.12349 c -0.73224,0.0893 -1.32625,0.69056 -1.38885,1.44636 -0.0716,0.8639 0.57645,1.6255 1.44441,1.6967 0.86795,0.071 1.62284,-0.5825 1.69439,-1.4464 l 0.0278,-0.028 c 0.0468,-0.8487 -0.59323,-1.59901 -1.4444,-1.66888 -0.1085,-0.009 -0.22871,-0.0125 -0.33333,0 z m -4.41654,5.92476 c -6.80602,0.1301 -12.56729,5.42922 -13.1385,12.37786 -0.6093,7.412 4.91371,13.9088 12.3052,14.5197 7.39149,0.611 13.89027,-4.9103 14.49957,-12.3223 l 0.0278,-0.3615 c 0.39936,-7.2963 -5.07048,-13.55786 -12.33297,-14.15816 -0.46196,-0.038 -0.90734,-0.064 -1.36107,-0.055 z m -27.27697,4.534 c -2.19337,0.015 -4.3826,0.79392 -5.1943,2.25296 -0.85879,-1.48224 -3.05722,-2.26416 -5.27762,-2.22526 -4.11214,-0.04 -7.717984,3.42986 -7.610894,6.28626 l 0,11.5435 4.972084,0 0,-11.1818 c 0.0317,-0.7038 0.86683,-1.8131 2.69436,-1.8358 1.79641,0.01 2.70828,1.1782 2.69437,1.8358 l 0.0278,11.1818 4.97207,0 0.0555,-11.1818 c 0.006,-0.795 0.8336,-1.7541 2.72214,-1.7802 1.69873,0.011 2.63845,1.1771 2.63882,1.8358 l 0,11.1262 4.97207,0 0.0278,-11.1262 c 0.0405,-3.7139 -3.28621,-6.72986 -7.69421,-6.73126 z m 56.85944,0.055 c -5.07608,-0.019 -7.69098,3.61456 -7.55533,7.17636 0,0 -0.008,0.1222 -0.0278,10.6811 l 4.9443,0 0,-11.6269 c 0.008,-0.9583 1.37755,-1.6613 2.72213,-1.6968 0.82698,0.027 1.15183,0.2405 1.97217,0.6955 l 2.99991,-3.1154 c -1.10522,-1.17924 -1.75355,-2.09846 -5.0554,-2.11386 z m -29.33248,0.58402 c 4.97223,0.051 8.82758,4.16524 8.13865,9.48514 -12.50559,0.038 -12.49962,0 -12.49962,0 -0.0239,3.8046 5.14094,5.0943 8.38864,2.0305 l 2.94435,1.502 c -0.20266,0.5243 -2.68037,3.5482 -7.30534,3.5882 -5.93993,-0.1679 -8.03358,-4.8748 -8.05532,-8.6506 0.0684,-4.4979 4.19483,-7.90404 8.38864,-7.95524 z m -0.1111,3.39344 c -1.70739,-0.016 -4.1059,1.2333 -4.08322,2.9763 l 8.13865,0 c -5.8e-4,-1.648 -2.20058,-3.0037 -4.05543,-2.9763 z m -6.36093,19.6656 c -0.80971,0.097 -1.45812,0.745 -1.52773,1.5855 -0.0796,0.9605 0.64597,1.8123 1.61106,1.8914 0.9651,0.079 1.80929,-0.6249 1.88884,-1.5854 l 0,-0.055 c 0.0521,-0.9437 -0.66463,-1.7582 -1.61107,-1.8358 -0.12063,-0.01 -0.24542,-0.013 -0.3611,0 z m 8.74974,1.9193 c -2.52255,0.047 -4.64922,1.9775 -4.86096,4.5339 -0.22586,2.7268 1.81554,5.1159 4.55542,5.3406 2.73989,0.2248 5.16288,-1.7793 5.38873,-4.5061 l 0,-0.1391 c 0.14776,-2.6791 -1.8685,-5.0089 -4.55542,-5.2293 -0.17124,-0.014 -0.35959,0 -0.52777,0 z m -0.66664,12.2666 c -0.72495,0.086 -1.32652,0.6662 -1.38884,1.4186 -0.0712,0.86 0.58032,1.6258 1.44439,1.6968 0.86407,0.071 1.62317,-0.5865 1.6944,-1.4464 l 0,-0.028 c 0.0465,-0.845 -0.59703,-1.5717 -1.4444,-1.6412 -0.108,-0.01 -0.20198,-0.012 -0.30555,0 z m -6.72202,1.0014 c -1.5074,0.1819 -2.73163,1.414 -2.86103,2.9762 -0.14789,1.7855 1.17812,3.3576 2.97213,3.5048 1.79401,0.1472 3.37979,-1.1908 3.52768,-2.9762 l 0,-0.084 c 0.0968,-1.7543 -1.21281,-3.277 -2.97214,-3.4214 -0.22425,-0.019 -0.4513,-0.026 -0.66664,0 z m 5.63872,10.0136 c -1.0367,0.124 -1.88304,0.9823 -1.97217,2.0583 -0.10185,1.2298 0.81987,2.2908 2.0555,2.3922 1.23562,0.1013 2.31474,-0.8009 2.41659,-2.0306 l 0.0278,-0.055 c 0.0667,-1.2082 -0.87154,-2.2649 -2.08327,-2.3643 -0.15445,-0.012 -0.29633,-0.018 -0.44444,0 z"
       id="path2722"
       inkscape:connector-curvature="0" />
    <flowRoot
       xml:space="preserve"
       id="flowRoot5469"
       style="font-size:16px;font-style:normal;font-variant:normal;font-weight:bold;font-stretch:normal;line-height:125%;letter-spacing:0px;word-spacing:0px;fill:#dcdcdc;fill-opacity:1;stroke:none;font-family:Open Sans;-inkscape-font-specification:Open Sans Bold"
       transform="translate(0,989.31733)"><flowRegion
         id="flowRegion5471"><rect
           id="rect5473"
           width="99.621193"
           height="19.559666"
           x="0.37880722"
           y="8.4403343"
           style="font-size:16px;font-weight:bold;fill:#dcdcdc;fill-opacity:1;-inkscape-font-specification:Open Sans Bold" /></flowRegion><flowPara
         id="flowPara5475"
         style="font-size:16px;font-weight:bold;fill:#dcdcdc;fill-opacity:1;-inkscape-font-specification:Open Sans Bold">fuelled by</flowPara></flowRoot>  </g>
</svg>
