<?xml version="1.0" encoding="UTF-8" standalone="no"?>
<!-- Created with Inkscape (http://www.inkscape.org/) -->

<svg
   xmlns:dc="http://purl.org/dc/elements/1.1/"
   xmlns:cc="http://creativecommons.org/ns#"
   xmlns:rdf="http://www.w3.org/1999/02/22-rdf-syntax-ns#"
   xmlns:svg="http://www.w3.org/2000/svg"
   xmlns="http://www.w3.org/2000/svg"
   xmlns:xlink="http://www.w3.org/1999/xlink"
   xmlns:sodipodi="http://sodipodi.sourceforge.net/DTD/sodipodi-0.dtd"
   xmlns:inkscape="http://www.inkscape.org/namespaces/inkscape"
   width="100"
   height="100"
   id="svg3839"
   version="1.1"
   inkscape:version="0.48.2 r9819"
   sodipodi:docname="icon-l-music.svg"
   inkscape:export-filename="C:\Users\Stephan\Desktop\Photoshop Zeugs\nemoux-master\icons\icon-l-music.png"
   inkscape:export-xdpi="90"
   inkscape:export-ydpi="90">
  <defs
     id="defs3841">
    <linearGradient
       id="linearGradient6074">
      <stop
         id="stop6076"
         offset="0"
         style="stop-color:#d8008c;stop-opacity:1;" />
      <stop
         id="stop6078"
         offset="1"
         style="stop-color:#b40073;stop-opacity:1;" />
    </linearGradient>
    <radialGradient
       r="14.859289"
       fy="78.052773"
       fx="77.870583"
       cy="78.052773"
       cx="77.870583"
       gradientTransform="matrix(0.51318574,0.88886378,-0.86602518,0.50000039,105.50418,-30.189985)"
       gradientUnits="userSpaceOnUse"
       id="radialGradient4378"
       xlink:href="#linearGradient5789"
       inkscape:collect="always" />
    <linearGradient
       id="linearGradient5789">
      <stop
         id="stop5791"
         offset="0"
         style="stop-color:#f7f7f7;stop-opacity:1;" />
      <stop
         id="stop5793"
         offset="1"
         style="stop-color:#d0d3d4;stop-opacity:1;" />
    </linearGradient>
    <radialGradient
       r="9.2696419"
       fy="247.4984"
       fx="122.96643"
       cy="247.4984"
       cx="122.96643"
       gradientTransform="matrix(0.28767946,0.49217265,-0.48892138,0.28577906,208.59878,116.24784)"
       gradientUnits="userSpaceOnUse"
       id="radialGradient4380"
       xlink:href="#linearGradient5862"
       inkscape:collect="always" />
    <linearGradient
       inkscape:collect="always"
       id="linearGradient5862">
      <stop
         style="stop-color:#5c5c5c;stop-opacity:1"
         offset="0"
         id="stop5864" />
      <stop
         style="stop-color:#232323;stop-opacity:1"
         offset="1"
         id="stop5866" />
    </linearGradient>
    <filter
       color-interpolation-filters="sRGB"
       inkscape:collect="always"
       id="filter5817">
      <feGaussianBlur
         inkscape:collect="always"
         stdDeviation="0.20793844"
         id="feGaussianBlur5819" />
    </filter>
    <radialGradient
       inkscape:collect="always"
       xlink:href="#linearGradient6074"
       id="radialGradient4189"
       gradientUnits="userSpaceOnUse"
       gradientTransform="matrix(0.51318574,0.88886378,-0.86602518,0.50000039,105.50418,-30.189985)"
       cx="77.870583"
       cy="78.052773"
       fx="77.870583"
       fy="78.052773"
       r="14.859289" />
  </defs>
  <sodipodi:namedview
     id="base"
     pagecolor="#ffffff"
     bordercolor="#666666"
     borderopacity="1.0"
     inkscape:pageopacity="0.0"
     inkscape:pageshadow="2"
     inkscape:zoom="8"
     inkscape:cx="71.685651"
     inkscape:cy="51.594579"
     inkscape:document-units="px"
     inkscape:current-layer="layer1"
     showgrid="true"
     inkscape:window-width="1920"
     inkscape:window-height="1148"
     inkscape:window-x="-8"
     inkscape:window-y="-8"
     inkscape:window-maximized="1">
    <inkscape:grid
       type="xygrid"
       id="grid3847"
       empspacing="5"
       visible="true"
       enabled="true"
       snapvisiblegridlinesonly="true" />
  </sodipodi:namedview>
  <metadata
     id="metadata3844">
    <rdf:RDF>
      <cc:Work
         rdf:about="">
        <dc:format>image/svg+xml</dc:format>
        <dc:type
           rdf:resource="http://purl.org/dc/dcmitype/StillImage" />
        <dc:title></dc:title>
      </cc:Work>
    </rdf:RDF>
  </metadata>
  <g
     inkscape:label="Ebene 1"
     inkscape:groupmode="layer"
     id="layer1"
     transform="translate(0,-952.36217)">
    <g
       id="g4178"
       transform="matrix(1.3793104,0,0,1.3793104,-5.172413,-393.95596)">
      <path
         sodipodi:type="arc"
         style="color:#000000;fill:url(#radialGradient4189);fill-opacity:1;fill-rule:nonzero;stroke:none;stroke-width:2;marker:none;visibility:visible;display:inline;overflow:visible;enable-background:accumulate"
         id="path6070"
         sodipodi:cx="78.078812"
         sodipodi:cy="78.223206"
         sodipodi:rx="14.859289"
         sodipodi:ry="14.859289"
         d="m 92.938101,78.223206 a 14.859289,14.859289 0 1 1 -29.718579,0 14.859289,14.859289 0 1 1 29.718579,0 z"
         transform="matrix(1.9516411,0,0,1.9516411,-112.38182,859.66698)" />
    </g>
    <g
       id="g4197"
       transform="matrix(1.0305151,0,0,1.0305151,-2.3560452,-30.759835)">
      <path
         transform="matrix(3.0496908,0,0,3.0496908,-319.02579,-4.3115589)"
         d="m 119.86493,335.35196 c 0,1.68508 -1.36602,3.05111 -3.0511,3.05111 -1.68508,0 -3.05111,-1.36603 -3.05111,-3.05111 0,-1.68508 1.36603,-3.05111 3.05111,-3.05111 1.68508,0 3.0511,1.36603 3.0511,3.05111 z"
         sodipodi:ry="3.0511074"
         sodipodi:rx="3.0511074"
         sodipodi:cy="335.35196"
         sodipodi:cx="116.81383"
         id="path6080"
         style="color:#000000;fill:#ff64c8;fill-opacity:1;fill-rule:nonzero;marker:none;visibility:visible;display:inline;overflow:visible;enable-background:accumulate"
         sodipodi:type="arc" />
      <path
         sodipodi:nodetypes="csssscsccc"
         inkscape:connector-curvature="0"
         id="path6082"
         d="M 44.273137,1021.1565 C 44.937736,1017.1685 55.21495,977.4239 57,977.36217 c 3.275529,-0.11332 3.476015,0.38629 5.21834,1.25741 3.170966,1.58543 3.754249,7.72669 7.823512,9.76139 2.650482,1.32513 6.429225,1.13819 10.66198,0.86578 4.929447,-0.31722 9.648597,0.0138 12.752506,0.0138 -9.428948,1.72437 -24.381388,7.428 -30.988683,-0.27876 -1.318538,-1.53812 -3.506772,-2.29278 -5.215941,-2.29278 l -11.250431,35.27939 z"
         style="fill:#ff64c8;fill-opacity:1" />
      <path
         sodipodi:type="arc"
         style="color:#000000;fill:#ff84d3;fill-opacity:1;fill-rule:nonzero;marker:none;visibility:visible;display:inline;overflow:visible;enable-background:accumulate"
         id="path6084"
         sodipodi:cx="116.81383"
         sodipodi:cy="335.35196"
         sodipodi:rx="3.0511074"
         sodipodi:ry="3.0511074"
         d="m 119.86493,335.35196 c 0,1.68508 -1.36602,3.05111 -3.0511,3.05111 -1.68508,0 -3.05111,-1.36603 -3.05111,-3.05111 0,-1.68508 1.36603,-3.05111 3.05111,-3.05111 1.68508,0 3.0511,1.36603 3.0511,3.05111 z"
         transform="matrix(3.0496908,0,0,3.0496908,-319.02579,-4.3115589)" />
      <path
         style="fill:#ff84d3;fill-opacity:1"
         d="M 44.273137,1021.1565 C 44.937736,1017.1685 55.21495,977.4239 57,977.36217 c 3.275529,-0.11332 3.476015,0.38629 5.21834,1.25741 3.170966,1.58543 3.754249,7.72669 7.823512,9.76139 2.650482,1.32513 6.429225,1.13819 10.66198,0.86578 4.929447,-0.31722 9.648597,0.0138 12.752506,0.0138 -9.428948,1.72437 -24.381388,7.428 -30.988683,-0.27876 -1.318538,-1.53812 -3.506772,-2.29278 -5.215941,-2.29278 l -11.250431,35.27939 z"
         id="path6086"
         inkscape:connector-curvature="0"
         sodipodi:nodetypes="csssscsccc" />
    </g>
  </g>
</svg>
