<?xml version="1.0" encoding="UTF-8" standalone="no"?>
<!-- Created with Inkscape (http://www.inkscape.org/) -->

<svg
   xmlns:dc="http://purl.org/dc/elements/1.1/"
   xmlns:cc="http://creativecommons.org/ns#"
   xmlns:rdf="http://www.w3.org/1999/02/22-rdf-syntax-ns#"
   xmlns:svg="http://www.w3.org/2000/svg"
   xmlns="http://www.w3.org/2000/svg"
   xmlns:xlink="http://www.w3.org/1999/xlink"
   xmlns:sodipodi="http://sodipodi.sourceforge.net/DTD/sodipodi-0.dtd"
   xmlns:inkscape="http://www.inkscape.org/namespaces/inkscape"
   width="100"
   height="100"
   id="svg3839"
   version="1.1"
   inkscape:version="0.48.2 r9819"
   sodipodi:docname="icon-l-flyingbus.svg"
   inkscape:export-filename="C:\Users\Stephan\Desktop\Photoshop Zeugs\nemoux-master\icons\icon-l-flyingbus.png"
   inkscape:export-xdpi="90"
   inkscape:export-ydpi="90">
  <defs
     id="defs3841">
    <linearGradient
       id="linearGradient123164">
      <stop
         id="stop123166"
         offset="0"
         style="stop-color:#f6ffd5;stop-opacity:1" />
      <stop
         id="stop123168"
         offset="1"
         style="stop-color:#ccff00;stop-opacity:1" />
    </linearGradient>
    <radialGradient
       inkscape:collect="always"
       xlink:href="#linearGradient123164"
       id="radialGradient10602"
       gradientUnits="userSpaceOnUse"
       gradientTransform="matrix(0.51318574,0.88886378,-0.86602518,0.50000039,105.50418,-30.189985)"
       cx="77.870583"
       cy="78.052773"
       fx="77.870583"
       fy="78.052773"
       r="14.859289" />
    <radialGradient
       inkscape:collect="always"
       xlink:href="#linearGradient123253"
       id="radialGradient123400"
       gradientUnits="userSpaceOnUse"
       gradientTransform="matrix(0.5174344,0.89622268,-0.873195,0.50413989,234.52776,378.68966)"
       cx="77.870583"
       cy="78.052773"
       fx="77.870583"
       fy="78.052773"
       r="14.859289" />
    <linearGradient
       id="linearGradient123253">
      <stop
         id="stop123255"
         offset="0"
         style="stop-color:#eeffaa;stop-opacity:1" />
      <stop
         id="stop123257"
         offset="1"
         style="stop-color:#ccff00;stop-opacity:1" />
    </linearGradient>
    <radialGradient
       inkscape:collect="always"
       xlink:href="#linearGradient123247"
       id="radialGradient123402"
       gradientUnits="userSpaceOnUse"
       gradientTransform="matrix(0.74956833,0.74956852,-0.70452911,0.70452937,484.4704,-25.077172)"
       cx="156.33774"
       cy="560.75702"
       fx="156.33774"
       fy="560.75702"
       r="14.897867" />
    <linearGradient
       id="linearGradient123247">
      <stop
         id="stop123249"
         offset="0"
         style="stop-color:#66ff00;stop-opacity:1" />
      <stop
         id="stop123251"
         offset="1"
         style="stop-color:#55d400;stop-opacity:1" />
    </linearGradient>
    <clipPath
       id="SVGID_2_">
      <use
         height="792"
         width="612"
         y="0"
         x="0"
         style="overflow:visible"
         id="use79"
         overflow="visible"
         xlink:href="#SVGID_1_" />
    </clipPath>
  </defs>
  <sodipodi:namedview
     id="base"
     pagecolor="#ffffff"
     bordercolor="#666666"
     borderopacity="1.0"
     inkscape:pageopacity="0.0"
     inkscape:pageshadow="2"
     inkscape:zoom="4"
     inkscape:cx="62.886044"
     inkscape:cy="53.498576"
     inkscape:document-units="px"
     inkscape:current-layer="layer1"
     showgrid="true"
     inkscape:window-width="1920"
     inkscape:window-height="1148"
     inkscape:window-x="-8"
     inkscape:window-y="-8"
     inkscape:window-maximized="1">
    <inkscape:grid
       type="xygrid"
       id="grid3847"
       empspacing="5"
       visible="true"
       enabled="true"
       snapvisiblegridlinesonly="true" />
  </sodipodi:namedview>
  <metadata
     id="metadata3844">
    <rdf:RDF>
      <cc:Work
         rdf:about="">
        <dc:format>image/svg+xml</dc:format>
        <dc:type
           rdf:resource="http://purl.org/dc/dcmitype/StillImage" />
        <dc:title></dc:title>
      </cc:Work>
    </rdf:RDF>
  </metadata>
  <g
     inkscape:label="Ebene 1"
     inkscape:groupmode="layer"
     id="layer1"
     transform="translate(0,-952.36217)">
    <g
       id="g123361"
       transform="matrix(2.6722338,0,0,2.6694473,-502.81525,-300.33593)">
      <path
         inkscape:connector-curvature="0"
         id="path123194"
         d="m 206.87383,473.01854 c -8.2745,0 -14.96875,6.69425 -14.96875,14.96875 0,1.99879 0.3834,3.91276 1.09375,5.65625 0.3483,-0.11395 0.70776,-0.1875 1.09375,-0.1875 1.96503,0 3.5625,1.59747 3.5625,3.5625 0,0.8083 -0.26376,1.55794 -0.71875,2.15625 2.64607,2.35225 6.11856,3.8125 9.9375,3.8125 3.86658,0 7.37345,-1.50142 10.03125,-3.90625 -0.41489,-0.5824 -0.65625,-1.29421 -0.65625,-2.0625 0,-1.96503 1.59747,-3.5625 3.5625,-3.5625 0.34037,0 0.65683,0.0668 0.96875,0.15625 0.70083,-1.73344 1.0625,-3.64037 1.0625,-5.625 0,-8.2745 -6.69425,-14.96875 -14.96875,-14.96875 z"
         style="color:#000000;fill:url(#radialGradient123400);fill-opacity:1;fill-rule:nonzero;stroke:none;stroke-width:1.99999988;marker:none;visibility:visible;display:inline;overflow:visible;enable-background:accumulate" />
      <path
         inkscape:connector-curvature="0"
         id="path123219"
         d="m 193.34258,481.67479 -0.34375,0.875 c -1.42538,3.70133 -1.30594,7.63075 0.0937,11.0625 0.32045,-0.0949 0.6491,-0.15625 1,-0.15625 1.96503,0 3.5625,1.59747 3.5625,3.5625 0,0.78399 -0.25705,1.50488 -0.6875,2.09375 0.53605,0.47588 1.10419,0.90894 1.71875,1.3125 2.20964,1.45099 4.48492,2.24255 7.21875,2.46875 0.24604,0.0203 0.51275,0.021 0.59375,0.0312 0.1737,0.0222 0.14481,-0.0432 -0.40625,-1.53125 -2.24834,-6.07117 -6.09739,-12.36275 -10.6875,-17.5 -0.76942,-0.86114 -1.5326,-1.70058 -1.71875,-1.875 l -0.34375,-0.34375 z m 27.15625,0.375 c -0.21017,0 -2.64397,2.74309 -4.09375,4.59375 -2.48673,3.17436 -4.4204,6.19601 -6.28125,9.9375 -0.92323,1.85629 -2.38323,5.28665 -2.5625,6.03125 l -0.0625,0.3125 0.9375,-0.0937 c 3.07513,-0.29429 5.91877,-1.5638 8.375,-3.71875 0.0218,-0.0191 0.0408,-0.0432 0.0625,-0.0625 -0.39954,-0.57566 -0.625,-1.27866 -0.625,-2.03125 0,-1.96503 1.59747,-3.5625 3.5625,-3.5625 0.30528,0 0.59207,0.0525 0.875,0.125 1.13257,-2.82192 1.39944,-6.07371 0.6875,-9.0625 -0.24768,-1.03974 -0.75229,-2.46875 -0.875,-2.46875 z"
         style="color:#000000;fill:url(#radialGradient123402);fill-opacity:1;fill-rule:nonzero;marker:none;visibility:visible;display:inline;overflow:visible;enable-background:accumulate" />
      <g
         style="fill:#5ce600;fill-opacity:1"
         transform="matrix(0.05887376,0,0,0.05887376,186.57315,455.14283)"
         id="g73">
        <defs
           id="defs75">
          <path
             id="SVGID_1_"
             d="m 280.392,305.29 25.738,57.941 26.236,-58.671 c -7.876,-2.065 -16.136,-3.171 -24.65,-3.171 -9.795,0 -18.455,1.215 -27.324,3.901 l 0,0 z m 41.674,93.717 18.038,40.366 44.591,-99.927 c -0.802,-1.096 -1.612,-2.172 -2.455,-3.228 -6.438,-7.668 -14.026,-14.325 -22.509,-19.712 l -35.743,80.182 h -32.932 l -35.573,-80.164 c -10.464,6.733 -19.561,15.412 -26.773,25.526 l 43.32,97.327 18.162,-40.369 h 31.874 l 0,-10e-4 z m -59.849,85.725 -48.933,-109.889 c -1.958,7.68 -2.895,15.542 -2.895,23.872 10e-4,37.241 21.019,69.659 51.828,86.017 l 0,0 z m 71.004,6.582 -25.849,-57.681 -25.829,58.383 c 7.945,2.047 16.146,3.083 24.437,3.083 9.142,0.001 18.521,-1.298 27.241,-3.785 l 0,0 z m 70.425,-93.879 c 0,-7.256 -0.804,-14.433 -2.373,-21.436 l -47.464,106.599 c 30.53,-17.177 49.837,-49.729 49.837,-85.163 l 0,0 z m -218.056,1.299 c 0,-67.285 54.739,-122.024 122.024,-122.024 67.285,0 122.024,54.739 122.024,122.024 0.001,67.285 -54.739,122.024 -122.024,122.024 C 240.33,520.759 185.59,466.02 185.59,398.734 l 0,0 z"
             inkscape:connector-curvature="0" />
        </defs>
        <clipPath
           id="clipPath9208">
          <use
             xlink:href="#SVGID_1_"
             overflow="visible"
             id="use9210"
             style="overflow:visible"
             x="0"
             y="0"
             width="612"
             height="792" />
        </clipPath>
        <path
           transform="translate(36.42086,62.176207)"
           clip-path="url(#SVGID_2_)"
           d="m 307.614,520.084 c -66.912,0 -121.349,-54.438 -121.349,-121.35 0,-66.912 54.437,-121.35 121.349,-121.35 66.913,0 121.351,54.438 121.351,121.35 0,66.912 -54.438,121.35 -121.351,121.35 l 0,0 z"
           id="path95"
           inkscape:connector-curvature="0"
           style="fill:#5ce600;fill-opacity:1" />
      </g>
    </g>
  </g>
</svg>
