<?xml version="1.0" encoding="UTF-8" standalone="no"?>
<!-- Created with Inkscape (http://www.inkscape.org/) -->

<svg
   xmlns:dc="http://purl.org/dc/elements/1.1/"
   xmlns:cc="http://creativecommons.org/ns#"
   xmlns:rdf="http://www.w3.org/1999/02/22-rdf-syntax-ns#"
   xmlns:svg="http://www.w3.org/2000/svg"
   xmlns="http://www.w3.org/2000/svg"
   xmlns:xlink="http://www.w3.org/1999/xlink"
   xmlns:sodipodi="http://sodipodi.sourceforge.net/DTD/sodipodi-0.dtd"
   xmlns:inkscape="http://www.inkscape.org/namespaces/inkscape"
   width="100"
   height="100"
   id="svg3839"
   version="1.1"
   inkscape:version="0.48.2 r9819"
   sodipodi:docname="icon-l-video.svg"
   inkscape:export-filename="C:\Users\Stephan\Desktop\Photoshop Zeugs\nemoux-master\icons\icon-l-video.png"
   inkscape:export-xdpi="90"
   inkscape:export-ydpi="90">
  <defs
     id="defs3841">
    <linearGradient
       id="linearGradient3882-5">
      <stop
         style="stop-color:#404040;stop-opacity:1;"
         offset="0"
         id="stop3884-1" />
      <stop
         style="stop-color:#808080;stop-opacity:1;"
         offset="1"
         id="stop3886-5" />
    </linearGradient>
    <radialGradient
       r="14.859289"
       fy="78.052773"
       fx="77.870583"
       cy="78.052773"
       cx="77.870583"
       gradientTransform="matrix(0.51318574,0.88886378,-0.86602518,0.50000039,105.50418,-30.189985)"
       gradientUnits="userSpaceOnUse"
       id="radialGradient4378"
       xlink:href="#linearGradient5789-6"
       inkscape:collect="always" />
    <linearGradient
       id="linearGradient5789-6">
      <stop
         id="stop5791-8"
         offset="0"
         style="stop-color:#f7f7f7;stop-opacity:1;" />
      <stop
         id="stop5793-8"
         offset="1"
         style="stop-color:#d0d3d4;stop-opacity:1;" />
    </linearGradient>
    <radialGradient
       r="9.2696419"
       fy="247.4984"
       fx="122.96643"
       cy="247.4984"
       cx="122.96643"
       gradientTransform="matrix(0.28767946,0.49217265,-0.48892138,0.28577906,208.59878,116.24784)"
       gradientUnits="userSpaceOnUse"
       id="radialGradient4380"
       xlink:href="#linearGradient5862"
       inkscape:collect="always" />
    <linearGradient
       id="linearGradient5862">
      <stop
         style="stop-color:#5c5c5c;stop-opacity:1"
         offset="0"
         id="stop5864" />
      <stop
         style="stop-color:#232323;stop-opacity:1"
         offset="1"
         id="stop5866" />
    </linearGradient>
    <filter
       color-interpolation-filters="sRGB"
       inkscape:collect="always"
       id="filter5817">
      <feGaussianBlur
         inkscape:collect="always"
         stdDeviation="0.20793844"
         id="feGaussianBlur5819" />
    </filter>
    <linearGradient
       y2="205.4455"
       x2="8.3037004"
       y1="189.24899"
       x1="8.3037004"
       gradientUnits="userSpaceOnUse"
       id="linearGradient5011-6">
      <stop
         id="stop5013-0"
         style="stop-color:#c2ffff;stop-opacity:1;"
         offset="0" />
      <stop
         id="stop5015-3"
         style="stop-color:#9DCAEA"
         offset="1" />
    </linearGradient>
    <radialGradient
       r="40.306797"
       fy="-930.55658"
       fx="2184.9075"
       cy="-930.55658"
       cx="2184.9075"
       gradientTransform="matrix(0.59752987,0.80194981,-0.80188328,0.59748072,133.16229,-2126.7531)"
       gradientUnits="userSpaceOnUse"
       id="radialGradient9241"
       xlink:href="#linearGradient3882-5"
       inkscape:collect="always" />
    <radialGradient
       inkscape:collect="always"
       xlink:href="#linearGradient5011-6"
       id="radialGradient9276"
       gradientUnits="userSpaceOnUse"
       gradientTransform="matrix(10.215962,-8.7059644e-6,7.4256772e-6,8.7136166,-397.61771,622.95919)"
       cx="42.347202"
       cy="43.082382"
       fx="42.347202"
       fy="43.082382"
       r="3.328125" />
    <radialGradient
       inkscape:collect="always"
       xlink:href="#linearGradient5368"
       id="radialGradient121392"
       gradientUnits="userSpaceOnUse"
       gradientTransform="matrix(0.69571049,0.69571049,-0.71296298,0.71295885,205.94475,138.87538)"
       cx="77.994781"
       cy="78.256454"
       fx="77.994781"
       fy="78.256454"
       r="14.859289" />
    <linearGradient
       id="linearGradient5368">
      <stop
         style="stop-color:#853500;stop-opacity:1;"
         offset="0"
         id="stop5370" />
      <stop
         style="stop-color:#552200;stop-opacity:1;"
         offset="1"
         id="stop5372" />
    </linearGradient>
    <radialGradient
       inkscape:collect="always"
       xlink:href="#linearGradient5368"
       id="radialGradient9369"
       gradientUnits="userSpaceOnUse"
       gradientTransform="matrix(1.8708181,1.8571619,-1.9172114,1.9032055,53.885042,708.68238)"
       cx="77.994781"
       cy="78.256454"
       fx="77.994781"
       fy="78.256454"
       r="14.859289" />
  </defs>
  <sodipodi:namedview
     id="base"
     pagecolor="#ffffff"
     bordercolor="#666666"
     borderopacity="1.0"
     inkscape:pageopacity="0.0"
     inkscape:pageshadow="2"
     inkscape:zoom="8"
     inkscape:cx="34.426854"
     inkscape:cy="57.770205"
     inkscape:document-units="px"
     inkscape:current-layer="layer1"
     showgrid="true"
     inkscape:window-width="1920"
     inkscape:window-height="1148"
     inkscape:window-x="-8"
     inkscape:window-y="-8"
     inkscape:window-maximized="1">
    <inkscape:grid
       type="xygrid"
       id="grid3847"
       empspacing="5"
       visible="true"
       enabled="true"
       snapvisiblegridlinesonly="true" />
  </sodipodi:namedview>
  <metadata
     id="metadata3844">
    <rdf:RDF>
      <cc:Work
         rdf:about="">
        <dc:format>image/svg+xml</dc:format>
        <dc:type
           rdf:resource="http://purl.org/dc/dcmitype/StillImage" />
        <dc:title></dc:title>
      </cc:Work>
    </rdf:RDF>
  </metadata>
  <g
     inkscape:label="Ebene 1"
     inkscape:groupmode="layer"
     id="layer1"
     transform="translate(0,-952.36217)">
    <path
       inkscape:connector-curvature="0"
       id="path5364"
       d="m 50,962.3622 c -10.18404,0 -19.461189,3.8242 -26.554621,10.01042 0.0081,0.19621 0,0.38014 0,0.58395 0,2.56736 -0.648471,4.67153 -1.428572,4.67153 l -3.613445,0 c -1.365862,1.71367 -2.625156,3.49788 -3.697479,5.42231 l 7.310924,0 c 0.780101,0 1.428572,2.10416 1.428572,4.67153 0,2.56737 -0.648471,4.58812 -1.428572,4.58812 l -11.008403,0 c -0.458729,1.75518 -0.792551,3.58218 -1.008403,5.4223 l 12.016806,0 c 0.780101,0 1.428572,2.10417 1.428572,4.67154 0,2.5673 -0.648471,4.5881 -1.428572,4.5881 l -12.016806,0 c 0.215395,1.865 0.543731,3.6444 1.008403,5.4223 l 11.008403,0 c 0.780101,0 1.428572,2.1041 1.428572,4.6716 0,2.5673 -0.648471,4.588 -1.428572,4.588 l -7.310924,0 c 1.05401,1.8922 2.275388,3.7336 3.613445,5.4224 l 3.697479,0 c 0.780101,0 1.428572,2.1042 1.428572,4.6715 0,0.2328 0.01076,0.4445 0,0.6674 7.093432,6.1862 16.370581,9.927 26.554621,9.927 10.226743,0 19.534118,-3.7778 26.638655,-10.0105 -0.0081,-0.1961 0,-0.3801 0,-0.5839 0,-2.5673 0.564437,-4.6715 1.344538,-4.6715 l 3.697479,0 c 1.335072,-1.6861 2.477365,-3.5337 3.529412,-5.4224 l -7.226891,0 c -0.780101,0 -1.344538,-2.0207 -1.344538,-4.588 0,-2.5675 0.564437,-4.6716 1.344538,-4.6716 l 11.008403,0 c 0.464673,-1.7779 0.793063,-3.5573 1.008404,-5.4223 l -12.016807,0 c -0.780101,0 -1.344538,-2.0208 -1.344538,-4.5881 0,-2.56737 0.564437,-4.67154 1.344538,-4.67154 l 12.016807,0 c -0.215933,-1.84012 -0.549674,-3.66712 -1.008404,-5.4223 l -11.008403,0 c -0.780101,0 -1.344538,-2.02075 -1.344538,-4.58812 0,-2.56737 0.564437,-4.67153 1.344538,-4.67153 l 7.226891,0 c -1.070575,-1.92128 -2.250272,-3.71107 -3.613446,-5.42231 l -3.613445,0 c -0.780101,0 -1.344538,-2.10417 -1.344538,-4.67153 0,-0.17459 -0.0054,-0.33137 0,-0.50052 C 69.534118,966.2234 60.226743,962.3622 50,962.3622 z"
       style="color:#000000;fill:url(#radialGradient9369);fill-opacity:1;fill-rule:nonzero;stroke:none;stroke-width:2;marker:none;visibility:visible;display:inline;overflow:visible;enable-background:accumulate" />
    <path
       sodipodi:type="star"
       style="color:#000000;fill:#ffffff;fill-opacity:1;fill-rule:nonzero;stroke:none;stroke-width:1;marker:none;visibility:visible;display:inline;overflow:visible;enable-background:accumulate"
       id="path5398"
       sodipodi:sides="3"
       sodipodi:cx="160.1488"
       sodipodi:cy="162.26144"
       sodipodi:r1="6.7185273"
       sodipodi:r2="3.3592639"
       sodipodi:arg1="0"
       sodipodi:arg2="1.0471976"
       inkscape:flatsided="true"
       inkscape:rounded="0"
       inkscape:randomized="0"
       d="m 166.86733,162.26144 -10.07779,5.81842 0,-11.63683 z"
       inkscape:transform-center-x="-1.6796319"
       transform="matrix(2.6890756,0,0,2.6890756,-383.25048,564.90374)" />
  </g>
</svg>
