<?xml version="1.0" encoding="UTF-8" standalone="no"?>
<svg width="33px" height="32px" viewBox="0 0 33 32" version="1.1" xmlns="http://www.w3.org/2000/svg" xmlns:xlink="http://www.w3.org/1999/xlink" xmlns:sketch="http://www.bohemiancoding.com/sketch/ns">
    <!-- Generator: Sketch 3.0.3 (7891) - http://www.bohemiancoding.com/sketch -->
    <title>icon-statusbar-nfc-focused</title>
    <desc>Created with Sketch.</desc>
    <defs></defs>
    <g id="Page-1" stroke="none" stroke-width="1" fill="none" fill-rule="evenodd" sketch:type="MSPage">
        <g id="statusbar_icons" sketch:type="MSArtboardGroup" transform="translate(-211.000000, -286.000000)" fill="#0091E5">
            <g id="nfc" sketch:type="MSLayerGroup" transform="translate(227.980974, 302.300220) rotate(-49.000000) translate(-227.980974, -302.300220) translate(212.173833, 286.493078)">
                <path d="M15.3051884,0.00781852196 C15.4718687,0.00261904588 15.6391994,0 15.8071418,0 C24.5371857,0 31.6142837,7.07709803 31.6142837,15.8071418 C31.6142837,24.5371857 24.5371857,31.6142837 15.8071418,31.6142837 C7.07709803,31.6142837 2.80791245e-14,24.5371857 2.80791245e-14,15.8071418 C2.80791245e-14,15.6391994 0.00261904588,15.4718687 0.00781852196,15.3051884 C0.264275339,23.2646556 6.79740215,29.638391 14.8191955,29.638391 C23.0036116,29.638391 29.638391,23.0036116 29.638391,14.8191955 C29.638391,6.79740215 23.2646556,0.264275339 15.3051884,0.00781852196 Z" id="Oval-2" sketch:type="MSShapeGroup"></path>
                <path d="M15.3320948,4.65908928 C15.4896216,4.65249132 15.6479926,4.64915937 15.8071418,4.64915937 C21.9695257,4.64915937 26.9651243,9.64475798 26.9651243,15.8071418 C26.9651243,21.9695257 21.9695257,26.9651243 15.8071418,26.9651243 C9.64475798,26.9651243 4.64915937,21.9695257 4.64915937,15.8071418 C4.64915937,15.6479926 4.65249132,15.4896216 4.65908928,15.3320948 C4.89702111,20.7699122 9.38085446,25.1054606 14.87731,25.1054606 C20.5261619,25.1054606 25.1054606,20.5261619 25.1054606,14.87731 C25.1054606,9.38085446 20.7699122,4.89702111 15.3320948,4.65908928 Z" id="Oval-2" sketch:type="MSShapeGroup"></path>
                <circle id="Oval-6" sketch:type="MSShapeGroup" cx="15.7199701" cy="15.7199701" r="5.43370501"></circle>
            </g>
        </g>
    </g>
</svg>