<?xml version="1.0" encoding="UTF-8" standalone="no"?>
<!-- Created with Inkscape (http://www.inkscape.org/) -->

<svg
   xmlns:dc="http://purl.org/dc/elements/1.1/"
   xmlns:cc="http://creativecommons.org/ns#"
   xmlns:rdf="http://www.w3.org/1999/02/22-rdf-syntax-ns#"
   xmlns:svg="http://www.w3.org/2000/svg"
   xmlns="http://www.w3.org/2000/svg"
   xmlns:xlink="http://www.w3.org/1999/xlink"
   xmlns:sodipodi="http://sodipodi.sourceforge.net/DTD/sodipodi-0.dtd"
   xmlns:inkscape="http://www.inkscape.org/namespaces/inkscape"
   width="64"
   height="64"
   id="svg4695"
   version="1.1"
   inkscape:version="0.48.2 r9819"
   sodipodi:docname="listview-icon-template-b.svg"
   inkscape:export-filename="C:\Users\Stephan\Documents\GitHub\glacier-controls-spec\listview\listview-icon-template-b.png"
   inkscape:export-xdpi="90"
   inkscape:export-ydpi="90">
  <defs
     id="defs4697">
    <linearGradient
       id="linearGradient3919-7-5">
      <stop
         style="stop-color:#ffffff;stop-opacity:1;"
         offset="0"
         id="stop3921-4-5" />
      <stop
         style="stop-color:#dcdcdc;stop-opacity:1;"
         offset="1"
         id="stop3923-0-1" />
    </linearGradient>
    <linearGradient
       y2="187.98438"
       x2="-426.48438"
       y1="125.01562"
       x1="-426.48438"
       gradientUnits="userSpaceOnUse"
       id="linearGradient4693"
       xlink:href="#linearGradient3919-7-5"
       inkscape:collect="always" />
  </defs>
  <sodipodi:namedview
     id="base"
     pagecolor="#ffffff"
     bordercolor="#666666"
     borderopacity="1.0"
     inkscape:pageopacity="0.0"
     inkscape:pageshadow="2"
     inkscape:zoom="5.6"
     inkscape:cx="-14.100533"
     inkscape:cy="32.131616"
     inkscape:document-units="px"
     inkscape:current-layer="layer1"
     showgrid="true"
     inkscape:window-width="1920"
     inkscape:window-height="1148"
     inkscape:window-x="-8"
     inkscape:window-y="-8"
     inkscape:window-maximized="1">
    <inkscape:grid
       type="xygrid"
       id="grid4720"
       empspacing="5"
       visible="false"
       enabled="true"
       snapvisiblegridlinesonly="true" />
  </sodipodi:namedview>
  <metadata
     id="metadata4700">
    <rdf:RDF>
      <cc:Work
         rdf:about="">
        <dc:format>image/svg+xml</dc:format>
        <dc:type
           rdf:resource="http://purl.org/dc/dcmitype/StillImage" />
        <dc:title></dc:title>
      </cc:Work>
    </rdf:RDF>
  </metadata>
  <g
     inkscape:label="Ebene 1"
     inkscape:groupmode="layer"
     id="layer1"
     transform="translate(0,-988.3622)">
    <path
       sodipodi:type="arc"
       style="fill:url(#linearGradient4693);fill-opacity:1;stroke:none;display:inline"
       id="path4010-94-2"
       sodipodi:cx="-427.5"
       sodipodi:cy="156.5"
       sodipodi:rx="32.5"
       sodipodi:ry="32.5"
       d="m -395,156.5 c 0,17.94925 -14.55075,32.5 -32.5,32.5 -17.94925,0 -32.5,-14.55075 -32.5,-32.5 0,-17.94925 14.55075,-32.5 32.5,-32.5 17.94925,0 32.5,14.55075 32.5,32.5 z"
       transform="matrix(0.98461538,0,0,0.98461538,452.92307,866.26989)" />
    <g
       id="g3823"
       transform="translate(0,-0.425)">
      <path
         inkscape:connector-curvature="0"
         id="rect2999"
         d="m 18.4,1014.3622 c -1.8836,0 -3.4,1.5164 -3.4,3.4 l 0,19.55 c 0,1.8836 1.5164,3.4 3.4,3.4 l 27.2,0 c 1.883599,0 3.4,-1.5164 3.4,-3.4 l 0,-19.55 c 0,-1.8836 -1.516401,-3.4 -3.4,-3.4 l -27.2,0 z m 13.175,6.375 c 2.112489,0 3.825,1.7125 3.825,3.825 0,1.3329 -0.666222,2.5027 -1.7,3.1875 l 0,3.1343 c 0,1.211 -0.94775,2.1781 -2.125,2.1781 -1.17725,0 -2.125,-0.9671 -2.125,-2.1781 l 0,-3.1343 c -1.033779,-0.6848 -1.7,-1.8547 -1.7,-3.1875 0,-2.1125 1.712511,-3.825 3.825,-3.825 z"
         style="fill:#000000;fill-opacity:1;stroke:none" />
      <path
         inkscape:connector-curvature="0"
         id="path3774"
         d="m 32,1000.8622 c -7.007113,0 -12.6875,5.8761 -12.6875,13.125 0,0.2957 0.0087,0.5841 0.02734,0.875 l 25.320312,0 c 0.01862,-0.2909 0.02734,-0.5793 0.02734,-0.875 0,-7.2489 -5.680387,-13.125 -12.6875,-13.125 z m 0,3.5 c 4.807469,0 8.695312,4.39 8.695312,9.8164 0,0.2213 0.01278,0.4385 0,0.6562 l -17.390625,0 c -0.01272,-0.2177 0,-0.4349 0,-0.6562 0,-5.4264 3.887844,-9.8164 8.695313,-9.8164 z"
         style="fill:#000000;fill-opacity:1;stroke:none" />
    </g>
  </g>
</svg>
