<?xml version="1.0" encoding="UTF-8" standalone="no"?>
<!-- Created with Inkscape (http://www.inkscape.org/) -->

<svg
   xmlns:dc="http://purl.org/dc/elements/1.1/"
   xmlns:cc="http://creativecommons.org/ns#"
   xmlns:rdf="http://www.w3.org/1999/02/22-rdf-syntax-ns#"
   xmlns:svg="http://www.w3.org/2000/svg"
   xmlns="http://www.w3.org/2000/svg"
   xmlns:xlink="http://www.w3.org/1999/xlink"
   xmlns:sodipodi="http://sodipodi.sourceforge.net/DTD/sodipodi-0.dtd"
   xmlns:inkscape="http://www.inkscape.org/namespaces/inkscape"
   width="100"
   height="100"
   id="svg3839"
   version="1.1"
   inkscape:version="0.48.2 r9819"
   sodipodi:docname="icon-app-passwords.svg"
   inkscape:export-filename="C:\Users\Stephan\Documents\GitHub\nemo-artwork\Icons\icon-app-passwords.png"
   inkscape:export-xdpi="90"
   inkscape:export-ydpi="90">
  <defs
     id="defs3841">
    <linearGradient
       id="linearGradient3882-5">
      <stop
         style="stop-color:#404040;stop-opacity:1;"
         offset="0"
         id="stop3884-1" />
      <stop
         style="stop-color:#808080;stop-opacity:1;"
         offset="1"
         id="stop3886-5" />
    </linearGradient>
    <radialGradient
       r="14.859289"
       fy="78.052773"
       fx="77.870583"
       cy="78.052773"
       cx="77.870583"
       gradientTransform="matrix(0.51318574,0.88886378,-0.86602518,0.50000039,105.50418,-30.189985)"
       gradientUnits="userSpaceOnUse"
       id="radialGradient4378"
       xlink:href="#linearGradient5789-6"
       inkscape:collect="always" />
    <linearGradient
       id="linearGradient5789-6">
      <stop
         id="stop5791-8"
         offset="0"
         style="stop-color:#f7f7f7;stop-opacity:1;" />
      <stop
         id="stop5793-8"
         offset="1"
         style="stop-color:#d0d3d4;stop-opacity:1;" />
    </linearGradient>
    <radialGradient
       r="9.2696419"
       fy="247.4984"
       fx="122.96643"
       cy="247.4984"
       cx="122.96643"
       gradientTransform="matrix(0.28767946,0.49217265,-0.48892138,0.28577906,208.59878,116.24784)"
       gradientUnits="userSpaceOnUse"
       id="radialGradient4380"
       xlink:href="#linearGradient5862"
       inkscape:collect="always" />
    <linearGradient
       id="linearGradient5862">
      <stop
         style="stop-color:#5c5c5c;stop-opacity:1"
         offset="0"
         id="stop5864" />
      <stop
         style="stop-color:#232323;stop-opacity:1"
         offset="1"
         id="stop5866" />
    </linearGradient>
    <linearGradient
       y2="205.4455"
       x2="8.3037004"
       y1="189.24899"
       x1="8.3037004"
       gradientUnits="userSpaceOnUse"
       id="linearGradient5011-6">
      <stop
         id="stop5013-0"
         style="stop-color:#c2ffff;stop-opacity:1;"
         offset="0" />
      <stop
         id="stop5015-3"
         style="stop-color:#9DCAEA"
         offset="1" />
    </linearGradient>
    <radialGradient
       r="40.306797"
       fy="-930.55658"
       fx="2184.9075"
       cy="-930.55658"
       cx="2184.9075"
       gradientTransform="matrix(0.59752987,0.80194981,-0.80188328,0.59748072,133.16229,-2126.7531)"
       gradientUnits="userSpaceOnUse"
       id="radialGradient9241"
       xlink:href="#linearGradient3882-5"
       inkscape:collect="always" />
    <radialGradient
       inkscape:collect="always"
       xlink:href="#linearGradient5011-6"
       id="radialGradient9276"
       gradientUnits="userSpaceOnUse"
       gradientTransform="matrix(10.215962,-8.7059644e-6,7.4256772e-6,8.7136166,-397.61771,622.95919)"
       cx="42.347202"
       cy="43.082382"
       fx="42.347202"
       fy="43.082382"
       r="3.328125" />
    <radialGradient
       inkscape:collect="always"
       xlink:href="#linearGradient5368"
       id="radialGradient121392"
       gradientUnits="userSpaceOnUse"
       gradientTransform="matrix(0.69571049,0.69571049,-0.71296298,0.71295885,205.94475,138.87538)"
       cx="77.994781"
       cy="78.256454"
       fx="77.994781"
       fy="78.256454"
       r="14.859289" />
    <linearGradient
       id="linearGradient5368">
      <stop
         style="stop-color:#853500;stop-opacity:1;"
         offset="0"
         id="stop5370" />
      <stop
         style="stop-color:#552200;stop-opacity:1;"
         offset="1"
         id="stop5372" />
    </linearGradient>
    <radialGradient
       inkscape:collect="always"
       xlink:href="#linearGradient5368"
       id="radialGradient9369"
       gradientUnits="userSpaceOnUse"
       gradientTransform="matrix(1.8708181,1.8571619,-1.9172114,1.9032055,53.885042,708.68238)"
       cx="77.994781"
       cy="78.256454"
       fx="77.994781"
       fy="78.256454"
       r="14.859289" />
    <radialGradient
       r="14.859289"
       fy="78.052773"
       fx="77.870583"
       cy="78.052773"
       cx="77.870583"
       gradientTransform="matrix(0.49351205,0.85478796,-0.83282491,0.48083218,187.84251,223.01091)"
       gradientUnits="userSpaceOnUse"
       id="radialGradient4469"
       xlink:href="#linearGradient6104"
       inkscape:collect="always" />
    <linearGradient
       id="linearGradient6104">
      <stop
         id="stop6106"
         offset="0"
         style="stop-color:#ebebeb;stop-opacity:1;" />
      <stop
         id="stop6108"
         offset="1"
         style="stop-color:#cfd1d1;stop-opacity:1;" />
    </linearGradient>
    <radialGradient
       inkscape:collect="always"
       xlink:href="#linearGradient6104"
       id="radialGradient9419"
       gradientUnits="userSpaceOnUse"
       gradientTransform="matrix(1.34933,2.3371077,-2.2770576,1.3146612,122.69994,714.38791)"
       cx="77.870583"
       cy="78.052773"
       fx="77.870583"
       fy="78.052773"
       r="14.859289" />
    <radialGradient
       inkscape:collect="always"
       xlink:href="#linearGradient5368"
       id="radialGradient9423"
       gradientUnits="userSpaceOnUse"
       gradientTransform="matrix(1.968526,1.9541564,-2.0173423,2.0026049,56.177042,691.25517)"
       cx="77.994781"
       cy="78.256454"
       fx="77.994781"
       fy="78.256454"
       r="14.859289" />
    <linearGradient
       id="linearGradient5789">
      <stop
         style="stop-color:#f7f7f7;stop-opacity:1;"
         offset="0"
         id="stop5791" />
      <stop
         style="stop-color:#d0d3d4;stop-opacity:1;"
         offset="1"
         id="stop5793" />
    </linearGradient>
    <radialGradient
       r="14.859289"
       fy="78.052773"
       fx="77.870583"
       cy="78.052773"
       cx="77.870583"
       gradientTransform="matrix(0.51318574,0.88886378,-0.86602518,0.50000039,105.50418,-30.189985)"
       gradientUnits="userSpaceOnUse"
       id="radialGradient5970"
       xlink:href="#linearGradient5789"
       inkscape:collect="always" />
    <radialGradient
       r="14.859289"
       fy="78.052773"
       fx="77.870583"
       cy="78.052773"
       cx="77.870583"
       gradientTransform="matrix(0.51318574,0.88886378,-0.86602518,0.50000039,105.50418,-30.189985)"
       gradientUnits="userSpaceOnUse"
       id="radialGradient4479"
       xlink:href="#linearGradient6400"
       inkscape:collect="always" />
    <linearGradient
       id="linearGradient6400">
      <stop
         style="stop-color:#99e4e9;stop-opacity:1"
         offset="0"
         id="stop6402" />
      <stop
         style="stop-color:#60a4b7;stop-opacity:1"
         offset="1"
         id="stop6404" />
    </linearGradient>
    <radialGradient
       r="14.859289"
       fy="78.052773"
       fx="77.870583"
       cy="78.052773"
       cx="77.870583"
       gradientTransform="matrix(0.51318574,0.88886378,-0.86602518,0.50000039,105.50418,-30.189985)"
       gradientUnits="userSpaceOnUse"
       id="radialGradient4494"
       xlink:href="#linearGradient6059-7"
       inkscape:collect="always" />
    <linearGradient
       id="linearGradient6059-7">
      <stop
         style="stop-color:#ffffff;stop-opacity:1;"
         offset="0"
         id="stop6061-8" />
      <stop
         style="stop-color:#edeeee;stop-opacity:1;"
         offset="1"
         id="stop6063-1" />
    </linearGradient>
    <radialGradient
       r="14.859289"
       fy="78.052773"
       fx="77.870583"
       cy="78.052773"
       cx="77.870583"
       gradientTransform="matrix(0.51318574,0.88886378,-0.86602518,0.50000039,105.50418,-30.189985)"
       gradientUnits="userSpaceOnUse"
       id="radialGradient4513"
       xlink:href="#linearGradient4224"
       inkscape:collect="always" />
    <linearGradient
       id="linearGradient4224">
      <stop
         id="stop4226"
         offset="0"
         style="stop-color:#fa9b39;stop-opacity:1" />
      <stop
         id="stop4228"
         offset="1"
         style="stop-color:#e4722e;stop-opacity:1" />
    </linearGradient>
    <radialGradient
       r="14.859289"
       fy="78.052773"
       fx="77.870583"
       cy="78.052773"
       cx="77.870583"
       gradientTransform="matrix(0.51318574,0.88886378,-0.86602518,0.50000039,105.50418,-30.189985)"
       gradientUnits="userSpaceOnUse"
       id="radialGradient4393"
       xlink:href="#linearGradient4395"
       inkscape:collect="always" />
    <linearGradient
       id="linearGradient4395">
      <stop
         style="stop-color:#778acb;stop-opacity:1"
         offset="0"
         id="stop4397" />
      <stop
         style="stop-color:#3d539f;stop-opacity:1"
         offset="1"
         id="stop4399" />
    </linearGradient>
    <radialGradient
       inkscape:collect="always"
       xlink:href="#linearGradient121048"
       id="radialGradient121133"
       gradientUnits="userSpaceOnUse"
       gradientTransform="matrix(0.71774999,0.71774999,-0.70710768,0.70710589,397.1335,11.624629)"
       cx="183.15648"
       cy="488.52191"
       fx="183.15648"
       fy="488.52191"
       r="100.34939" />
    <linearGradient
       inkscape:collect="always"
       id="linearGradient121048">
      <stop
         style="stop-color:#5f666d;stop-opacity:1"
         offset="0"
         id="stop121050" />
      <stop
         style="stop-color:#030308;stop-opacity:1"
         offset="1"
         id="stop121052" />
    </linearGradient>
    <filter
       height="1.6481752"
       y="-0.32408759"
       width="1.6481752"
       x="-0.32408759"
       id="filter4655-4"
       inkscape:collect="always"
       color-interpolation-filters="sRGB">
      <feGaussianBlur
         id="feGaussianBlur4657-9"
         stdDeviation="0.54916026"
         inkscape:collect="always" />
    </filter>
    <radialGradient
       inkscape:collect="always"
       xlink:href="#linearGradient4759"
       id="radialGradient121135"
       gradientUnits="userSpaceOnUse"
       gradientTransform="matrix(0.71774999,0.71774999,-0.70710768,0.70710589,397.1335,11.624629)"
       cx="183.15648"
       cy="488.52191"
       fx="183.15648"
       fy="488.52191"
       r="100.34939" />
    <linearGradient
       id="linearGradient4759"
       inkscape:collect="always">
      <stop
         id="stop4761"
         offset="0"
         style="stop-color:#363a3e;stop-opacity:1" />
      <stop
         id="stop4763"
         offset="1"
         style="stop-color:#030308;stop-opacity:1" />
    </linearGradient>
  </defs>
  <sodipodi:namedview
     id="base"
     pagecolor="#ffffff"
     bordercolor="#666666"
     borderopacity="1.0"
     inkscape:pageopacity="0.0"
     inkscape:pageshadow="2"
     inkscape:zoom="5.6568542"
     inkscape:cx="27.729682"
     inkscape:cy="55.636949"
     inkscape:document-units="px"
     inkscape:current-layer="layer1"
     showgrid="true"
     inkscape:window-width="1920"
     inkscape:window-height="1148"
     inkscape:window-x="-8"
     inkscape:window-y="-8"
     inkscape:window-maximized="1">
    <inkscape:grid
       type="xygrid"
       id="grid3847"
       empspacing="5"
       visible="true"
       enabled="true"
       snapvisiblegridlinesonly="true" />
  </sodipodi:namedview>
  <metadata
     id="metadata3844">
    <rdf:RDF>
      <cc:Work
         rdf:about="">
        <dc:format>image/svg+xml</dc:format>
        <dc:type
           rdf:resource="http://purl.org/dc/dcmitype/StillImage" />
        <dc:title></dc:title>
      </cc:Work>
    </rdf:RDF>
  </metadata>
  <g
     inkscape:label="Ebene 1"
     inkscape:groupmode="layer"
     id="layer1"
     transform="translate(0,-952.36217)">
    <path
       transform="matrix(0.39860732,0,0,0.39860732,-21.94696,806.88034)"
       d="m 279.52724,490.41205 a 99.031403,99.031403 0 1 1 -198.062808,0 99.031403,99.031403 0 1 1 198.062808,0 z"
       sodipodi:ry="99.031403"
       sodipodi:rx="99.031403"
       sodipodi:cy="490.41205"
       sodipodi:cx="180.49583"
       id="path4757"
       style="color:#000000;fill:url(#radialGradient121133);fill-opacity:1;fill-rule:nonzero;stroke:none;stroke-width:3.03144383;marker:none;visibility:visible;display:inline;overflow:visible;filter:url(#filter4655-4);enable-background:accumulate"
       sodipodi:type="arc" />
    <use
       height="1052.3622"
       width="744.09448"
       y="0"
       x="0"
       xlink:href="#rect4767"
       transform="matrix(-0.04031956,0.34546758,-0.34546758,-0.04031956,230.09867,1139.1226)"
       id="use1700" />
    <use
       height="1052.3622"
       width="744.09448"
       y="0"
       x="0"
       xlink:href="#rect4767"
       transform="matrix(-0.09623331,0.33423481,-0.33423481,-0.09623331,205.39186,1166.5009)"
       id="use9534" />
    <use
       height="1052.3622"
       width="744.09448"
       y="0"
       x="0"
       xlink:href="#rect4767"
       transform="matrix(-0.14900721,0.31427817,-0.31427817,-0.14900721,176.87987,1189.3182)"
       id="use8946" />
    <use
       height="1052.3622"
       width="744.09448"
       y="0"
       x="0"
       xlink:href="#rect4767"
       transform="matrix(-0.19766908,0.28618338,-0.28618338,-0.19766908,145.20118,1207.1946)"
       id="use3362" />
    <use
       height="1052.3622"
       width="744.09448"
       y="0"
       x="0"
       xlink:href="#rect4767"
       transform="matrix(-0.27202016,0.21674572,-0.21674572,-0.27202016,81.278918,1226.4478)"
       id="use3221" />
    <use
       height="1052.3622"
       width="744.09448"
       y="0"
       x="0"
       xlink:href="#rect4767"
       transform="matrix(-0.30406732,0.1688682,-0.1688682,-0.30406732,44.107363,1228.4009)"
       id="use2556" />
    <use
       height="1052.3622"
       width="744.09448"
       y="0"
       x="0"
       xlink:href="#rect4767"
       transform="matrix(-0.32772799,0.11648143,-0.11648143,-0.32772799,7.2150004,1224.2564)"
       id="use3554" />
    <use
       height="1052.3622"
       width="744.09448"
       y="0"
       x="0"
       xlink:href="#rect4767"
       transform="matrix(-0.34230895,0.06163239,-0.06163239,-0.34230895,-28.106175,1214.3119)"
       id="use0436" />
    <use
       height="1052.3622"
       width="744.09448"
       y="0"
       x="0"
       xlink:href="#rect4767"
       transform="matrix(-0.34558515,-0.03930495,0.03930495,-0.34558515,-86.516467,1182.8513)"
       id="use6417" />
    <use
       height="1052.3622"
       width="744.09448"
       y="0"
       x="0"
       xlink:href="#rect4767"
       transform="matrix(-0.33465638,-0.09475712,0.09475712,-0.33465638,-113.77686,1158.4091)"
       id="use2158" />
    <use
       height="1052.3622"
       width="744.09448"
       y="0"
       x="0"
       xlink:href="#rect4767"
       transform="matrix(-0.3146086,-0.14830668,0.14830668,-0.3146086,-136.91143,1129.5723)"
       id="use8727" />
    <use
       height="1052.3622"
       width="744.09448"
       y="0"
       x="0"
       xlink:href="#rect4767"
       transform="matrix(-0.28574164,-0.1983056,0.1983056,-0.28574164,-155.1357,1097.073)"
       id="use8020" />
    <use
       height="1052.3622"
       width="744.09448"
       y="0"
       x="0"
       xlink:href="#rect4767"
       transform="matrix(-0.2157878,-0.27278121,0.27278121,-0.2157878,-174.24007,1032.8336)"
       id="use7524" />
    <use
       height="1052.3622"
       width="744.09448"
       y="0"
       x="0"
       xlink:href="#rect4767"
       transform="matrix(-0.16901429,-0.30398697,0.30398697,-0.16901429,-176.14805,996.43411)"
       id="use2529" />
    <use
       height="1052.3622"
       width="744.09448"
       y="0"
       x="0"
       xlink:href="#rect4767"
       transform="matrix(-0.11777918,-0.32726433,0.32726433,-0.11777918,-172.18084,960.18712)"
       id="use6680" />
    <use
       height="1052.3622"
       width="744.09448"
       y="0"
       x="0"
       xlink:href="#rect4767"
       transform="matrix(-0.06298822,-0.34206165,0.34206165,-0.06298822,-162.32782,924.81406)"
       id="use1844" />
    <path
       style="color:#000000;fill:#e6eaed;fill-opacity:1;fill-rule:nonzero;stroke:none;stroke-width:3.03144383;marker:none;visibility:visible;display:inline;overflow:visible;enable-background:accumulate"
       d="m 14.141973,1003.4974 c 0.0046,0.3804 0.36151,0.7202 0.741697,0.706 l 8.808644,-0.3159 c 0.372546,-0.011 0.702514,-0.3573 0.694617,-0.7299 l -0.02507,-0.5377 c -0.0043,-0.3727 -0.345844,-0.7083 -0.718534,-0.7064 l -8.812691,0.073 c -0.38045,-0 -0.725903,0.3499 -0.717785,0.7303 z"
       id="path121056"
       inkscape:connector-curvature="0"
       sodipodi:nodetypes="ccccccccc"
       inkscape:transform-center-x="75.622066" />
    <use
       height="1052.3622"
       width="744.09448"
       y="0"
       x="0"
       xlink:href="#rect4767"
       transform="matrix(0.04031956,-0.34546758,0.34546758,0.04031956,-130.09373,865.26722)"
       id="use2460" />
    <use
       height="1052.3622"
       width="744.09448"
       y="0"
       x="0"
       xlink:href="#rect4767"
       transform="matrix(0.09623331,-0.33423481,0.33423481,0.09623331,-105.33188,837.90001)"
       id="use0978" />
    <use
       height="1052.3622"
       width="744.09448"
       y="0"
       x="0"
       xlink:href="#rect4767"
       transform="matrix(0.14900721,-0.31427817,0.31427817,0.14900721,-76.767951,815.10229)"
       id="use9254" />
    <use
       height="1052.3622"
       width="744.09448"
       y="0"
       x="0"
       xlink:href="#rect4767"
       transform="matrix(0.19766908,-0.28618338,0.28618338,0.19766908,-45.041368,797.25362)"
       id="use2525" />
    <use
       height="1052.3622"
       width="744.09448"
       y="0"
       x="0"
       xlink:href="#rect4767"
       transform="matrix(0.27902403,-0.2076514,0.2076514,0.27902403,25.460357,777.84601)"
       id="use2583" />
    <use
       height="1052.3622"
       width="744.09448"
       y="0"
       x="0"
       xlink:href="#rect4767"
       transform="matrix(0.30406732,-0.1688682,0.1688682,0.30406732,56.157182,776.1628)"
       id="use8790" />
    <use
       height="1052.3622"
       width="744.09448"
       y="0"
       x="0"
       xlink:href="#rect4767"
       transform="matrix(0.32772799,-0.11648143,0.11648143,0.32772799,93.072836,780.35882)"
       id="use3355" />
    <use
       height="1052.3622"
       width="744.09448"
       y="0"
       x="0"
       xlink:href="#rect4767"
       transform="matrix(0.34230895,-0.06163239,0.06163239,0.34230895,128.40836,790.35735)"
       id="use8524" />
    <use
       height="1052.3622"
       width="744.09448"
       y="0"
       x="0"
       xlink:href="#rect4767"
       transform="matrix(0.34412914,0.05048728,-0.05048728,0.34412914,191.4944,826.286)"
       id="use7225" />
    <use
       height="1052.3622"
       width="744.09448"
       y="0"
       x="0"
       xlink:href="#rect4767"
       transform="matrix(0.33137462,0.10566223,-0.10566223,0.33137462,218.01439,851.527)"
       id="use0642" />
    <use
       height="1052.3622"
       width="744.09448"
       y="0"
       x="0"
       xlink:href="#rect4767"
       transform="matrix(0.3146086,0.14830668,-0.14830668,0.3146086,237.18635,875.3036)"
       id="use2674" />
    <use
       height="1052.3622"
       width="744.09448"
       y="0"
       x="0"
       xlink:href="#rect4767"
       transform="matrix(0.28574164,0.1983056,-0.1983056,0.28574164,255.3822,907.85205)"
       id="use1876" />
    <use
       height="1052.3622"
       width="744.09448"
       y="0"
       x="0"
       xlink:href="#rect4767"
       transform="matrix(0.20683192,0.27963273,-0.27963273,0.20683192,274.61462,978.55816)"
       id="use2908" />
    <use
       height="1052.3622"
       width="744.09448"
       y="0"
       x="0"
       xlink:href="#rect4767"
       transform="matrix(0.15909666,0.30929309,-0.30929309,0.15909666,275.45039,1014.9184)"
       id="use9404" />
    <use
       height="1052.3622"
       width="744.09448"
       y="0"
       x="0"
       xlink:href="#rect4767"
       transform="matrix(0.11777918,0.32726433,-0.32726433,0.11777918,272.26202,1044.8649)"
       id="use1005" />
    <use
       height="1052.3622"
       width="744.09448"
       y="0"
       x="0"
       xlink:href="#rect4767"
       transform="matrix(0.06298822,0.34206165,-0.34206165,0.06298822,262.35507,1080.2525)"
       id="use5029" />
    <path
       sodipodi:type="arc"
       style="color:#000000;fill:url(#radialGradient121135);fill-opacity:1;fill-rule:nonzero;stroke:none;stroke-width:3.03144383;marker:none;visibility:visible;display:inline;overflow:visible;filter:url(#filter4655-4);enable-background:accumulate"
       id="path120954"
       sodipodi:cx="180.49583"
       sodipodi:cy="490.41205"
       sodipodi:rx="99.031403"
       sodipodi:ry="99.031403"
       d="m 279.52724,490.41205 a 99.031403,99.031403 0 1 1 -198.062808,0 99.031403,99.031403 0 1 1 198.062808,0 z"
       transform="matrix(0.16059869,0,0,0.16059869,21.012609,923.60264)" />
    <g
       style="font-size:7.38209677px;font-style:normal;font-variant:normal;font-weight:normal;font-stretch:normal;line-height:125%;letter-spacing:0px;word-spacing:0px;fill:#ffffff;fill-opacity:1;stroke:none;font-family:ocrb;-inkscape-font-specification:ocrb"
       id="text120962">
      <path
         d="m 49.120291,979.10985 c 0.370064,10e-6 0.655423,0.0433 0.856078,0.12977 0.20065,0.0865 0.349036,0.23189 0.445161,0.43614 0.216269,0.44697 0.324405,1.12943 0.324409,2.04738 -4e-6,1.15105 -0.148992,1.89239 -0.446963,2.224 -0.225888,0.24992 -0.66444,0.37488 -1.315657,0.37488 -0.675252,0 -1.10299,-0.16701 -1.283216,-0.50104 -0.235497,-0.43734 -0.353246,-1.14864 -0.353245,-2.13388 -10e-7,-0.98764 0.117748,-1.68452 0.353245,-2.09064 0.09852,-0.17061 0.260126,-0.29436 0.48481,-0.37126 0.224682,-0.0769 0.536474,-0.11534 0.935378,-0.11535 z m -0.01442,0.64882 c -0.259529,0 -0.449968,0.0138 -0.571319,0.0414 -0.121355,0.0276 -0.209666,0.0775 -0.264934,0.14959 -0.06488,0.0841 -0.121354,0.29738 -0.169413,0.63981 -0.04806,0.34243 -0.07209,0.70709 -0.07209,1.09397 -10e-7,0.32201 0.01862,0.65363 0.05587,0.99486 0.03725,0.34123 0.0799,0.57312 0.127961,0.69567 0.04566,0.11775 0.125557,0.20066 0.239702,0.24872 0.114142,0.0481 0.288962,0.0721 0.524461,0.0721 0.271539,0 0.473994,-0.018 0.607365,-0.0541 0.133365,-0.0361 0.222877,-0.0961 0.268538,-0.18023 0.144178,-0.27394 0.216269,-0.80862 0.216272,-1.60402 -3e-6,-0.46859 -0.02403,-0.88251 -0.07209,-1.24176 -0.04806,-0.35925 -0.111743,-0.58814 -0.19104,-0.68667 -0.05047,-0.0649 -0.12496,-0.10933 -0.223482,-0.13337 -0.09853,-0.024 -0.257126,-0.036 -0.475799,-0.036 z"
         style=""
         id="path3165" />
    </g>
    <g
       transform="matrix(0.70710678,0.70710678,-0.70710678,0.70710678,0,0)"
       inkscape:transform-center-x="-37.063703"
       inkscape:transform-center-y="-37.063681"
       style="font-size:7.38209677px;font-style:normal;font-variant:normal;font-weight:normal;font-stretch:normal;line-height:125%;letter-spacing:0px;word-spacing:0px;fill:#ffffff;fill-opacity:1;stroke:none;font-family:ocrb;-inkscape-font-specification:ocrb"
       id="text120966">
      <path
         d="m 742.67657,650.67803 -0.0865,1.02008 0.18383,-0.004 c 0.62478,0 1.1114,0.14298 1.45984,0.42894 0.34843,0.28596 0.52265,0.68486 0.52266,1.1967 -10e-6,0.74735 -0.36527,1.28082 -1.09578,1.60042 -0.40131,0.17542 -0.98885,0.26313 -1.76262,0.26313 l 0,-0.61998 0.0757,0 0.36046,0.004 c 0.21146,0 0.41091,-0.018 0.59835,-0.0541 0.35324,-0.0721 0.62839,-0.21327 0.82544,-0.42354 0.19704,-0.21026 0.29557,-0.46919 0.29557,-0.77678 0,-0.65362 -0.42173,-0.98043 -1.26519,-0.98043 -0.20186,0 -0.38088,0.008 -0.53708,0.0252 l -0.25592,0.0288 c -0.012,0.002 -0.0445,0.006 -0.0973,0.0108 l 0.15499,-2.35737 2.56643,0 0,0.63801 z"
         style=""
         id="path3168" />
    </g>
    <g
       transform="matrix(0,1,-1,0,0,0)"
       inkscape:transform-center-x="-52.415973"
       style="font-size:7.38209677px;font-style:normal;font-variant:normal;font-weight:normal;font-stretch:normal;text-indent:0;text-align:center;text-decoration:none;line-height:125%;letter-spacing:-1.59442925px;word-spacing:0px;text-transform:none;direction:ltr;block-progression:tb;writing-mode:lr-tb;text-anchor:middle;baseline-shift:baseline;color:#000000;fill:#ffffff;fill-opacity:1;fill-rule:nonzero;stroke:none;marker:none;visibility:visible;display:inline;overflow:visible;enable-background:accumulate;font-family:ocrb;-inkscape-font-specification:ocrb"
       id="text120970">
      <path
         d="m 999.34012,-71.906816 -1.30124,1.124616 0,-0.872298 1.23636,-1.038108 0.76776,0 0,5.096819 -0.70288,0 z"
         style="marker:none"
         id="path3171" />
      <path
         d="m 1002.3271,-72.750278 c 0.37,5e-6 0.6554,0.04326 0.856,0.129763 0.2007,0.08651 0.3491,0.231897 0.4452,0.436149 0.2163,0.446967 0.3244,1.129426 0.3244,2.047379 0,1.151051 -0.149,1.892384 -0.447,2.224 -0.2258,0.249915 -0.6644,0.374873 -1.3156,0.374873 -0.6753,0 -1.103,-0.167011 -1.2832,-0.501031 -0.2355,-0.43735 -0.3533,-1.148645 -0.3533,-2.133888 0,-0.98764 0.1178,-1.684517 0.3533,-2.090633 0.099,-0.17061 0.2601,-0.294365 0.4848,-0.371267 0.2247,-0.07689 0.5365,-0.11534 0.9354,-0.115345 z m -0.014,0.648817 c -0.2595,4e-6 -0.4499,0.01382 -0.5713,0.04145 -0.1213,0.02764 -0.2096,0.0775 -0.2649,0.149588 -0.065,0.08411 -0.1214,0.297379 -0.1694,0.639806 -0.048,0.342435 -0.072,0.707093 -0.072,1.093978 0,0.322007 0.019,0.653625 0.056,0.994853 0.037,0.341231 0.08,0.573122 0.1279,0.695676 0.046,0.117749 0.1256,0.200653 0.2397,0.248713 0.1142,0.04806 0.289,0.07209 0.5245,0.07209 0.2715,0 0.474,-0.01802 0.6073,-0.05407 0.1334,-0.03604 0.2229,-0.09612 0.2686,-0.180227 0.1442,-0.273944 0.2163,-0.808617 0.2163,-1.60402 0,-0.468588 -0.024,-0.882509 -0.072,-1.241764 -0.048,-0.359249 -0.1118,-0.588137 -0.1911,-0.686665 -0.05,-0.06488 -0.1249,-0.109333 -0.2235,-0.133368 -0.099,-0.02403 -0.2571,-0.03604 -0.4758,-0.03605 z"
         style="marker:none"
         id="path3173" />
    </g>
    <g
       transform="matrix(-0.70710678,0.70710678,-0.70710678,-0.70710678,0,0)"
       inkscape:transform-center-x="-37.063699"
       inkscape:transform-center-y="37.063719"
       style="font-size:7.38209677px;font-style:normal;font-variant:normal;font-weight:normal;font-stretch:normal;text-indent:0;text-align:center;text-decoration:none;line-height:125%;letter-spacing:-1.59442925px;word-spacing:0px;text-transform:none;direction:ltr;block-progression:tb;writing-mode:lr-tb;text-anchor:middle;baseline-shift:baseline;color:#000000;fill:#ffffff;fill-opacity:1;fill-rule:nonzero;stroke:none;marker:none;visibility:visible;display:inline;overflow:visible;enable-background:accumulate;font-family:ocrb;-inkscape-font-specification:ocrb"
       id="text120974">
      <path
         d="m 671.44614,-766.18035 -1.30124,1.12461 0,-0.8723 1.23636,-1.0381 0.76777,0 0,5.09682 -0.70289,0 z"
         style="marker:none"
         id="path3176" />
      <path
         d="m 673.71578,-766.32814 -0.0865,1.02009 0.18383,-0.004 c 0.62478,0 1.1114,0.14298 1.45984,0.42894 0.34843,0.28596 0.52265,0.68487 0.52266,1.19671 -1e-5,0.74734 -0.36527,1.28081 -1.09578,1.60041 -0.40131,0.17542 -0.98885,0.26314 -1.76262,0.26314 l 0,-0.61999 0.0757,0 0.36046,0.004 c 0.21146,0 0.41091,-0.018 0.59835,-0.0541 0.35324,-0.0721 0.62839,-0.21327 0.82544,-0.42353 0.19704,-0.21027 0.29557,-0.46919 0.29557,-0.77678 0,-0.65362 -0.42173,-0.98043 -1.26519,-0.98044 -0.20186,1e-5 -0.38088,0.008 -0.53708,0.0252 l -0.25592,0.0288 c -0.012,0.002 -0.0445,0.006 -0.0973,0.0108 l 0.15499,-2.35737 2.56643,0 0,0.638 z"
         style="marker:none"
         id="path3178" />
    </g>
    <g
       transform="scale(-1,-1)"
       inkscape:transform-center-x="2.0592586e-005"
       inkscape:transform-center-y="52.415988"
       style="font-size:7.38209677px;font-style:normal;font-variant:normal;font-weight:normal;font-stretch:normal;text-indent:0;text-align:center;text-decoration:none;line-height:125%;letter-spacing:-1.59442925px;word-spacing:0px;text-transform:none;direction:ltr;block-progression:tb;writing-mode:lr-tb;text-anchor:middle;baseline-shift:baseline;color:#000000;fill:#ffffff;fill-opacity:1;fill-rule:nonzero;stroke:none;marker:none;visibility:visible;display:inline;overflow:visible;enable-background:accumulate;font-family:ocrb;-inkscape-font-specification:ocrb"
       id="text120978">
      <path
         d="m -52.644364,-1021.1005 2.314115,0 0,0.6524 -2.995373,0 c -0.01922,-0.1851 -0.02884,-0.3208 -0.02884,-0.4073 -10e-7,-0.4566 0.06849,-0.8255 0.205459,-1.1066 0.108135,-0.2211 0.250514,-0.4176 0.427138,-0.5894 0.176621,-0.1718 0.442756,-0.3694 0.798405,-0.5929 0.377273,-0.2403 0.631393,-0.4338 0.76236,-0.5803 0.130962,-0.1466 0.196445,-0.31 0.196448,-0.4903 -3e-6,-0.209 -0.08051,-0.3923 -0.241505,-0.5497 -0.161005,-0.1573 -0.349642,-0.236 -0.565912,-0.2361 -0.480607,10e-5 -0.976832,0.1779 -1.488675,0.5335 l 0,-0.7569 c 0.398901,-0.2812 0.862685,-0.4218 1.391352,-0.4218 0.487812,0 0.877703,0.1274 1.169673,0.3821 0.291964,0.2547 0.437948,0.5936 0.437952,1.0165 -4e-6,0.3052 -0.0757,0.5719 -0.227086,0.8002 -0.09372,0.1442 -0.20366,0.2673 -0.329816,0.3695 -0.126161,0.1021 -0.395901,0.2865 -0.809219,0.5533 -0.360456,0.2355 -0.619982,0.4565 -0.77858,0.6632 -0.158601,0.2067 -0.237901,0.4277 -0.2379,0.6632 z"
         style="marker:none"
         id="path3181" />
      <path
         d="m -48.839193,-1025.6026 c 0.370063,0 0.655423,0.043 0.856078,0.1298 0.20065,0.087 0.349036,0.2318 0.445161,0.4361 0.216268,0.447 0.324404,1.1294 0.324408,2.0474 -4e-6,1.151 -0.148991,1.8924 -0.446963,2.224 -0.225887,0.2499 -0.664439,0.3749 -1.315656,0.3749 -0.675252,0 -1.102991,-0.1671 -1.283216,-0.5011 -0.235498,-0.4373 -0.353246,-1.1486 -0.353245,-2.1339 -1e-6,-0.9876 0.117747,-1.6845 0.353245,-2.0906 0.09852,-0.1706 0.260126,-0.2944 0.48481,-0.3713 0.224681,-0.077 0.536474,-0.1153 0.935378,-0.1153 z m -0.01442,0.6488 c -0.259529,0 -0.449969,0.014 -0.57132,0.042 -0.121354,0.028 -0.209665,0.077 -0.264933,0.1495 -0.06488,0.084 -0.121354,0.2974 -0.169414,0.6399 -0.04806,0.3424 -0.07209,0.707 -0.07209,1.0939 -2e-6,0.322 0.01862,0.6537 0.05587,0.9949 0.03725,0.3412 0.0799,0.5731 0.127961,0.6957 0.04566,0.1177 0.125557,0.2006 0.239702,0.2487 0.114142,0.048 0.288962,0.072 0.52446,0.072 0.27154,0 0.473995,-0.018 0.607365,-0.054 0.133365,-0.036 0.222878,-0.096 0.268539,-0.1802 0.144178,-0.274 0.216269,-0.8086 0.216272,-1.6041 -3e-6,-0.4685 -0.02403,-0.8825 -0.07209,-1.2417 -0.04806,-0.3593 -0.111744,-0.5882 -0.19104,-0.6867 -0.05047,-0.065 -0.124961,-0.1093 -0.223482,-0.1333 -0.09853,-0.024 -0.257126,-0.036 -0.475799,-0.036 z"
         style="marker:none"
         id="path3183" />
    </g>
    <g
       transform="matrix(-0.70710678,-0.70710678,0.70710678,-0.70710678,0,0)"
       inkscape:transform-center-x="37.063706"
       inkscape:transform-center-y="37.063715"
       style="font-size:7.38209677px;font-style:normal;font-variant:normal;font-weight:normal;font-stretch:normal;text-indent:0;text-align:center;text-decoration:none;line-height:125%;letter-spacing:-1.59442925px;word-spacing:0px;text-transform:none;direction:ltr;block-progression:tb;writing-mode:lr-tb;text-anchor:middle;baseline-shift:baseline;color:#000000;fill:#ffffff;fill-opacity:1;fill-rule:nonzero;stroke:none;marker:none;visibility:visible;display:inline;overflow:visible;enable-background:accumulate;font-family:ocrb;-inkscape-font-specification:ocrb"
       id="text120982">
      <path
         d="m -746.91793,-692.51265 2.31412,0 0,0.65242 -2.99538,0 c -0.0192,-0.18503 -0.0288,-0.3208 -0.0288,-0.40731 0,-0.45658 0.0685,-0.82544 0.20546,-1.1066 0.10813,-0.22107 0.25051,-0.41752 0.42714,-0.58934 0.17662,-0.17181 0.44275,-0.36946 0.7984,-0.59294 0.37727,-0.2403 0.63139,-0.43375 0.76236,-0.58034 0.13096,-0.14658 0.19645,-0.30998 0.19645,-0.49021 0,-0.20906 -0.0805,-0.39229 -0.24151,-0.5497 -0.161,-0.15739 -0.34964,-0.23609 -0.56591,-0.23609 -0.48061,0 -0.97683,0.17783 -1.48867,0.53347 l 0,-0.75695 c 0.3989,-0.28115 0.86268,-0.42173 1.39135,-0.42174 0.48781,1e-5 0.8777,0.12737 1.16967,0.38209 0.29197,0.25472 0.43795,0.59355 0.43795,1.01648 0,0.30518 -0.0757,0.57192 -0.22708,0.8002 -0.0937,0.14419 -0.20366,0.26734 -0.32982,0.36947 -0.12616,0.10213 -0.3959,0.28656 -0.80922,0.5533 -0.36045,0.23549 -0.61998,0.45657 -0.77858,0.66323 -0.1586,0.20666 -0.2379,0.42774 -0.2379,0.66324 z"
         style="color:#000000;fill:#ffffff;marker:none;visibility:visible;display:inline;overflow:visible;enable-background:accumulate;font-family:ocrb;-inkscape-font-specification:ocrb"
         id="path3186" />
      <path
         d="m -743.83006,-696.31904 -0.0865,1.02008 0.18383,-0.004 c 0.62479,0 1.1114,0.14298 1.45984,0.42894 0.34844,0.28596 0.52266,0.68486 0.52266,1.1967 0,0.74734 -0.36526,1.28082 -1.09578,1.60042 -0.40131,0.17542 -0.98885,0.26313 -1.76262,0.26313 l 0,-0.61998 0.0757,0 0.36045,0.004 c 0.21146,0 0.41091,-0.018 0.59835,-0.0541 0.35325,-0.0721 0.62839,-0.21327 0.82544,-0.42354 0.19705,-0.21026 0.29557,-0.46919 0.29557,-0.77678 0,-0.65362 -0.42173,-0.98043 -1.26519,-0.98043 -0.20185,0 -0.38088,0.008 -0.53708,0.0252 l -0.25592,0.0288 c -0.012,0.002 -0.0445,0.006 -0.0973,0.0108 l 0.15499,-2.35737 2.56644,0 0,0.63801 z"
         style="color:#000000;fill:#ffffff;marker:none;visibility:visible;display:inline;overflow:visible;enable-background:accumulate;font-family:ocrb;-inkscape-font-specification:ocrb"
         id="path3188" />
    </g>
    <g
       transform="matrix(0,-1,1,0,0,0)"
       inkscape:transform-center-x="52.416009"
       style="font-size:7.38209677px;font-style:normal;font-variant:normal;font-weight:normal;font-stretch:normal;text-indent:0;text-align:center;text-decoration:none;line-height:125%;letter-spacing:-1.59442925px;word-spacing:0px;text-transform:none;direction:ltr;block-progression:tb;writing-mode:lr-tb;text-anchor:middle;baseline-shift:baseline;color:#000000;fill:#ffffff;fill-opacity:1;fill-rule:nonzero;stroke:none;marker:none;visibility:visible;display:inline;overflow:visible;enable-background:accumulate;font-family:ocrb;-inkscape-font-specification:ocrb"
       id="text120986">
      <path
         d="m -1004.0657,26.945976 -2.1844,0 0,-0.630794 3.0783,0 0,0.699281 -1.3048,1.301238 c 0.4926,0.04086 0.8687,0.190443 1.1282,0.448765 0.2595,0.258328 0.3893,0.60977 0.3893,1.054328 0,0.492622 -0.1785,0.890923 -0.5353,1.194905 -0.3569,0.303983 -0.826,0.455974 -1.4076,0.455974 -0.4229,0 -0.8723,-0.100927 -1.3481,-0.302781 l 0,-0.695676 c 0.3893,0.240303 0.8147,0.360454 1.276,0.360454 0.4109,0 0.7324,-0.09432 0.9642,-0.282957 0.2319,-0.188636 0.3479,-0.449965 0.3479,-0.783987 0,-0.264331 -0.1045,-0.483006 -0.3136,-0.656026 -0.2091,-0.173015 -0.4746,-0.259524 -0.7966,-0.259527 l -0.62,0 0,-0.537076 z"
         style="marker:none"
         id="path3191" />
      <path
         d="m -1001.6916,26.257509 c 0.3701,5e-6 0.6555,0.04326 0.8561,0.129764 0.2007,0.08651 0.3491,0.231897 0.4452,0.436149 0.2163,0.446967 0.3244,1.129426 0.3244,2.047378 0,1.151051 -0.149,1.892384 -0.447,2.224001 -0.2259,0.249915 -0.6644,0.374872 -1.3156,0.374872 -0.6753,0 -1.103,-0.16701 -1.2832,-0.501031 -0.2355,-0.43735 -0.3533,-1.148645 -0.3533,-2.133887 0,-0.98764 0.1178,-1.684517 0.3533,-2.090633 0.099,-0.17061 0.2601,-0.294366 0.4848,-0.371267 0.2247,-0.07689 0.5364,-0.115341 0.9353,-0.115346 z m -0.014,0.648817 c -0.2595,5e-6 -0.4499,0.01382 -0.5713,0.04145 -0.1213,0.02764 -0.2097,0.0775 -0.2649,0.149588 -0.065,0.08411 -0.1214,0.297378 -0.1694,0.639806 -0.048,0.342434 -0.072,0.707093 -0.072,1.093977 0,0.322008 0.019,0.653625 0.056,0.994853 0.037,0.341231 0.08,0.573123 0.128,0.695676 0.046,0.117749 0.1256,0.200654 0.2397,0.248714 0.1141,0.04806 0.289,0.07209 0.5245,0.07209 0.2715,10e-7 0.474,-0.01802 0.6073,-0.05407 0.1334,-0.03604 0.2229,-0.09612 0.2686,-0.180227 0.1441,-0.273944 0.2162,-0.808616 0.2162,-1.60402 0,-0.468587 -0.024,-0.882508 -0.072,-1.241764 -0.048,-0.359248 -0.1118,-0.588136 -0.1911,-0.686664 -0.05,-0.06488 -0.125,-0.109334 -0.2235,-0.133368 -0.099,-0.02403 -0.2571,-0.03604 -0.4758,-0.03605 z"
         style="marker:none"
         id="path3193" />
    </g>
    <g
       transform="matrix(0.70710678,-0.70710678,0.70710678,0.70710678,0,0)"
       inkscape:transform-center-x="37.063724"
       inkscape:transform-center-y="-37.063705"
       style="font-size:7.38209677px;font-style:normal;font-variant:normal;font-weight:normal;font-stretch:normal;text-align:center;line-height:125%;letter-spacing:-1.59442925px;word-spacing:0px;text-anchor:middle;fill:#ffffff;fill-opacity:1;stroke:none;font-family:ocrb;-inkscape-font-specification:ocrb"
       id="text120990">
      <path
         d="m -674.62438,720.78025 -2.18435,0 0,-0.63079 3.07828,0 0,0.69928 -1.30484,1.30124 c 0.49261,0.0408 0.86869,0.19044 1.12822,0.44876 0.25952,0.25833 0.38928,0.60977 0.38929,1.05433 -10e-6,0.49262 -0.17843,0.89092 -0.53528,1.19491 -0.35685,0.30398 -0.82604,0.45597 -1.40757,0.45597 -0.42293,0 -0.8723,-0.10093 -1.3481,-0.30278 l 0,-0.69568 c 0.38929,0.24031 0.81463,0.36046 1.27601,0.36046 0.41092,0 0.73232,-0.0943 0.96421,-0.28296 0.23189,-0.18864 0.34784,-0.44997 0.34784,-0.78399 0,-0.26433 -0.10453,-0.483 -0.31359,-0.65602 -0.20907,-0.17302 -0.4746,-0.25953 -0.79661,-0.25953 l -0.61998,0 0,-0.53708 z"
         style=""
         id="path3160" />
      <path
         d="m -672.96751,720.78746 -0.0865,1.02009 0.18383,-0.004 c 0.62479,10e-6 1.1114,0.14299 1.45984,0.42894 0.34844,0.28596 0.52265,0.68487 0.52266,1.19671 -10e-6,0.74734 -0.36526,1.28081 -1.09578,1.60041 -0.40131,0.17543 -0.98885,0.26314 -1.76262,0.26314 l 0,-0.61998 0.0757,0 0.36046,0.004 c 0.21146,0 0.41091,-0.018 0.59835,-0.0541 0.35324,-0.0721 0.62839,-0.21327 0.82544,-0.42353 0.19705,-0.21027 0.29557,-0.46919 0.29557,-0.77678 0,-0.65362 -0.42173,-0.98043 -1.26519,-0.98043 -0.20186,0 -0.38088,0.008 -0.53708,0.0252 l -0.25592,0.0288 c -0.012,0.002 -0.0445,0.006 -0.0973,0.0108 l 0.15499,-2.35737 2.56644,0 0,0.638 z"
         style=""
         id="path3162" />
    </g>
    <path
       inkscape:transform-center-x="53.468192"
       sodipodi:nodetypes="ccccccccc"
       inkscape:connector-curvature="0"
       id="path121059"
       d="m 24.020316,977.77234 c -0.265783,0.27222 -0.253638,0.76489 0.02523,1.02368 l 6.451998,6.00531 c 0.270905,0.25595 0.749409,0.2441 1.0073,-0.025 l 0.362518,-0.39799 c 0.260442,-0.26659 0.256248,-0.74534 -0.0086,-1.00757 l -6.282856,-6.18018 c -0.26794,-0.27009 -0.760738,-0.26584 -1.023954,0.009 z"
       style="color:#000000;fill:#e6eaed;fill-opacity:1;fill-rule:nonzero;stroke:none;stroke-width:3.03144383;marker:none;visibility:visible;display:inline;overflow:visible;enable-background:accumulate"
       inkscape:transform-center-y="-53.687587" />
    <path
       inkscape:transform-center-y="-75.622043"
       style="color:#000000;fill:#e6eaed;fill-opacity:1;fill-rule:nonzero;stroke:none;stroke-width:3.03144383;marker:none;visibility:visible;display:inline;overflow:visible;enable-background:accumulate"
       d="m 48.818331,966.62844 c -0.380427,0.005 -0.720212,0.36151 -0.706013,0.7417 l 0.315856,8.80864 c 0.01056,0.37255 0.357312,0.70252 0.729914,0.69463 l 0.537761,-0.0251 c 0.37267,-0.004 0.708234,-0.34584 0.706404,-0.71852 l -0.07261,-8.8127 c 0.0016,-0.38044 -0.349946,-0.7259 -0.730305,-0.71778 z"
       id="path121061"
       inkscape:connector-curvature="0"
       sodipodi:nodetypes="ccccccccc" />
    <path
       sodipodi:nodetypes="ccccccccc"
       inkscape:connector-curvature="0"
       id="path121063"
       d="m 74.636482,976.13436 c -0.272217,-0.26579 -0.764892,-0.25364 -1.023683,0.0252 l -6.005311,6.45199 c -0.255957,0.2709 -0.244095,0.74941 0.02495,1.0073 l 0.397986,0.36253 c 0.266588,0.26044 0.745344,0.25625 1.007575,-0.009 l 6.180176,-6.28286 c 0.270144,-0.26788 0.265843,-0.76073 -0.0088,-1.02395 z"
       style="color:#000000;fill:#e6eaed;fill-opacity:1;fill-rule:nonzero;stroke:none;stroke-width:3.03144383;marker:none;visibility:visible;display:inline;overflow:visible;enable-background:accumulate"
       inkscape:transform-center-y="-53.468182"
       inkscape:transform-center-x="-53.687602" />
    <path
       inkscape:transform-center-x="-53.468181"
       inkscape:transform-center-y="53.687601"
       style="color:#000000;fill:#e6eaed;fill-opacity:1;fill-rule:nonzero;stroke:none;stroke-width:3.03144383;marker:none;visibility:visible;display:inline;overflow:visible;enable-background:accumulate"
       d="m 76.274459,1026.2759 c 0.265788,-0.2723 0.253638,-0.7649 -0.02523,-1.0237 l -6.451993,-6.0053 c -0.270902,-0.256 -0.749414,-0.2441 -1.007301,0.025 l -0.362529,0.398 c -0.260442,0.2666 -0.256245,0.7453 0.0086,1.0076 l 6.282856,6.1802 c 0.267888,0.2701 0.760738,0.2658 1.023955,-0.01 z"
       id="path121065"
       inkscape:connector-curvature="0"
       sodipodi:nodetypes="ccccccccc" />
    <path
       sodipodi:nodetypes="ccccccccc"
       inkscape:connector-curvature="0"
       id="path121067"
       d="m 51.222069,1038.3101 c 0.380427,-0 0.720208,-0.3615 0.706013,-0.7417 l -0.315852,-8.8087 c -0.01056,-0.3725 -0.357316,-0.7025 -0.729914,-0.6946 l -0.537765,0.025 c -0.37267,0 -0.708234,0.3458 -0.706404,0.7185 l 0.07261,8.8127 c -0.0016,0.3804 0.349942,0.7259 0.730301,0.7178 z"
       style="color:#000000;fill:#e6eaed;fill-opacity:1;fill-rule:nonzero;stroke:none;stroke-width:3.03144383;marker:none;visibility:visible;display:inline;overflow:visible;enable-background:accumulate"
       inkscape:transform-center-y="75.622036" />
    <path
       inkscape:transform-center-y="53.468183"
       style="color:#000000;fill:#e6eaed;fill-opacity:1;fill-rule:nonzero;stroke:none;stroke-width:3.03144383;marker:none;visibility:visible;display:inline;overflow:visible;enable-background:accumulate"
       d="m 25.658293,1028.8042 c 0.272213,0.2657 0.764892,0.2536 1.023684,-0.025 l 6.00531,-6.452 c 0.255962,-0.2709 0.244095,-0.7494 -0.02495,-1.0073 l -0.397985,-0.3625 c -0.266589,-0.2604 -0.745344,-0.2563 -1.007576,0.01 l -6.180171,6.2828 c -0.270145,0.2679 -0.265848,0.7608 0.0088,1.024 z"
       id="path121069"
       inkscape:connector-curvature="0"
       sodipodi:nodetypes="ccccccccc"
       inkscape:transform-center-x="53.687596" />
    <path
       inkscape:transform-center-x="-75.622038"
       sodipodi:nodetypes="ccccccccc"
       inkscape:connector-curvature="0"
       id="path121071"
       d="m 85.525996,1000.8393 c -0.0045,-0.3805 -0.361509,-0.7202 -0.741693,-0.706 l -8.808644,0.3158 c -0.372546,0.011 -0.702517,0.3573 -0.694625,0.7299 l 0.02507,0.5378 c 0.0043,0.3727 0.345844,0.7082 0.718526,0.7064 l 8.81269,-0.073 c 0.380446,0 0.725907,-0.35 0.717788,-0.7303 z"
       style="color:#000000;fill:#e6eaed;fill-opacity:1;fill-rule:nonzero;stroke:none;stroke-width:3.03144383;marker:none;visibility:visible;display:inline;overflow:visible;enable-background:accumulate" />
  </g>
</svg>
