<?xml version="1.0" encoding="UTF-8" standalone="no"?>
<!-- Created with Inkscape (http://www.inkscape.org/) -->

<svg
   xmlns:dc="http://purl.org/dc/elements/1.1/"
   xmlns:cc="http://creativecommons.org/ns#"
   xmlns:rdf="http://www.w3.org/1999/02/22-rdf-syntax-ns#"
   xmlns:svg="http://www.w3.org/2000/svg"
   xmlns="http://www.w3.org/2000/svg"
   xmlns:xlink="http://www.w3.org/1999/xlink"
   xmlns:sodipodi="http://sodipodi.sourceforge.net/DTD/sodipodi-0.dtd"
   xmlns:inkscape="http://www.inkscape.org/namespaces/inkscape"
   width="100"
   height="100"
   id="svg3839"
   version="1.1"
   inkscape:version="0.48.2 r9819"
   sodipodi:docname="icon-l-dialer.svg"
   inkscape:export-filename="C:\Users\Stephan\Desktop\Photoshop Zeugs\nemoux-master\icons\icon-l-dialer.png"
   inkscape:export-xdpi="90"
   inkscape:export-ydpi="90">
  <defs
     id="defs3841">
    <radialGradient
       r="14.859289"
       fy="78.052773"
       fx="77.870583"
       cy="78.052773"
       cx="77.870583"
       gradientTransform="matrix(0.51318574,0.88886378,-0.86602518,0.50000039,105.50418,-30.189985)"
       gradientUnits="userSpaceOnUse"
       id="radialGradient4317"
       xlink:href="#linearGradient5344"
       inkscape:collect="always" />
    <linearGradient
       id="linearGradient5344">
      <stop
         style="stop-color:#ffea55;stop-opacity:1;"
         offset="0"
         id="stop5346" />
      <stop
         style="stop-color:#ffe533;stop-opacity:1;"
         offset="1"
         id="stop5348" />
    </linearGradient>
    <filter
       color-interpolation-filters="sRGB"
       inkscape:collect="always"
       id="filter5661-7"
       x="-0.095202751"
       width="1.1904055"
       y="-0.16226472"
       height="1.3245294">
      <feGaussianBlur
         inkscape:collect="always"
         stdDeviation="0.3701069"
         id="feGaussianBlur5663-4" />
    </filter>
    <linearGradient
       id="linearGradient3837-0">
      <stop
         style="stop-color:#00d400;stop-opacity:1"
         offset="0"
         id="stop3840-9" />
      <stop
         style="stop-color:#008000;stop-opacity:1"
         offset="1"
         id="stop3842-4" />
    </linearGradient>
    <radialGradient
       r="14.859289"
       fy="78.052773"
       fx="77.870583"
       cy="78.052773"
       cx="77.870583"
       gradientTransform="matrix(1.3827057,2.3924232,-2.3333813,1.3457771,123.89191,710.5967)"
       gradientUnits="userSpaceOnUse"
       id="radialGradient3866"
       xlink:href="#linearGradient3837-0"
       inkscape:collect="always" />
  </defs>
  <sodipodi:namedview
     id="base"
     pagecolor="#ffffff"
     bordercolor="#666666"
     borderopacity="1.0"
     inkscape:pageopacity="0.0"
     inkscape:pageshadow="2"
     inkscape:zoom="7.9999999"
     inkscape:cx="55.692445"
     inkscape:cy="42.366298"
     inkscape:document-units="px"
     inkscape:current-layer="layer1"
     showgrid="true"
     inkscape:window-width="1920"
     inkscape:window-height="1148"
     inkscape:window-x="-8"
     inkscape:window-y="-8"
     inkscape:window-maximized="1">
    <inkscape:grid
       type="xygrid"
       id="grid3847"
       empspacing="5"
       visible="true"
       enabled="true"
       snapvisiblegridlinesonly="true" />
  </sodipodi:namedview>
  <metadata
     id="metadata3844">
    <rdf:RDF>
      <cc:Work
         rdf:about="">
        <dc:format>image/svg+xml</dc:format>
        <dc:type
           rdf:resource="http://purl.org/dc/dcmitype/StillImage" />
        <dc:title></dc:title>
      </cc:Work>
    </rdf:RDF>
  </metadata>
  <g
     inkscape:label="Ebene 1"
     inkscape:groupmode="layer"
     id="layer1"
     transform="translate(0,-952.36217)">
    <path
       inkscape:connector-curvature="0"
       style="color:#000000;fill:url(#radialGradient3866);fill-opacity:1;fill-rule:nonzero;stroke:none;stroke-width:2;marker:none;visibility:visible;display:inline;overflow:visible;enable-background:accumulate"
       d="M 50.000001,962.3622 C 27.888599,962.3622 10,980.3156 10,1002.404 c 0,22.0884 17.888599,39.9582 40.000001,39.9582 C 72.111401,1042.3622 90,1024.4924 90,1002.404 90,980.3156 72.111401,962.3622 50.000001,962.3622 z m 0,20.68825 c 10.68789,0 19.373694,8.67679 19.373694,19.35355 0,10.6767 -8.685804,19.3535 -19.373694,19.3535 -10.687892,0 -19.373696,-8.6768 -19.373696,-19.3535 0,-10.67676 8.685804,-19.35355 19.373696,-19.35355 z"
       id="path3041" />
    <path
       sodipodi:type="arc"
       style="color:#000000;fill:#ffffff;fill-opacity:1;fill-rule:nonzero;stroke:none;stroke-width:1;marker:none;visibility:visible;display:inline;overflow:visible;enable-background:accumulate"
       id="use3121"
       sodipodi:cx="74.734238"
       sodipodi:cy="61.503017"
       sodipodi:rx="1.9067996"
       sodipodi:ry="1.9067996"
       d="m 76.641037,61.503017 a 1.9067996,1.9067996 0 1 1 -3.813599,0 1.9067996,1.9067996 0 1 1 3.813599,0 z"
       transform="matrix(2.6789406,0.63407691,-0.63407691,2.6789406,-92.463015,812.46594)" />
    <path
       sodipodi:type="arc"
       style="color:#000000;fill:#ffffff;fill-opacity:1;fill-rule:nonzero;stroke:none;stroke-width:1;marker:none;visibility:visible;display:inline;overflow:visible;enable-background:accumulate"
       id="use4959"
       sodipodi:cx="74.734238"
       sodipodi:cy="61.503017"
       sodipodi:rx="1.9067996"
       sodipodi:ry="1.9067996"
       d="m 76.641037,61.503017 a 1.9067996,1.9067996 0 1 1 -3.813599,0 1.9067996,1.9067996 0 1 1 3.813599,0 z"
       transform="matrix(2.6789406,0.63407691,-0.63407691,2.6789406,-108.75492,819.15086)" />
    <path
       sodipodi:type="arc"
       style="color:#000000;fill:#ffffff;fill-opacity:1;fill-rule:nonzero;stroke:none;stroke-width:1;marker:none;visibility:visible;display:inline;overflow:visible;enable-background:accumulate"
       id="use6458"
       sodipodi:cx="74.734238"
       sodipodi:cy="61.503017"
       sodipodi:rx="1.9067996"
       sodipodi:ry="1.9067996"
       d="m 76.641037,61.503017 a 1.9067996,1.9067996 0 1 1 -3.813599,0 1.9067996,1.9067996 0 1 1 3.813599,0 z"
       transform="matrix(2.6789406,0.63407691,-0.63407691,2.6789406,-125.85225,814.91647)" />
    <path
       sodipodi:type="arc"
       style="color:#000000;fill:#ffffff;fill-opacity:1;fill-rule:nonzero;stroke:none;stroke-width:1;marker:none;visibility:visible;display:inline;overflow:visible;enable-background:accumulate"
       id="use0324"
       sodipodi:cx="74.734238"
       sodipodi:cy="61.503017"
       sodipodi:rx="1.9067996"
       sodipodi:ry="1.9067996"
       d="m 76.641037,61.503017 a 1.9067996,1.9067996 0 1 1 -3.813599,0 1.9067996,1.9067996 0 1 1 3.813599,0 z"
       transform="matrix(2.6789406,0.63407691,-0.63407691,2.6789406,-137.11948,801.37819)" />
    <path
       sodipodi:type="arc"
       style="color:#000000;fill:#ffffff;fill-opacity:1;fill-rule:nonzero;stroke:none;stroke-width:1;marker:none;visibility:visible;display:inline;overflow:visible;enable-background:accumulate"
       id="use4649"
       sodipodi:cx="74.734238"
       sodipodi:cy="61.503017"
       sodipodi:rx="1.9067996"
       sodipodi:ry="1.9067996"
       d="m 76.641037,61.503017 a 1.9067996,1.9067996 0 1 1 -3.813599,0 1.9067996,1.9067996 0 1 1 3.813599,0 z"
       transform="matrix(2.6789406,0.63407691,-0.63407691,2.6789406,-138.21096,783.80268)" />
    <path
       sodipodi:type="arc"
       style="color:#000000;fill:#ffffff;fill-opacity:1;fill-rule:nonzero;stroke:none;stroke-width:1;marker:none;visibility:visible;display:inline;overflow:visible;enable-background:accumulate"
       id="use8421"
       sodipodi:cx="74.734238"
       sodipodi:cy="61.503017"
       sodipodi:rx="1.9067996"
       sodipodi:ry="1.9067996"
       d="m 76.641037,61.503017 a 1.9067996,1.9067996 0 1 1 -3.813599,0 1.9067996,1.9067996 0 1 1 3.813599,0 z"
       transform="matrix(2.6789406,0.63407691,-0.63407691,2.6789406,-128.70682,768.97344)" />
    <path
       sodipodi:type="arc"
       style="color:#000000;fill:#ffffff;fill-opacity:1;fill-rule:nonzero;stroke:none;stroke-width:1;marker:none;visibility:visible;display:inline;overflow:visible;enable-background:accumulate"
       id="use5106"
       sodipodi:cx="74.734238"
       sodipodi:cy="61.503017"
       sodipodi:rx="1.9067996"
       sodipodi:ry="1.9067996"
       d="m 76.641037,61.503017 a 1.9067996,1.9067996 0 1 1 -3.813599,0 1.9067996,1.9067996 0 1 1 3.813599,0 z"
       transform="matrix(2.6789406,0.63407691,-0.63407691,2.6789406,-112.26481,762.65696)" />
    <path
       sodipodi:type="arc"
       style="color:#000000;fill:#ffffff;fill-opacity:1;fill-rule:nonzero;stroke:none;stroke-width:1;marker:none;visibility:visible;display:inline;overflow:visible;enable-background:accumulate"
       id="use6573"
       sodipodi:cx="74.734238"
       sodipodi:cy="61.503017"
       sodipodi:rx="1.9067996"
       sodipodi:ry="1.9067996"
       d="m 76.641037,61.503017 a 1.9067996,1.9067996 0 1 1 -3.813599,0 1.9067996,1.9067996 0 1 1 3.813599,0 z"
       transform="matrix(2.6789406,0.63407691,-0.63407691,2.6789406,-95.271265,767.2734)" />
    <path
       sodipodi:nodetypes="cccc"
       inkscape:connector-curvature="0"
       id="path5659"
       d="m 31.377234,1030.3641 c 2.325734,3.2748 4.302607,4.5033 8.577193,5.4741 l 0.752963,-2.0576 c -3.36923,-0.5373 -6.310435,-1.6963 -9.330156,-3.4165 z"
       style="fill:#333333;stroke:none;filter:url(#filter5661-7)"
       transform="matrix(2.6694518,0,0,2.6694518,-16.694518,-1740.1734)" />
    <path
       style="fill:#000000;stroke:none"
       d="m 64.716717,1007.6863 c 7.041624,9.9149 13.027,13.6345 25.969164,16.5741 l 2.279744,-6.23 c -10.201017,-1.6268 -19.1061,-5.1357 -28.248908,-10.3441 z"
       id="path5338"
       inkscape:connector-curvature="0"
       sodipodi:nodetypes="cccc" />
  </g>
</svg>
