<?xml version="1.0" encoding="UTF-8" standalone="no"?>
<!-- Created with Inkscape (http://www.inkscape.org/) -->

<svg
   xmlns:dc="http://purl.org/dc/elements/1.1/"
   xmlns:cc="http://creativecommons.org/ns#"
   xmlns:rdf="http://www.w3.org/1999/02/22-rdf-syntax-ns#"
   xmlns:svg="http://www.w3.org/2000/svg"
   xmlns="http://www.w3.org/2000/svg"
   xmlns:xlink="http://www.w3.org/1999/xlink"
   xmlns:sodipodi="http://sodipodi.sourceforge.net/DTD/sodipodi-0.dtd"
   xmlns:inkscape="http://www.inkscape.org/namespaces/inkscape"
   width="96"
   height="96"
   viewBox="5 5 90 90"
   id="svg3839"
   version="1.1"
   inkscape:version="0.92.1 unknown"
   sodipodi:docname="icon-app-calendar.svg"
   inkscape:export-filename="C:\Users\Stephan\Documents\GitHub\nemo-artwork\Icons\icon-app-calendar.png"
   inkscape:export-xdpi="90"
   inkscape:export-ydpi="90">
  <defs
     id="defs3841">
    <radialGradient
       r="14.859289"
       fy="78.052773"
       fx="77.870583"
       cy="78.052773"
       cx="77.870583"
       gradientTransform="matrix(0.5174344,0.89622268,-0.873195,0.50413989,188.61436,261.92227)"
       gradientUnits="userSpaceOnUse"
       id="radialGradient4502"
       xlink:href="#linearGradient16667"
       inkscape:collect="always" />
    <linearGradient
       id="linearGradient16667">
      <stop
         style="stop-color:#fcff76;stop-opacity:1;"
         offset="0"
         id="stop16669" />
      <stop
         style="stop-color:#fce903;stop-opacity:1;"
         offset="1"
         id="stop16671" />
    </linearGradient>
    <linearGradient
       id="linearGradient16680">
      <stop
         id="stop16682"
         offset="0"
         style="stop-color:#9ea100;stop-opacity:1;" />
      <stop
         id="stop16684"
         offset="1"
         style="stop-color:#fbff04;stop-opacity:1;" />
    </linearGradient>
    <radialGradient
       r="14.859289"
       fy="78.052773"
       fx="77.870583"
       cy="78.052773"
       cx="77.870583"
       gradientTransform="matrix(0.5174344,0.89622268,-0.873195,0.50413989,206.30474,281.44269)"
       gradientUnits="userSpaceOnUse"
       id="radialGradient6346"
       xlink:href="#linearGradient16680"
       inkscape:collect="always" />
    <radialGradient
       inkscape:collect="always"
       xlink:href="#linearGradient5789"
       id="radialGradient5970"
       gradientUnits="userSpaceOnUse"
       gradientTransform="matrix(0.51318574,0.88886378,-0.86602518,0.50000039,105.50418,-30.189985)"
       cx="77.870583"
       cy="78.052773"
       fx="77.870583"
       fy="78.052773"
       r="14.859289" />
    <linearGradient
       id="linearGradient5789">
      <stop
         id="stop5791"
         offset="0"
         style="stop-color:#f7f7f7;stop-opacity:1;" />
      <stop
         id="stop5793"
         offset="1"
         style="stop-color:#d0d3d4;stop-opacity:1;" />
    </linearGradient>
  </defs>
  <sodipodi:namedview
     id="base"
     pagecolor="#ffffff"
     bordercolor="#666666"
     borderopacity="1.0"
     inkscape:pageopacity="0.0"
     inkscape:pageshadow="2"
     inkscape:zoom="4"
     inkscape:cx="40.45623"
     inkscape:cy="18.020662"
     inkscape:document-units="px"
     inkscape:current-layer="layer1"
     showgrid="true"
     inkscape:window-width="1920"
     inkscape:window-height="1148"
     inkscape:window-x="-8"
     inkscape:window-y="-8"
     inkscape:window-maximized="1">
    <inkscape:grid
       type="xygrid"
       id="grid3847"
       empspacing="5"
       visible="true"
       enabled="true"
       snapvisiblegridlinesonly="true"
       originx="0"
       originy="0"
       spacingx="1"
       spacingy="1" />
  </sodipodi:namedview>
  <metadata
     id="metadata3844">
    <rdf:RDF>
      <cc:Work
         rdf:about="">
        <dc:format>image/svg+xml</dc:format>
        <dc:type
           rdf:resource="http://purl.org/dc/dcmitype/StillImage" />
        <dc:title></dc:title>
      </cc:Work>
    </rdf:RDF>
  </metadata>
  <g
     inkscape:label="Ebene 1"
     inkscape:groupmode="layer"
     id="layer1"
     transform="translate(0,-952.36217)">
    <circle
       style="color:#000000;display:inline;overflow:visible;visibility:visible;fill:url(#radialGradient5970);fill-opacity:1;fill-rule:nonzero;stroke:none;stroke-width:2;marker:none;enable-background:accumulate"
       id="path5968"
       transform="matrix(2.6919188,0,0,2.6919188,-160.18182,791.79165)"
       cx="78.078812"
       cy="78.223206"
       r="14.859289" />
    <path
       style="color:#000000;display:inline;overflow:visible;visibility:visible;fill:#ff2a7f;fill-opacity:1;fill-rule:nonzero;marker:none;enable-background:accumulate"
       d="m 50.027868,962.39924 c -13.186885,0 -24.913409,6.35771 -32.204648,16.18575 h 64.325865 c -7.27183,-9.82804 -18.934331,-16.18575 -32.121217,-16.18575 z"
       id="rect5972"
       inkscape:connector-curvature="0" />
    <g
       style="font-style:normal;font-variant:normal;font-weight:800;font-stretch:normal;font-size:50.84835434px;line-height:125%;font-family:'Open Sans';-inkscape-font-specification:'Open Sans Ultra-Bold';text-align:start;letter-spacing:0px;word-spacing:0px;writing-mode:lr-tb;text-anchor:start;fill:#ff2a7f;fill-opacity:1;stroke:none"
       id="text5977">
      <path
         d="m 46.449419,995.33526 c -2.6e-5,2.26768 -0.686941,4.19601 -2.060749,5.78504 -1.373855,1.589 -3.302184,2.6814 -5.784993,3.2773 v 0.149 c 2.929718,0.3641 5.147711,1.2538 6.653984,2.669 1.506224,1.4152 2.259348,3.3229 2.259375,5.7229 -2.7e-5,3.4925 -1.266269,6.2112 -3.79873,8.1561 -2.532507,1.9449 -6.149158,2.9173 -10.849966,2.9173 -3.939432,0 -7.431942,-0.6538 -10.477542,-1.9614 v -6.5298 c 1.406934,0.7117 2.954563,1.291 4.642892,1.7379 1.688316,0.447 3.360087,0.6704 5.015316,0.6704 2.532473,0 4.402869,-0.4303 5.611196,-1.2911 1.208292,-0.8607 1.812446,-2.2428 1.812465,-4.1463 -1.9e-5,-1.7048 -0.69521,-2.9132 -2.085577,-3.6249 -1.3904,-0.7117 -3.608392,-1.0676 -6.653983,-1.0676 h -2.755941 v -5.8843 h 2.805597 c 2.813861,0 4.870469,-0.3683 6.169832,-1.1049 1.29933,-0.7365 1.949003,-1.99865 1.949022,-3.78631 -1.9e-5,-2.74764 -1.721446,-4.12147 -5.164286,-4.1215 -1.191771,3e-5 -2.404218,0.19866 -3.637346,0.59588 -1.233147,0.39728 -2.60284,1.0842 -4.109083,2.06075 l -3.550447,-5.28843 c 3.310434,-2.38348 7.25813,-3.57524 11.843098,-3.57528 3.757332,4e-5 6.72431,0.76144 8.900945,2.28421 2.176589,1.52283 3.264895,3.64151 3.264921,6.35604 z"
         id="path3007"
         inkscape:connector-curvature="0" />
      <path
         d="m 76.665458,1005.3659 c -2.7e-5,6.3395 -1.038676,11.032 -3.115951,14.0776 -2.077323,3.0456 -5.276032,4.5684 -9.596137,4.5684 -4.187717,0 -7.345045,-1.5724 -9.471996,-4.7173 -2.12696,-3.1449 -3.190438,-7.7878 -3.190436,-13.9287 -2e-6,-6.40568 1.034509,-11.12719 3.103537,-14.16455 2.069018,-3.03729 5.255313,-4.55595 9.558895,-4.55599 4.187687,4e-5 7.353292,1.58904 9.496824,4.76703 2.143483,3.17805 3.215237,7.82922 3.215264,13.95351 z m -17.752233,0 c -9e-6,4.4526 0.384829,7.643 1.154516,9.5713 0.769666,1.9283 2.064874,2.8925 3.885629,2.8925 1.787621,0 3.078691,-0.9766 3.873214,-2.9297 0.794487,-1.9532 1.191739,-5.1312 1.191759,-9.5341 -2e-5,-4.4525 -0.40141,-7.65123 -1.204173,-9.59614 -0.802799,-1.94486 -2.089731,-2.9173 -3.8608,-2.91733 -1.804203,3e-5 -3.095273,0.97247 -3.873215,2.91733 -0.777963,1.94491 -1.166939,5.14364 -1.16693,9.59614 z"
         id="path3009"
         inkscape:connector-curvature="0" />
    </g>
  </g>
</svg>
