<?xml version="1.0" encoding="UTF-8" standalone="no"?>
<!-- Created with Inkscape (http://www.inkscape.org/) -->

<svg
   xmlns:dc="http://purl.org/dc/elements/1.1/"
   xmlns:cc="http://creativecommons.org/ns#"
   xmlns:rdf="http://www.w3.org/1999/02/22-rdf-syntax-ns#"
   xmlns:svg="http://www.w3.org/2000/svg"
   xmlns="http://www.w3.org/2000/svg"
   xmlns:xlink="http://www.w3.org/1999/xlink"
   xmlns:sodipodi="http://sodipodi.sourceforge.net/DTD/sodipodi-0.dtd"
   xmlns:inkscape="http://www.inkscape.org/namespaces/inkscape"
   width="90"
   height="90"
   viewBox="5 5 90 90"
   id="svg3839"
   version="1.1"
   inkscape:version="0.92.1 unknown"
   sodipodi:docname="icon-app-irc.svg"
   inkscape:export-filename="C:\Users\Stephan\Documents\GitHub\nemo-artwork\Icons\icon-app-irc.png"
   inkscape:export-xdpi="90"
   inkscape:export-ydpi="90">
  <defs
     id="defs3841">
    <linearGradient
       id="linearGradient3882-5">
      <stop
         style="stop-color:#404040;stop-opacity:1;"
         offset="0"
         id="stop3884-1" />
      <stop
         style="stop-color:#808080;stop-opacity:1;"
         offset="1"
         id="stop3886-5" />
    </linearGradient>
    <radialGradient
       r="14.859289"
       fy="78.052773"
       fx="77.870583"
       cy="78.052773"
       cx="77.870583"
       gradientTransform="matrix(0.51318574,0.88886378,-0.86602518,0.50000039,105.50418,-30.189985)"
       gradientUnits="userSpaceOnUse"
       id="radialGradient4378"
       xlink:href="#linearGradient5789-6"
       inkscape:collect="always" />
    <linearGradient
       id="linearGradient5789-6">
      <stop
         id="stop5791-8"
         offset="0"
         style="stop-color:#f7f7f7;stop-opacity:1;" />
      <stop
         id="stop5793-8"
         offset="1"
         style="stop-color:#d0d3d4;stop-opacity:1;" />
    </linearGradient>
    <radialGradient
       r="9.2696419"
       fy="247.4984"
       fx="122.96643"
       cy="247.4984"
       cx="122.96643"
       gradientTransform="matrix(0.28767946,0.49217265,-0.48892138,0.28577906,208.59878,116.24784)"
       gradientUnits="userSpaceOnUse"
       id="radialGradient4380"
       xlink:href="#linearGradient5862"
       inkscape:collect="always" />
    <linearGradient
       id="linearGradient5862">
      <stop
         style="stop-color:#5c5c5c;stop-opacity:1"
         offset="0"
         id="stop5864" />
      <stop
         style="stop-color:#232323;stop-opacity:1"
         offset="1"
         id="stop5866" />
    </linearGradient>
    <linearGradient
       y2="205.4455"
       x2="8.3037004"
       y1="189.24899"
       x1="8.3037004"
       gradientUnits="userSpaceOnUse"
       id="linearGradient5011-6">
      <stop
         id="stop5013-0"
         style="stop-color:#c2ffff;stop-opacity:1;"
         offset="0" />
      <stop
         id="stop5015-3"
         style="stop-color:#9DCAEA"
         offset="1" />
    </linearGradient>
    <radialGradient
       r="40.306797"
       fy="-930.55658"
       fx="2184.9075"
       cy="-930.55658"
       cx="2184.9075"
       gradientTransform="matrix(0.59752987,0.80194981,-0.80188328,0.59748072,133.16229,-2126.7531)"
       gradientUnits="userSpaceOnUse"
       id="radialGradient9241"
       xlink:href="#linearGradient3882-5"
       inkscape:collect="always" />
    <radialGradient
       inkscape:collect="always"
       xlink:href="#linearGradient5011-6"
       id="radialGradient9276"
       gradientUnits="userSpaceOnUse"
       gradientTransform="matrix(10.215962,-8.7059644e-6,7.4256772e-6,8.7136166,-397.61771,622.95919)"
       cx="42.347202"
       cy="43.082382"
       fx="42.347202"
       fy="43.082382"
       r="3.328125" />
    <radialGradient
       inkscape:collect="always"
       xlink:href="#linearGradient5368"
       id="radialGradient121392"
       gradientUnits="userSpaceOnUse"
       gradientTransform="matrix(0.69571049,0.69571049,-0.71296298,0.71295885,205.94475,138.87538)"
       cx="77.994781"
       cy="78.256454"
       fx="77.994781"
       fy="78.256454"
       r="14.859289" />
    <linearGradient
       id="linearGradient5368">
      <stop
         style="stop-color:#853500;stop-opacity:1;"
         offset="0"
         id="stop5370" />
      <stop
         style="stop-color:#552200;stop-opacity:1;"
         offset="1"
         id="stop5372" />
    </linearGradient>
    <radialGradient
       inkscape:collect="always"
       xlink:href="#linearGradient5368"
       id="radialGradient9369"
       gradientUnits="userSpaceOnUse"
       gradientTransform="matrix(1.8708181,1.8571619,-1.9172114,1.9032055,53.885042,708.68238)"
       cx="77.994781"
       cy="78.256454"
       fx="77.994781"
       fy="78.256454"
       r="14.859289" />
    <radialGradient
       r="14.859289"
       fy="78.052773"
       fx="77.870583"
       cy="78.052773"
       cx="77.870583"
       gradientTransform="matrix(0.49351205,0.85478796,-0.83282491,0.48083218,187.84251,223.01091)"
       gradientUnits="userSpaceOnUse"
       id="radialGradient4469"
       xlink:href="#linearGradient6104"
       inkscape:collect="always" />
    <linearGradient
       id="linearGradient6104">
      <stop
         id="stop6106"
         offset="0"
         style="stop-color:#ebebeb;stop-opacity:1;" />
      <stop
         id="stop6108"
         offset="1"
         style="stop-color:#cfd1d1;stop-opacity:1;" />
    </linearGradient>
    <radialGradient
       inkscape:collect="always"
       xlink:href="#linearGradient6104"
       id="radialGradient9419"
       gradientUnits="userSpaceOnUse"
       gradientTransform="matrix(1.34933,2.3371077,-2.2770576,1.3146612,121.86808,713.38964)"
       cx="77.870583"
       cy="78.052773"
       fx="77.870583"
       fy="78.052773"
       r="14.859289" />
    <radialGradient
       inkscape:collect="always"
       xlink:href="#linearGradient5368"
       id="radialGradient9423"
       gradientUnits="userSpaceOnUse"
       gradientTransform="matrix(1.968526,1.9541564,-2.0173423,2.0026049,56.177042,691.25517)"
       cx="77.994781"
       cy="78.256454"
       fx="77.994781"
       fy="78.256454"
       r="14.859289" />
    <linearGradient
       id="linearGradient5789">
      <stop
         style="stop-color:#f7f7f7;stop-opacity:1;"
         offset="0"
         id="stop5791" />
      <stop
         style="stop-color:#d0d3d4;stop-opacity:1;"
         offset="1"
         id="stop5793" />
    </linearGradient>
    <radialGradient
       r="14.859289"
       fy="78.052773"
       fx="77.870583"
       cy="78.052773"
       cx="77.870583"
       gradientTransform="matrix(0.51318574,0.88886378,-0.86602518,0.50000039,105.50418,-30.189985)"
       gradientUnits="userSpaceOnUse"
       id="radialGradient5970"
       xlink:href="#linearGradient5789"
       inkscape:collect="always" />
  </defs>
  <sodipodi:namedview
     id="base"
     pagecolor="#ffffff"
     bordercolor="#666666"
     borderopacity="1.0"
     inkscape:pageopacity="0.0"
     inkscape:pageshadow="2"
     inkscape:zoom="2.5490465"
     inkscape:cx="420.96135"
     inkscape:cy="16.526976"
     inkscape:document-units="px"
     inkscape:current-layer="layer1"
     showgrid="true"
     inkscape:window-width="1920"
     inkscape:window-height="1148"
     inkscape:window-x="-8"
     inkscape:window-y="-8"
     inkscape:window-maximized="1"
     borderlayer="true"
     inkscape:snap-global="false">
    <inkscape:grid
       type="xygrid"
       id="grid3847"
       empspacing="5"
       visible="true"
       enabled="true"
       snapvisiblegridlinesonly="true" />
  </sodipodi:namedview>
  <metadata
     id="metadata3844">
    <rdf:RDF>
      <cc:Work
         rdf:about="">
        <dc:format>image/svg+xml</dc:format>
        <dc:type
           rdf:resource="http://purl.org/dc/dcmitype/StillImage" />
        <dc:title></dc:title>
      </cc:Work>
    </rdf:RDF>
  </metadata>
  <g
     inkscape:label="Ebene 1"
     inkscape:groupmode="layer"
     id="layer1"
     transform="translate(0,-952.36217)">
    <path
       sodipodi:nodetypes="ssssssss"
       inkscape:connector-curvature="0"
       id="path6102"
       d="m 86.143025,1010.0477 c -2.449099,9.1403 -7.861038,16.6949 -14.925634,21.9086 -1.479751,1.0922 4.13585,14.4966 2.52314,15.3761 -1.503019,0.8196 -10.226447,-10.8709 -11.824805,-10.2473 -7.693519,3.0018 -16.378099,3.666 -24.966764,1.3647 -21.427631,-5.7416 -34.1437281,-27.7665 -28.402219,-49.19401 5.741535,-21.42777 27.766431,-34.14381 49.194062,-28.40215 21.427631,5.74158 34.143722,27.76643 28.40222,49.19396 z"
       style="color:#000000;display:inline;overflow:visible;visibility:visible;fill:#dd55ff;fill-opacity:1;fill-rule:nonzero;stroke:none;stroke-width:2;marker:none;enable-background:accumulate" />
    <path
       style="color:#000000;display:inline;overflow:visible;visibility:visible;fill:#ff6600;fill-opacity:1;fill-rule:nonzero;stroke:none;stroke-width:2;marker:none;enable-background:accumulate"
       d="m 89.653068,990.46176 c 2.449097,9.13991 1.539789,18.38874 -1.971566,26.43614 -0.735499,1.6854 8.37296,9.2366 7.416095,10.8046 -0.891736,1.4612 -11.83473,-3.0512 -12.90713,-1.7121 -5.161902,6.4465 -12.350927,11.3639 -20.939594,13.6651 -21.427631,5.7417 -43.452554,-6.9744 -49.194062,-28.4022 -5.7415351,-21.42756 6.97459,-43.45237 28.402195,-49.19399 21.427629,-5.74132 43.452553,6.9747 49.194062,28.40245 z"
       id="path6098"
       inkscape:connector-curvature="0"
       sodipodi:nodetypes="ssssssss" />
    <path
       sodipodi:nodetypes="ssssssss"
       inkscape:connector-curvature="0"
       id="path6090"
       d="m 88.827826,998.44267 c 0,9.20413 -3.182757,17.66473 -8.507733,24.34173 -1.115393,1.3987 7.535312,12.5788 6.241489,13.8114 -1.205783,1.1486 -12.344903,-7.6392 -13.689664,-6.6506 -6.472712,4.7571 -14.465116,7.5671 -23.113905,7.5671 -21.577702,0 -39.069867,-17.492 -39.069867,-39.06961 0,-21.57785 17.492165,-39.06975 39.069867,-39.06975 21.57765,0 39.069813,17.4919 39.069813,39.06973 z"
       style="color:#000000;display:inline;overflow:visible;visibility:visible;fill:url(#radialGradient9419);fill-opacity:1;fill-rule:nonzero;stroke:none;stroke-width:2;marker:none;enable-background:accumulate" />
    <g
       style="font-style:italic;font-variant:normal;font-weight:800;font-stretch:normal;font-size:26.80947113px;line-height:125%;font-family:'Open Sans';-inkscape-font-specification:'Open Sans Ultra-Bold Italic';text-align:start;letter-spacing:0px;word-spacing:0px;writing-mode:lr-tb;text-anchor:start;fill:#ff6600;fill-opacity:1;stroke:none"
       id="text6092"
       transform="translate(-0.831875,-0.99825)">
      <path
         d="m 32.338769,996.0665 -0.903248,3.03701 h 3.377365 l -0.248721,2.69669 h -3.887897 l -1.518505,5.3409 h -2.879924 l 1.531596,-5.3409 h -2.539569 l -1.505415,5.3409 H 20.94998 l 1.479234,-5.3409 H 19.31366 l 0.23563,-2.69669 h 3.626086 l 0.916339,-3.03701 h -3.298821 l 0.23563,-2.73593 h 3.783172 l 1.557777,-5.32786 h 2.840652 l -1.531596,5.32786 h 2.605022 l 1.518505,-5.32786 h 2.814471 l -1.518505,5.32786 h 3.128644 l -0.23563,2.73593 z m -6.322741,3.03701 h 2.578841 l 0.903248,-3.03701 h -2.56575 z"
         id="path3022"
         inkscape:connector-curvature="0" />
      <path
         d="m 36.80265,1007.1411 4.084256,-19.13839 h 3.992621 l -4.084255,19.13839 z"
         id="path3024"
         inkscape:connector-curvature="0" />
      <path
         d="m 51.686619,996.49849 h 1.021064 c 1.143233,1e-5 2.03339,-0.24871 2.670474,-0.74617 0.637063,-0.49743 0.9556,-1.25668 0.955611,-2.27775 -1.1e-5,-0.71561 -0.207278,-1.25232 -0.621801,-1.61014 -0.414545,-0.3578 -1.066891,-0.5367 -1.957039,-0.53672 h -0.968702 z m -0.6938,3.29882 -1.557777,7.34379 h -3.992621 l 4.044983,-19.13839 h 4.699512 c 2.068298,2e-5 3.621709,0.4451 4.66024,1.33524 1.038503,0.89017 1.557762,2.19487 1.557777,3.91408 -1.5e-5,1.37888 -0.362187,2.56358 -1.086516,3.55408 -0.724359,0.99053 -1.767239,1.72579 -3.128645,2.20576 l 3.416637,8.12923 h -4.346067 l -2.709746,-7.34379 z"
         id="path3026"
         inkscape:connector-curvature="0" />
      <path
         d="m 72.932599,991.07899 c -1.151981,2e-5 -2.188316,0.35346 -3.109009,1.06034 -0.920711,0.7069 -1.660327,1.7476 -2.21885,3.1221 -0.558537,1.37452 -0.837802,2.85157 -0.837796,4.43115 -6e-6,1.45742 0.298895,2.53962 0.896703,3.24642 0.597796,0.7069 1.551224,1.0604 2.860288,1.0604 1.274138,0 2.749006,-0.336 4.42461,-1.008 v 3.4036 c -1.736693,0.6719 -3.4821,1.0079 -5.236225,1.0079 -2.216675,0 -3.940264,-0.6523 -5.170772,-1.957 -1.230515,-1.3047 -1.845771,-3.1527 -1.845769,-5.54387 -2e-6,-2.28647 0.453804,-4.39187 1.361419,-6.31619 0.907608,-1.9243 2.120666,-3.38608 3.639176,-4.38534 1.518497,-0.99923 3.263903,-1.49885 5.236225,-1.49887 1.090867,2e-5 2.059567,0.0982 2.906104,0.29454 0.846508,0.19637 1.754119,0.55636 2.722837,1.07997 l -1.544686,3.27264 c -0.925081,-0.51488 -1.688697,-0.85524 -2.290848,-1.02107 -0.602179,-0.16579 -1.199981,-0.2487 -1.793407,-0.24872 z"
         id="path3028"
         inkscape:connector-curvature="0" />
    </g>
  </g>
</svg>
