<?xml version="1.0" encoding="UTF-8" standalone="no"?>
<svg width="32px" height="32px" viewBox="0 0 32 32" version="1.1" xmlns="http://www.w3.org/2000/svg" xmlns:xlink="http://www.w3.org/1999/xlink" xmlns:sketch="http://www.bohemiancoding.com/sketch/ns">
    <!-- Generator: Sketch 3.0.3 (7891) - http://www.bohemiancoding.com/sketch -->
    <title>icon-statusbar-bt-focused</title>
    <desc>Created with Sketch.</desc>
    <defs></defs>
    <g id="Page-1" stroke="none" stroke-width="1" fill="none" fill-rule="evenodd" sketch:type="MSPage">
        <g id="statusbar_icons" sketch:type="MSArtboardGroup" transform="translate(-212.000000, -219.000000)">
            <g id="bluetooth" sketch:type="MSLayerGroup" transform="translate(212.000000, 219.000000)">
                <path d="M16,32 C24.8365564,32 32,24.8365564 32,16 C32,7.16344357 24.8365564,0 16,0 C7.16344357,0 0,7.16344357 0,16 C0,24.8365564 7.16344357,32 16,32 Z" id="Oval-1" fill="#0091E5" sketch:type="MSShapeGroup"></path>
                <path d="M14.4411399,13.1183685 L14.4411399,3.86456751 L24.9406168,11.3254361 L18.0845429,16.1973233 L24.9406168,21.4401575 L14.4411399,28.9104348 L14.4411399,19.9193885 L9.21600497,23.0665315 L6.85476898,21.2232698 L14.4411399,16.3875012 L6.85476898,11.3464049 L9.21600495,9.66852407 L14.4411399,13.1183685 Z M16.9406294,9.3510799 L16.8647239,13.3880587 L20.1714089,11.2563704 L16.9406294,9.3510799 Z M16.9406294,19.8161962 L16.8647239,23.853175 L20.1714089,21.7214866 L16.9406294,19.8161962 Z" id="Path-19" fill="#FFFFFF" sketch:type="MSShapeGroup"></path>
            </g>
        </g>
    </g>
</svg>