<?xml version="1.0" encoding="UTF-8" standalone="no"?>
<!-- Created with Inkscape (http://www.inkscape.org/) -->

<svg
   xmlns:dc="http://purl.org/dc/elements/1.1/"
   xmlns:cc="http://creativecommons.org/ns#"
   xmlns:rdf="http://www.w3.org/1999/02/22-rdf-syntax-ns#"
   xmlns:svg="http://www.w3.org/2000/svg"
   xmlns="http://www.w3.org/2000/svg"
   xmlns:xlink="http://www.w3.org/1999/xlink"
   xmlns:sodipodi="http://sodipodi.sourceforge.net/DTD/sodipodi-0.dtd"
   xmlns:inkscape="http://www.inkscape.org/namespaces/inkscape"
   width="100"
   height="100"
   id="svg3839"
   version="1.1"
   inkscape:version="0.48.2 r9819"
   sodipodi:docname="icon-l-gallery2.svg"
   inkscape:export-filename="C:\Users\Stephan\Desktop\Photoshop Zeugs\nemoux-master\icons\icon-l-gallery2.png"
   inkscape:export-xdpi="90"
   inkscape:export-ydpi="90">
  <defs
     id="defs3841">
    <linearGradient
       id="linearGradient3967">
      <stop
         style="stop-color:#00cd00;stop-opacity:1;"
         offset="0"
         id="stop3969" />
      <stop
         style="stop-color:#5fb545;stop-opacity:1;"
         offset="1"
         id="stop3971" />
    </linearGradient>
    <linearGradient
       id="linearGradient3833">
      <stop
         style="stop-color:#f58400;stop-opacity:1;"
         offset="0"
         id="stop3835" />
      <stop
         id="stop3809"
         offset="0.50000024"
         style="stop-color:#fac100;stop-opacity:1;" />
      <stop
         style="stop-color:#ffff00;stop-opacity:1;"
         offset="1"
         id="stop3837" />
    </linearGradient>
    <linearGradient
       id="linearGradient3823">
      <stop
         style="stop-color:#6c6c6c;stop-opacity:1;"
         offset="0"
         id="stop3825" />
      <stop
         style="stop-color:#4c3434;stop-opacity:1;"
         offset="1"
         id="stop3827" />
    </linearGradient>
    <linearGradient
       id="linearGradient3815">
      <stop
         style="stop-color:#4a93d7;stop-opacity:1;"
         offset="0"
         id="stop3817" />
      <stop
         style="stop-color:#9cceed;stop-opacity:1;"
         offset="1"
         id="stop3819" />
    </linearGradient>
    <filter
       inkscape:collect="always"
       id="filter3872">
      <feGaussianBlur
         inkscape:collect="always"
         stdDeviation="0.46000015"
         id="feGaussianBlur3874" />
    </filter>
    <filter
       inkscape:collect="always"
       id="filter3898">
      <feGaussianBlur
         inkscape:collect="always"
         stdDeviation="0.30826989"
         id="feGaussianBlur3900" />
    </filter>
    <filter
       inkscape:collect="always"
       id="filter3909">
      <feGaussianBlur
         inkscape:collect="always"
         stdDeviation="0.31531128"
         id="feGaussianBlur3911" />
    </filter>
    <filter
       inkscape:collect="always"
       id="filter3925">
      <feGaussianBlur
         inkscape:collect="always"
         stdDeviation="0.3195058"
         id="feGaussianBlur3927" />
    </filter>
    <filter
       inkscape:collect="always"
       id="filter3936">
      <feGaussianBlur
         inkscape:collect="always"
         stdDeviation="0.35997957"
         id="feGaussianBlur3938" />
    </filter>
    <filter
       color-interpolation-filters="sRGB"
       inkscape:collect="always"
       id="filter3936-9">
      <feGaussianBlur
         inkscape:collect="always"
         stdDeviation="0.35997957"
         id="feGaussianBlur3938-4" />
    </filter>
    <radialGradient
       inkscape:collect="always"
       xlink:href="#linearGradient3833"
       id="radialGradient3998"
       gradientUnits="userSpaceOnUse"
       gradientTransform="matrix(-1.0832487,-0.01352343,0.01196293,-0.95826164,363.17772,1141.3534)"
       cx="134.7928"
       cy="149.22664"
       fx="134.7928"
       fy="149.22664"
       r="24" />
    <linearGradient
       inkscape:collect="always"
       xlink:href="#linearGradient3823"
       id="linearGradient4000"
       gradientUnits="userSpaceOnUse"
       x1="130.82005"
       y1="45.869267"
       x2="151.03842"
       y2="43.6716" />
    <linearGradient
       inkscape:collect="always"
       xlink:href="#linearGradient3815"
       id="linearGradient4010"
       gradientUnits="userSpaceOnUse"
       x1="226.0036"
       y1="976.5437"
       x2="212"
       y2="1024.3622"
       gradientTransform="translate(-169.86823,1.0480638)" />
    <filter
       inkscape:collect="always"
       id="filter4020">
      <feGaussianBlur
         inkscape:collect="always"
         stdDeviation="0.3498541"
         id="feGaussianBlur4022" />
    </filter>
    <linearGradient
       inkscape:collect="always"
       xlink:href="#linearGradient3967"
       id="linearGradient4037"
       gradientUnits="userSpaceOnUse"
       gradientTransform="matrix(0.99999218,-0.00395367,0.00395367,0.99999218,-169.86809,-950.95652)"
       x1="215"
       y1="1012.3622"
       x2="220"
       y2="1032.3622" />
  </defs>
  <sodipodi:namedview
     id="base"
     pagecolor="#ffffff"
     bordercolor="#666666"
     borderopacity="1.0"
     inkscape:pageopacity="0.0"
     inkscape:pageshadow="2"
     inkscape:zoom="2"
     inkscape:cx="53.13924"
     inkscape:cy="117.25824"
     inkscape:document-units="px"
     inkscape:current-layer="layer1"
     showgrid="true"
     inkscape:window-width="1920"
     inkscape:window-height="1148"
     inkscape:window-x="-8"
     inkscape:window-y="-8"
     inkscape:window-maximized="1"
     showguides="true"
     inkscape:guide-bbox="true">
    <inkscape:grid
       type="xygrid"
       id="grid3847"
       empspacing="5"
       visible="true"
       enabled="true"
       snapvisiblegridlinesonly="true" />
    <sodipodi:guide
       orientation="0,1"
       position="42.875001,114.625"
       id="guide2997" />
  </sodipodi:namedview>
  <metadata
     id="metadata3844">
    <rdf:RDF>
      <cc:Work
         rdf:about="">
        <dc:format>image/svg+xml</dc:format>
        <dc:type
           rdf:resource="http://purl.org/dc/dcmitype/StillImage" />
        <dc:title></dc:title>
      </cc:Work>
    </rdf:RDF>
  </metadata>
  <g
     inkscape:label="Ebene 1"
     inkscape:groupmode="layer"
     id="layer1"
     transform="translate(0,-952.36217)">
    <g
       id="g4197"
       transform="matrix(1.0305151,0,0,1.0305151,-2.3560452,-30.759835)">
      <path
         transform="matrix(3.0496908,0,0,3.0496908,-319.02579,-4.3115589)"
         d="m 119.86493,335.35196 c 0,1.68508 -1.36602,3.05111 -3.0511,3.05111 -1.68508,0 -3.05111,-1.36603 -3.05111,-3.05111 0,-1.68508 1.36603,-3.05111 3.05111,-3.05111 1.68508,0 3.0511,1.36603 3.0511,3.05111 z"
         sodipodi:ry="3.0511074"
         sodipodi:rx="3.0511074"
         sodipodi:cy="335.35196"
         sodipodi:cx="116.81383"
         id="path6080"
         style="color:#000000;fill:#ff64c8;fill-opacity:1;fill-rule:nonzero;marker:none;visibility:visible;display:inline;overflow:visible;enable-background:accumulate"
         sodipodi:type="arc" />
      <path
         sodipodi:nodetypes="csssscsccc"
         inkscape:connector-curvature="0"
         id="path6082"
         d="M 44.273137,1021.1565 C 44.937736,1017.1685 55.21495,977.4239 57,977.36217 c 3.275529,-0.11332 3.476015,0.38629 5.21834,1.25741 3.170966,1.58543 3.754249,7.72669 7.823512,9.76139 2.650482,1.32513 6.429225,1.13819 10.66198,0.86578 4.929447,-0.31722 9.648597,0.0138 12.752506,0.0138 -9.428948,1.72437 -24.381388,7.428 -30.988683,-0.27876 -1.318538,-1.53812 -3.506772,-2.29278 -5.215941,-2.29278 l -11.250431,35.27939 z"
         style="fill:#ff64c8;fill-opacity:1" />
      <path
         sodipodi:type="arc"
         style="color:#000000;fill:#ff84d3;fill-opacity:1;fill-rule:nonzero;marker:none;visibility:visible;display:inline;overflow:visible;enable-background:accumulate"
         id="path6084"
         sodipodi:cx="116.81383"
         sodipodi:cy="335.35196"
         sodipodi:rx="3.0511074"
         sodipodi:ry="3.0511074"
         d="m 119.86493,335.35196 c 0,1.68508 -1.36602,3.05111 -3.0511,3.05111 -1.68508,0 -3.05111,-1.36603 -3.05111,-3.05111 0,-1.68508 1.36603,-3.05111 3.05111,-3.05111 1.68508,0 3.0511,1.36603 3.0511,3.05111 z"
         transform="matrix(3.0496908,0,0,3.0496908,-319.02579,-4.3115589)" />
      <path
         style="fill:#ff84d3;fill-opacity:1"
         d="M 44.273137,1021.1565 C 44.937736,1017.1685 55.21495,977.4239 57,977.36217 c 3.275529,-0.11332 3.476015,0.38629 5.21834,1.25741 3.170966,1.58543 3.754249,7.72669 7.823512,9.76139 2.650482,1.32513 6.429225,1.13819 10.66198,0.86578 4.929447,-0.31722 9.648597,0.0138 12.752506,0.0138 -9.428948,1.72437 -24.381388,7.428 -30.988683,-0.27876 -1.318538,-1.53812 -3.506772,-2.29278 -5.215941,-2.29278 l -11.250431,35.27939 z"
         id="path6086"
         inkscape:connector-curvature="0"
         sodipodi:nodetypes="csssscsccc" />
    </g>
    <rect
       transform="matrix(0.86120819,-0.50825235,0.49179277,0.87071228,0,0)"
       style="color:#000000;fill:#ff2a7f;fill-opacity:1;fill-rule:nonzero;stroke:none;stroke-width:2.01655793;marker:none;visibility:visible;display:inline;overflow:visible;enable-background:accumulate"
       id="rect5939"
       width="71.135269"
       height="46.23436"
       x="-485.06772"
       y="865.69849" />
    <rect
       y="713.88428"
       x="-701.14056"
       height="45.98278"
       width="71.52877"
       id="rect5941"
       style="color:#000000;fill:#afe9c6;fill-opacity:1;fill-rule:nonzero;stroke:none;stroke-width:2.01655793;marker:none;visibility:visible;display:inline;overflow:visible;enable-background:accumulate"
       transform="matrix(0.69930519,-0.71482323,0.69930519,0.71482323,0,0)" />
    <rect
       y="642.38477"
       x="701.11127"
       height="45.98278"
       width="71.52877"
       id="rect5931"
       style="color:#000000;fill:#afc6e9;fill-opacity:1;fill-rule:nonzero;stroke:none;stroke-width:2.01655793;marker:none;visibility:visible;display:inline;overflow:visible;enable-background:accumulate"
       transform="matrix(0.69930519,0.71482323,-0.69930519,0.71482323,0,0)" />
    <rect
       y="930.39594"
       x="267.12555"
       height="46.417664"
       width="70.845825"
       id="rect5927"
       style="color:#000000;fill:#2a7fff;fill-opacity:1;fill-rule:nonzero;stroke:none;stroke-width:2.01655793;marker:none;visibility:visible;display:inline;overflow:visible;enable-background:accumulate"
       transform="matrix(0.96447732,0.26416566,-0.25356537,0.96731825,0,0)" />
    <rect
       style="fill:url(#linearGradient4010);fill-opacity:1;stroke:none"
       id="rect3813"
       width="72"
       height="47"
       x="10.131768"
       y="978.41022"
       transform="matrix(0.99999218,-0.00395367,0.00395367,0.99999218,0,0)" />
    <path
       style="opacity:0.95999995000000005;fill:#00a400;fill-opacity:0.69111967;stroke:none;filter:url(#filter3936)"
       d="M 53.09375 61.03125 C 53.055203 61.070103 53.163546 61.617097 53.125 61.65625 C 53.066334 61.715482 52.933666 61.597018 52.875 61.65625 C 52.79203 61.739879 52.957971 62.072921 52.875 62.15625 C 52.816334 62.215482 52.683666 62.097018 52.625 62.15625 C 52.583465 62.198015 52.666534 62.364085 52.625 62.40625 C 52.595615 62.435366 52.529385 62.377134 52.5 62.40625 C 52.470615 62.435366 52.529385 62.502134 52.5 62.53125 C 52.470615 62.560366 52.404385 62.502134 52.375 62.53125 C 52.29203 62.614879 52.457971 62.947921 52.375 63.03125 C 52.345615 63.060366 52.279385 63.002134 52.25 63.03125 C 52.206274 63.075223 52.29286 63.57008 52.25 63.65625 C 52.22381 63.709354 52.15119 63.728146 52.125 63.78125 C 52.058828 63.914813 52.191172 64.147587 52.125 64.28125 C 52.106546 64.318323 52.029385 64.252134 52 64.28125 C 51.970615 64.310366 52.029385 64.377134 52 64.40625 C 51.970615 64.435366 51.904385 64.377134 51.875 64.40625 C 51.826692 64.454841 51.92331 65.108059 51.875 65.15625 C 51.845615 65.185366 51.779385 65.127134 51.75 65.15625 C 51.73984 65.16639 51.749573 66.173151 51.75 66.28125 C 51.750282 66.352549 51.743961 67.021274 51.75 67.03125 C 51.779614 67.060133 51.845386 67.002367 51.875 67.03125 C 51.884034 67.039914 51.87462 67.935251 51.875 68.03125 C 51.875329 68.114549 51.815867 68.222483 51.875 68.28125 C 51.904614 68.310133 51.970386 68.252367 52 68.28125 C 52.012549 68.2937 52.012449 68.643201 52 68.65625 C 51.970615 68.685366 51.904385 68.627134 51.875 68.65625 C 51.845615 68.685366 51.904385 68.752134 51.875 68.78125 C 51.863248 68.793297 50.745439 68.780774 50.625 68.78125 C 50.541701 68.781579 50.434133 68.840017 50.375 68.78125 C 50.333135 68.739715 50.416866 68.573085 50.375 68.53125 C 50.345386 68.502367 50.279614 68.560133 50.25 68.53125 C 50.220386 68.502367 50.279614 68.435133 50.25 68.40625 C 50.220386 68.377367 50.154614 68.435133 50.125 68.40625 C 50.095386 68.377367 50.154614 68.310133 50.125 68.28125 C 50.065867 68.222483 49.949646 68.317955 49.875 68.28125 C 49.822198 68.255459 49.802802 68.182041 49.75 68.15625 C 49.712625 68.137398 49.654614 68.216383 49.625 68.1875 C 49.595386 68.158617 49.654614 68.091383 49.625 68.0625 C 49.49499 67.933663 49.497351 68.027647 49.5 68.09375 C 49.482717 68.071051 49.432977 68.052316 49.375 67.9375 C 49.356254 67.900574 49.404614 67.841383 49.375 67.8125 C 49.333134 67.770665 49.166866 67.854335 49.125 67.8125 C 49.095386 67.783617 49.154614 67.716383 49.125 67.6875 C 49.095386 67.658617 49.029614 67.716383 49 67.6875 C 48.970386 67.658617 49.029614 67.591383 49 67.5625 C 48.958134 67.520665 48.791866 67.604335 48.75 67.5625 C 48.720386 67.533617 48.779614 67.466383 48.75 67.4375 C 48.720386 67.408617 48.662375 67.456352 48.625 67.4375 C 48.572198 67.411709 48.552802 67.338291 48.5 67.3125 C 48.42435 67.274799 48.183029 67.370271 48.125 67.3125 C 48.083135 67.270965 48.166866 67.104335 48.125 67.0625 C 48.083134 67.020665 47.916866 67.104335 47.875 67.0625 C 47.845386 67.033617 47.904614 66.966383 47.875 66.9375 C 47.845386 66.908617 47.779614 66.966383 47.75 66.9375 C 47.720386 66.908617 47.779614 66.841383 47.75 66.8125 C 47.687255 66.750748 47.437745 66.874252 47.375 66.8125 C 47.345386 66.783617 47.404614 66.716383 47.375 66.6875 C 47.291372 66.60483 46.958628 66.77017 46.875 66.6875 C 46.845386 66.658617 46.904614 66.591383 46.875 66.5625 C 46.812255 66.500748 46.562745 66.624252 46.5 66.5625 C 46.470386 66.533617 46.529614 66.466383 46.5 66.4375 C 46.493961 66.427524 45.9339 66.437267 45.875 66.4375 C 45.791701 66.437829 45.683666 66.378268 45.625 66.4375 C 45.595615 66.466616 45.654385 66.533384 45.625 66.5625 C 45.546013 66.641813 45.228874 66.510089 45.125 66.5625 C 45.072403 66.588708 45.052597 66.661292 45 66.6875 C 44.925647 66.724794 44.808666 66.628268 44.75 66.6875 C 44.720615 66.716616 44.779385 66.783384 44.75 66.8125 C 44.687746 66.874747 44.437254 66.750253 44.375 66.8125 C 44.345615 66.841616 44.404385 66.908384 44.375 66.9375 C 44.31743 66.995728 44.075349 66.899202 44 66.9375 C 43.742756 67.063518 44.008997 67.060982 43.625 67.0625 C 43.541701 67.062829 43.433666 67.003268 43.375 67.0625 C 43.345615 67.091616 43.404385 67.158384 43.375 67.1875 C 43.345615 67.216616 43.279385 67.158384 43.25 67.1875 C 43.220615 67.216616 43.279385 67.283384 43.25 67.3125 C 43.167029 67.395829 42.832971 67.229171 42.75 67.3125 C 42.720615 67.341616 42.779385 67.408384 42.75 67.4375 C 42.687746 67.499747 42.437254 67.375253 42.375 67.4375 C 42.345615 67.466616 42.404385 67.533384 42.375 67.5625 C 42.292029 67.645829 41.957971 67.479171 41.875 67.5625 C 41.845615 67.591616 41.904385 67.658384 41.875 67.6875 C 41.816334 67.746732 41.683666 67.659518 41.625 67.71875 C 41.595615 67.747866 41.654385 67.814634 41.625 67.84375 C 41.564938 67.903988 41.160219 67.77261 41.125 67.84375 C 41.087995 67.918397 41.162003 68.018603 41.125 68.09375 C 41.087993 68.167897 40.933666 68.034518 40.875 68.09375 C 40.845615 68.122866 40.904385 68.189634 40.875 68.21875 C 40.845615 68.247866 40.7917 68.218585 40.75 68.21875 C 40.750166 68.26075 40.779385 68.314634 40.75 68.34375 C 40.708466 68.385915 40.541534 68.301585 40.5 68.34375 C 40.470615 68.372866 40.529385 68.439634 40.5 68.46875 C 40.470615 68.497866 40.404385 68.439634 40.375 68.46875 C 40.345615 68.497866 40.404385 68.564634 40.375 68.59375 C 40.345615 68.622866 40.279385 68.564634 40.25 68.59375 C 40.220615 68.622866 40.279385 68.689634 40.25 68.71875 C 40.220615 68.747866 40.154385 68.689634 40.125 68.71875 C 40.095615 68.747866 40.154385 68.814634 40.125 68.84375 C 40.095615 68.872866 40.029385 68.814634 40 68.84375 C 39.970615 68.872866 40.029385 68.939634 40 68.96875 C 39.970615 68.997866 39.904385 68.939634 39.875 68.96875 C 39.845615 68.997866 39.904385 69.064634 39.875 69.09375 C 39.812746 69.155997 39.562254 69.031503 39.5 69.09375 C 39.458166 69.135816 39.541834 69.301584 39.5 69.34375 C 39.441334 69.402982 39.324353 69.306456 39.25 69.34375 C 39.135178 69.401704 39.147702 69.451453 39.125 69.46875 C 39.19109 69.466189 39.285107 69.46384 39.15625 69.59375 C 39.114716 69.635915 38.947784 69.551585 38.90625 69.59375 C 38.876865 69.622866 38.935635 69.689634 38.90625 69.71875 C 38.876865 69.747866 38.810635 69.689634 38.78125 69.71875 C 38.751865 69.747866 38.810635 69.814634 38.78125 69.84375 C 38.751865 69.872866 38.685635 69.814634 38.65625 69.84375 C 38.626865 69.872866 38.685635 69.939634 38.65625 69.96875 C 38.614716 70.010915 38.447784 69.926585 38.40625 69.96875 C 38.376865 69.997866 38.435635 70.064634 38.40625 70.09375 C 38.347584 70.152982 38.214916 70.034518 38.15625 70.09375 C 38.093998 70.156497 38.218504 70.406503 38.15625 70.46875 C 38.126865 70.497866 38.060635 70.439634 38.03125 70.46875 C 38.001865 70.497866 38.060635 70.564634 38.03125 70.59375 C 38.001865 70.622866 37.935635 70.564634 37.90625 70.59375 C 37.876865 70.622866 37.906084 70.67675 37.90625 70.71875 C 37.86455 70.718915 37.810635 70.689634 37.78125 70.71875 C 37.751865 70.747866 37.810635 70.814634 37.78125 70.84375 C 37.615212 71.011408 37.654932 70.635353 37.65625 70.96875 C 37.626865 70.997866 37.560635 70.939634 37.53125 70.96875 C 37.501865 70.997866 37.560635 71.064634 37.53125 71.09375 C 37.501865 71.122866 37.435635 71.064634 37.40625 71.09375 C 37.343998 71.156497 37.468504 71.406503 37.40625 71.46875 C 37.376865 71.497866 37.310635 71.439634 37.28125 71.46875 C 37.251865 71.497866 37.310635 71.564634 37.28125 71.59375 C 37.251865 71.622866 37.185635 71.564634 37.15625 71.59375 C 37.093998 71.656497 37.218504 71.906503 37.15625 71.96875 C 36.990212 72.136408 37.029932 71.760353 37.03125 72.09375 C 37.001865 72.122866 36.935635 72.064634 36.90625 72.09375 C 36.889317 72.110817 36.89185 72.304743 36.90625 72.4375 C 36.862277 72.240099 36.820683 72.042143 36.78125 71.84375 C 36.781416 71.88575 36.685635 71.814634 36.65625 71.84375 C 36.614416 71.885816 36.698084 72.051584 36.65625 72.09375 C 36.614716 72.135915 36.447784 72.051585 36.40625 72.09375 C 36.376865 72.122866 36.435635 72.189634 36.40625 72.21875 C 36.376865 72.247866 36.310635 72.189634 36.28125 72.21875 C 36.251865 72.247866 36.310635 72.314634 36.28125 72.34375 C 36.251865 72.372866 36.185635 72.314634 36.15625 72.34375 C 36.097583 72.402882 36.214916 72.534518 36.15625 72.59375 C 36.126865 72.622866 36.060635 72.564634 36.03125 72.59375 C 35.972583 72.652882 36.089916 72.784518 36.03125 72.84375 C 36.001865 72.872866 35.935635 72.814634 35.90625 72.84375 C 35.895791 72.854261 35.905163 72.884134 35.90625 72.90625 L 42.15625 72.875 C 42.659547 71.799781 44.407075 71 46.5 71 C 48.186441 71 49.635637 71.518521 50.40625 72.28125 C 50.574511 72.281305 50.74591 72.28139 50.78125 72.28125 C 50.82295 72.281085 50.876636 72.252367 50.90625 72.28125 C 50.944099 72.318771 50.919585 72.599639 50.90625 72.84375 L 58.40625 72.8125 C 58.427869 72.690913 58.456145 72.549284 58.40625 72.5 C 58.364384 72.458165 58.198116 72.541835 58.15625 72.5 C 58.126636 72.471117 58.185864 72.403883 58.15625 72.375 C 58.126636 72.346117 58.060864 72.403883 58.03125 72.375 C 57.972117 72.316233 58.090383 72.183767 58.03125 72.125 C 58.001636 72.096117 57.935864 72.153883 57.90625 72.125 C 57.847117 72.066233 57.906578 71.957999 57.90625 71.875 C 57.905092 71.582002 57.93697 71.933287 57.78125 71.625 C 57.730855 71.525198 57.831645 71.349802 57.78125 71.25 C 57.764821 71.217465 57.558938 71.129636 57.65625 71.03125 C 57.714916 70.972018 57.822951 71.000329 57.90625 71 C 57.977549 70.999718 58.650211 70.990024 58.65625 71 C 58.685864 71.028883 58.626636 71.096117 58.65625 71.125 C 58.715383 71.183767 58.847117 71.066233 58.90625 71.125 C 59.073609 71.29134 58.697923 71.251318 59.03125 71.25 C 59.08275 71.249796 59.37302 71.217131 59.40625 71.25 C 59.465382 71.308667 59.347117 71.441233 59.40625 71.5 C 59.468995 71.561752 59.718505 71.438248 59.78125 71.5 C 59.810864 71.528883 59.751636 71.596117 59.78125 71.625 C 59.810864 71.653883 59.876636 71.596117 59.90625 71.625 C 59.935864 71.653883 59.876636 71.721117 59.90625 71.75 C 59.965383 71.808767 60.097117 71.691233 60.15625 71.75 C 60.198415 71.791734 60.114084 71.958166 60.15625 72 C 60.218995 72.061752 60.468505 71.938248 60.53125 72 C 60.560864 72.028883 60.501636 72.096117 60.53125 72.125 C 60.560864 72.153883 60.626636 72.096117 60.65625 72.125 C 60.685864 72.153883 60.626636 72.221117 60.65625 72.25 C 60.739878 72.33267 61.072622 72.16733 61.15625 72.25 C 61.185864 72.278883 61.126636 72.346117 61.15625 72.375 C 61.239878 72.45767 61.572622 72.29233 61.65625 72.375 C 61.685864 72.403883 61.626636 72.471117 61.65625 72.5 C 61.704939 72.547808 62.357561 72.452192 62.40625 72.5 C 62.435864 72.528883 62.376636 72.596117 62.40625 72.625 C 62.43948 72.657869 62.72975 72.625204 62.78125 72.625 C 62.83275 72.624796 63.12302 72.592131 63.15625 72.625 C 63.185864 72.653883 63.126636 72.721117 63.15625 72.75 C 63.204939 72.797808 63.857561 72.702192 63.90625 72.75 C 63.921007 72.764442 63.913155 72.788473 63.90625 72.8125 L 66.65625 72.78125 C 66.649155 72.757278 66.641607 72.733308 66.65625 72.71875 C 66.66221 72.708726 67.22235 72.718983 67.28125 72.71875 C 67.32295 72.718585 67.376636 72.689867 67.40625 72.71875 C 67.421007 72.733192 67.413155 72.757223 67.40625 72.78125 L 67.65625 72.78125 C 67.6663 72.667508 67.656751 71.595513 67.65625 71.46875 C 67.654932 71.135353 67.698607 71.50969 67.53125 71.34375 C 67.468503 71.281498 67.593995 71.030502 67.53125 70.96875 C 67.271229 70.711076 67.543405 71.362918 67.28125 70.84375 C 67.243655 70.769298 67.340383 70.652517 67.28125 70.59375 C 67.251636 70.564867 67.185864 70.622633 67.15625 70.59375 C 67.093503 70.531498 67.218995 70.280502 67.15625 70.21875 C 67.126636 70.189867 67.060864 70.247633 67.03125 70.21875 C 67.001636 70.189867 67.060864 70.122633 67.03125 70.09375 C 67.001636 70.064867 66.935864 70.122633 66.90625 70.09375 C 66.847117 70.034983 66.965383 69.902517 66.90625 69.84375 C 66.876636 69.814867 66.810864 69.872633 66.78125 69.84375 C 66.751636 69.814867 66.810864 69.747633 66.78125 69.71875 C 66.751636 69.689867 66.685864 69.747633 66.65625 69.71875 C 66.626636 69.689867 66.656416 69.63575 66.65625 69.59375 C 66.61455 69.593915 66.560864 69.622633 66.53125 69.59375 C 66.468503 69.531498 66.562745 69.280502 66.5 69.21875 C 66.470386 69.189867 66.404614 69.247633 66.375 69.21875 C 66.36797 69.211278 66.375328 68.426749 66.375 68.34375 C 66.374796 68.29225 66.40823 68.001619 66.375 67.96875 C 66.345386 67.939867 66.279614 67.997633 66.25 67.96875 C 66.208135 67.927215 66.291866 67.760585 66.25 67.71875 C 66.104026 67.573926 66.126803 67.924746 66.125 67.46875 C 66.124718 67.397351 66.131039 66.728726 66.125 66.71875 C 66.065867 66.659983 65.934133 66.777517 65.875 66.71875 C 65.615344 66.459775 66.271244 66.726791 65.75 66.46875 C 65.712625 66.449898 65.654614 66.497633 65.625 66.46875 C 65.595386 66.439867 65.654614 66.372633 65.625 66.34375 C 65.565867 66.284983 65.434133 66.433767 65.375 66.375 C 65.345386 66.346117 65.404614 66.278883 65.375 66.25 C 65.315867 66.191233 65.184133 66.308767 65.125 66.25 C 65.083135 66.208465 65.166866 66.041835 65.125 66 C 65.065867 65.941233 64.934133 66.058767 64.875 66 C 64.845386 65.971117 64.904614 65.903883 64.875 65.875 C 64.836146 65.836153 64.288854 65.913847 64.25 65.875 C 64.220386 65.846117 64.279614 65.778883 64.25 65.75 C 64.154425 65.655377 63.181334 65.839284 63 65.75 C 62.947198 65.724209 62.927802 65.650791 62.875 65.625 C 62.770725 65.573412 62.454612 65.703686 62.375 65.625 C 62.345386 65.596117 62.404614 65.528883 62.375 65.5 C 62.355425 65.481077 61.894425 65.480923 61.875 65.5 C 61.845615 65.529116 61.904385 65.595884 61.875 65.625 C 61.833466 65.667165 61.666534 65.582835 61.625 65.625 C 61.595615 65.654116 61.654385 65.720884 61.625 65.75 C 61.542029 65.833329 61.207971 65.666671 61.125 65.75 C 61.095615 65.779116 61.154385 65.845884 61.125 65.875 C 61.095615 65.904116 61.029385 65.845884 61 65.875 C 60.970615 65.904116 61.029385 65.970884 61 66 C 60.941334 66.059232 60.808666 65.940768 60.75 66 C 60.720615 66.029116 60.779385 66.095884 60.75 66.125 C 60.720615 66.154116 60.654385 66.095884 60.625 66.125 C 60.583465 66.166765 60.666534 66.332835 60.625 66.375 C 60.595615 66.404116 60.529385 66.345884 60.5 66.375 C 60.470615 66.404116 60.529385 66.470884 60.5 66.5 C 60.470615 66.529116 60.404385 66.470884 60.375 66.5 C 60.345615 66.529116 60.404385 66.595884 60.375 66.625 C 60.345615 66.654116 60.279385 66.595884 60.25 66.625 C 60.220615 66.654116 60.279385 66.720884 60.25 66.75 C 60.220615 66.779116 60.154385 66.720884 60.125 66.75 C 60.095615 66.779116 60.154385 66.845884 60.125 66.875 C 60.095615 66.904116 60.029385 66.845884 60 66.875 C 59.970615 66.904116 60.029385 66.970884 60 67 C 59.970615 67.029116 59.912225 66.980853 59.875 67 C 59.822403 67.026208 59.802597 67.098792 59.75 67.125 C 59.712775 67.144147 59.654385 67.095884 59.625 67.125 C 59.595615 67.154116 59.654385 67.220884 59.625 67.25 C 59.566334 67.309232 59.433666 67.190768 59.375 67.25 C 59.333465 67.291765 59.416534 67.457835 59.375 67.5 C 59.316334 67.559232 59.183666 67.440768 59.125 67.5 C 59.095615 67.529116 59.154385 67.595884 59.125 67.625 C 59.095615 67.654116 59.029385 67.595884 59 67.625 C 58.970615 67.654116 59.029385 67.720884 59 67.75 C 58.970615 67.779116 58.904385 67.720884 58.875 67.75 C 58.854681 67.77048 58.868423 67.979103 58.875 68.125 C 58.815867 68.066233 58.684133 68.183767 58.625 68.125 C 58.562253 68.062748 58.687745 67.811752 58.625 67.75 C 58.595386 67.721117 58.529614 67.778883 58.5 67.75 C 58.470386 67.721117 58.518746 67.661926 58.5 67.625 C 58.473391 67.572105 58.401609 67.552895 58.375 67.5 C 58.322589 67.396106 58.454612 67.078686 58.375 67 C 58.345386 66.971117 58.279614 67.028883 58.25 67 C 58.220386 66.971117 58.279614 66.903883 58.25 66.875 C 58.220386 66.846117 58.154614 66.903883 58.125 66.875 C 58.086147 66.836453 58.163854 66.288847 58.125 66.25 C 58.095386 66.221117 58.029614 66.278883 58 66.25 C 57.958135 66.208465 58.041866 66.041835 58 66 C 57.970386 65.971117 57.904614 66.028883 57.875 66 C 57.845386 65.971117 57.904614 65.903883 57.875 65.875 C 57.845386 65.846117 57.7917 65.874835 57.75 65.875 C 57.749834 65.833 57.779614 65.778883 57.75 65.75 C 57.720386 65.721117 57.654614 65.810133 57.625 65.78125 C 57.541371 65.69818 57.708628 65.36392 57.625 65.28125 C 57.55884 65.215511 57.458465 65.19792 57.375 65.15625 C 57.374834 65.11425 57.404614 65.060133 57.375 65.03125 C 57.345386 65.002367 57.279614 65.060133 57.25 65.03125 C 57.190867 64.972483 57.309133 64.840017 57.25 64.78125 C 57.220386 64.752367 57.154614 64.810133 57.125 64.78125 C 57.065867 64.722483 57.162592 64.605102 57.125 64.53125 C 57.067046 64.416412 57.01731 64.397711 57 64.375 C 57.002261 64.441102 57.00451 64.535039 56.875 64.40625 C 56.845386 64.377367 56.893746 64.318176 56.875 64.28125 C 56.821883 64.175959 56.678116 64.136441 56.625 64.03125 C 56.533785 63.850609 56.720575 62.875873 56.625 62.78125 C 56.595386 62.752367 56.529614 62.810133 56.5 62.78125 C 56.470386 62.752367 56.518746 62.693176 56.5 62.65625 C 56.473391 62.603355 56.401609 62.584145 56.375 62.53125 C 56.337405 62.456798 56.434133 62.340017 56.375 62.28125 C 56.345386 62.252367 56.279614 62.310133 56.25 62.28125 C 56.220386 62.252367 56.279614 62.185133 56.25 62.15625 C 56.220386 62.127367 56.154614 62.185133 56.125 62.15625 C 56.095386 62.127367 56.143746 62.068176 56.125 62.03125 C 56.071883 61.925959 55.928116 61.886441 55.875 61.78125 C 55.856254 61.744324 55.904614 61.685133 55.875 61.65625 C 55.845386 61.627367 55.7917 61.656085 55.75 61.65625 C 55.749834 61.61425 55.779614 61.560133 55.75 61.53125 C 55.708134 61.489415 55.541866 61.573085 55.5 61.53125 C 55.470386 61.502367 55.498364 61.435133 55.46875 61.40625 C 55.439136 61.377367 55.373364 61.435133 55.34375 61.40625 C 55.197778 61.261826 55.549776 61.279447 55.09375 61.28125 C 54.760423 61.282568 55.136107 61.32219 54.96875 61.15625 C 54.906005 61.094498 54.656495 61.218002 54.59375 61.15625 C 54.564136 61.127367 54.623364 61.060133 54.59375 61.03125 C 54.583511 61.02129 53.576829 61.030823 53.46875 61.03125 L 53.21875 61.03125 C 53.17705 61.031415 53.123135 61.002134 53.09375 61.03125 z "
       transform="translate(0,952.36217)"
       id="path3932" />
    <path
       style="opacity:0.95999995000000005;fill:url(#linearGradient4037);fill-opacity:1;stroke:none;filter:url(#filter3936-9)"
       d="M 54.125 63.65625 C 54.086453 63.695103 54.163546 64.242097 54.125 64.28125 C 54.066334 64.340482 53.933666 64.222018 53.875 64.28125 C 53.79203 64.364879 53.957971 64.697921 53.875 64.78125 C 53.816334 64.840482 53.683666 64.722018 53.625 64.78125 C 53.583465 64.823015 53.666534 64.989085 53.625 65.03125 C 53.595615 65.060366 53.529385 65.002134 53.5 65.03125 C 53.470615 65.060366 53.529385 65.127134 53.5 65.15625 C 53.470615 65.185366 53.404385 65.127134 53.375 65.15625 C 53.29203 65.239879 53.457971 65.572921 53.375 65.65625 C 53.345615 65.685366 53.279385 65.627134 53.25 65.65625 C 53.206274 65.700223 53.29286 66.19508 53.25 66.28125 C 53.22381 66.334354 53.15119 66.353146 53.125 66.40625 C 53.058828 66.539813 53.191172 66.772587 53.125 66.90625 C 53.106546 66.943323 53.029385 66.877134 53 66.90625 C 52.970615 66.935366 53.029385 67.002134 53 67.03125 C 52.970615 67.060366 52.904385 67.002134 52.875 67.03125 C 52.826692 67.079841 52.92331 67.733059 52.875 67.78125 C 52.845615 67.810366 52.779385 67.752134 52.75 67.78125 C 52.73984 67.79139 52.749573 68.798151 52.75 68.90625 C 52.750282 68.977549 52.775211 69.646274 52.78125 69.65625 C 52.810864 69.685133 52.876636 69.627367 52.90625 69.65625 C 52.915284 69.664914 52.90587 70.560251 52.90625 70.65625 C 52.906579 70.739549 52.847117 70.847483 52.90625 70.90625 C 52.935864 70.935133 53.001636 70.877367 53.03125 70.90625 C 53.043799 70.9187 53.043699 71.268201 53.03125 71.28125 C 53.001865 71.310366 52.935635 71.252134 52.90625 71.28125 C 52.876865 71.310366 52.935635 71.377134 52.90625 71.40625 C 52.894498 71.418297 51.776689 71.405774 51.65625 71.40625 C 51.572951 71.406579 51.465383 71.465017 51.40625 71.40625 C 51.364385 71.364715 51.448116 71.198085 51.40625 71.15625 C 51.376636 71.127367 51.310864 71.185133 51.28125 71.15625 C 51.251636 71.127367 51.310864 71.060133 51.28125 71.03125 C 51.251636 71.002367 51.185864 71.060133 51.15625 71.03125 C 51.126636 71.002367 51.185864 70.935133 51.15625 70.90625 C 51.097117 70.847483 50.980896 70.942955 50.90625 70.90625 C 50.853448 70.880459 50.834052 70.807041 50.78125 70.78125 C 50.743875 70.762398 50.685864 70.810133 50.65625 70.78125 C 50.626636 70.752367 50.685864 70.685133 50.65625 70.65625 C 50.52624 70.527413 50.528599 70.6214 50.53125 70.6875 C 50.51396 70.664798 50.464204 70.646062 50.40625 70.53125 C 50.387504 70.494324 50.435864 70.435133 50.40625 70.40625 C 50.364384 70.364415 50.198116 70.448085 50.15625 70.40625 C 50.126636 70.377367 50.185864 70.310133 50.15625 70.28125 C 50.126636 70.252367 50.060864 70.310133 50.03125 70.28125 C 50.001636 70.252367 50.060864 70.185133 50.03125 70.15625 C 49.989384 70.114415 49.823116 70.198085 49.78125 70.15625 C 49.751636 70.127367 49.810864 70.060133 49.78125 70.03125 C 49.751636 70.002367 49.693625 70.081352 49.65625 70.0625 C 49.603448 70.036709 49.584052 69.963291 49.53125 69.9375 C 49.4556 69.899799 49.214279 69.995271 49.15625 69.9375 C 49.114385 69.895965 49.198116 69.729335 49.15625 69.6875 C 49.114384 69.645665 48.948116 69.729335 48.90625 69.6875 C 48.876636 69.658617 48.935864 69.591383 48.90625 69.5625 C 48.876636 69.533617 48.810864 69.591383 48.78125 69.5625 C 48.751636 69.533617 48.810864 69.466383 48.78125 69.4375 C 48.718505 69.375748 48.468995 69.499252 48.40625 69.4375 C 48.376636 69.408617 48.404614 69.341383 48.375 69.3125 C 48.291372 69.22983 47.958628 69.39517 47.875 69.3125 C 47.845386 69.283617 47.904614 69.216383 47.875 69.1875 C 47.812255 69.125748 47.562745 69.249252 47.5 69.1875 C 47.470386 69.158617 47.529614 69.091383 47.5 69.0625 C 47.493961 69.052524 46.9339 69.062267 46.875 69.0625 C 46.791701 69.062829 46.683666 69.003268 46.625 69.0625 C 46.595615 69.091616 46.654385 69.158384 46.625 69.1875 C 46.546013 69.266813 46.228874 69.135089 46.125 69.1875 C 46.072403 69.213708 46.052597 69.286292 46 69.3125 C 45.925647 69.349794 45.808666 69.253268 45.75 69.3125 C 45.720615 69.341616 45.810635 69.408384 45.78125 69.4375 C 45.718996 69.499747 45.468504 69.375253 45.40625 69.4375 C 45.376865 69.466616 45.435635 69.533384 45.40625 69.5625 C 45.34868 69.620728 45.106599 69.524202 45.03125 69.5625 C 44.774006 69.688518 45.040247 69.685982 44.65625 69.6875 C 44.572951 69.687829 44.464916 69.628268 44.40625 69.6875 C 44.376865 69.716616 44.435635 69.783384 44.40625 69.8125 C 44.376865 69.841616 44.310635 69.783384 44.28125 69.8125 C 44.251865 69.841616 44.310635 69.908384 44.28125 69.9375 C 44.198279 70.020829 43.864221 69.854171 43.78125 69.9375 C 43.751865 69.966616 43.810635 70.033384 43.78125 70.0625 C 43.718996 70.124747 43.468504 70.000253 43.40625 70.0625 C 43.376865 70.091616 43.435635 70.158384 43.40625 70.1875 C 43.323279 70.270829 42.989221 70.104171 42.90625 70.1875 C 42.876865 70.216616 42.935635 70.283384 42.90625 70.3125 C 42.847584 70.371732 42.714916 70.253268 42.65625 70.3125 C 42.626865 70.341616 42.685635 70.408384 42.65625 70.4375 C 42.596188 70.497738 42.191469 70.36636 42.15625 70.4375 C 42.119245 70.512147 42.193253 70.612353 42.15625 70.6875 C 42.119243 70.761647 41.964916 70.628268 41.90625 70.6875 C 41.876865 70.716616 41.935635 70.783384 41.90625 70.8125 C 41.876865 70.841616 41.82295 70.843585 41.78125 70.84375 C 41.781416 70.88575 41.810635 70.939634 41.78125 70.96875 C 41.739716 71.010915 41.572784 70.926585 41.53125 70.96875 C 41.501865 70.997866 41.560635 71.064634 41.53125 71.09375 C 41.501865 71.122866 41.435635 71.064634 41.40625 71.09375 C 41.376865 71.122866 41.435635 71.189634 41.40625 71.21875 C 41.376865 71.247866 41.310635 71.189634 41.28125 71.21875 C 41.251865 71.247866 41.310635 71.314634 41.28125 71.34375 C 41.251865 71.372866 41.185635 71.314634 41.15625 71.34375 C 41.126865 71.372866 41.185635 71.439634 41.15625 71.46875 C 41.126865 71.497866 41.060635 71.439634 41.03125 71.46875 C 41.001865 71.497866 41.060635 71.564634 41.03125 71.59375 C 41.001865 71.622866 40.935635 71.564634 40.90625 71.59375 C 40.876865 71.622866 40.935635 71.689634 40.90625 71.71875 C 40.843996 71.780997 40.593504 71.656503 40.53125 71.71875 C 40.489416 71.760816 40.573084 71.926584 40.53125 71.96875 C 40.472584 72.027982 40.355603 71.931456 40.28125 71.96875 C 40.16643 72.026704 40.14778 72.076491 40.125 72.09375 C 40.190849 72.091028 40.285052 72.088889 40.15625 72.21875 C 40.114716 72.260915 39.947784 72.176585 39.90625 72.21875 C 39.876865 72.247866 39.935635 72.314634 39.90625 72.34375 C 39.876865 72.372866 39.810635 72.314634 39.78125 72.34375 C 39.751865 72.372866 39.810635 72.439634 39.78125 72.46875 C 39.751865 72.497866 39.685635 72.439634 39.65625 72.46875 C 39.626865 72.497866 39.685635 72.564634 39.65625 72.59375 C 39.614716 72.635915 39.447784 72.551585 39.40625 72.59375 C 39.376865 72.622866 39.435635 72.689634 39.40625 72.71875 C 39.347584 72.777982 39.214916 72.659518 39.15625 72.71875 C 39.125174 72.750123 39.140341 72.828124 39.15625 72.90625 L 43.46875 72.875 C 44.050921 72.211001 44.864094 71.660726 45.84375 71.34375 C 48.001436 70.645613 50.181742 71.32486 51 72.84375 L 59.40625 72.8125 C 59.768914 72.013783 60.351554 71.447865 61.09375 71.28125 C 62.14277 71.045756 63.235221 71.653468 64.03125 72.78125 L 68.03125 72.78125 C 68.038155 72.757223 68.046007 72.733192 68.03125 72.71875 C 68.001636 72.689867 67.935864 72.747633 67.90625 72.71875 C 67.847117 72.659983 67.965383 72.527517 67.90625 72.46875 C 67.876636 72.439867 67.810864 72.497633 67.78125 72.46875 C 67.751636 72.439867 67.810864 72.372633 67.78125 72.34375 C 67.751636 72.314867 67.685864 72.372633 67.65625 72.34375 C 67.626636 72.314867 67.656416 72.26075 67.65625 72.21875 C 67.61455 72.218915 67.560864 72.247633 67.53125 72.21875 C 67.468503 72.156498 67.593995 71.905502 67.53125 71.84375 C 67.501636 71.814867 67.435864 71.872633 67.40625 71.84375 C 67.39922 71.836278 67.406578 71.051749 67.40625 70.96875 C 67.406046 70.91725 67.43948 70.626619 67.40625 70.59375 C 67.376636 70.564867 67.310864 70.622633 67.28125 70.59375 C 67.239385 70.552215 67.323116 70.385585 67.28125 70.34375 C 67.135276 70.198926 67.158053 70.549746 67.15625 70.09375 C 67.155968 70.022351 67.131039 69.353726 67.125 69.34375 C 67.065867 69.284983 66.934133 69.402517 66.875 69.34375 C 66.745172 69.214262 66.871384 69.216499 66.9375 69.21875 C 66.915072 69.201815 66.866278 69.151313 66.75 69.09375 C 66.712625 69.074898 66.654614 69.122633 66.625 69.09375 C 66.595386 69.064867 66.654614 68.997633 66.625 68.96875 C 66.565867 68.909983 66.434133 69.027517 66.375 68.96875 C 66.345386 68.939867 66.404614 68.872633 66.375 68.84375 C 66.315867 68.784983 66.184133 68.902517 66.125 68.84375 C 66.083135 68.802215 66.166866 68.635585 66.125 68.59375 C 66.065867 68.534983 65.934133 68.652517 65.875 68.59375 C 65.845386 68.564867 65.904614 68.497633 65.875 68.46875 C 65.836146 68.429903 65.288854 68.538847 65.25 68.5 C 65.220386 68.471117 65.279614 68.403883 65.25 68.375 C 65.154425 68.280377 64.181334 68.464284 64 68.375 C 63.947198 68.349209 63.927802 68.275791 63.875 68.25 C 63.770725 68.198412 63.454612 68.328686 63.375 68.25 C 63.345386 68.221117 63.404614 68.153883 63.375 68.125 C 63.355425 68.106077 62.894425 68.105923 62.875 68.125 C 62.845615 68.154116 62.904385 68.220884 62.875 68.25 C 62.833466 68.292165 62.666534 68.207835 62.625 68.25 C 62.595615 68.279116 62.654385 68.345884 62.625 68.375 C 62.542029 68.458329 62.207971 68.291671 62.125 68.375 C 62.095615 68.404116 62.154385 68.470884 62.125 68.5 C 62.095615 68.529116 62.029385 68.470884 62 68.5 C 61.970615 68.529116 62.029385 68.595884 62 68.625 C 61.941334 68.684232 61.808666 68.565768 61.75 68.625 C 61.720615 68.654116 61.779385 68.720884 61.75 68.75 C 61.720615 68.779116 61.654385 68.720884 61.625 68.75 C 61.583465 68.791765 61.666534 68.957835 61.625 69 C 61.595615 69.029116 61.529385 68.970884 61.5 69 C 61.470615 69.029116 61.529385 69.095884 61.5 69.125 C 61.470615 69.154116 61.404385 69.095884 61.375 69.125 C 61.345615 69.154116 61.404385 69.220884 61.375 69.25 C 61.345615 69.279116 61.279385 69.220884 61.25 69.25 C 61.220615 69.279116 61.279385 69.345884 61.25 69.375 C 61.220615 69.404116 61.154385 69.345884 61.125 69.375 C 61.095615 69.404116 61.185635 69.470884 61.15625 69.5 C 61.126865 69.529116 61.060635 69.470884 61.03125 69.5 C 61.001865 69.529116 61.060635 69.595884 61.03125 69.625 C 61.001865 69.654116 60.943475 69.605853 60.90625 69.625 C 60.853653 69.651208 60.833847 69.723792 60.78125 69.75 C 60.744025 69.769147 60.685635 69.720884 60.65625 69.75 C 60.626865 69.779116 60.685635 69.845884 60.65625 69.875 C 60.597584 69.934232 60.464916 69.815768 60.40625 69.875 C 60.364715 69.916765 60.447784 70.082835 60.40625 70.125 C 60.347584 70.184232 60.214916 70.065768 60.15625 70.125 C 60.126865 70.154116 60.185635 70.220884 60.15625 70.25 C 60.126865 70.279116 60.060635 70.220884 60.03125 70.25 C 60.001865 70.279116 60.060635 70.345884 60.03125 70.375 C 60.001865 70.404116 59.935635 70.345884 59.90625 70.375 C 59.885931 70.39548 59.899673 70.604103 59.90625 70.75 C 59.847117 70.691233 59.715383 70.808767 59.65625 70.75 C 59.593503 70.687748 59.718995 70.436752 59.65625 70.375 C 59.626636 70.346117 59.560864 70.403883 59.53125 70.375 C 59.501636 70.346117 59.549996 70.286926 59.53125 70.25 C 59.504641 70.197105 59.432859 70.177895 59.40625 70.125 C 59.353839 70.021106 59.485862 69.703686 59.40625 69.625 C 59.376636 69.596117 59.310864 69.653883 59.28125 69.625 C 59.251636 69.596117 59.310864 69.528883 59.28125 69.5 C 59.251636 69.471117 59.185864 69.528883 59.15625 69.5 C 59.117397 69.461453 59.163854 68.913847 59.125 68.875 C 59.095386 68.846117 59.029614 68.903883 59 68.875 C 58.958135 68.833465 59.041866 68.666835 59 68.625 C 58.970386 68.596117 58.904614 68.653883 58.875 68.625 C 58.845386 68.596117 58.904614 68.528883 58.875 68.5 C 58.845386 68.471117 58.7917 68.499835 58.75 68.5 C 58.749834 68.458 58.779614 68.403883 58.75 68.375 C 58.720386 68.346117 58.654614 68.403883 58.625 68.375 C 58.541371 68.29193 58.708628 67.95767 58.625 67.875 C 58.55884 67.809261 58.458465 67.79167 58.375 67.75 C 58.374834 67.708 58.404614 67.653883 58.375 67.625 C 58.345386 67.596117 58.279614 67.653883 58.25 67.625 C 58.190867 67.566233 58.309133 67.433767 58.25 67.375 C 58.220386 67.346117 58.154614 67.403883 58.125 67.375 C 58.065867 67.316233 58.162592 67.198852 58.125 67.125 C 58.067023 67.010162 58.017245 66.991536 58 66.96875 C 58.002772 67.034605 58.00501 67.128787 57.875 67 C 57.845386 66.971117 57.893746 66.911926 57.875 66.875 C 57.821883 66.769709 57.678116 66.761441 57.625 66.65625 C 57.533785 66.475609 57.720575 65.500873 57.625 65.40625 C 57.595386 65.377367 57.529614 65.435133 57.5 65.40625 C 57.470386 65.377367 57.518746 65.318176 57.5 65.28125 C 57.473391 65.228355 57.401609 65.209145 57.375 65.15625 C 57.337405 65.081798 57.434133 64.965017 57.375 64.90625 C 57.345386 64.877367 57.279614 64.935133 57.25 64.90625 C 57.220386 64.877367 57.279614 64.810133 57.25 64.78125 C 57.220386 64.752367 57.154614 64.810133 57.125 64.78125 C 57.095386 64.752367 57.143746 64.693176 57.125 64.65625 C 57.071883 64.550959 56.928116 64.511441 56.875 64.40625 C 56.856254 64.369324 56.904614 64.310133 56.875 64.28125 C 56.845386 64.252367 56.7917 64.281085 56.75 64.28125 C 56.749834 64.23925 56.779614 64.185133 56.75 64.15625 C 56.708134 64.114415 56.541866 64.198085 56.5 64.15625 C 56.470386 64.127367 56.529614 64.060133 56.5 64.03125 C 56.470386 64.002367 56.404614 64.060133 56.375 64.03125 C 56.229028 63.886826 56.581026 63.904447 56.125 63.90625 C 55.791673 63.907568 56.167357 63.94719 56 63.78125 C 55.937255 63.719498 55.687745 63.843002 55.625 63.78125 C 55.595386 63.752367 55.654614 63.685133 55.625 63.65625 C 55.614761 63.64629 54.608079 63.655823 54.5 63.65625 L 54.25 63.65625 C 54.2083 63.656415 54.154385 63.627134 54.125 63.65625 z "
       transform="translate(0,952.36217)"
       id="path3932-8" />
    <path
       style="fill:#ffffff;fill-opacity:0.79230766;stroke:none;filter:url(#filter3898)"
       d="m 22.5,1003.3622 c -0.121718,0.01 -0.23878,0.031 -0.28125,0.031 -0.134069,5e-4 -1.361932,0.016 -1.375,0.031 -0.03265,0.038 0.03265,0.1184 0,0.1562 -0.08789,0.103 -0.446918,-0.068 -0.5625,0 -0.05857,0.034 -0.09773,0.1223 -0.15625,0.1563 -0.111052,0.065 -0.295198,-0.065 -0.40625,0 -0.0414,0.024 0.03265,0.1184 0,0.1562 -0.064,0.076 -0.322406,-0.05 -0.40625,0 -0.05857,0.034 -0.09773,0.1535 -0.15625,0.1875 -0.111052,0.065 -0.295198,-0.065 -0.40625,0 -0.05857,0.034 -0.06648,0.1223 -0.125,0.1563 -0.08281,0.048 -0.215993,-0.077 -0.28125,0 -0.03265,0.038 0.03265,0.1184 0,0.1562 -0.05375,0.063 -0.758757,-0.062 -0.8125,0 -0.0653,0.077 0.0653,0.2356 0,0.3125 -0.04489,0.053 -0.630686,-0.052 -0.71875,0 -0.577731,0.34 0.16156,0.01 -0.125,0.3438 -0.0653,0.077 -0.198511,-0.048 -0.28125,0 -0.05857,0.034 -0.06643,0.1222 -0.125,0.1562 -0.0838,0.05 -0.373458,-0.076 -0.4375,0 -0.03265,0.038 0.03265,0.1185 0,0.1563 -0.0653,0.077 -0.215993,-0.077 -0.28125,0 -0.03265,0.038 0.03265,0.1184 0,0.1562 -0.0653,0.077 -0.198511,-0.048 -0.28125,0 -0.05857,0.034 -0.06643,0.1535 -0.125,0.1875 -0.0414,0.025 -0.09235,-0.038 -0.125,0 -0.03265,0.038 0.03265,0.1185 0,0.1563 -0.0653,0.077 -0.215993,-0.077 -0.28125,0 -0.03265,0.038 0.03265,0.1184 0,0.1562 -0.03265,0.038 -0.114828,-0.025 -0.15625,0 -0.05857,0.034 -0.06643,0.1223 -0.125,0.1563 -0.08281,0.048 -0.215993,-0.077 -0.28125,0 -0.03265,0.038 0.03265,0.1184 0,0.1562 -0.143485,0.1685 -0.157817,0.048 -0.15625,-0.031 -0.0047,0.01 -0.02428,0.049 -0.03125,0.062 l 0,13.6562 1.90625,-0.031 c 0.0573,-3e-4 0.40083,0.043 0.4375,0 0.03265,-0.038 -0.0639,-0.1185 -0.03125,-0.1563 0.0059,-0.013 0.621941,3e-4 0.6875,0 0.0656,-2e-4 0.680871,0.013 0.6875,0 0.184701,-0.2176 -0.214787,-0.186 0.15625,-0.1875 0.162139,-6e-4 1.007461,0.051 1.09375,0 0.05857,-0.034 0.09773,-0.1222 0.15625,-0.1562 0.0838,-0.05 0.342208,0.075 0.40625,0 0.03265,-0.038 -0.03265,-0.1185 0,-0.1563 0.06928,-0.081 0.336999,0.081 0.40625,0 0.03265,-0.038 -0.03265,-0.1184 0,-0.1562 0.04618,-0.055 0.235046,0.055 0.28125,0 0.03265,-0.038 -0.03265,-0.1185 0,-0.1563 0.06928,-0.081 0.368249,0.081 0.4375,0 0.03265,-0.038 -0.03265,-0.1497 0,-0.1875 0.09237,-0.1081 0.438957,0.1082 0.53125,0 0.03265,-0.038 -0.03265,-0.1184 0,-0.1562 0.04618,-0.055 0.235046,0.055 0.28125,0 0.03265,-0.038 -0.03265,-0.1185 0,-0.1563 0.0653,-0.077 0.215993,0.077 0.28125,0 0.03265,-0.038 -0.03265,-0.1184 0,-0.1562 0.04618,-0.055 0.235046,0.055 0.28125,0 0.03265,-0.038 -0.03265,-0.1185 0,-0.1563 0.03265,-0.038 0.114828,-0.01 0.15625,-0.031 0.05857,-0.034 0.06643,-0.1535 0.125,-0.1875 0.08281,-0.048 0.215993,0.077 0.28125,0 0.03265,-0.038 -0.03265,-0.1185 0,-0.1563 0.04618,-0.055 0.235046,0.055 0.28125,0 0.03265,-0.038 -0.03265,-0.1184 0,-0.1562 0.03265,-0.038 0.09235,0.038 0.125,0 0.03265,-0.038 -0.03265,-0.1185 0,-0.1563 0.03265,-0.038 0.123559,0.038 0.15625,0 0.03265,-0.038 -0.03265,-0.1184 0,-0.1562 0.0653,-0.077 0.215993,0.077 0.28125,0 0.03265,-0.038 -0.03265,-0.1497 0,-0.1875 0.0653,-0.077 0.215993,0.077 0.28125,0 0.03265,-0.038 -0.03265,-0.1185 0,-0.1563 0.0216,-0.025 0.509443,-0.025 0.53125,0 0.0659,0.076 -4.26e-4,0.236 0,0.3438 0.0018,0.4506 0.185864,0.2025 0.28125,0.3125 0.03295,0.038 -0.02089,0.1083 0,0.1562 0.292199,0.6744 -0.0083,-0.1786 0.28125,0.1563 0.03295,0.038 -0.03295,0.1499 0,0.1875 0.03295,0.038 0.123261,-0.038 0.15625,0 0.03295,0.038 -0.03295,0.1187 0,0.1562 0.03295,0.037 0.09205,-0.038 0.125,0 0.0659,0.076 -0.08309,0.2648 0,0.3125 0.08319,0.048 0.193067,-0.033 0.28125,0 0.30827,0.1184 0.02409,0.347 0.15625,0.5 0.03295,0.037 0.09205,-0.038 0.125,0 0.03295,0.037 -0.02089,0.1083 0,0.1563 0.0657,0.1517 0.105958,0.1903 0.125,0.2187 -0.0033,-0.086 0.01164,-0.2299 0.15625,-0.062 0.03295,0.037 -0.03295,0.1187 0,0.1563 0.03295,0.038 0.10411,-0.048 0.125,0 0.04188,0.097 -0.01064,0.2465 0.03125,0.3437 0.04189,0.097 0.215388,-0.076 0.28125,0 0.186416,0.2162 -0.214787,0.1577 0.15625,0.1563 0.03295,0.038 -0.03295,0.1187 0,0.1562 0.03295,0.037 0.0834,-0.024 0.125,0 0.11761,0.068 0.163639,0.2754 0.28125,0.3438 0.127632,0.073 0.467674,-0.11 0.5625,0 0.03295,0.038 -0.03295,0.1187 0,0.1562 0.0659,0.076 0.215388,-0.076 0.28125,0 0.03295,0.037 -0.03295,0.1187 0,0.1563 0.04903,0.057 0.59122,-0.056 0.6875,0 0.05883,0.034 0.06617,0.1227 0.125,0.1562 0.210251,0.1213 1.070999,-0.1212 1.28125,0 0.05883,0.034 0.06617,0.091 0.125,0.125 0.09381,0.054 0.814971,6e-4 0.96875,0 0.0928,-3e-4 0.215993,0.077 0.28125,0 0.03265,-0.038 -0.03265,-0.1184 0,-0.1562 0.0653,-0.077 0.188531,3e-4 0.28125,0 0.0573,-3e-4 0.36958,0.043 0.40625,0 0.03265,-0.038 -0.03265,-0.1185 0,-0.1563 0.0653,-0.077 0.215993,0.077 0.28125,0 0.121018,-0.1423 -0.124748,-0.2488 -0.125,-0.3125 -7.7e-5,-0.019 0.385863,0.024 0.40625,0 0.04619,-0.054 -0.04618,-0.289 0,-0.3437 0.09406,-0.1108 0.298099,0.1726 0.4375,-0.1563 0.04161,-0.098 -0.09525,-0.4244 -0.03125,-0.5 0.04618,-0.055 0.203796,0.055 0.25,0 0.0653,-0.077 -0.0653,-0.2356 0,-0.3125 0.02777,-0.033 0.102774,-0.019 0.15625,0 -0.109261,-0.1264 0.10703,-0.2696 0.125,-0.3125 0.04112,-0.097 -0.0653,-0.2669 0,-0.3437 0.09237,-0.1082 0.470207,0.1081 0.5625,0 0.03265,-0.038 2.16e-4,-0.1017 0,-0.1563 -2.16e-4,-0.055 0.03295,-0.1187 0,-0.1562 -0.07364,-0.086 -0.207552,-0.071 -0.28125,-0.1563 -0.03295,-0.038 2.16e-4,-0.1329 0,-0.1875 -2.16e-4,-0.055 -0.0414,-0.1314 0,-0.1562 0.08281,-0.048 0.215993,0.077 0.28125,0 0.04618,-0.055 -0.124697,-0.08 -0.125,-0.1563 -2.16e-4,-0.055 0.09235,0.038 0.125,0 0.06928,-0.081 -0.06928,-0.4192 0,-0.5 0.03265,-0.038 0.123559,0.038 0.15625,0 0.04619,-0.054 -0.04618,-0.2578 0,-0.3125 0.03265,-0.038 0.09235,0.038 0.125,0 0.0424,-0.05 -0.0428,-0.7617 0,-0.8125 0.03265,-0.038 0.09235,0.038 0.125,0 0.03265,-0.038 -0.03265,-0.1184 0,-0.1562 0.03265,-0.038 0.123559,0.038 0.15625,0 0.03265,-0.038 -0.03265,-0.1185 0,-0.1563 0.03265,-0.038 0.09235,0.038 0.125,0 0.0653,-0.077 -0.0653,-0.2669 0,-0.3437 0.03265,-0.038 0.123559,0.038 0.15625,0 0.09227,-0.1087 -0.09227,-0.5169 0,-0.625 0.03265,-0.038 0.09235,0.038 0.125,0 0.02986,-0.035 0.0221,-0.6057 0,-0.6563 -0.02967,-0.069 -0.09533,-0.088 -0.125,-0.1562 -0.02089,-0.048 0.02089,-0.1396 0,-0.1875 -0.02967,-0.069 -0.126588,-0.088 -0.15625,-0.1563 -0.206597,-0.4769 0.338595,0.224 -0.125,-0.3125 -0.04239,-0.098 0.0646,-0.4249 0,-0.5 -0.0659,-0.076 -0.215388,0.076 -0.28125,0 -0.04661,-0.054 0.04662,-0.2581 0,-0.3125 -0.03295,-0.038 -0.09205,0.037 -0.125,0 -0.03295,-0.038 0.02089,-0.1083 0,-0.1562 -0.135316,-0.3123 -0.584172,-0.525 -0.75,-0.8125 -0.05176,-0.09 0.04189,-0.2465 0,-0.3438 -0.176716,-0.4084 -0.506867,-0.284 -0.53125,-0.3125 -0.0659,-0.076 0.0659,-0.2674 0,-0.3437 -0.07364,-0.086 -0.207552,-0.071 -0.28125,-0.1563 -0.0659,-0.076 0.0659,-0.2361 0,-0.3125 -0.03295,-0.038 -0.123261,0.037 -0.15625,0 -0.03295,-0.038 0.03295,-0.1187 0,-0.1562 -0.03295,-0.038 -0.09205,0.038 -0.125,0 -0.03295,-0.038 0.03295,-0.1187 0,-0.1563 -0.03295,-0.038 -0.123261,0.037 -0.15625,0 -0.03295,-0.038 0.03295,-0.1499 0,-0.1875 -0.03295,-0.038 -0.09205,0.037 -0.125,0 -0.0659,-0.076 0.0659,-0.2361 0,-0.3125 -0.03295,-0.038 -0.123261,0.037 -0.15625,0 -0.03295,-0.038 0.03295,-0.1187 0,-0.1562 -0.03295,-0.038 -0.09205,0.038 -0.125,0 -0.03295,-0.038 0.03295,-0.1187 0,-0.1563 -0.03295,-0.038 -0.123261,0.037 -0.15625,0 -0.03295,-0.038 0.02089,-0.1395 0,-0.1875 -0.02967,-0.069 -0.09533,-0.088 -0.125,-0.1562 -0.04188,-0.097 0.0659,-0.2362 0,-0.3125 -0.03295,-0.038 -0.09205,0.038 -0.125,0 -0.03295,-0.038 0.03295,-0.1187 0,-0.1563 -0.03295,-0.038 -0.123261,0.037 -0.15625,0 -0.03295,-0.038 0.0416,-0.163 0,-0.1875 -0.08319,-0.048 -0.198131,0.048 -0.28125,0 -0.08309,-0.048 0.04189,-0.2152 0,-0.3125 -0.02967,-0.069 -0.09533,-0.088 -0.125,-0.1562 -0.02089,-0.048 0.03295,-0.1187 0,-0.1563 -0.04661,-0.054 -0.234615,0.054 -0.28125,0 -0.03295,-0.038 0.03295,-0.1499 0,-0.1875 -0.03295,-0.038 -0.123261,0.037 -0.15625,0 -0.03295,-0.038 0.0416,-0.1317 0,-0.1562 -0.08319,-0.048 -0.198131,0.048 -0.28125,0 -0.0416,-0.024 0.03295,-0.1187 0,-0.1563 -0.03295,-0.038 -0.0834,0.056 -0.125,0.031 -0.273347,-0.1582 0.008,-0.3137 -0.28125,-0.3125 -0.0656,2e-4 -0.680871,-0.013 -0.6875,0 -0.03265,0.038 0.03265,0.1184 0,0.1562 -0.05823,0.069 -0.511638,-0.03 -0.5625,0 -0.0414,0.024 0.03265,0.1185 0,0.1563 -0.064,0.075 -0.322406,-0.05 -0.40625,0 -0.05857,0.034 -0.09773,0.1222 -0.15625,0.1562 -0.111052,0.065 -0.295198,-0.065 -0.40625,0 -0.05857,0.034 -0.09773,0.1223 -0.15625,0.1563 -0.08281,0.048 -0.215993,-0.077 -0.28125,0 -0.03265,0.038 0.03265,0.1497 0,0.1875 -0.09237,0.1081 -0.438957,-0.1082 -0.53125,0 -0.03265,0.038 0.03265,0.1184 0,0.1562 -0.0429,0.051 -0.675871,-0.051 -0.71875,0 -0.03265,0.038 0.03265,0.1185 0,0.1563 -0.03265,0.038 -0.0836,-0.025 -0.125,0 -0.05857,0.034 -0.06643,0.1222 -0.125,0.1562 -0.0414,0.025 -0.123559,-0.038 -0.15625,0 -0.03265,0.038 0.03265,0.1185 0,0.1563 -0.0653,0.077 -0.215993,-0.077 -0.28125,0 -0.03265,0.038 0.0014,-0.5066 -0.03125,-0.4688 0.09566,-0.1123 -0.07678,0.065 -0.1875,0.1875 -0.01428,-0.06 -0.07133,-0.177 -0.0625,-0.1875 0.03265,-0.038 0.22949,-0.9518 0.25,-1 0.02071,-0.049 -0.02935,0.2649 -0.0625,0.4688 0.03263,-0.04 0.07102,-0.071 0.09375,-0.125 0.04072,-0.096 4.31e-4,-0.3909 0,-0.5 -4.28e-4,-0.1083 0.0659,-0.2362 0,-0.3125 -0.03295,-0.038 -0.09205,0.038 -0.125,0 -0.0659,-0.076 4.26e-4,-0.2047 0,-0.3125 -0.0023,-0.5923 0.0067,-0.1556 -0.15625,-0.3438 -0.0659,-0.076 0.0659,-0.2361 0,-0.3125 -0.03295,-0.038 -0.09205,0.037 -0.125,0 -0.03295,-0.038 0.03295,-0.1187 0,-0.1562 -0.03295,-0.038 -0.123261,0.038 -0.15625,0 -0.03295,-0.038 0.03295,-0.15 0,-0.1875 -0.03295,-0.038 -0.09205,0.038 -0.125,0 -0.03295,-0.038 0.03295,-0.1187 0,-0.1563 -0.03295,-0.038 -0.123261,0.037 -0.15625,0 -0.03295,-0.038 0.03295,-0.1187 0,-0.1562 -0.0659,-0.076 -0.184138,0.076 -0.25,0 -0.04661,-0.054 0.01536,-0.2582 -0.03125,-0.3125 -0.04661,-0.054 -0.234615,0.054 -0.28125,0 -0.03295,-0.038 0.03295,-0.15 0,-0.1875 -0.0659,-0.076 -0.215388,0.076 -0.28125,0 -0.03295,-0.038 0.03295,-0.1187 0,-0.1563 -0.04661,-0.054 -0.234615,0.054 -0.28125,0 -0.03295,-0.038 0.03295,-0.1187 0,-0.1562 -0.0659,-0.076 -0.215388,0.076 -0.28125,0 -0.03295,-0.038 0.03295,-0.1187 0,-0.1563 -0.02723,-0.032 -0.159532,-0.04 -0.28125,-0.031 z m 2.4375,3.5625 c -0.0092,0.011 -0.02486,0.016 -0.03125,0.031 -0.02051,0.048 0.02051,0.1081 0,0.1563 -0.0083,0.02 0.01793,-0.1056 0.03125,-0.1875 z m -0.84375,0.6562 c 0.05857,0.064 0.17726,0.1393 0.34375,0.3125 0.0064,-0.03 0.008,-0.07 0.03125,-0.125 0.01028,-0.024 0.04701,0.028 0.09375,0.094 -0.03451,0.028 -0.07029,0.084 -0.09375,0.094 0.129156,0.1335 0.181961,0.1547 0.28125,0.25 0.0059,0.023 0.01306,0.047 0,0.062 -0.04897,0.058 -0.145776,-0.024 -0.21875,-0.031 -0.02433,-0 -0.04619,0.012 -0.0625,0.031 -0.03265,0.038 0.529814,0.1816 0,0.1563 0.529814,0.025 0.342312,0.055 -0.46875,0.031 0.18808,-0.1738 0.371557,-0.2174 0.53125,-0.2187 0.05703,-5e-4 0.106971,-0.012 0.15625,0 -0.144821,-0.089 -0.31955,-0.1727 -0.46875,-0.094 0.06205,-0.2101 -0.03574,-0.4258 -0.125,-0.5625 z m 0.375,0.375 c -0.02448,-0.025 -0.0072,-0.037 -0.03125,-0.062 -0.01328,0.063 -0.0085,0.079 0.03125,0.062 z m 8.875,11.3125 c 0.04506,0.015 0.06267,0.043 0.0625,0 -1.08e-4,-0.027 -0.03185,-0.012 -0.0625,0 z"
       id="path3894"
       inkscape:connector-curvature="0" />
    <path
       inkscape:connector-curvature="0"
       style="opacity:0.96633002;fill:#ffffff;fill-opacity:0.79230766;stroke:none;filter:url(#filter3925)"
       d="m 236.90625,29.96875 c -0.0509,-0.0071 -0.0915,0.003 -0.125,0.03125 -0.0336,0.0282 0.0336,0.0968 0,0.125 -0.044,0.03706 -0.67472,-0.03706 -0.71875,0 -0.0336,0.0282 0.0336,0.0968 0,0.125 -0.0552,0.04642 -0.78859,-0.04642 -0.84375,0 -0.0336,0.0282 0.0336,0.06555 0,0.09375 -0.067,0.05642 -0.21422,-0.05641 -0.28125,0 -0.0336,0.0282 0.0336,0.0968 0,0.125 -0.0552,0.04642 -0.81984,-0.04642 -0.875,0 -0.0336,0.0282 0.0336,0.0968 0,0.125 -0.067,0.05642 -0.21422,-0.05641 -0.28125,0 -0.0336,0.0282 0.0336,0.0968 0,0.125 -0.0336,0.0282 -0.0914,-0.0282 -0.125,0 -0.0336,0.0282 0.0336,0.0968 0,0.125 -0.0336,0.0282 -0.12269,-0.0282 -0.15625,0 -0.0336,0.0282 0.0336,0.0968 0,0.125 -0.0336,0.0282 -0.125,-0.03989 -0.125,0 0,0.05642 0.125,0.03734 0.125,0.09375 0,0.07978 -0.21422,-0.05641 -0.28125,0 -0.0336,0.0282 0.0336,0.0968 0,0.125 -0.044,0.03706 -0.67472,-0.03706 -0.71875,0 -0.1471,0.123805 -0.0127,0.127243 0.0625,0.125 -0.0254,0.01639 -0.0555,0.06945 -0.1875,0.125 -0.0847,0.03568 -0.21422,-0.05641 -0.28125,0 -0.0336,0.0282 0.0336,0.0968 0,0.125 -0.067,0.05642 -0.24547,-0.05641 -0.3125,0 -0.0336,0.0282 0.0336,0.0968 0,0.125 -0.0336,0.0282 -0.0914,-0.0282 -0.125,0 -0.0336,0.0282 0.0336,0.06555 0,0.09375 -0.0336,0.0282 -0.12269,-0.0282 -0.15625,0 -0.0336,0.0282 0.0336,0.0968 0,0.125 -0.0336,0.0282 -0.0914,-0.0282 -0.125,0 -0.067,0.05642 0.067,0.193586 0,0.25 -0.0336,0.0282 -0.12269,-0.0282 -0.15625,0 -0.0474,0.03989 0.0474,0.210108 0,0.25 -0.0336,0.0282 -0.0914,-0.0282 -0.125,0 -0.067,0.05642 0.067,0.162336 0,0.21875 -0.0336,0.0282 -0.12269,-0.0282 -0.15625,0 -0.0668,0.05618 0.0668,0.787567 0,0.84375 -0.0336,0.0282 -0.0914,-0.0282 -0.125,0 -0.0336,0.0282 0,0.08511 0,0.125 0,0.139454 -0.0441,0.863118 0,0.9375 0.17571,0.295763 0.125,-0.03066 0.125,0.25 0,0.07978 -0.067,0.193586 0,0.25 0.0336,0.0282 0.12269,-0.0282 0.15625,0 0.067,0.05642 -0.067,0.162336 0,0.21875 0.067,0.05642 0.21423,-0.05642 0.28125,0 0.067,0.05642 -0.067,0.193586 0,0.25 0.067,0.05642 0.21423,-0.05642 0.28125,0 0.067,0.05642 -0.067,0.193586 0,0.25 0.0336,0.0282 0.0914,-0.0282 0.125,0 0.0336,0.0282 -0.0336,0.0968 0,0.125 0.0336,0.0282 0.12269,-0.0282 0.15625,0 0.0336,0.0282 -0.0336,0.06555 0,0.09375 0.0336,0.0282 0.12269,-0.0282 0.15625,0 0.0948,0.07978 -0.0948,0.420218 0,0.5 0.0336,0.0282 0.0914,-0.0282 0.125,0 0.0336,0.0282 -0.0212,0.08932 0,0.125 0.0348,0.05851 0.28971,0.231421 0.15625,0.34375 -0.0336,0.0282 -0.12269,-0.0282 -0.15625,0 -0.0474,0.03989 0.0474,0.210109 0,0.25 -0.0336,0.0282 -0.0914,-0.0282 -0.125,0 -0.0474,0.03989 0.0474,0.178859 0,0.21875 -0.0336,0.0282 -0.10882,0 -0.15625,0 0,0.03989 0.0336,0.0968 0,0.125 -0.0336,0.0282 -0.12269,-0.0282 -0.15625,0 -0.0711,0.05984 0.0711,0.315163 0,0.375 -0.0336,0.0282 -0.0914,-0.0282 -0.125,0 -0.0336,0.0282 0.0336,0.0968 0,0.125 -0.0336,0.0282 -0.12269,-0.0282 -0.15625,0 -0.0336,0.0282 0.0336,0.06555 0,0.09375 -0.0336,0.0282 -0.0776,0 -0.125,0 0,0.03989 0.0212,0.08932 0,0.125 -0.29587,0.498054 0.0134,-0.122609 -0.28125,0.125 -0.0336,0.0282 0.0336,0.0968 0,0.125 -0.0336,0.0282 -0.12269,-0.0282 -0.15625,0 -0.0336,0.0282 0.0336,0.0968 0,0.125 -0.0336,0.0282 -0.0914,-0.0282 -0.125,0 -0.0336,0.0282 0.0336,0.06555 0,0.09375 -0.0336,0.0282 -0.12269,-0.0282 -0.15625,0 -0.0711,0.05984 0.0711,0.315163 0,0.375 -0.0336,0.0282 -0.0914,-0.0282 -0.125,0 -0.067,0.05642 0,0.170218 0,0.25 0,0.05643 -0.007,0.588326 0,0.59375 0.0336,0.0282 0.0914,-0.0282 0.125,0 0.0902,0.07591 -0.0591,0.369112 0,0.46875 0.03,0.05045 0.12622,0.07455 0.15625,0.125 0.0212,0.03568 -0.0336,0.0968 0,0.125 0.0336,0.0282 0.0914,-0.0282 0.125,0 0.0711,0.05984 -0.0711,0.283913 0,0.34375 0.0336,0.0282 0.12269,-0.0282 0.15625,0 0.0336,0.0282 0,0.08511 0,0.125 0.0474,0 0.0914,-0.0282 0.125,0 0.0711,0.05984 -0.0711,0.315163 0,0.375 0.067,0.05642 0.21423,-0.05642 0.28125,0 0.0948,0.07978 -0.0948,0.388968 0,0.46875 0.0336,0.0282 0.12269,-0.0282 0.15625,0 0.067,0.05642 -0.067,0.193586 0,0.25 0.0336,0.0282 0.0914,-0.0282 0.125,0 0.0948,0.07978 -0.0948,0.388968 0,0.46875 0.0336,0.0282 0.12269,-0.0282 0.15625,0 0.0552,0.04642 -0.0552,0.672325 0,0.71875 0.0336,0.0282 0.12269,-0.0282 0.15625,0 0.067,0.05642 0,0.170218 0,0.25 0,0.07303 -0.0554,0.422121 0,0.46875 0.0474,0.03989 0.23386,-0.03989 0.28125,0 0.008,0.0071 0,0.763767 0,0.84375 0,0.319131 -0.0646,-0.06582 0.125,0.09375 0.0336,0.0282 -0.0212,0.08932 0,0.125 0.03,0.05045 0.12622,0.07455 0.15625,0.125 0.0805,0.135589 -0.0885,0.769222 0,0.84375 0.0336,0.0282 0.0914,-0.0282 0.125,0 0.0711,0.05984 -0.0711,0.283913 0,0.34375 0.067,0.05642 0.21423,-0.05642 0.28125,0 0.0474,0.03989 -0.0474,0.210109 0,0.25 0.0711,0.05984 0.36641,-0.05984 0.4375,0 0.0336,0.0282 -0.0336,0.0968 0,0.125 0.0336,0.0282 0.12269,-0.0282 0.15625,0 0.0336,0.0282 -0.0336,0.0968 0,0.125 0.0336,0.0282 0.0914,-0.0282 0.125,0 0.0336,0.0282 -0.0336,0.0968 0,0.125 0.0948,0.07978 0.46771,-0.07978 0.5625,0 0.0336,0.0282 -0.0336,0.06555 0,0.09375 0.0552,0.04642 0.81984,-0.04642 0.875,0 0.067,0.05642 -0.067,0.193586 0,0.25 0.0474,0.03989 0.23386,-0.03989 0.28125,0 0.0336,0.0282 0,0.08511 0,0.125 0,0.364895 -0.14099,0.007 -0.28125,0.125 -0.067,0.05642 0,0.138968 0,0.21875 0,0.07303 0.0554,0.453371 0,0.5 -0.0179,0.015 -0.36028,-0.04673 -0.15625,0.125 0.0711,0.05984 0.36641,-0.05984 0.4375,0 0.0336,0.0282 -0.0336,0.06555 0,0.09375 0.067,0.05642 0.19647,-0.03568 0.28125,0 0.0599,0.02523 0.0651,0.09977 0.125,0.125 0.0424,0.01784 0.12269,-0.0282 0.15625,0 0.0336,0.0282 -0.0336,0.0968 0,0.125 0.067,0.05642 0.21423,-0.05642 0.28125,0 0.0336,0.0282 -0.0336,0.0968 0,0.125 0.0336,0.0282 0.11382,-0.01784 0.15625,0 0.0599,0.02523 0.0651,0.09977 0.125,0.125 0.11375,0.04787 0.32375,-0.04787 0.4375,0 0.0599,0.02523 0.0651,0.06852 0.125,0.09375 0.0847,0.03568 0.21423,-0.05642 0.28125,0 0.0336,0.0282 -0.0336,0.0968 0,0.125 0.067,0.05642 0.22772,-0.03568 0.3125,0 0.0599,0.02523 0.0651,0.09977 0.125,0.125 0.0859,0.03613 0.37178,-0.05532 0.4375,0 0.0336,0.0282 -0.0336,0.0968 0,0.125 0.008,0.0071 0.90497,0 1,0 0.22356,0 0.29631,0.217539 0.40625,0.125 0.0336,-0.0282 -0.0336,-0.0968 0,-0.125 0.20403,-0.171725 0.13843,0.109997 0.15625,0.125 0.0142,0.01197 0.39203,0.01197 0.40625,0 0.0336,-0.0282 -0.0336,-0.0968 0,-0.125 0.007,-0.0055 0.65172,0 0.71875,0 0.12294,0 1.26969,0.0097 1.28125,0 0.0336,-0.0282 -0.0336,-0.0968 0,-0.125 0.0711,-0.05984 0.36641,0.05984 0.4375,0 0.0336,-0.0282 -0.0336,-0.0968 0,-0.125 0.0711,-0.05984 0.33516,0.05984 0.40625,0 0.0336,-0.0282 -0.0336,-0.0968 0,-0.125 0.067,-0.05642 0.24548,0.05642 0.3125,0 0.0336,-0.0282 -0.0336,-0.06555 0,-0.09375 0.0474,-0.03989 0.23386,0.03989 0.28125,0 0.29419,-0.247609 -0.46675,-9.73e-4 0.125,-0.25 0.0859,-0.03613 0.37178,0.05532 0.4375,0 0.0336,-0.0282 -0.0336,-0.0968 0,-0.125 0.0336,-0.0282 0.0826,0.01784 0.125,0 0.0599,-0.02523 0.0963,-0.09977 0.15625,-0.125 0.0424,-0.01784 0.12269,0.0282 0.15625,0 0.0336,-0.0282 -0.0336,-0.06555 0,-0.09375 0.0336,-0.0282 0.0914,0.0282 0.125,0 0.0336,-0.0282 -0.0336,-0.0968 0,-0.125 0.0496,-0.04177 0.40799,0.04968 0.4375,0 0.0424,-0.07136 -0.0424,-0.17864 0,-0.25 0.0424,-0.07136 0.21423,0.05642 0.28125,0 0.0336,-0.0282 -0.0336,-0.0968 0,-0.125 0.0336,-0.0282 0.0776,0 0.125,0 0,-0.03989 -0.0336,-0.0968 0,-0.125 0.29419,-0.247609 -0.0146,0.404304 0.28125,-0.09375 0.0429,-0.07225 -0.0658,-0.319679 0,-0.375 0.0336,-0.0282 0.12269,0.0282 0.15625,0 0.0336,-0.0282 -0.0336,-0.0968 0,-0.125 0.0336,-0.0282 0.12269,0.0282 0.15625,0 0.0336,-0.0282 -0.0336,-0.0968 0,-0.125 0.0336,-0.0282 0.0914,0.0282 0.125,0 0.0336,-0.0282 -0.0336,-0.06555 0,-0.09375 0.0336,-0.0282 0.11382,0.01784 0.15625,0 0.0599,-0.02523 0.0651,-0.09977 0.125,-0.125 0.0424,-0.01784 0.13506,0.03568 0.15625,0 0.0424,-0.07136 -0.0424,-0.17864 0,-0.25 0.0424,-0.07136 0.18646,0 0.28125,0 0.0586,0 0.39986,-0.03168 0.4375,0 0.0336,0.0282 -0.0336,0.0968 0,0.125 0.0336,0.0282 0.0914,-0.0282 0.125,0 0.0336,0.0282 -0.0336,0.0968 0,0.125 0.044,0.03706 0.67473,-0.03706 0.71875,0 0.0336,0.0282 -0.0336,0.0968 0,0.125 0.0658,0.05532 0.3204,-0.03613 0.40625,0 0.0599,0.02523 0.0963,0.06852 0.15625,0.09375 0.0424,0.01784 0.12269,-0.0282 0.15625,0 0.0336,0.0282 -0.0336,0.0968 0,0.125 0.0336,0.0282 0.0914,-0.0282 0.125,0 0.0336,0.0282 -0.0336,0.0968 0,0.125 0.0336,0.0282 0.12269,-0.0282 0.15625,0 0.0336,0.0282 -0.0336,0.0968 0,0.125 0.0336,0.0282 0.0914,-0.0282 0.125,0 0.0336,0.0282 -0.0336,0.0968 0,0.125 0.067,0.05642 0.18646,0 0.28125,0 0.37917,0 -0.0334,-0.03457 0.15625,0.125 0.067,0.05642 0.21423,-0.05642 0.28125,0 0.0336,0.0282 -0.0336,0.06555 0,0.09375 0.067,0.05642 0.21423,-0.05642 0.28125,0 0.0336,0.0282 -0.0336,0.0968 0,0.125 0.0336,0.0282 0.11382,-0.01784 0.15625,0 0.0599,0.02523 0.0651,0.09977 0.125,0.125 0.0424,0.01784 0.12269,-0.0282 0.15625,0 0.0336,0.0282 -0.0336,0.0968 0,0.125 0.0336,0.0282 0.0914,-0.0282 0.125,0 0.067,0 0.0963,0.09977 0.15625,0.125 0.0291,0.01227 0.3862,0.01688 0.40625,0 0.0336,-0.0282 -0.0336,-0.0968 0,-0.125 0.0474,-0.03989 0.26511,0.03989 0.3125,0 l 0,-0.125 0,-15.5625 c -0.0336,-0.0282 0.0336,-0.0968 0,-0.125 -0.0336,-0.0282 -0.12269,0.0282 -0.15625,0 -0.0336,-0.0282 0.0336,-0.06555 0,-0.09375 -0.067,-0.05642 -0.21422,0.05642 -0.28125,0 -0.29419,-0.247609 0.4355,-9.73e-4 -0.15625,-0.25 -0.0847,-0.03568 -0.21422,0.05642 -0.28125,0 -0.067,-0.05642 0.067,-0.193585 0,-0.25 -0.067,-0.05641 -0.21422,0.05642 -0.28125,0 -0.0336,-0.0282 0.0336,-0.0968 0,-0.125 -0.067,-0.05641 -0.21422,0.05642 -0.28125,0 -0.0336,-0.0282 0.0336,-0.06555 0,-0.09375 -0.067,-0.05641 -0.21422,0.05642 -0.28125,0 -0.0474,-0.03989 0.0474,-0.210108 0,-0.25 -0.044,-0.03706 -0.67472,0.03706 -0.71875,0 -0.0336,-0.0282 0.0336,-0.0968 0,-0.125 -0.067,-0.05641 -0.21422,0.05642 -0.28125,0 -0.0336,-0.0282 0.0336,-0.0968 0,-0.125 -0.0711,-0.05984 -0.36641,0.05984 -0.4375,0 -0.067,-0.05641 0.067,-0.162335 0,-0.21875 -0.007,-0.0055 -0.62046,0 -0.6875,0 -0.0868,0 -0.50709,0.04663 -0.5625,0 -0.0336,-0.0282 0.0336,-0.0968 0,-0.125 -0.0948,-0.07978 -0.49895,0.07978 -0.59375,0 -0.0336,-0.0282 0.0336,-0.0968 0,-0.125 -0.0552,-0.04642 -0.78859,0.04642 -0.84375,0 -0.0336,-0.0282 0.0336,-0.0968 0,-0.125 -0.0948,-0.07978 -0.4677,0.07978 -0.5625,0 -0.0336,-0.0282 0.0336,-0.0968 0,-0.125 -0.0377,-0.03168 -0.37895,0 -0.4375,0 -0.0868,0 -0.50709,0.04663 -0.5625,0 -0.0336,-0.0282 0.0336,-0.0968 0,-0.125 -0.0948,-0.07978 -0.4677,0.07978 -0.5625,0 -0.0336,-0.0282 0.0336,-0.06555 0,-0.09375 -0.0554,-0.04662 -0.47573,0 -0.5625,0 -0.0868,0 -0.53834,0.04663 -0.59375,0 -0.0336,-0.0282 0.0336,-0.0968 0,-0.125 -0.0552,-0.04642 -0.78859,0.04642 -0.84375,0 -0.0336,-0.0282 0.0336,-0.0968 0,-0.125 -0.0377,-0.03168 -0.37895,0 -0.4375,0 l -2.40625,0 -2.125,0 c -0.0474,0 -0.10538,-0.0242 -0.15625,-0.03125 z M 251.125,48.3125 c -0.0474,0 -0.0474,0.125 0,0.125 0.0474,0 0.0336,-0.0968 0,-0.125 z"
       transform="matrix(0.99999218,-0.00395367,0.00395367,0.99999218,-166.09743,954.07438)"
       id="path3921" />
    <path
       style="fill:url(#radialGradient3998);fill-opacity:1;stroke:none;filter:url(#filter3872)"
       d="m 206,985.36217 -4,-8 6,0 3,4 0,-4 6,0 1,5 2,-5 5,0 1,3 3,-3 4,0 -4,9 7,-3 3,2 -1,3 -3,3 6,2 0,1 -5,3 5,5.00003 0,2 -2,0 -7,-1 3,5 1,2 -1,2 -6,-3 1,6 -2,2 c 0,0 -2,-1 -2,-1 l -4,-5 -3,10 -2,-1 -2,-8 -4,7 -2,0 c 0,0 -2,-2 -2,-3 0,-1 2,-6 2,-6 l -1,0 -5,3 -3,1 -1,-2 c 0,0 1,-4 1,-4 l 4,-3 -1,-1 -4,0 -6,-1 1,-3 6,-2.00003 2,-1 -8,-2 -1,-3 3,-2 5,0 -4,-4 -1,-2 2,-1 7,3 1,-1"
       id="path3831"
       inkscape:connector-curvature="0"
       transform="matrix(0.99992208,-0.01248347,0.01248347,0.99992208,-178.3719,3.6406855)"
       inkscape:export-xdpi="90"
       inkscape:export-ydpi="90" />
    <path
       sodipodi:type="arc"
       style="fill:url(#linearGradient4000);fill-opacity:1;stroke:none;filter:url(#filter4020)"
       id="path3023"
       sodipodi:cx="143.5"
       sodipodi:cy="46"
       sodipodi:rx="9.5"
       sodipodi:ry="8"
       d="m 153,46 c 0,4.418278 -4.25329,8 -9.5,8 -5.24671,0 -9.5,-3.581722 -9.5,-8 0,-4.418278 4.25329,-8 9.5,-8 5.24671,0 9.5,3.581722 9.5,8 z"
       transform="matrix(0.95037779,0.35109907,-0.36608514,0.99094304,-68.477311,901.87894)" />
    <path
       inkscape:connector-curvature="0"
       style="opacity:0.94276093;fill:#ffffff;fill-opacity:0.79230766;stroke:none;filter:url(#filter3909)"
       d="m 251.46875,60.09375 c -0.15536,-0.0063 -0.29065,0.0059 -0.375,0.03125 -0.0676,0.02032 -0.0886,0.07343 -0.15625,0.09375 -0.15972,0.04799 -1.04199,-0.04988 -1.125,0 -0.18661,0.112131 0.27277,0.09375 -0.3125,0.09375 -0.0756,0 -0.80522,-0.0044 -0.8125,0 -0.0379,0.02272 0.0379,0.07103 0,0.09375 -0.0535,0.03213 -0.25902,-0.03213 -0.3125,0 -0.0379,0.02272 0.0379,0.07103 0,0.09375 -0.0742,0.04456 -0.40314,-0.0291 -0.5,0 -0.66766,0.200586 0.17568,0.01933 -0.15625,0.21875 -0.0756,0.04544 -0.23687,-0.04544 -0.3125,0 -0.0756,0.04544 0.0756,0.142059 0,0.1875 -0.0535,0.03213 -0.25902,-0.03213 -0.3125,0 -0.0379,0.02272 0.0379,0.07103 0,0.09375 -0.0379,0.02272 -0.14964,-0.02272 -0.1875,0 -0.0379,0.02272 0.0379,0.07103 0,0.09375 -0.0379,0.02272 -0.11839,-0.02272 -0.15625,0 -0.16596,0.09972 -0.0223,0.09556 0.0625,0.09375 -0.0288,0.01322 -0.0701,0.0491 -0.21875,0.09375 -0.0479,0.01437 -0.11839,-0.02272 -0.15625,0 -0.0535,0.03213 0.0535,0.155369 0,0.1875 -0.0756,0.04544 -0.23687,-0.04544 -0.3125,0 -0.0535,0.03213 0.0535,0.155369 0,0.1875 -0.0379,0.02272 -0.11839,-0.02272 -0.15625,0 -0.0379,0.02272 0.0239,0.09626 0,0.125 -0.0339,0.04064 -0.12237,0.05311 -0.15625,0.09375 -0.11063,0.132963 0.16721,0.08093 -0.1875,0.1875 -0.0479,0.01437 -0.11839,-0.02272 -0.15625,0 -0.0535,0.03213 0.0535,0.155369 0,0.1875 -0.0535,0.03213 -0.25902,-0.03213 -0.3125,0 -0.0535,0.03213 0.0535,0.155369 0,0.1875 -0.0756,0.04544 -0.23687,-0.04544 -0.3125,0 -0.0379,0.02272 0.0379,0.07103 0,0.09375 -0.0756,0.04544 -0.26812,-0.04544 -0.34375,0 -0.0379,0.02272 0.0379,0.07103 0,0.09375 -0.0756,0.04544 -0.21683,-0.02874 -0.3125,0 -0.0676,0.02032 -0.0886,0.07343 -0.15625,0.09375 -0.0969,0.0291 -0.39458,-0.04456 -0.46875,0 -0.0379,0.02272 0.0379,0.07103 0,0.09375 -0.0696,0.04179 -0.83357,-0.04061 -0.96875,0 -0.0676,0.02032 -0.0886,0.10468 -0.15625,0.125 -0.0997,0.02996 -1.09431,0 -1.28125,0 -0.0756,0 -0.80522,-0.0044 -0.8125,0 -0.0379,0.02272 0.0379,0.07103 0,0.09375 -0.0753,0.04525 -1.04968,-0.04525 -1.125,0 -0.0379,0.02272 0.0379,0.07103 0,0.09375 -0.0802,0.0482 -0.38854,-0.0482 -0.46875,0 -0.0379,0.02272 0.0379,0.07103 0,0.09375 -0.10691,0.06426 -0.54929,-0.06426 -0.65625,0 0,0.257054 0.0577,-0.03478 -0.15625,0.09375 -0.0379,0.02272 0.0379,0.07103 0,0.09375 -0.0756,0.04544 -0.21683,-0.02874 -0.3125,0 -0.13353,0.04012 -0.18434,0.07974 -0.21875,0.09375 0.0848,-0.0018 0.22846,-0.006 0.0625,0.09375 -0.0742,0.04456 -0.40314,-0.0291 -0.5,0 -0.14862,0.04465 -0.19024,0.08094 -0.21875,0.09375 0.0859,-0.0031 0.22846,-0.006 0.0625,0.09375 -0.10691,0.06426 -0.54929,-0.06426 -0.65625,0 -0.0379,0.02272 0.0379,0.07103 0,0.09375 -0.0379,0.02272 -0.11839,-0.02272 -0.15625,0 -0.0379,0.02272 0.0379,0.07103 0,0.09375 -0.0379,0.02272 -0.11839,-0.02272 -0.15625,0 -0.0535,0.03213 0.0535,0.186618 0,0.21875 -0.0756,0.04544 -0.23687,-0.04544 -0.3125,0 -0.0379,0.02272 0.0379,0.07103 0,0.09375 -0.0379,0.02272 -0.10838,-0.01437 -0.15625,0 -0.077,0.02313 -0.2355,0.164365 -0.3125,0.1875 -0.0479,0.01437 -0.14964,-0.02272 -0.1875,0 -0.0535,0.03213 0.0535,0.155368 0,0.1875 -0.0379,0.02272 -0.11839,-0.02272 -0.15625,0 -0.0379,0.02272 0.0379,0.07103 0,0.09375 -0.0535,0.03213 -0.25902,-0.03213 -0.3125,0 -0.0535,0.03213 0.0535,0.155368 0,0.1875 -0.0379,0.02272 -0.11839,-0.02272 -0.15625,0 -0.0379,0.02272 0,0.06162 0,0.09375 0,0.04545 -0.008,0.495631 0,0.5 0.0379,0.02272 0.11839,-0.02272 0.15625,0 0.0379,0.02272 -0.0379,0.07103 0,0.09375 0.0379,0.02272 0.11839,-0.02272 0.15625,0 0.0379,0.02272 -0.0379,0.07103 0,0.09375 0.10691,0.06426 0.5493,-0.06426 0.65625,0 0.0379,0.02272 -0.0379,0.07103 0,0.09375 0.0756,0.04544 0.21685,-0.02874 0.3125,0 0.0676,0.02032 0.0886,0.07343 0.15625,0.09375 0.0956,0.02874 0.23688,-0.04544 0.3125,0 0.0379,0.02272 -0.0379,0.07103 0,0.09375 0.0379,0.02272 0.11839,-0.02272 0.15625,0 0.0379,0.02272 -0.0379,0.07103 0,0.09375 0.0535,0.03213 0.29028,-0.03213 0.34375,0 0.0379,0.02272 -0.0379,0.07103 0,0.09375 0.0379,0.02272 0.11839,-0.02272 0.15625,0 0.0379,0.02272 -0.0379,0.102282 0,0.125 0.0802,0.0482 0.38854,-0.0482 0.46875,0 0.10691,0.06426 -0.10691,0.310736 0,0.375 0.0379,0.02272 0.10838,-0.01437 0.15625,0 0.13353,0.04012 0.18434,0.07974 0.21875,0.09375 -0.0848,-0.0018 -0.19721,-0.006 -0.0312,0.09375 0.0379,0.02272 0.11839,-0.02272 0.15625,0 0.0379,0.02272 -0.0239,0.06501 0,0.09375 0.19825,0.238231 0.15625,-0.03857 0.15625,0.1875 0,0.293915 0.15424,-0.0013 0.3125,0.09375 0.10691,0.06426 -0.10691,0.341986 0,0.40625 0.0756,0.04544 0.23688,-0.04544 0.3125,0 0.0756,0.04544 0,0.123236 0,0.1875 l 0,1.25 c 0,0.03969 -0.0425,0.255733 0,0.28125 0.0379,0.02272 0.11839,-0.02272 0.15625,0 0.0379,0.02272 -0.0379,0.07103 0,0.09375 0.0379,0.02272 0.14964,-0.02272 0.1875,0 0.0802,0.0482 -0.0802,0.264303 0,0.3125 0.0379,0.02272 0.11839,-0.02272 0.15625,0 0.0379,0.02272 -0.0379,0.07103 0,0.09375 0.0379,0.02272 0.11839,-0.02272 0.15625,0 0.0379,0.02272 -0.0379,0.07103 0,0.09375 0.0379,0.02272 0.11839,-0.02272 0.15625,0 0.0756,0.04544 -0.0756,0.142059 0,0.1875 0.0802,0.0482 0.38854,-0.0482 0.46875,0 0.0539,0.03236 -0.0539,0.155144 0,0.1875 0.0756,0.04544 0.26813,-0.04544 0.34375,0 0.0756,0.04544 -0.0756,0.142059 0,0.1875 0.0623,0.03739 0.87527,-0.03739 0.9375,0 0.0379,0.02272 -0.0379,0.07103 0,0.09375 0.0964,0.05788 1.12834,-0.05533 1.3125,0 0.0676,0.02032 0.0886,0.07343 0.15625,0.09375 0.11294,0.03392 1.22631,0 1.4375,0 0.18647,0 1.91816,0.01163 1.9375,0 0.0379,-0.02272 -0.0379,-0.07103 0,-0.09375 0.0379,-0.02272 0.10838,0.01437 0.15625,0 0.0676,-0.02032 0.0886,-0.07343 0.15625,-0.09375 0.0479,-0.01437 0.10838,0.01437 0.15625,0 0.0417,-0.01255 0.1871,-0.169105 0.3125,-0.09375 0.0379,0.02272 -0.0379,0.07103 0,0.09375 0.0802,0.0482 0.41979,-0.0482 0.5,0 0.0379,0.02272 -0.0379,0.07103 0,0.09375 0.0379,0.02272 0.10838,-0.01437 0.15625,0 0.0676,0.02032 0.0886,0.07343 0.15625,0.09375 0.0479,0.01437 0.11839,-0.02272 0.15625,0 0.0539,0.03236 -0.0539,0.186394 0,0.21875 0.0802,0.0482 0.38854,-0.0482 0.46875,0 0.0756,0.04544 -0.0756,0.142059 0,0.1875 0.0535,0.03213 0.29028,-0.03213 0.34375,0 0.0756,0.04544 -0.0756,0.142059 0,0.1875 0.0379,0.02272 0.11839,-0.02272 0.15625,0 0.0379,0.02272 -0.0379,0.07103 0,0.09375 0.0379,0.02272 0.11839,-0.02272 0.15625,0 0.0802,0.0482 -0.0802,0.233053 0,0.28125 0.0535,0.03213 0.25903,-0.03213 0.3125,0 0.0756,0.04544 -0.0756,0.142059 0,0.1875 0.0756,0.04544 0.20555,0 0.3125,0 l 1.9375,0 c 0.10691,0 0.22352,0.03565 0.3125,0 0.15149,-0.06068 0.29793,-0.117027 0.4375,-0.1875 l 0,-11.5625 c -0.023,8.4e-5 -0.0846,0 -0.0937,0 -0.0964,0 -0.28214,-0.02492 -0.4375,-0.03125 z"
       transform="matrix(0.99999218,-0.00395367,0.00395367,0.99999218,-166.09743,954.07438)"
       id="path3905" />
  </g>
</svg>
