<?xml version="1.0" encoding="UTF-8" standalone="no"?>
<!-- Created with Inkscape (http://www.inkscape.org/) -->

<svg
   xmlns:dc="http://purl.org/dc/elements/1.1/"
   xmlns:cc="http://creativecommons.org/ns#"
   xmlns:rdf="http://www.w3.org/1999/02/22-rdf-syntax-ns#"
   xmlns:svg="http://www.w3.org/2000/svg"
   xmlns="http://www.w3.org/2000/svg"
   xmlns:xlink="http://www.w3.org/1999/xlink"
   xmlns:sodipodi="http://sodipodi.sourceforge.net/DTD/sodipodi-0.dtd"
   xmlns:inkscape="http://www.inkscape.org/namespaces/inkscape"
   width="96"
   height="96"
   viewBox="5 5 90 90"
   id="svg3839"
   version="1.1"
   inkscape:version="0.92.1 unknown"
   sodipodi:docname="icon-app-gallery.svg"
   inkscape:export-filename="C:\Users\Stephan\Desktop\Photoshop Zeugs\nemoux-master\icons\icon-l-gallery2.png"
   inkscape:export-xdpi="90"
   inkscape:export-ydpi="90">
  <defs
     id="defs3841">
    <linearGradient
       id="linearGradient3967">
      <stop
         style="stop-color:#00cd00;stop-opacity:1;"
         offset="0"
         id="stop3969" />
      <stop
         style="stop-color:#5fb545;stop-opacity:1;"
         offset="1"
         id="stop3971" />
    </linearGradient>
    <linearGradient
       id="linearGradient3833">
      <stop
         style="stop-color:#f58400;stop-opacity:1;"
         offset="0"
         id="stop3835" />
      <stop
         id="stop3809"
         offset="0.50000024"
         style="stop-color:#fac100;stop-opacity:1;" />
      <stop
         style="stop-color:#ffff00;stop-opacity:1;"
         offset="1"
         id="stop3837" />
    </linearGradient>
    <linearGradient
       id="linearGradient3823">
      <stop
         style="stop-color:#6c6c6c;stop-opacity:1;"
         offset="0"
         id="stop3825" />
      <stop
         style="stop-color:#4c3434;stop-opacity:1;"
         offset="1"
         id="stop3827" />
    </linearGradient>
    <linearGradient
       id="linearGradient3815">
      <stop
         style="stop-color:#4a93d7;stop-opacity:1;"
         offset="0"
         id="stop3817" />
      <stop
         style="stop-color:#9cceed;stop-opacity:1;"
         offset="1"
         id="stop3819" />
    </linearGradient>
    <filter
       inkscape:collect="always"
       id="filter3898">
      <feGaussianBlur
         inkscape:collect="always"
         stdDeviation="0.30826989"
         id="feGaussianBlur3900" />
    </filter>
    <filter
       inkscape:collect="always"
       id="filter3909">
      <feGaussianBlur
         inkscape:collect="always"
         stdDeviation="0.31531128"
         id="feGaussianBlur3911" />
    </filter>
    <filter
       inkscape:collect="always"
       id="filter3925">
      <feGaussianBlur
         inkscape:collect="always"
         stdDeviation="0.3195058"
         id="feGaussianBlur3927" />
    </filter>
    <filter
       inkscape:collect="always"
       id="filter3936">
      <feGaussianBlur
         inkscape:collect="always"
         stdDeviation="0.35997957"
         id="feGaussianBlur3938" />
    </filter>
    <filter
       inkscape:collect="always"
       id="filter3936-9"
       style="color-interpolation-filters:sRGB">
      <feGaussianBlur
         inkscape:collect="always"
         stdDeviation="0.35997957"
         id="feGaussianBlur3938-4" />
    </filter>
    <radialGradient
       inkscape:collect="always"
       xlink:href="#linearGradient3833"
       id="radialGradient3998"
       gradientUnits="userSpaceOnUse"
       gradientTransform="matrix(-1.0832487,-0.01352343,0.01196293,-0.95826164,363.17772,1141.3534)"
       cx="134.7928"
       cy="149.22664"
       fx="134.7928"
       fy="149.22664"
       r="24" />
    <linearGradient
       inkscape:collect="always"
       xlink:href="#linearGradient3823"
       id="linearGradient4000"
       gradientUnits="userSpaceOnUse"
       x1="130.82005"
       y1="45.869267"
       x2="151.03842"
       y2="43.6716" />
    <linearGradient
       inkscape:collect="always"
       xlink:href="#linearGradient3815"
       id="linearGradient4010"
       gradientUnits="userSpaceOnUse"
       x1="226.0036"
       y1="976.5437"
       x2="212"
       y2="1024.3622"
       gradientTransform="translate(-169.86823,1.0480638)" />
    <filter
       inkscape:collect="always"
       id="filter4020">
      <feGaussianBlur
         inkscape:collect="always"
         stdDeviation="0.3498541"
         id="feGaussianBlur4022" />
    </filter>
    <linearGradient
       inkscape:collect="always"
       xlink:href="#linearGradient3967"
       id="linearGradient4037"
       gradientUnits="userSpaceOnUse"
       gradientTransform="rotate(-0.2265292,-240609.05,42488.758)"
       x1="215"
       y1="1012.3622"
       x2="220"
       y2="1032.3622" />
    <filter
       inkscape:collect="always"
       style="color-interpolation-filters:sRGB"
       id="filter4536"
       x="-0.023009342"
       width="1.0460187"
       y="-0.025079801"
       height="1.0501596">
      <feGaussianBlur
         inkscape:collect="always"
         stdDeviation="0.46158716"
         id="feGaussianBlur4538" />
    </filter>
  </defs>
  <sodipodi:namedview
     id="base"
     pagecolor="#ffffff"
     bordercolor="#666666"
     borderopacity="1.0"
     inkscape:pageopacity="0.0"
     inkscape:pageshadow="2"
     inkscape:zoom="3.8974342"
     inkscape:cx="212.32765"
     inkscape:cy="51.980148"
     inkscape:document-units="px"
     inkscape:current-layer="layer1"
     showgrid="true"
     inkscape:window-width="1920"
     inkscape:window-height="1148"
     inkscape:window-x="-8"
     inkscape:window-y="-8"
     inkscape:window-maximized="1"
     showguides="true"
     inkscape:guide-bbox="true">
    <inkscape:grid
       type="xygrid"
       id="grid3847"
       empspacing="5"
       visible="true"
       enabled="true"
       snapvisiblegridlinesonly="true"
       originx="0"
       originy="0"
       spacingx="1"
       spacingy="1" />
    <sodipodi:guide
       orientation="0,1"
       position="42.875001,114.625"
       id="guide2997"
       inkscape:locked="false" />
  </sodipodi:namedview>
  <metadata
     id="metadata3844">
    <rdf:RDF>
      <cc:Work
         rdf:about="">
        <dc:format>image/svg+xml</dc:format>
        <dc:type
           rdf:resource="http://purl.org/dc/dcmitype/StillImage" />
        <dc:title></dc:title>
      </cc:Work>
    </rdf:RDF>
  </metadata>
  <g
     inkscape:label="Ebene 1"
     inkscape:groupmode="layer"
     id="layer1"
     transform="translate(0,-952.36217)">
    <g
       id="g4197"
       transform="matrix(1.0305151,0,0,1.0305151,-2.3560452,-30.759835)">
      <circle
         transform="matrix(3.0496908,0,0,3.0496908,-319.02579,-4.3115589)"
         id="path6080"
         style="color:#000000;display:inline;overflow:visible;visibility:visible;fill:#ff64c8;fill-opacity:1;fill-rule:nonzero;marker:none;enable-background:accumulate"
         cx="116.81383"
         cy="335.35196"
         r="3.0511074" />
      <path
         sodipodi:nodetypes="csssscsccc"
         inkscape:connector-curvature="0"
         id="path6082"
         d="M 44.273137,1021.1565 C 44.937736,1017.1685 55.21495,977.4239 57,977.36217 c 3.275529,-0.11332 3.476015,0.38629 5.21834,1.25741 3.170966,1.58543 3.754249,7.72669 7.823512,9.76139 2.650482,1.32513 6.429225,1.13819 10.66198,0.86578 4.929447,-0.31722 9.648597,0.0138 12.752506,0.0138 -9.428948,1.72437 -24.381388,7.428 -30.988683,-0.27876 -1.318538,-1.53812 -3.506772,-2.29278 -5.215941,-2.29278 l -11.250431,35.27939 z"
         style="fill:#ff64c8;fill-opacity:1" />
      <circle
         style="color:#000000;display:inline;overflow:visible;visibility:visible;fill:#ff84d3;fill-opacity:1;fill-rule:nonzero;marker:none;enable-background:accumulate"
         id="path6084"
         transform="matrix(3.0496908,0,0,3.0496908,-319.02579,-4.3115589)"
         cx="116.81383"
         cy="335.35196"
         r="3.0511074" />
      <path
         style="fill:#ff84d3;fill-opacity:1"
         d="M 44.273137,1021.1565 C 44.937736,1017.1685 55.21495,977.4239 57,977.36217 c 3.275529,-0.11332 3.476015,0.38629 5.21834,1.25741 3.170966,1.58543 3.754249,7.72669 7.823512,9.76139 2.650482,1.32513 6.429225,1.13819 10.66198,0.86578 4.929447,-0.31722 9.648597,0.0138 12.752506,0.0138 -9.428948,1.72437 -24.381388,7.428 -30.988683,-0.27876 -1.318538,-1.53812 -3.506772,-2.29278 -5.215941,-2.29278 l -11.250431,35.27939 z"
         id="path6086"
         inkscape:connector-curvature="0"
         sodipodi:nodetypes="csssscsccc" />
    </g>
    <rect
       transform="matrix(0.86120819,-0.50825235,0.49179277,0.87071228,0,0)"
       style="color:#000000;display:inline;overflow:visible;visibility:visible;fill:#ff2a7f;fill-opacity:1;fill-rule:nonzero;stroke:none;stroke-width:2.01655793;marker:none;enable-background:accumulate"
       id="rect5939"
       width="71.135269"
       height="46.23436"
       x="-485.06772"
       y="865.69849" />
    <rect
       y="713.88428"
       x="-701.14056"
       height="45.98278"
       width="71.52877"
       id="rect5941"
       style="color:#000000;display:inline;overflow:visible;visibility:visible;fill:#afe9c6;fill-opacity:1;fill-rule:nonzero;stroke:none;stroke-width:2.01655793;marker:none;enable-background:accumulate"
       transform="matrix(0.69930519,-0.71482323,0.69930519,0.71482323,0,0)" />
    <rect
       y="642.38477"
       x="701.11127"
       height="45.98278"
       width="71.52877"
       id="rect5931"
       style="color:#000000;display:inline;overflow:visible;visibility:visible;fill:#afc6e9;fill-opacity:1;fill-rule:nonzero;stroke:none;stroke-width:2.01655793;marker:none;enable-background:accumulate"
       transform="matrix(0.69930519,0.71482323,-0.69930519,0.71482323,0,0)" />
    <rect
       y="930.39594"
       x="267.12555"
       height="46.417664"
       width="70.845825"
       id="rect5927"
       style="color:#000000;display:inline;overflow:visible;visibility:visible;fill:#2a7fff;fill-opacity:1;fill-rule:nonzero;stroke:none;stroke-width:2.01655793;marker:none;enable-background:accumulate"
       transform="matrix(0.96447732,0.26416566,-0.25356537,0.96731825,0,0)" />
    <rect
       style="fill:url(#linearGradient4010);fill-opacity:1;stroke:none"
       id="rect3813"
       width="72"
       height="47"
       x="10.131768"
       y="978.41022"
       transform="rotate(-0.2265292)" />
    <path
       style="opacity:0.95999995;fill:#00a400;fill-opacity:0.69111968;stroke:none;filter:url(#filter3936)"
       d="m 53.09375,61.03125 c -0.03855,0.03885 0.0698,0.585847 0.03125,0.625 -0.05867,0.05923 -0.191334,-0.05923 -0.25,0 -0.08297,0.08363 0.08297,0.416671 0,0.5 -0.05867,0.05923 -0.191334,-0.05923 -0.25,0 -0.04154,0.04176 0.04153,0.207835 0,0.25 -0.02938,0.02912 -0.09562,-0.02912 -0.125,0 -0.02938,0.02912 0.02938,0.09588 0,0.125 -0.02938,0.02912 -0.09562,-0.02912 -0.125,0 -0.08297,0.08363 0.08297,0.416671 0,0.5 -0.02938,0.02912 -0.09562,-0.02912 -0.125,0 -0.04373,0.04397 0.04286,0.53883 0,0.625 -0.02619,0.0531 -0.09881,0.0719 -0.125,0.125 -0.06617,0.133563 0.06617,0.366337 0,0.5 -0.01845,0.03707 -0.09562,-0.02912 -0.125,0 -0.02938,0.02912 0.02938,0.09588 0,0.125 -0.02938,0.02912 -0.09562,-0.02912 -0.125,0 -0.04831,0.04859 0.04831,0.701809 0,0.75 -0.02938,0.02912 -0.09562,-0.02912 -0.125,0 -0.01016,0.01014 -4.27e-4,1.016901 0,1.125 2.82e-4,0.0713 -0.006,0.740024 0,0.75 0.02961,0.02888 0.09539,-0.02888 0.125,0 0.009,0.0087 -3.8e-4,0.904001 0,1 3.29e-4,0.0833 -0.05913,0.191233 0,0.25 0.02961,0.02888 0.09539,-0.02888 0.125,0 0.01255,0.01245 0.01245,0.361951 0,0.375 -0.02938,0.02912 -0.09562,-0.02912 -0.125,0 -0.02938,0.02912 0.02938,0.09588 0,0.125 -0.01175,0.01205 -1.129561,-4.76e-4 -1.25,0 -0.0833,3.29e-4 -0.190867,0.05877 -0.25,0 -0.04187,-0.04153 0.04187,-0.208165 0,-0.25 -0.02961,-0.02888 -0.09539,0.02888 -0.125,0 -0.02961,-0.02888 0.02961,-0.09612 0,-0.125 -0.02961,-0.02888 -0.09539,0.02888 -0.125,0 -0.02961,-0.02888 0.02961,-0.09612 0,-0.125 -0.05913,-0.05877 -0.175354,0.0367 -0.25,0 -0.0528,-0.02579 -0.0722,-0.09921 -0.125,-0.125 -0.03737,-0.01885 -0.09539,0.06013 -0.125,0.03125 -0.02961,-0.02888 0.02961,-0.09612 0,-0.125 -0.13001,-0.128837 -0.127649,-0.03485 -0.125,0.03125 -0.01728,-0.0227 -0.06702,-0.04143 -0.125,-0.15625 -0.01875,-0.03693 0.02961,-0.09612 0,-0.125 -0.04187,-0.04184 -0.208134,0.04184 -0.25,0 -0.02961,-0.02888 0.02961,-0.09612 0,-0.125 -0.02961,-0.02888 -0.09539,0.02888 -0.125,0 -0.02961,-0.02888 0.02961,-0.09612 0,-0.125 -0.04187,-0.04184 -0.208134,0.04184 -0.25,0 -0.02961,-0.02888 0.02961,-0.09612 0,-0.125 -0.02961,-0.02888 -0.08763,0.01885 -0.125,0 -0.0528,-0.02579 -0.0722,-0.09921 -0.125,-0.125 -0.07565,-0.0377 -0.316971,0.05777 -0.375,0 -0.04187,-0.04153 0.04187,-0.208165 0,-0.25 -0.04187,-0.04184 -0.208134,0.04184 -0.25,0 -0.02961,-0.02888 0.02961,-0.09612 0,-0.125 -0.02961,-0.02888 -0.09539,0.02888 -0.125,0 -0.02961,-0.02888 0.02961,-0.09612 0,-0.125 -0.06274,-0.06175 -0.312255,0.06175 -0.375,0 -0.02961,-0.02888 0.02961,-0.09612 0,-0.125 -0.08363,-0.08267 -0.416372,0.08267 -0.5,0 -0.02961,-0.02888 0.02961,-0.09612 0,-0.125 -0.06274,-0.06175 -0.312255,0.06175 -0.375,0 -0.02961,-0.02888 0.02961,-0.09612 0,-0.125 -0.006,-0.01 -0.5661,-2.33e-4 -0.625,0 -0.0833,3.29e-4 -0.191334,-0.05923 -0.25,0 -0.02938,0.02912 0.02938,0.09588 0,0.125 -0.07899,0.07931 -0.396126,-0.05241 -0.5,0 -0.0526,0.02621 -0.0724,0.09879 -0.125,0.125 -0.07435,0.03729 -0.191334,-0.05923 -0.25,0 -0.02938,0.02912 0.02938,0.09588 0,0.125 -0.06225,0.06225 -0.312746,-0.06225 -0.375,0 -0.02938,0.02912 0.02938,0.09588 0,0.125 -0.05757,0.05823 -0.299651,-0.0383 -0.375,0 -0.257244,0.126018 0.009,0.123482 -0.375,0.125 -0.0833,3.29e-4 -0.191334,-0.05923 -0.25,0 -0.02938,0.02912 0.02938,0.09588 0,0.125 -0.02938,0.02912 -0.09562,-0.02912 -0.125,0 -0.02938,0.02912 0.02938,0.09588 0,0.125 -0.08297,0.08333 -0.417029,-0.08333 -0.5,0 -0.02938,0.02912 0.02938,0.09588 0,0.125 -0.06225,0.06225 -0.312746,-0.06225 -0.375,0 -0.02938,0.02912 0.02938,0.09588 0,0.125 -0.08297,0.08333 -0.417029,-0.08333 -0.5,0 -0.02938,0.02912 0.02938,0.09588 0,0.125 -0.05867,0.05923 -0.191334,-0.02798 -0.25,0.03125 -0.02938,0.02912 0.02938,0.09588 0,0.125 -0.06006,0.06024 -0.464781,-0.07114 -0.5,0 -0.03701,0.07465 0.037,0.174853 0,0.25 -0.03701,0.07415 -0.191334,-0.05923 -0.25,0 -0.02938,0.02912 0.02938,0.09588 0,0.125 -0.02938,0.02912 -0.0833,-1.65e-4 -0.125,0 1.66e-4,0.042 0.02938,0.09588 0,0.125 -0.04153,0.04216 -0.208466,-0.04216 -0.25,0 -0.02938,0.02912 0.02938,0.09588 0,0.125 -0.02938,0.02912 -0.09562,-0.02912 -0.125,0 -0.02938,0.02912 0.02938,0.09588 0,0.125 -0.02938,0.02912 -0.09562,-0.02912 -0.125,0 -0.02938,0.02912 0.02938,0.09588 0,0.125 -0.02938,0.02912 -0.09562,-0.02912 -0.125,0 -0.02938,0.02912 0.02938,0.09588 0,0.125 -0.02938,0.02912 -0.09562,-0.02912 -0.125,0 -0.02938,0.02912 0.02938,0.09588 0,0.125 -0.02938,0.02912 -0.09562,-0.02912 -0.125,0 -0.02938,0.02912 0.02938,0.09588 0,0.125 -0.06225,0.06225 -0.312746,-0.06225 -0.375,0 -0.04183,0.04207 0.04183,0.207834 0,0.25 -0.05867,0.05923 -0.175647,-0.03729 -0.25,0 -0.114822,0.05795 -0.102298,0.107703 -0.125,0.125 0.06609,-0.0026 0.160107,-0.0049 0.03125,0.125 -0.04153,0.04216 -0.208466,-0.04216 -0.25,0 -0.02938,0.02912 0.02938,0.09588 0,0.125 -0.02938,0.02912 -0.09562,-0.02912 -0.125,0 -0.02938,0.02912 0.02938,0.09588 0,0.125 -0.02938,0.02912 -0.09562,-0.02912 -0.125,0 -0.02938,0.02912 0.02938,0.09588 0,0.125 -0.04153,0.04216 -0.208466,-0.04216 -0.25,0 -0.02938,0.02912 0.02938,0.09588 0,0.125 -0.05867,0.05923 -0.191334,-0.05923 -0.25,0 -0.06225,0.06275 0.06225,0.312753 0,0.375 -0.02938,0.02912 -0.09562,-0.02912 -0.125,0 -0.02938,0.02912 0.02938,0.09588 0,0.125 -0.02938,0.02912 -0.09562,-0.02912 -0.125,0 -0.02938,0.02912 -1.66e-4,0.083 0,0.125 -0.0417,1.65e-4 -0.09562,-0.02912 -0.125,0 -0.02938,0.02912 0.02938,0.09588 0,0.125 -0.166038,0.167658 -0.126318,-0.208397 -0.125,0.125 -0.02938,0.02912 -0.09562,-0.02912 -0.125,0 -0.02938,0.02912 0.02938,0.09588 0,0.125 -0.02938,0.02912 -0.09562,-0.02912 -0.125,0 -0.06225,0.06275 0.06225,0.312753 0,0.375 -0.02938,0.02912 -0.09562,-0.02912 -0.125,0 -0.02938,0.02912 0.02938,0.09588 0,0.125 -0.02938,0.02912 -0.09562,-0.02912 -0.125,0 -0.06225,0.06275 0.06225,0.312753 0,0.375 -0.166038,0.167658 -0.126318,-0.208397 -0.125,0.125 -0.02938,0.02912 -0.09562,-0.02912 -0.125,0 -0.01693,0.01707 -0.0144,0.210993 0,0.34375 -0.04397,-0.197401 -0.08557,-0.395357 -0.125,-0.59375 1.66e-4,0.042 -0.09562,-0.02912 -0.125,0 -0.04183,0.04207 0.04183,0.207834 0,0.25 -0.04153,0.04216 -0.208466,-0.04216 -0.25,0 -0.02938,0.02912 0.02938,0.09588 0,0.125 -0.02938,0.02912 -0.09562,-0.02912 -0.125,0 -0.02938,0.02912 0.02938,0.09588 0,0.125 -0.02938,0.02912 -0.09562,-0.02912 -0.125,0 -0.05867,0.05913 0.05867,0.190768 0,0.25 -0.02938,0.02912 -0.09562,-0.02912 -0.125,0 -0.05867,0.05913 0.05867,0.190768 0,0.25 -0.02938,0.02912 -0.09562,-0.02912 -0.125,0 -0.01046,0.01051 -0.0011,0.04038 0,0.0625 l 6.25,-0.03125 C 42.659547,71.799781 44.407075,71 46.5,71 c 1.686441,0 3.135637,0.518521 3.90625,1.28125 0.168261,5.5e-5 0.33966,1.4e-4 0.375,0 0.0417,-1.65e-4 0.09539,-0.02888 0.125,0 0.03785,0.03752 0.01333,0.318389 0,0.5625 l 7.5,-0.03125 c 0.02162,-0.121587 0.04989,-0.263216 0,-0.3125 -0.04187,-0.04184 -0.208134,0.04184 -0.25,0 -0.02961,-0.02888 0.02961,-0.09612 0,-0.125 -0.02961,-0.02888 -0.09539,0.02888 -0.125,0 -0.05913,-0.05877 0.05913,-0.191233 0,-0.25 -0.02961,-0.02888 -0.09539,0.02888 -0.125,0 -0.05913,-0.05877 3.28e-4,-0.167001 0,-0.25 -0.0012,-0.292998 0.03072,0.05829 -0.125,-0.25 -0.0504,-0.0998 0.0504,-0.275198 0,-0.375 -0.01643,-0.03253 -0.222312,-0.120364 -0.125,-0.21875 0.05867,-0.05923 0.166701,-0.03092 0.25,-0.03125 0.0713,-2.82e-4 0.743961,-0.01 0.75,0 0.02961,0.02888 -0.02961,0.09612 0,0.125 0.05913,0.05877 0.190867,-0.05877 0.25,0 0.167359,0.16634 -0.208327,0.126318 0.125,0.125 0.0515,-2.04e-4 0.34177,-0.03287 0.375,0 0.05913,0.05867 -0.05913,0.191233 0,0.25 0.06274,0.06175 0.312255,-0.06175 0.375,0 0.02961,0.02888 -0.02961,0.09612 0,0.125 0.02961,0.02888 0.09539,-0.02888 0.125,0 0.02961,0.02888 -0.02961,0.09612 0,0.125 0.05913,0.05877 0.190867,-0.05877 0.25,0 0.04216,0.04173 -0.04217,0.208166 0,0.25 0.06274,0.06175 0.312255,-0.06175 0.375,0 0.02961,0.02888 -0.02961,0.09612 0,0.125 0.02961,0.02888 0.09539,-0.02888 0.125,0 0.02961,0.02888 -0.02961,0.09612 0,0.125 0.08363,0.08267 0.416372,-0.08267 0.5,0 0.02961,0.02888 -0.02961,0.09612 0,0.125 0.08363,0.08267 0.416372,-0.08267 0.5,0 0.02961,0.02888 -0.02961,0.09612 0,0.125 0.04869,0.04781 0.701311,-0.04781 0.75,0 0.02961,0.02888 -0.02961,0.09612 0,0.125 0.03323,0.03287 0.3235,2.04e-4 0.375,0 0.0515,-2.04e-4 0.34177,-0.03287 0.375,0 0.02961,0.02888 -0.02961,0.09612 0,0.125 0.04869,0.04781 0.701311,-0.04781 0.75,0 0.01476,0.01444 0.0069,0.03847 0,0.0625 l 2.75,-0.03125 c -0.0071,-0.02397 -0.01464,-0.04794 0,-0.0625 0.006,-0.01002 0.5661,2.33e-4 0.625,0 0.0417,-1.65e-4 0.09539,-0.02888 0.125,0 0.01476,0.01444 0.0069,0.03847 0,0.0625 h 0.25 c 0.01005,-0.113742 5.01e-4,-1.185737 0,-1.3125 -0.0013,-0.333397 0.04236,0.04094 -0.125,-0.125 -0.06275,-0.06225 0.06275,-0.313248 0,-0.375 -0.260021,-0.257674 0.01216,0.394168 -0.25,-0.125 -0.03759,-0.07445 0.05913,-0.191233 0,-0.25 -0.02961,-0.02888 -0.09539,0.02888 -0.125,0 -0.06275,-0.06225 0.06275,-0.313248 0,-0.375 -0.02961,-0.02888 -0.09539,0.02888 -0.125,0 -0.02961,-0.02888 0.02961,-0.09612 0,-0.125 -0.02961,-0.02888 -0.09539,0.02888 -0.125,0 -0.05913,-0.05877 0.05913,-0.191233 0,-0.25 -0.02961,-0.02888 -0.09539,0.02888 -0.125,0 -0.02961,-0.02888 0.02961,-0.09612 0,-0.125 -0.02961,-0.02888 -0.09539,0.02888 -0.125,0 -0.02961,-0.02888 1.66e-4,-0.083 0,-0.125 -0.0417,1.65e-4 -0.09539,0.02888 -0.125,0 -0.06275,-0.06225 0.0315,-0.313248 -0.03125,-0.375 -0.02961,-0.02888 -0.09539,0.02888 -0.125,0 -0.007,-0.0075 3.28e-4,-0.792001 0,-0.875 -2.04e-4,-0.0515 0.03323,-0.342131 0,-0.375 -0.02961,-0.02888 -0.09539,0.02888 -0.125,0 -0.04187,-0.04153 0.04187,-0.208165 0,-0.25 -0.145974,-0.144824 -0.123197,0.205996 -0.125,-0.25 -2.82e-4,-0.0714 0.006,-0.740024 0,-0.75 -0.05913,-0.05877 -0.190867,0.05877 -0.25,0 -0.259656,-0.258975 0.396244,0.008 -0.125,-0.25 -0.03737,-0.01885 -0.09539,0.02888 -0.125,0 -0.02961,-0.02888 0.02961,-0.09612 0,-0.125 -0.05913,-0.05877 -0.190867,0.09002 -0.25,0.03125 -0.02961,-0.02888 0.02961,-0.09612 0,-0.125 -0.05913,-0.05877 -0.190867,0.05877 -0.25,0 -0.04187,-0.04153 0.04187,-0.208165 0,-0.25 -0.05913,-0.05877 -0.190867,0.05877 -0.25,0 -0.02961,-0.02888 0.02961,-0.09612 0,-0.125 -0.03885,-0.03885 -0.586146,0.03885 -0.625,0 -0.02961,-0.02888 0.02961,-0.09612 0,-0.125 -0.09557,-0.09462 -1.068666,0.08928 -1.25,0 -0.0528,-0.02579 -0.0722,-0.09921 -0.125,-0.125 -0.104275,-0.05159 -0.420388,0.07869 -0.5,0 -0.02961,-0.02888 0.02961,-0.09612 0,-0.125 -0.01958,-0.01892 -0.480575,-0.01908 -0.5,0 -0.02938,0.02912 0.02938,0.09588 0,0.125 -0.04153,0.04216 -0.208466,-0.04216 -0.25,0 -0.02938,0.02912 0.02938,0.09588 0,0.125 -0.08297,0.08333 -0.417029,-0.08333 -0.5,0 -0.02938,0.02912 0.02938,0.09588 0,0.125 -0.02938,0.02912 -0.09562,-0.02912 -0.125,0 -0.02938,0.02912 0.02938,0.09588 0,0.125 -0.05867,0.05923 -0.191334,-0.05923 -0.25,0 -0.02938,0.02912 0.02938,0.09588 0,0.125 -0.02938,0.02912 -0.09562,-0.02912 -0.125,0 -0.04154,0.04176 0.04153,0.207835 0,0.25 -0.02938,0.02912 -0.09562,-0.02912 -0.125,0 -0.02938,0.02912 0.02938,0.09588 0,0.125 -0.02938,0.02912 -0.09562,-0.02912 -0.125,0 -0.02938,0.02912 0.02938,0.09588 0,0.125 -0.02938,0.02912 -0.09562,-0.02912 -0.125,0 -0.02938,0.02912 0.02938,0.09588 0,0.125 -0.02938,0.02912 -0.09562,-0.02912 -0.125,0 -0.02938,0.02912 0.02938,0.09588 0,0.125 -0.02938,0.02912 -0.09562,-0.02912 -0.125,0 -0.02938,0.02912 0.02938,0.09588 0,0.125 -0.02938,0.02912 -0.08778,-0.01915 -0.125,0 -0.0526,0.02621 -0.0724,0.09879 -0.125,0.125 -0.03722,0.01915 -0.09562,-0.02912 -0.125,0 -0.02938,0.02912 0.02938,0.09588 0,0.125 -0.05867,0.05923 -0.191334,-0.05923 -0.25,0 -0.04154,0.04176 0.04153,0.207835 0,0.25 -0.05867,0.05923 -0.191334,-0.05923 -0.25,0 -0.02938,0.02912 0.02938,0.09588 0,0.125 -0.02938,0.02912 -0.09562,-0.02912 -0.125,0 -0.02938,0.02912 0.02938,0.09588 0,0.125 -0.02938,0.02912 -0.09562,-0.02912 -0.125,0 -0.02032,0.02048 -0.0066,0.229103 0,0.375 -0.05913,-0.05877 -0.190867,0.05877 -0.25,0 -0.06275,-0.06225 0.06274,-0.313248 0,-0.375 -0.02961,-0.02888 -0.09539,0.02888 -0.125,0 -0.02961,-0.02888 0.01875,-0.08807 0,-0.125 -0.02661,-0.0529 -0.09839,-0.0721 -0.125,-0.125 -0.05241,-0.103894 0.07961,-0.421314 0,-0.5 -0.02961,-0.02888 -0.09539,0.02888 -0.125,0 -0.02961,-0.02888 0.02961,-0.09612 0,-0.125 -0.02961,-0.02888 -0.09539,0.02888 -0.125,0 -0.03885,-0.03855 0.03885,-0.586153 0,-0.625 -0.02961,-0.02888 -0.09539,0.02888 -0.125,0 -0.04187,-0.04153 0.04187,-0.208165 0,-0.25 -0.02961,-0.02888 -0.09539,0.02888 -0.125,0 -0.02961,-0.02888 0.02961,-0.09612 0,-0.125 -0.02961,-0.02888 -0.0833,-1.65e-4 -0.125,0 -1.66e-4,-0.042 0.02961,-0.09612 0,-0.125 -0.02961,-0.02888 -0.09539,0.06013 -0.125,0.03125 -0.08363,-0.08307 0.08363,-0.41733 0,-0.5 -0.06616,-0.06574 -0.166535,-0.08333 -0.25,-0.125 -1.66e-4,-0.042 0.02961,-0.09612 0,-0.125 -0.02961,-0.02888 -0.09539,0.02888 -0.125,0 -0.05913,-0.05877 0.05913,-0.191233 0,-0.25 -0.02961,-0.02888 -0.09539,0.02888 -0.125,0 -0.05913,-0.05877 0.03759,-0.176148 0,-0.25 C 57.067046,64.416412 57.01731,64.397711 57,64.375 c 0.0023,0.0661 0.0045,0.160039 -0.125,0.03125 -0.02961,-0.02888 0.01875,-0.08807 0,-0.125 -0.05312,-0.105291 -0.196884,-0.144809 -0.25,-0.25 -0.09121,-0.180641 0.09557,-1.155377 0,-1.25 -0.02961,-0.02888 -0.09539,0.02888 -0.125,0 -0.02961,-0.02888 0.01875,-0.08807 0,-0.125 -0.02661,-0.05289 -0.09839,-0.07211 -0.125,-0.125 -0.0376,-0.07445 0.05913,-0.191233 0,-0.25 -0.02961,-0.02888 -0.09539,0.02888 -0.125,0 -0.02961,-0.02888 0.02961,-0.09612 0,-0.125 -0.02961,-0.02888 -0.09539,0.02888 -0.125,0 -0.02961,-0.02888 0.01875,-0.08807 0,-0.125 -0.05312,-0.105291 -0.196884,-0.144809 -0.25,-0.25 -0.01875,-0.03693 0.02961,-0.09612 0,-0.125 -0.02961,-0.02888 -0.0833,-1.65e-4 -0.125,0 -1.66e-4,-0.042 0.02961,-0.09612 0,-0.125 -0.04187,-0.04183 -0.208134,0.04183 -0.25,0 -0.02961,-0.02888 -0.0016,-0.09612 -0.03125,-0.125 -0.02961,-0.02888 -0.09539,0.02888 -0.125,0 -0.145972,-0.144424 0.206026,-0.126803 -0.25,-0.125 -0.333327,0.0013 0.04236,0.04094 -0.125,-0.125 -0.06274,-0.06175 -0.312255,0.06175 -0.375,0 -0.02961,-0.02888 0.02961,-0.09612 0,-0.125 -0.01024,-0.01 -1.016921,-4.27e-4 -1.125,0 h -0.25 c -0.0417,1.65e-4 -0.09562,-0.02912 -0.125,0 z"
       transform="translate(0,952.36217)"
       id="path3932"
       inkscape:connector-curvature="0" />
    <path
       style="opacity:0.95999995;fill:url(#linearGradient4037);fill-opacity:1;stroke:none;filter:url(#filter3936-9)"
       d="m 54.125,63.65625 c -0.03855,0.03885 0.03855,0.585847 0,0.625 -0.05867,0.05923 -0.191334,-0.05923 -0.25,0 -0.08297,0.08363 0.08297,0.416671 0,0.5 -0.05867,0.05923 -0.191334,-0.05923 -0.25,0 -0.04154,0.04176 0.04153,0.207835 0,0.25 -0.02938,0.02912 -0.09562,-0.02912 -0.125,0 -0.02938,0.02912 0.02938,0.09588 0,0.125 -0.02938,0.02912 -0.09562,-0.02912 -0.125,0 -0.08297,0.08363 0.08297,0.416671 0,0.5 -0.02938,0.02912 -0.09562,-0.02912 -0.125,0 -0.04373,0.04397 0.04286,0.53883 0,0.625 -0.02619,0.0531 -0.09881,0.0719 -0.125,0.125 -0.06617,0.133563 0.06617,0.366337 0,0.5 -0.01845,0.03707 -0.09562,-0.02912 -0.125,0 -0.02938,0.02912 0.02938,0.09588 0,0.125 -0.02938,0.02912 -0.09562,-0.02912 -0.125,0 -0.04831,0.04859 0.04831,0.701809 0,0.75 -0.02938,0.02912 -0.09562,-0.02912 -0.125,0 -0.01016,0.01014 -4.27e-4,1.016901 0,1.125 2.82e-4,0.0713 0.02521,0.740024 0.03125,0.75 0.02961,0.02888 0.09539,-0.02888 0.125,0 0.009,0.0087 -3.8e-4,0.904001 0,1 3.29e-4,0.0833 -0.05913,0.191233 0,0.25 0.02961,0.02888 0.09539,-0.02888 0.125,0 0.01255,0.01245 0.01245,0.361951 0,0.375 -0.02938,0.02912 -0.09562,-0.02912 -0.125,0 -0.02938,0.02912 0.02938,0.09588 0,0.125 -0.01175,0.01205 -1.129561,-4.76e-4 -1.25,0 -0.0833,3.29e-4 -0.190867,0.05877 -0.25,0 -0.04187,-0.04153 0.04187,-0.208165 0,-0.25 -0.02961,-0.02888 -0.09539,0.02888 -0.125,0 -0.02961,-0.02888 0.02961,-0.09612 0,-0.125 -0.02961,-0.02888 -0.09539,0.02888 -0.125,0 -0.02961,-0.02888 0.02961,-0.09612 0,-0.125 -0.05913,-0.05877 -0.175354,0.0367 -0.25,0 -0.0528,-0.02579 -0.0722,-0.09921 -0.125,-0.125 -0.03737,-0.01885 -0.09539,0.02888 -0.125,0 -0.02961,-0.02888 0.02961,-0.09612 0,-0.125 -0.13001,-0.128837 -0.127651,-0.03485 -0.125,0.03125 -0.01729,-0.0227 -0.06705,-0.04144 -0.125,-0.15625 -0.01875,-0.03693 0.02961,-0.09612 0,-0.125 -0.04187,-0.04184 -0.208134,0.04184 -0.25,0 -0.02961,-0.02888 0.02961,-0.09612 0,-0.125 -0.02961,-0.02888 -0.09539,0.02888 -0.125,0 -0.02961,-0.02888 0.02961,-0.09612 0,-0.125 -0.04187,-0.04184 -0.208134,0.04184 -0.25,0 -0.02961,-0.02888 0.02961,-0.09612 0,-0.125 -0.02961,-0.02888 -0.08763,0.0501 -0.125,0.03125 -0.0528,-0.02579 -0.0722,-0.09921 -0.125,-0.125 -0.07565,-0.0377 -0.316971,0.05777 -0.375,0 -0.04187,-0.04153 0.04187,-0.208165 0,-0.25 -0.04187,-0.04184 -0.208134,0.04184 -0.25,0 -0.02961,-0.02888 0.02961,-0.09612 0,-0.125 -0.02961,-0.02888 -0.09539,0.02888 -0.125,0 -0.02961,-0.02888 0.02961,-0.09612 0,-0.125 -0.06274,-0.06175 -0.312255,0.06175 -0.375,0 -0.02961,-0.02888 -0.0016,-0.09612 -0.03125,-0.125 -0.08363,-0.08267 -0.416372,0.08267 -0.5,0 -0.02961,-0.02888 0.02961,-0.09612 0,-0.125 -0.06274,-0.06175 -0.312255,0.06175 -0.375,0 -0.02961,-0.02888 0.02961,-0.09612 0,-0.125 -0.006,-0.01 -0.5661,-2.33e-4 -0.625,0 -0.0833,3.29e-4 -0.191334,-0.05923 -0.25,0 -0.02938,0.02912 0.02938,0.09588 0,0.125 -0.07899,0.07931 -0.396126,-0.05241 -0.5,0 -0.0526,0.02621 -0.0724,0.09879 -0.125,0.125 -0.07435,0.03729 -0.191334,-0.05923 -0.25,0 -0.02938,0.02912 0.06063,0.09588 0.03125,0.125 -0.06225,0.06225 -0.312746,-0.06225 -0.375,0 -0.02938,0.02912 0.02938,0.09588 0,0.125 -0.05757,0.05823 -0.299651,-0.0383 -0.375,0 -0.257244,0.126018 0.009,0.123482 -0.375,0.125 -0.0833,3.29e-4 -0.191334,-0.05923 -0.25,0 -0.02938,0.02912 0.02938,0.09588 0,0.125 -0.02938,0.02912 -0.09562,-0.02912 -0.125,0 -0.02938,0.02912 0.02938,0.09588 0,0.125 -0.08297,0.08333 -0.417029,-0.08333 -0.5,0 -0.02938,0.02912 0.02938,0.09588 0,0.125 -0.06225,0.06225 -0.312746,-0.06225 -0.375,0 -0.02938,0.02912 0.02938,0.09588 0,0.125 -0.08297,0.08333 -0.417029,-0.08333 -0.5,0 -0.02938,0.02912 0.02938,0.09588 0,0.125 -0.05867,0.05923 -0.191334,-0.05923 -0.25,0 -0.02938,0.02912 0.02938,0.09588 0,0.125 -0.06006,0.06024 -0.464781,-0.07114 -0.5,0 -0.03701,0.07465 0.037,0.174853 0,0.25 -0.03701,0.07415 -0.191334,-0.05923 -0.25,0 -0.02938,0.02912 0.02938,0.09588 0,0.125 -0.02938,0.02912 -0.0833,0.03109 -0.125,0.03125 1.66e-4,0.042 0.02938,0.09588 0,0.125 -0.04153,0.04216 -0.208466,-0.04216 -0.25,0 -0.02938,0.02912 0.02938,0.09588 0,0.125 -0.02938,0.02912 -0.09562,-0.02912 -0.125,0 -0.02938,0.02912 0.02938,0.09588 0,0.125 -0.02938,0.02912 -0.09562,-0.02912 -0.125,0 -0.02938,0.02912 0.02938,0.09588 0,0.125 -0.02938,0.02912 -0.09562,-0.02912 -0.125,0 -0.02938,0.02912 0.02938,0.09588 0,0.125 -0.02938,0.02912 -0.09562,-0.02912 -0.125,0 -0.02938,0.02912 0.02938,0.09588 0,0.125 -0.02938,0.02912 -0.09562,-0.02912 -0.125,0 -0.02938,0.02912 0.02938,0.09588 0,0.125 -0.06225,0.06225 -0.312746,-0.06225 -0.375,0 -0.04183,0.04207 0.04183,0.207834 0,0.25 -0.05867,0.05923 -0.175647,-0.03729 -0.25,0 -0.11482,0.05795 -0.13347,0.107741 -0.15625,0.125 0.06585,-0.0027 0.160052,-0.0049 0.03125,0.125 -0.04153,0.04216 -0.208466,-0.04216 -0.25,0 -0.02938,0.02912 0.02938,0.09588 0,0.125 -0.02938,0.02912 -0.09562,-0.02912 -0.125,0 -0.02938,0.02912 0.02938,0.09588 0,0.125 -0.02938,0.02912 -0.09562,-0.02912 -0.125,0 -0.02938,0.02912 0.02938,0.09588 0,0.125 -0.04153,0.04216 -0.208466,-0.04216 -0.25,0 -0.02938,0.02912 0.02938,0.09588 0,0.125 -0.05867,0.05923 -0.191334,-0.05923 -0.25,0 -0.03108,0.03137 -0.01591,0.109374 0,0.1875 l 4.3125,-0.03125 c 0.582171,-0.663999 1.395344,-1.214274 2.375,-1.53125 2.157686,-0.698137 4.337992,-0.01889 5.15625,1.5 l 8.40625,-0.03125 c 0.362664,-0.798717 0.945304,-1.364635 1.6875,-1.53125 1.04902,-0.235494 2.141471,0.372218 2.9375,1.5 h 4 c 0.0069,-0.02403 0.01476,-0.04806 0,-0.0625 -0.02961,-0.02888 -0.09539,0.02888 -0.125,0 -0.05913,-0.05877 0.05913,-0.191233 0,-0.25 -0.02961,-0.02888 -0.09539,0.02888 -0.125,0 -0.02961,-0.02888 0.02961,-0.09612 0,-0.125 -0.02961,-0.02888 -0.09539,0.02888 -0.125,0 -0.02961,-0.02888 1.66e-4,-0.083 0,-0.125 -0.0417,1.65e-4 -0.09539,0.02888 -0.125,0 -0.06275,-0.06225 0.06275,-0.313248 0,-0.375 -0.02961,-0.02888 -0.09539,0.02888 -0.125,0 -0.007,-0.0075 3.28e-4,-0.792001 0,-0.875 -2.04e-4,-0.0515 0.03323,-0.342131 0,-0.375 -0.02961,-0.02888 -0.09539,0.02888 -0.125,0 -0.04187,-0.04153 0.04187,-0.208165 0,-0.25 -0.145974,-0.144824 -0.123197,0.205996 -0.125,-0.25 -2.82e-4,-0.0714 -0.02521,-0.740024 -0.03125,-0.75 -0.05913,-0.05877 -0.190867,0.05877 -0.25,0 -0.129828,-0.129488 -0.0036,-0.127251 0.0625,-0.125 -0.02243,-0.01694 -0.07122,-0.06744 -0.1875,-0.125 -0.03737,-0.01885 -0.09539,0.02888 -0.125,0 -0.02961,-0.02888 0.02961,-0.09612 0,-0.125 -0.05913,-0.05877 -0.190867,0.05877 -0.25,0 -0.02961,-0.02888 0.02961,-0.09612 0,-0.125 -0.05913,-0.05877 -0.190867,0.05877 -0.25,0 -0.04187,-0.04153 0.04187,-0.208165 0,-0.25 -0.05913,-0.05877 -0.190867,0.05877 -0.25,0 -0.02961,-0.02888 0.02961,-0.09612 0,-0.125 -0.03885,-0.03885 -0.586146,0.0701 -0.625,0.03125 -0.02961,-0.02888 0.02961,-0.09612 0,-0.125 -0.09557,-0.09462 -1.068666,0.08928 -1.25,0 -0.0528,-0.02579 -0.0722,-0.09921 -0.125,-0.125 -0.104275,-0.05159 -0.420388,0.07869 -0.5,0 -0.02961,-0.02888 0.02961,-0.09612 0,-0.125 -0.01958,-0.01892 -0.480575,-0.01908 -0.5,0 -0.02938,0.02912 0.02938,0.09588 0,0.125 -0.04153,0.04216 -0.208466,-0.04216 -0.25,0 -0.02938,0.02912 0.02938,0.09588 0,0.125 -0.08297,0.08333 -0.417029,-0.08333 -0.5,0 -0.02938,0.02912 0.02938,0.09588 0,0.125 -0.02938,0.02912 -0.09562,-0.02912 -0.125,0 -0.02938,0.02912 0.02938,0.09588 0,0.125 -0.05867,0.05923 -0.191334,-0.05923 -0.25,0 -0.02938,0.02912 0.02938,0.09588 0,0.125 -0.02938,0.02912 -0.09562,-0.02912 -0.125,0 -0.04154,0.04176 0.04153,0.207835 0,0.25 -0.02938,0.02912 -0.09562,-0.02912 -0.125,0 -0.02938,0.02912 0.02938,0.09588 0,0.125 -0.02938,0.02912 -0.09562,-0.02912 -0.125,0 -0.02938,0.02912 0.02938,0.09588 0,0.125 -0.02938,0.02912 -0.09562,-0.02912 -0.125,0 -0.02938,0.02912 0.02938,0.09588 0,0.125 -0.02938,0.02912 -0.09562,-0.02912 -0.125,0 -0.02938,0.02912 0.06063,0.09588 0.03125,0.125 -0.02938,0.02912 -0.09562,-0.02912 -0.125,0 -0.02938,0.02912 0.02938,0.09588 0,0.125 -0.02938,0.02912 -0.08778,-0.01915 -0.125,0 -0.0526,0.02621 -0.0724,0.09879 -0.125,0.125 -0.03722,0.01915 -0.09562,-0.02912 -0.125,0 -0.02938,0.02912 0.02938,0.09588 0,0.125 -0.05867,0.05923 -0.191334,-0.05923 -0.25,0 -0.04154,0.04176 0.04153,0.207835 0,0.25 -0.05867,0.05923 -0.191334,-0.05923 -0.25,0 -0.02938,0.02912 0.02938,0.09588 0,0.125 -0.02938,0.02912 -0.09562,-0.02912 -0.125,0 -0.02938,0.02912 0.02938,0.09588 0,0.125 -0.02938,0.02912 -0.09562,-0.02912 -0.125,0 -0.02032,0.02048 -0.0066,0.229103 0,0.375 -0.05913,-0.05877 -0.190867,0.05877 -0.25,0 -0.06275,-0.06225 0.06274,-0.313248 0,-0.375 -0.02961,-0.02888 -0.09539,0.02888 -0.125,0 -0.02961,-0.02888 0.01875,-0.08807 0,-0.125 -0.02661,-0.0529 -0.09839,-0.0721 -0.125,-0.125 -0.05241,-0.103894 0.07961,-0.421314 0,-0.5 -0.02961,-0.02888 -0.09539,0.02888 -0.125,0 -0.02961,-0.02888 0.02961,-0.09612 0,-0.125 -0.02961,-0.02888 -0.09539,0.02888 -0.125,0 -0.03885,-0.03855 0.0076,-0.586153 -0.03125,-0.625 -0.02961,-0.02888 -0.09539,0.02888 -0.125,0 -0.04187,-0.04153 0.04187,-0.208165 0,-0.25 -0.02961,-0.02888 -0.09539,0.02888 -0.125,0 -0.02961,-0.02888 0.02961,-0.09612 0,-0.125 -0.02961,-0.02888 -0.0833,-1.65e-4 -0.125,0 -1.66e-4,-0.042 0.02961,-0.09612 0,-0.125 -0.02961,-0.02888 -0.09539,0.02888 -0.125,0 -0.08363,-0.08307 0.08363,-0.41733 0,-0.5 -0.06616,-0.06574 -0.166535,-0.08333 -0.25,-0.125 -1.66e-4,-0.042 0.02961,-0.09612 0,-0.125 -0.02961,-0.02888 -0.09539,0.02888 -0.125,0 -0.05913,-0.05877 0.05913,-0.191233 0,-0.25 -0.02961,-0.02888 -0.09539,0.02888 -0.125,0 -0.05913,-0.05877 0.03759,-0.176148 0,-0.25 -0.05798,-0.114838 -0.107755,-0.133464 -0.125,-0.15625 0.0028,0.06585 0.005,0.160037 -0.125,0.03125 -0.02961,-0.02888 0.01875,-0.08807 0,-0.125 -0.05312,-0.105291 -0.196884,-0.113559 -0.25,-0.21875 -0.09121,-0.180641 0.09557,-1.155377 0,-1.25 -0.02961,-0.02888 -0.09539,0.02888 -0.125,0 -0.02961,-0.02888 0.01875,-0.08807 0,-0.125 -0.02661,-0.0529 -0.09839,-0.0721 -0.125,-0.125 -0.0376,-0.07445 0.05913,-0.191233 0,-0.25 -0.02961,-0.02888 -0.09539,0.02888 -0.125,0 -0.02961,-0.02888 0.02961,-0.09612 0,-0.125 -0.02961,-0.02888 -0.09539,0.02888 -0.125,0 -0.02961,-0.02888 0.01875,-0.08807 0,-0.125 -0.05312,-0.105291 -0.196884,-0.144809 -0.25,-0.25 -0.01875,-0.03693 0.02961,-0.09612 0,-0.125 -0.02961,-0.02888 -0.0833,-1.65e-4 -0.125,0 -1.66e-4,-0.042 0.02961,-0.09612 0,-0.125 -0.04187,-0.04184 -0.208134,0.04184 -0.25,0 -0.02961,-0.02888 0.02961,-0.09612 0,-0.125 -0.02961,-0.02888 -0.09539,0.02888 -0.125,0 -0.145972,-0.144424 0.206026,-0.126803 -0.25,-0.125 -0.333327,0.0013 0.04236,0.04094 -0.125,-0.125 -0.06274,-0.06175 -0.312255,0.06175 -0.375,0 -0.02961,-0.02888 0.02961,-0.09612 0,-0.125 -0.01024,-0.01 -1.016921,-4.27e-4 -1.125,0 h -0.25 c -0.0417,1.65e-4 -0.09562,-0.02912 -0.125,0 z"
       transform="translate(0,952.36217)"
       id="path3932-8"
       inkscape:connector-curvature="0" />
    <path
       style="fill:#ffffff;fill-opacity:0.79230766;stroke:none;filter:url(#filter3898)"
       d="m 22.5,1003.3622 c -0.121718,0.01 -0.23878,0.031 -0.28125,0.031 -0.134069,5e-4 -1.361932,0.016 -1.375,0.031 -0.03265,0.038 0.03265,0.1184 0,0.1562 -0.08789,0.103 -0.446918,-0.068 -0.5625,0 -0.05857,0.034 -0.09773,0.1223 -0.15625,0.1563 -0.111052,0.065 -0.295198,-0.065 -0.40625,0 -0.0414,0.024 0.03265,0.1184 0,0.1562 -0.064,0.076 -0.322406,-0.05 -0.40625,0 -0.05857,0.034 -0.09773,0.1535 -0.15625,0.1875 -0.111052,0.065 -0.295198,-0.065 -0.40625,0 -0.05857,0.034 -0.06648,0.1223 -0.125,0.1563 -0.08281,0.048 -0.215993,-0.077 -0.28125,0 -0.03265,0.038 0.03265,0.1184 0,0.1562 -0.05375,0.063 -0.758757,-0.062 -0.8125,0 -0.0653,0.077 0.0653,0.2356 0,0.3125 -0.04489,0.053 -0.630686,-0.052 -0.71875,0 -0.577731,0.34 0.16156,0.01 -0.125,0.3438 -0.0653,0.077 -0.198511,-0.048 -0.28125,0 -0.05857,0.034 -0.06643,0.1222 -0.125,0.1562 -0.0838,0.05 -0.373458,-0.076 -0.4375,0 -0.03265,0.038 0.03265,0.1185 0,0.1563 -0.0653,0.077 -0.215993,-0.077 -0.28125,0 -0.03265,0.038 0.03265,0.1184 0,0.1562 -0.0653,0.077 -0.198511,-0.048 -0.28125,0 -0.05857,0.034 -0.06643,0.1535 -0.125,0.1875 -0.0414,0.025 -0.09235,-0.038 -0.125,0 -0.03265,0.038 0.03265,0.1185 0,0.1563 -0.0653,0.077 -0.215993,-0.077 -0.28125,0 -0.03265,0.038 0.03265,0.1184 0,0.1562 -0.03265,0.038 -0.114828,-0.025 -0.15625,0 -0.05857,0.034 -0.06643,0.1223 -0.125,0.1563 -0.08281,0.048 -0.215993,-0.077 -0.28125,0 -0.03265,0.038 0.03265,0.1184 0,0.1562 -0.143485,0.1685 -0.157817,0.048 -0.15625,-0.031 -0.0047,0.01 -0.02428,0.049 -0.03125,0.062 v 13.6562 l 1.90625,-0.031 c 0.0573,-3e-4 0.40083,0.043 0.4375,0 0.03265,-0.038 -0.0639,-0.1185 -0.03125,-0.1563 0.0059,-0.013 0.621941,3e-4 0.6875,0 0.0656,-2e-4 0.680871,0.013 0.6875,0 0.184701,-0.2176 -0.214787,-0.186 0.15625,-0.1875 0.162139,-6e-4 1.007461,0.051 1.09375,0 0.05857,-0.034 0.09773,-0.1222 0.15625,-0.1562 0.0838,-0.05 0.342208,0.075 0.40625,0 0.03265,-0.038 -0.03265,-0.1185 0,-0.1563 0.06928,-0.081 0.336999,0.081 0.40625,0 0.03265,-0.038 -0.03265,-0.1184 0,-0.1562 0.04618,-0.055 0.235046,0.055 0.28125,0 0.03265,-0.038 -0.03265,-0.1185 0,-0.1563 0.06928,-0.081 0.368249,0.081 0.4375,0 0.03265,-0.038 -0.03265,-0.1497 0,-0.1875 0.09237,-0.1081 0.438957,0.1082 0.53125,0 0.03265,-0.038 -0.03265,-0.1184 0,-0.1562 0.04618,-0.055 0.235046,0.055 0.28125,0 0.03265,-0.038 -0.03265,-0.1185 0,-0.1563 0.0653,-0.077 0.215993,0.077 0.28125,0 0.03265,-0.038 -0.03265,-0.1184 0,-0.1562 0.04618,-0.055 0.235046,0.055 0.28125,0 0.03265,-0.038 -0.03265,-0.1185 0,-0.1563 0.03265,-0.038 0.114828,-0.01 0.15625,-0.031 0.05857,-0.034 0.06643,-0.1535 0.125,-0.1875 0.08281,-0.048 0.215993,0.077 0.28125,0 0.03265,-0.038 -0.03265,-0.1185 0,-0.1563 0.04618,-0.055 0.235046,0.055 0.28125,0 0.03265,-0.038 -0.03265,-0.1184 0,-0.1562 0.03265,-0.038 0.09235,0.038 0.125,0 0.03265,-0.038 -0.03265,-0.1185 0,-0.1563 0.03265,-0.038 0.123559,0.038 0.15625,0 0.03265,-0.038 -0.03265,-0.1184 0,-0.1562 0.0653,-0.077 0.215993,0.077 0.28125,0 0.03265,-0.038 -0.03265,-0.1497 0,-0.1875 0.0653,-0.077 0.215993,0.077 0.28125,0 0.03265,-0.038 -0.03265,-0.1185 0,-0.1563 0.0216,-0.025 0.509443,-0.025 0.53125,0 0.0659,0.076 -4.26e-4,0.236 0,0.3438 0.0018,0.4506 0.185864,0.2025 0.28125,0.3125 0.03295,0.038 -0.02089,0.1083 0,0.1562 0.292199,0.6744 -0.0083,-0.1786 0.28125,0.1563 0.03295,0.038 -0.03295,0.1499 0,0.1875 0.03295,0.038 0.123261,-0.038 0.15625,0 0.03295,0.038 -0.03295,0.1187 0,0.1562 0.03295,0.037 0.09205,-0.038 0.125,0 0.0659,0.076 -0.08309,0.2648 0,0.3125 0.08319,0.048 0.193067,-0.033 0.28125,0 0.30827,0.1184 0.02409,0.347 0.15625,0.5 0.03295,0.037 0.09205,-0.038 0.125,0 0.03295,0.037 -0.02089,0.1083 0,0.1563 0.0657,0.1517 0.105958,0.1903 0.125,0.2187 -0.0033,-0.086 0.01164,-0.2299 0.15625,-0.062 0.03295,0.037 -0.03295,0.1187 0,0.1563 0.03295,0.038 0.10411,-0.048 0.125,0 0.04188,0.097 -0.01064,0.2465 0.03125,0.3437 0.04189,0.097 0.215388,-0.076 0.28125,0 0.186416,0.2162 -0.214787,0.1577 0.15625,0.1563 0.03295,0.038 -0.03295,0.1187 0,0.1562 0.03295,0.037 0.0834,-0.024 0.125,0 0.11761,0.068 0.163639,0.2754 0.28125,0.3438 0.127632,0.073 0.467674,-0.11 0.5625,0 0.03295,0.038 -0.03295,0.1187 0,0.1562 0.0659,0.076 0.215388,-0.076 0.28125,0 0.03295,0.037 -0.03295,0.1187 0,0.1563 0.04903,0.057 0.59122,-0.056 0.6875,0 0.05883,0.034 0.06617,0.1227 0.125,0.1562 0.210251,0.1213 1.070999,-0.1212 1.28125,0 0.05883,0.034 0.06617,0.091 0.125,0.125 0.09381,0.054 0.814971,6e-4 0.96875,0 0.0928,-3e-4 0.215993,0.077 0.28125,0 0.03265,-0.038 -0.03265,-0.1184 0,-0.1562 0.0653,-0.077 0.188531,3e-4 0.28125,0 0.0573,-3e-4 0.36958,0.043 0.40625,0 0.03265,-0.038 -0.03265,-0.1185 0,-0.1563 0.0653,-0.077 0.215993,0.077 0.28125,0 0.121018,-0.1423 -0.124748,-0.2488 -0.125,-0.3125 -7.7e-5,-0.019 0.385863,0.024 0.40625,0 0.04619,-0.054 -0.04618,-0.289 0,-0.3437 0.09406,-0.1108 0.298099,0.1726 0.4375,-0.1563 0.04161,-0.098 -0.09525,-0.4244 -0.03125,-0.5 0.04618,-0.055 0.203796,0.055 0.25,0 0.0653,-0.077 -0.0653,-0.2356 0,-0.3125 0.02777,-0.033 0.102774,-0.019 0.15625,0 -0.109261,-0.1264 0.10703,-0.2696 0.125,-0.3125 0.04112,-0.097 -0.0653,-0.2669 0,-0.3437 0.09237,-0.1082 0.470207,0.1081 0.5625,0 0.03265,-0.038 2.16e-4,-0.1017 0,-0.1563 -2.16e-4,-0.055 0.03295,-0.1187 0,-0.1562 -0.07364,-0.086 -0.207552,-0.071 -0.28125,-0.1563 -0.03295,-0.038 2.16e-4,-0.1329 0,-0.1875 -2.16e-4,-0.055 -0.0414,-0.1314 0,-0.1562 0.08281,-0.048 0.215993,0.077 0.28125,0 0.04618,-0.055 -0.124697,-0.08 -0.125,-0.1563 -2.16e-4,-0.055 0.09235,0.038 0.125,0 0.06928,-0.081 -0.06928,-0.4192 0,-0.5 0.03265,-0.038 0.123559,0.038 0.15625,0 0.04619,-0.054 -0.04618,-0.2578 0,-0.3125 0.03265,-0.038 0.09235,0.038 0.125,0 0.0424,-0.05 -0.0428,-0.7617 0,-0.8125 0.03265,-0.038 0.09235,0.038 0.125,0 0.03265,-0.038 -0.03265,-0.1184 0,-0.1562 0.03265,-0.038 0.123559,0.038 0.15625,0 0.03265,-0.038 -0.03265,-0.1185 0,-0.1563 0.03265,-0.038 0.09235,0.038 0.125,0 0.0653,-0.077 -0.0653,-0.2669 0,-0.3437 0.03265,-0.038 0.123559,0.038 0.15625,0 0.09227,-0.1087 -0.09227,-0.5169 0,-0.625 0.03265,-0.038 0.09235,0.038 0.125,0 0.02986,-0.035 0.0221,-0.6057 0,-0.6563 -0.02967,-0.069 -0.09533,-0.088 -0.125,-0.1562 -0.02089,-0.048 0.02089,-0.1396 0,-0.1875 -0.02967,-0.069 -0.126588,-0.088 -0.15625,-0.1563 -0.206597,-0.4769 0.338595,0.224 -0.125,-0.3125 -0.04239,-0.098 0.0646,-0.4249 0,-0.5 -0.0659,-0.076 -0.215388,0.076 -0.28125,0 -0.04661,-0.054 0.04662,-0.2581 0,-0.3125 -0.03295,-0.038 -0.09205,0.037 -0.125,0 -0.03295,-0.038 0.02089,-0.1083 0,-0.1562 -0.135316,-0.3123 -0.584172,-0.525 -0.75,-0.8125 -0.05176,-0.09 0.04189,-0.2465 0,-0.3438 -0.176716,-0.4084 -0.506867,-0.284 -0.53125,-0.3125 -0.0659,-0.076 0.0659,-0.2674 0,-0.3437 -0.07364,-0.086 -0.207552,-0.071 -0.28125,-0.1563 -0.0659,-0.076 0.0659,-0.2361 0,-0.3125 -0.03295,-0.038 -0.123261,0.037 -0.15625,0 -0.03295,-0.038 0.03295,-0.1187 0,-0.1562 -0.03295,-0.038 -0.09205,0.038 -0.125,0 -0.03295,-0.038 0.03295,-0.1187 0,-0.1563 -0.03295,-0.038 -0.123261,0.037 -0.15625,0 -0.03295,-0.038 0.03295,-0.1499 0,-0.1875 -0.03295,-0.038 -0.09205,0.037 -0.125,0 -0.0659,-0.076 0.0659,-0.2361 0,-0.3125 -0.03295,-0.038 -0.123261,0.037 -0.15625,0 -0.03295,-0.038 0.03295,-0.1187 0,-0.1562 -0.03295,-0.038 -0.09205,0.038 -0.125,0 -0.03295,-0.038 0.03295,-0.1187 0,-0.1563 -0.03295,-0.038 -0.123261,0.037 -0.15625,0 -0.03295,-0.038 0.02089,-0.1395 0,-0.1875 -0.02967,-0.069 -0.09533,-0.088 -0.125,-0.1562 -0.04188,-0.097 0.0659,-0.2362 0,-0.3125 -0.03295,-0.038 -0.09205,0.038 -0.125,0 -0.03295,-0.038 0.03295,-0.1187 0,-0.1563 -0.03295,-0.038 -0.123261,0.037 -0.15625,0 -0.03295,-0.038 0.0416,-0.163 0,-0.1875 -0.08319,-0.048 -0.198131,0.048 -0.28125,0 -0.08309,-0.048 0.04189,-0.2152 0,-0.3125 -0.02967,-0.069 -0.09533,-0.088 -0.125,-0.1562 -0.02089,-0.048 0.03295,-0.1187 0,-0.1563 -0.04661,-0.054 -0.234615,0.054 -0.28125,0 -0.03295,-0.038 0.03295,-0.1499 0,-0.1875 -0.03295,-0.038 -0.123261,0.037 -0.15625,0 -0.03295,-0.038 0.0416,-0.1317 0,-0.1562 -0.08319,-0.048 -0.198131,0.048 -0.28125,0 -0.0416,-0.024 0.03295,-0.1187 0,-0.1563 -0.03295,-0.038 -0.0834,0.056 -0.125,0.031 -0.273347,-0.1582 0.008,-0.3137 -0.28125,-0.3125 -0.0656,2e-4 -0.680871,-0.013 -0.6875,0 -0.03265,0.038 0.03265,0.1184 0,0.1562 -0.05823,0.069 -0.511638,-0.03 -0.5625,0 -0.0414,0.024 0.03265,0.1185 0,0.1563 -0.064,0.075 -0.322406,-0.05 -0.40625,0 -0.05857,0.034 -0.09773,0.1222 -0.15625,0.1562 -0.111052,0.065 -0.295198,-0.065 -0.40625,0 -0.05857,0.034 -0.09773,0.1223 -0.15625,0.1563 -0.08281,0.048 -0.215993,-0.077 -0.28125,0 -0.03265,0.038 0.03265,0.1497 0,0.1875 -0.09237,0.1081 -0.438957,-0.1082 -0.53125,0 -0.03265,0.038 0.03265,0.1184 0,0.1562 -0.0429,0.051 -0.675871,-0.051 -0.71875,0 -0.03265,0.038 0.03265,0.1185 0,0.1563 -0.03265,0.038 -0.0836,-0.025 -0.125,0 -0.05857,0.034 -0.06643,0.1222 -0.125,0.1562 -0.0414,0.025 -0.123559,-0.038 -0.15625,0 -0.03265,0.038 0.03265,0.1185 0,0.1563 -0.0653,0.077 -0.215993,-0.077 -0.28125,0 -0.03265,0.038 0.0014,-0.5066 -0.03125,-0.4688 0.09566,-0.1123 -0.07678,0.065 -0.1875,0.1875 -0.01428,-0.06 -0.07133,-0.177 -0.0625,-0.1875 0.03265,-0.038 0.22949,-0.9518 0.25,-1 0.02071,-0.049 -0.02935,0.2649 -0.0625,0.4688 0.03263,-0.04 0.07102,-0.071 0.09375,-0.125 0.04072,-0.096 4.31e-4,-0.3909 0,-0.5 -4.28e-4,-0.1083 0.0659,-0.2362 0,-0.3125 -0.03295,-0.038 -0.09205,0.038 -0.125,0 -0.0659,-0.076 4.26e-4,-0.2047 0,-0.3125 -0.0023,-0.5923 0.0067,-0.1556 -0.15625,-0.3438 -0.0659,-0.076 0.0659,-0.2361 0,-0.3125 -0.03295,-0.038 -0.09205,0.037 -0.125,0 -0.03295,-0.038 0.03295,-0.1187 0,-0.1562 -0.03295,-0.038 -0.123261,0.038 -0.15625,0 -0.03295,-0.038 0.03295,-0.15 0,-0.1875 -0.03295,-0.038 -0.09205,0.038 -0.125,0 -0.03295,-0.038 0.03295,-0.1187 0,-0.1563 -0.03295,-0.038 -0.123261,0.037 -0.15625,0 -0.03295,-0.038 0.03295,-0.1187 0,-0.1562 -0.0659,-0.076 -0.184138,0.076 -0.25,0 -0.04661,-0.054 0.01536,-0.2582 -0.03125,-0.3125 -0.04661,-0.054 -0.234615,0.054 -0.28125,0 -0.03295,-0.038 0.03295,-0.15 0,-0.1875 -0.0659,-0.076 -0.215388,0.076 -0.28125,0 -0.03295,-0.038 0.03295,-0.1187 0,-0.1563 -0.04661,-0.054 -0.234615,0.054 -0.28125,0 -0.03295,-0.038 0.03295,-0.1187 0,-0.1562 -0.0659,-0.076 -0.215388,0.076 -0.28125,0 -0.03295,-0.038 0.03295,-0.1187 0,-0.1563 -0.02723,-0.032 -0.159532,-0.04 -0.28125,-0.031 z m 2.4375,3.5625 c -0.0092,0.011 -0.02486,0.016 -0.03125,0.031 -0.02051,0.048 0.02051,0.1081 0,0.1563 -0.0083,0.02 0.01793,-0.1056 0.03125,-0.1875 z m -0.84375,0.6562 c 0.05857,0.064 0.17726,0.1393 0.34375,0.3125 0.0064,-0.03 0.008,-0.07 0.03125,-0.125 0.01028,-0.024 0.04701,0.028 0.09375,0.094 -0.03451,0.028 -0.07029,0.084 -0.09375,0.094 0.129156,0.1335 0.181961,0.1547 0.28125,0.25 0.0059,0.023 0.01306,0.047 0,0.062 -0.04897,0.058 -0.145776,-0.024 -0.21875,-0.031 -0.02433,0 -0.04619,0.012 -0.0625,0.031 -0.03265,0.038 0.529814,0.1816 0,0.1563 0.529814,0.025 0.342312,0.055 -0.46875,0.031 0.18808,-0.1738 0.371557,-0.2174 0.53125,-0.2187 0.05703,-5e-4 0.106971,-0.012 0.15625,0 -0.144821,-0.089 -0.31955,-0.1727 -0.46875,-0.094 0.06205,-0.2101 -0.03574,-0.4258 -0.125,-0.5625 z m 0.375,0.375 c -0.02448,-0.025 -0.0072,-0.037 -0.03125,-0.062 -0.01328,0.063 -0.0085,0.079 0.03125,0.062 z m 8.875,11.3125 c 0.04506,0.015 0.06267,0.043 0.0625,0 -1.08e-4,-0.027 -0.03185,-0.012 -0.0625,0 z"
       id="path3894"
       inkscape:connector-curvature="0" />
    <path
       inkscape:connector-curvature="0"
       style="opacity:0.96633002;fill:#ffffff;fill-opacity:0.79230766;stroke:none;filter:url(#filter3925)"
       d="m 236.90625,29.96875 c -0.0509,-0.0071 -0.0915,0.003 -0.125,0.03125 -0.0336,0.0282 0.0336,0.0968 0,0.125 -0.044,0.03706 -0.67472,-0.03706 -0.71875,0 -0.0336,0.0282 0.0336,0.0968 0,0.125 -0.0552,0.04642 -0.78859,-0.04642 -0.84375,0 -0.0336,0.0282 0.0336,0.06555 0,0.09375 -0.067,0.05642 -0.21422,-0.05641 -0.28125,0 -0.0336,0.0282 0.0336,0.0968 0,0.125 -0.0552,0.04642 -0.81984,-0.04642 -0.875,0 -0.0336,0.0282 0.0336,0.0968 0,0.125 -0.067,0.05642 -0.21422,-0.05641 -0.28125,0 -0.0336,0.0282 0.0336,0.0968 0,0.125 -0.0336,0.0282 -0.0914,-0.0282 -0.125,0 -0.0336,0.0282 0.0336,0.0968 0,0.125 -0.0336,0.0282 -0.12269,-0.0282 -0.15625,0 -0.0336,0.0282 0.0336,0.0968 0,0.125 -0.0336,0.0282 -0.125,-0.03989 -0.125,0 0,0.05642 0.125,0.03734 0.125,0.09375 0,0.07978 -0.21422,-0.05641 -0.28125,0 -0.0336,0.0282 0.0336,0.0968 0,0.125 -0.044,0.03706 -0.67472,-0.03706 -0.71875,0 -0.1471,0.123805 -0.0127,0.127243 0.0625,0.125 -0.0254,0.01639 -0.0555,0.06945 -0.1875,0.125 -0.0847,0.03568 -0.21422,-0.05641 -0.28125,0 -0.0336,0.0282 0.0336,0.0968 0,0.125 -0.067,0.05642 -0.24547,-0.05641 -0.3125,0 -0.0336,0.0282 0.0336,0.0968 0,0.125 -0.0336,0.0282 -0.0914,-0.0282 -0.125,0 -0.0336,0.0282 0.0336,0.06555 0,0.09375 -0.0336,0.0282 -0.12269,-0.0282 -0.15625,0 -0.0336,0.0282 0.0336,0.0968 0,0.125 -0.0336,0.0282 -0.0914,-0.0282 -0.125,0 -0.067,0.05642 0.067,0.193586 0,0.25 -0.0336,0.0282 -0.12269,-0.0282 -0.15625,0 -0.0474,0.03989 0.0474,0.210108 0,0.25 -0.0336,0.0282 -0.0914,-0.0282 -0.125,0 -0.067,0.05642 0.067,0.162336 0,0.21875 -0.0336,0.0282 -0.12269,-0.0282 -0.15625,0 -0.0668,0.05618 0.0668,0.787567 0,0.84375 -0.0336,0.0282 -0.0914,-0.0282 -0.125,0 -0.0336,0.0282 0,0.08511 0,0.125 0,0.139454 -0.0441,0.863118 0,0.9375 0.17571,0.295763 0.125,-0.03066 0.125,0.25 0,0.07978 -0.067,0.193586 0,0.25 0.0336,0.0282 0.12269,-0.0282 0.15625,0 0.067,0.05642 -0.067,0.162336 0,0.21875 0.067,0.05642 0.21423,-0.05642 0.28125,0 0.067,0.05642 -0.067,0.193586 0,0.25 0.067,0.05642 0.21423,-0.05642 0.28125,0 0.067,0.05642 -0.067,0.193586 0,0.25 0.0336,0.0282 0.0914,-0.0282 0.125,0 0.0336,0.0282 -0.0336,0.0968 0,0.125 0.0336,0.0282 0.12269,-0.0282 0.15625,0 0.0336,0.0282 -0.0336,0.06555 0,0.09375 0.0336,0.0282 0.12269,-0.0282 0.15625,0 0.0948,0.07978 -0.0948,0.420218 0,0.5 0.0336,0.0282 0.0914,-0.0282 0.125,0 0.0336,0.0282 -0.0212,0.08932 0,0.125 0.0348,0.05851 0.28971,0.231421 0.15625,0.34375 -0.0336,0.0282 -0.12269,-0.0282 -0.15625,0 -0.0474,0.03989 0.0474,0.210109 0,0.25 -0.0336,0.0282 -0.0914,-0.0282 -0.125,0 -0.0474,0.03989 0.0474,0.178859 0,0.21875 -0.0336,0.0282 -0.10882,0 -0.15625,0 0,0.03989 0.0336,0.0968 0,0.125 -0.0336,0.0282 -0.12269,-0.0282 -0.15625,0 -0.0711,0.05984 0.0711,0.315163 0,0.375 -0.0336,0.0282 -0.0914,-0.0282 -0.125,0 -0.0336,0.0282 0.0336,0.0968 0,0.125 -0.0336,0.0282 -0.12269,-0.0282 -0.15625,0 -0.0336,0.0282 0.0336,0.06555 0,0.09375 -0.0336,0.0282 -0.0776,0 -0.125,0 0,0.03989 0.0212,0.08932 0,0.125 -0.29587,0.498054 0.0134,-0.122609 -0.28125,0.125 -0.0336,0.0282 0.0336,0.0968 0,0.125 -0.0336,0.0282 -0.12269,-0.0282 -0.15625,0 -0.0336,0.0282 0.0336,0.0968 0,0.125 -0.0336,0.0282 -0.0914,-0.0282 -0.125,0 -0.0336,0.0282 0.0336,0.06555 0,0.09375 -0.0336,0.0282 -0.12269,-0.0282 -0.15625,0 -0.0711,0.05984 0.0711,0.315163 0,0.375 -0.0336,0.0282 -0.0914,-0.0282 -0.125,0 -0.067,0.05642 0,0.170218 0,0.25 0,0.05643 -0.007,0.588326 0,0.59375 0.0336,0.0282 0.0914,-0.0282 0.125,0 0.0902,0.07591 -0.0591,0.369112 0,0.46875 0.03,0.05045 0.12622,0.07455 0.15625,0.125 0.0212,0.03568 -0.0336,0.0968 0,0.125 0.0336,0.0282 0.0914,-0.0282 0.125,0 0.0711,0.05984 -0.0711,0.283913 0,0.34375 0.0336,0.0282 0.12269,-0.0282 0.15625,0 0.0336,0.0282 0,0.08511 0,0.125 0.0474,0 0.0914,-0.0282 0.125,0 0.0711,0.05984 -0.0711,0.315163 0,0.375 0.067,0.05642 0.21423,-0.05642 0.28125,0 0.0948,0.07978 -0.0948,0.388968 0,0.46875 0.0336,0.0282 0.12269,-0.0282 0.15625,0 0.067,0.05642 -0.067,0.193586 0,0.25 0.0336,0.0282 0.0914,-0.0282 0.125,0 0.0948,0.07978 -0.0948,0.388968 0,0.46875 0.0336,0.0282 0.12269,-0.0282 0.15625,0 0.0552,0.04642 -0.0552,0.672325 0,0.71875 0.0336,0.0282 0.12269,-0.0282 0.15625,0 0.067,0.05642 0,0.170218 0,0.25 0,0.07303 -0.0554,0.422121 0,0.46875 0.0474,0.03989 0.23386,-0.03989 0.28125,0 0.008,0.0071 0,0.763767 0,0.84375 0,0.319131 -0.0646,-0.06582 0.125,0.09375 0.0336,0.0282 -0.0212,0.08932 0,0.125 0.03,0.05045 0.12622,0.07455 0.15625,0.125 0.0805,0.135589 -0.0885,0.769222 0,0.84375 0.0336,0.0282 0.0914,-0.0282 0.125,0 0.0711,0.05984 -0.0711,0.283913 0,0.34375 0.067,0.05642 0.21423,-0.05642 0.28125,0 0.0474,0.03989 -0.0474,0.210109 0,0.25 0.0711,0.05984 0.36641,-0.05984 0.4375,0 0.0336,0.0282 -0.0336,0.0968 0,0.125 0.0336,0.0282 0.12269,-0.0282 0.15625,0 0.0336,0.0282 -0.0336,0.0968 0,0.125 0.0336,0.0282 0.0914,-0.0282 0.125,0 0.0336,0.0282 -0.0336,0.0968 0,0.125 0.0948,0.07978 0.46771,-0.07978 0.5625,0 0.0336,0.0282 -0.0336,0.06555 0,0.09375 0.0552,0.04642 0.81984,-0.04642 0.875,0 0.067,0.05642 -0.067,0.193586 0,0.25 0.0474,0.03989 0.23386,-0.03989 0.28125,0 0.0336,0.0282 0,0.08511 0,0.125 0,0.364895 -0.14099,0.007 -0.28125,0.125 -0.067,0.05642 0,0.138968 0,0.21875 0,0.07303 0.0554,0.453371 0,0.5 -0.0179,0.015 -0.36028,-0.04673 -0.15625,0.125 0.0711,0.05984 0.36641,-0.05984 0.4375,0 0.0336,0.0282 -0.0336,0.06555 0,0.09375 0.067,0.05642 0.19647,-0.03568 0.28125,0 0.0599,0.02523 0.0651,0.09977 0.125,0.125 0.0424,0.01784 0.12269,-0.0282 0.15625,0 0.0336,0.0282 -0.0336,0.0968 0,0.125 0.067,0.05642 0.21423,-0.05642 0.28125,0 0.0336,0.0282 -0.0336,0.0968 0,0.125 0.0336,0.0282 0.11382,-0.01784 0.15625,0 0.0599,0.02523 0.0651,0.09977 0.125,0.125 0.11375,0.04787 0.32375,-0.04787 0.4375,0 0.0599,0.02523 0.0651,0.06852 0.125,0.09375 0.0847,0.03568 0.21423,-0.05642 0.28125,0 0.0336,0.0282 -0.0336,0.0968 0,0.125 0.067,0.05642 0.22772,-0.03568 0.3125,0 0.0599,0.02523 0.0651,0.09977 0.125,0.125 0.0859,0.03613 0.37178,-0.05532 0.4375,0 0.0336,0.0282 -0.0336,0.0968 0,0.125 0.008,0.0071 0.90497,0 1,0 0.22356,0 0.29631,0.217539 0.40625,0.125 0.0336,-0.0282 -0.0336,-0.0968 0,-0.125 0.20403,-0.171725 0.13843,0.109997 0.15625,0.125 0.0142,0.01197 0.39203,0.01197 0.40625,0 0.0336,-0.0282 -0.0336,-0.0968 0,-0.125 0.007,-0.0055 0.65172,0 0.71875,0 0.12294,0 1.26969,0.0097 1.28125,0 0.0336,-0.0282 -0.0336,-0.0968 0,-0.125 0.0711,-0.05984 0.36641,0.05984 0.4375,0 0.0336,-0.0282 -0.0336,-0.0968 0,-0.125 0.0711,-0.05984 0.33516,0.05984 0.40625,0 0.0336,-0.0282 -0.0336,-0.0968 0,-0.125 0.067,-0.05642 0.24548,0.05642 0.3125,0 0.0336,-0.0282 -0.0336,-0.06555 0,-0.09375 0.0474,-0.03989 0.23386,0.03989 0.28125,0 0.29419,-0.247609 -0.46675,-9.73e-4 0.125,-0.25 0.0859,-0.03613 0.37178,0.05532 0.4375,0 0.0336,-0.0282 -0.0336,-0.0968 0,-0.125 0.0336,-0.0282 0.0826,0.01784 0.125,0 0.0599,-0.02523 0.0963,-0.09977 0.15625,-0.125 0.0424,-0.01784 0.12269,0.0282 0.15625,0 0.0336,-0.0282 -0.0336,-0.06555 0,-0.09375 0.0336,-0.0282 0.0914,0.0282 0.125,0 0.0336,-0.0282 -0.0336,-0.0968 0,-0.125 0.0496,-0.04177 0.40799,0.04968 0.4375,0 0.0424,-0.07136 -0.0424,-0.17864 0,-0.25 0.0424,-0.07136 0.21423,0.05642 0.28125,0 0.0336,-0.0282 -0.0336,-0.0968 0,-0.125 0.0336,-0.0282 0.0776,0 0.125,0 0,-0.03989 -0.0336,-0.0968 0,-0.125 0.29419,-0.247609 -0.0146,0.404304 0.28125,-0.09375 0.0429,-0.07225 -0.0658,-0.319679 0,-0.375 0.0336,-0.0282 0.12269,0.0282 0.15625,0 0.0336,-0.0282 -0.0336,-0.0968 0,-0.125 0.0336,-0.0282 0.12269,0.0282 0.15625,0 0.0336,-0.0282 -0.0336,-0.0968 0,-0.125 0.0336,-0.0282 0.0914,0.0282 0.125,0 0.0336,-0.0282 -0.0336,-0.06555 0,-0.09375 0.0336,-0.0282 0.11382,0.01784 0.15625,0 0.0599,-0.02523 0.0651,-0.09977 0.125,-0.125 0.0424,-0.01784 0.13506,0.03568 0.15625,0 0.0424,-0.07136 -0.0424,-0.17864 0,-0.25 0.0424,-0.07136 0.18646,0 0.28125,0 0.0586,0 0.39986,-0.03168 0.4375,0 0.0336,0.0282 -0.0336,0.0968 0,0.125 0.0336,0.0282 0.0914,-0.0282 0.125,0 0.0336,0.0282 -0.0336,0.0968 0,0.125 0.044,0.03706 0.67473,-0.03706 0.71875,0 0.0336,0.0282 -0.0336,0.0968 0,0.125 0.0658,0.05532 0.3204,-0.03613 0.40625,0 0.0599,0.02523 0.0963,0.06852 0.15625,0.09375 0.0424,0.01784 0.12269,-0.0282 0.15625,0 0.0336,0.0282 -0.0336,0.0968 0,0.125 0.0336,0.0282 0.0914,-0.0282 0.125,0 0.0336,0.0282 -0.0336,0.0968 0,0.125 0.0336,0.0282 0.12269,-0.0282 0.15625,0 0.0336,0.0282 -0.0336,0.0968 0,0.125 0.0336,0.0282 0.0914,-0.0282 0.125,0 0.0336,0.0282 -0.0336,0.0968 0,0.125 0.067,0.05642 0.18646,0 0.28125,0 0.37917,0 -0.0334,-0.03457 0.15625,0.125 0.067,0.05642 0.21423,-0.05642 0.28125,0 0.0336,0.0282 -0.0336,0.06555 0,0.09375 0.067,0.05642 0.21423,-0.05642 0.28125,0 0.0336,0.0282 -0.0336,0.0968 0,0.125 0.0336,0.0282 0.11382,-0.01784 0.15625,0 0.0599,0.02523 0.0651,0.09977 0.125,0.125 0.0424,0.01784 0.12269,-0.0282 0.15625,0 0.0336,0.0282 -0.0336,0.0968 0,0.125 0.0336,0.0282 0.0914,-0.0282 0.125,0 0.067,0 0.0963,0.09977 0.15625,0.125 0.0291,0.01227 0.3862,0.01688 0.40625,0 0.0336,-0.0282 -0.0336,-0.0968 0,-0.125 0.0474,-0.03989 0.26511,0.03989 0.3125,0 V 48.1875 32.625 c -0.0336,-0.0282 0.0336,-0.0968 0,-0.125 -0.0336,-0.0282 -0.12269,0.0282 -0.15625,0 -0.0336,-0.0282 0.0336,-0.06555 0,-0.09375 -0.067,-0.05642 -0.21422,0.05642 -0.28125,0 -0.29419,-0.247609 0.4355,-9.73e-4 -0.15625,-0.25 -0.0847,-0.03568 -0.21422,0.05642 -0.28125,0 -0.067,-0.05642 0.067,-0.193585 0,-0.25 -0.067,-0.05641 -0.21422,0.05642 -0.28125,0 -0.0336,-0.0282 0.0336,-0.0968 0,-0.125 -0.067,-0.05641 -0.21422,0.05642 -0.28125,0 -0.0336,-0.0282 0.0336,-0.06555 0,-0.09375 -0.067,-0.05641 -0.21422,0.05642 -0.28125,0 -0.0474,-0.03989 0.0474,-0.210108 0,-0.25 -0.044,-0.03706 -0.67472,0.03706 -0.71875,0 -0.0336,-0.0282 0.0336,-0.0968 0,-0.125 -0.067,-0.05641 -0.21422,0.05642 -0.28125,0 -0.0336,-0.0282 0.0336,-0.0968 0,-0.125 -0.0711,-0.05984 -0.36641,0.05984 -0.4375,0 -0.067,-0.05641 0.067,-0.162335 0,-0.21875 -0.007,-0.0055 -0.62046,0 -0.6875,0 -0.0868,0 -0.50709,0.04663 -0.5625,0 -0.0336,-0.0282 0.0336,-0.0968 0,-0.125 -0.0948,-0.07978 -0.49895,0.07978 -0.59375,0 -0.0336,-0.0282 0.0336,-0.0968 0,-0.125 -0.0552,-0.04642 -0.78859,0.04642 -0.84375,0 -0.0336,-0.0282 0.0336,-0.0968 0,-0.125 -0.0948,-0.07978 -0.4677,0.07978 -0.5625,0 -0.0336,-0.0282 0.0336,-0.0968 0,-0.125 -0.0377,-0.03168 -0.37895,0 -0.4375,0 -0.0868,0 -0.50709,0.04663 -0.5625,0 -0.0336,-0.0282 0.0336,-0.0968 0,-0.125 -0.0948,-0.07978 -0.4677,0.07978 -0.5625,0 -0.0336,-0.0282 0.0336,-0.06555 0,-0.09375 -0.0554,-0.04662 -0.47573,0 -0.5625,0 -0.0868,0 -0.53834,0.04663 -0.59375,0 -0.0336,-0.0282 0.0336,-0.0968 0,-0.125 -0.0552,-0.04642 -0.78859,0.04642 -0.84375,0 -0.0336,-0.0282 0.0336,-0.0968 0,-0.125 -0.0377,-0.03168 -0.37895,0 -0.4375,0 h -2.40625 -2.125 c -0.0474,0 -0.10538,-0.0242 -0.15625,-0.03125 z M 251.125,48.3125 c -0.0474,0 -0.0474,0.125 0,0.125 0.0474,0 0.0336,-0.0968 0,-0.125 z"
       transform="rotate(-0.2265292,241229.57,42488.08)"
       id="path3921" />
    <path
       style="fill:url(#radialGradient3998);fill-opacity:1;stroke:none;filter:url(#filter4536)"
       d="m 206,985.36217 -4,-8 h 6 l 3,4 v -4 h 6 l 1,5 2,-5 h 5 l 1,3 3,-3 h 4 l -4,9 7,-3 3,2 -1,3 -3,3 6,2 v 1 l -5,3 5,5.00003 v 2 h -2 l -7,-1 3,5 1,2 -1,2 -6,-3 1,6 -2,2 c 0,0 -2,-1 -2,-1 l -4,-5 -3,10 -2,-1 -2,-8 -4,7 h -2 c 0,0 -2,-2 -2,-3 0,-1 2,-6 2,-6 h -1 l -5,3 -3,1 -1,-2 c 0,0 1,-4 1,-4 l 4,-3 -1,-1 h -4 l -6,-1 1,-3 6,-2.00003 2,-1 -8,-2 -1,-3 3,-2 h 5 l -4,-4 -1,-2 2,-1 7,3 1,-1"
       id="path3831"
       inkscape:connector-curvature="0"
       transform="rotate(-0.71526872,202.44496,14289.911)"
       inkscape:export-xdpi="90"
       inkscape:export-ydpi="90" />
    <ellipse
       style="fill:url(#linearGradient4000);fill-opacity:1;stroke:none;filter:url(#filter4020)"
       id="path3023"
       transform="matrix(0.95037779,0.35109907,-0.36608514,0.99094304,-68.477311,901.87894)"
       cx="143.5"
       cy="46"
       rx="9.5"
       ry="8" />
    <path
       inkscape:connector-curvature="0"
       style="opacity:0.94276093;fill:#ffffff;fill-opacity:0.79230766;stroke:none;filter:url(#filter3909)"
       d="m 251.46875,60.09375 c -0.15536,-0.0063 -0.29065,0.0059 -0.375,0.03125 -0.0676,0.02032 -0.0886,0.07343 -0.15625,0.09375 -0.15972,0.04799 -1.04199,-0.04988 -1.125,0 -0.18661,0.112131 0.27277,0.09375 -0.3125,0.09375 -0.0756,0 -0.80522,-0.0044 -0.8125,0 -0.0379,0.02272 0.0379,0.07103 0,0.09375 -0.0535,0.03213 -0.25902,-0.03213 -0.3125,0 -0.0379,0.02272 0.0379,0.07103 0,0.09375 -0.0742,0.04456 -0.40314,-0.0291 -0.5,0 -0.66766,0.200586 0.17568,0.01933 -0.15625,0.21875 -0.0756,0.04544 -0.23687,-0.04544 -0.3125,0 -0.0756,0.04544 0.0756,0.142059 0,0.1875 -0.0535,0.03213 -0.25902,-0.03213 -0.3125,0 -0.0379,0.02272 0.0379,0.07103 0,0.09375 -0.0379,0.02272 -0.14964,-0.02272 -0.1875,0 -0.0379,0.02272 0.0379,0.07103 0,0.09375 -0.0379,0.02272 -0.11839,-0.02272 -0.15625,0 -0.16596,0.09972 -0.0223,0.09556 0.0625,0.09375 -0.0288,0.01322 -0.0701,0.0491 -0.21875,0.09375 -0.0479,0.01437 -0.11839,-0.02272 -0.15625,0 -0.0535,0.03213 0.0535,0.155369 0,0.1875 -0.0756,0.04544 -0.23687,-0.04544 -0.3125,0 -0.0535,0.03213 0.0535,0.155369 0,0.1875 -0.0379,0.02272 -0.11839,-0.02272 -0.15625,0 -0.0379,0.02272 0.0239,0.09626 0,0.125 -0.0339,0.04064 -0.12237,0.05311 -0.15625,0.09375 -0.11063,0.132963 0.16721,0.08093 -0.1875,0.1875 -0.0479,0.01437 -0.11839,-0.02272 -0.15625,0 -0.0535,0.03213 0.0535,0.155369 0,0.1875 -0.0535,0.03213 -0.25902,-0.03213 -0.3125,0 -0.0535,0.03213 0.0535,0.155369 0,0.1875 -0.0756,0.04544 -0.23687,-0.04544 -0.3125,0 -0.0379,0.02272 0.0379,0.07103 0,0.09375 -0.0756,0.04544 -0.26812,-0.04544 -0.34375,0 -0.0379,0.02272 0.0379,0.07103 0,0.09375 -0.0756,0.04544 -0.21683,-0.02874 -0.3125,0 -0.0676,0.02032 -0.0886,0.07343 -0.15625,0.09375 -0.0969,0.0291 -0.39458,-0.04456 -0.46875,0 -0.0379,0.02272 0.0379,0.07103 0,0.09375 -0.0696,0.04179 -0.83357,-0.04061 -0.96875,0 -0.0676,0.02032 -0.0886,0.10468 -0.15625,0.125 -0.0997,0.02996 -1.09431,0 -1.28125,0 -0.0756,0 -0.80522,-0.0044 -0.8125,0 -0.0379,0.02272 0.0379,0.07103 0,0.09375 -0.0753,0.04525 -1.04968,-0.04525 -1.125,0 -0.0379,0.02272 0.0379,0.07103 0,0.09375 -0.0802,0.0482 -0.38854,-0.0482 -0.46875,0 -0.0379,0.02272 0.0379,0.07103 0,0.09375 -0.10691,0.06426 -0.54929,-0.06426 -0.65625,0 0,0.257054 0.0577,-0.03478 -0.15625,0.09375 -0.0379,0.02272 0.0379,0.07103 0,0.09375 -0.0756,0.04544 -0.21683,-0.02874 -0.3125,0 -0.13353,0.04012 -0.18434,0.07974 -0.21875,0.09375 0.0848,-0.0018 0.22846,-0.006 0.0625,0.09375 -0.0742,0.04456 -0.40314,-0.0291 -0.5,0 -0.14862,0.04465 -0.19024,0.08094 -0.21875,0.09375 0.0859,-0.0031 0.22846,-0.006 0.0625,0.09375 -0.10691,0.06426 -0.54929,-0.06426 -0.65625,0 -0.0379,0.02272 0.0379,0.07103 0,0.09375 -0.0379,0.02272 -0.11839,-0.02272 -0.15625,0 -0.0379,0.02272 0.0379,0.07103 0,0.09375 -0.0379,0.02272 -0.11839,-0.02272 -0.15625,0 -0.0535,0.03213 0.0535,0.186618 0,0.21875 -0.0756,0.04544 -0.23687,-0.04544 -0.3125,0 -0.0379,0.02272 0.0379,0.07103 0,0.09375 -0.0379,0.02272 -0.10838,-0.01437 -0.15625,0 -0.077,0.02313 -0.2355,0.164365 -0.3125,0.1875 -0.0479,0.01437 -0.14964,-0.02272 -0.1875,0 -0.0535,0.03213 0.0535,0.155368 0,0.1875 -0.0379,0.02272 -0.11839,-0.02272 -0.15625,0 -0.0379,0.02272 0.0379,0.07103 0,0.09375 -0.0535,0.03213 -0.25902,-0.03213 -0.3125,0 -0.0535,0.03213 0.0535,0.155368 0,0.1875 -0.0379,0.02272 -0.11839,-0.02272 -0.15625,0 -0.0379,0.02272 0,0.06162 0,0.09375 0,0.04545 -0.008,0.495631 0,0.5 0.0379,0.02272 0.11839,-0.02272 0.15625,0 0.0379,0.02272 -0.0379,0.07103 0,0.09375 0.0379,0.02272 0.11839,-0.02272 0.15625,0 0.0379,0.02272 -0.0379,0.07103 0,0.09375 0.10691,0.06426 0.5493,-0.06426 0.65625,0 0.0379,0.02272 -0.0379,0.07103 0,0.09375 0.0756,0.04544 0.21685,-0.02874 0.3125,0 0.0676,0.02032 0.0886,0.07343 0.15625,0.09375 0.0956,0.02874 0.23688,-0.04544 0.3125,0 0.0379,0.02272 -0.0379,0.07103 0,0.09375 0.0379,0.02272 0.11839,-0.02272 0.15625,0 0.0379,0.02272 -0.0379,0.07103 0,0.09375 0.0535,0.03213 0.29028,-0.03213 0.34375,0 0.0379,0.02272 -0.0379,0.07103 0,0.09375 0.0379,0.02272 0.11839,-0.02272 0.15625,0 0.0379,0.02272 -0.0379,0.102282 0,0.125 0.0802,0.0482 0.38854,-0.0482 0.46875,0 0.10691,0.06426 -0.10691,0.310736 0,0.375 0.0379,0.02272 0.10838,-0.01437 0.15625,0 0.13353,0.04012 0.18434,0.07974 0.21875,0.09375 -0.0848,-0.0018 -0.19721,-0.006 -0.0312,0.09375 0.0379,0.02272 0.11839,-0.02272 0.15625,0 0.0379,0.02272 -0.0239,0.06501 0,0.09375 0.19825,0.238231 0.15625,-0.03857 0.15625,0.1875 0,0.293915 0.15424,-0.0013 0.3125,0.09375 0.10691,0.06426 -0.10691,0.341986 0,0.40625 0.0756,0.04544 0.23688,-0.04544 0.3125,0 0.0756,0.04544 0,0.123236 0,0.1875 v 1.25 c 0,0.03969 -0.0425,0.255733 0,0.28125 0.0379,0.02272 0.11839,-0.02272 0.15625,0 0.0379,0.02272 -0.0379,0.07103 0,0.09375 0.0379,0.02272 0.14964,-0.02272 0.1875,0 0.0802,0.0482 -0.0802,0.264303 0,0.3125 0.0379,0.02272 0.11839,-0.02272 0.15625,0 0.0379,0.02272 -0.0379,0.07103 0,0.09375 0.0379,0.02272 0.11839,-0.02272 0.15625,0 0.0379,0.02272 -0.0379,0.07103 0,0.09375 0.0379,0.02272 0.11839,-0.02272 0.15625,0 0.0756,0.04544 -0.0756,0.142059 0,0.1875 0.0802,0.0482 0.38854,-0.0482 0.46875,0 0.0539,0.03236 -0.0539,0.155144 0,0.1875 0.0756,0.04544 0.26813,-0.04544 0.34375,0 0.0756,0.04544 -0.0756,0.142059 0,0.1875 0.0623,0.03739 0.87527,-0.03739 0.9375,0 0.0379,0.02272 -0.0379,0.07103 0,0.09375 0.0964,0.05788 1.12834,-0.05533 1.3125,0 0.0676,0.02032 0.0886,0.07343 0.15625,0.09375 0.11294,0.03392 1.22631,0 1.4375,0 0.18647,0 1.91816,0.01163 1.9375,0 0.0379,-0.02272 -0.0379,-0.07103 0,-0.09375 0.0379,-0.02272 0.10838,0.01437 0.15625,0 0.0676,-0.02032 0.0886,-0.07343 0.15625,-0.09375 0.0479,-0.01437 0.10838,0.01437 0.15625,0 0.0417,-0.01255 0.1871,-0.169105 0.3125,-0.09375 0.0379,0.02272 -0.0379,0.07103 0,0.09375 0.0802,0.0482 0.41979,-0.0482 0.5,0 0.0379,0.02272 -0.0379,0.07103 0,0.09375 0.0379,0.02272 0.10838,-0.01437 0.15625,0 0.0676,0.02032 0.0886,0.07343 0.15625,0.09375 0.0479,0.01437 0.11839,-0.02272 0.15625,0 0.0539,0.03236 -0.0539,0.186394 0,0.21875 0.0802,0.0482 0.38854,-0.0482 0.46875,0 0.0756,0.04544 -0.0756,0.142059 0,0.1875 0.0535,0.03213 0.29028,-0.03213 0.34375,0 0.0756,0.04544 -0.0756,0.142059 0,0.1875 0.0379,0.02272 0.11839,-0.02272 0.15625,0 0.0379,0.02272 -0.0379,0.07103 0,0.09375 0.0379,0.02272 0.11839,-0.02272 0.15625,0 0.0802,0.0482 -0.0802,0.233053 0,0.28125 0.0535,0.03213 0.25903,-0.03213 0.3125,0 0.0756,0.04544 -0.0756,0.142059 0,0.1875 0.0756,0.04544 0.20555,0 0.3125,0 h 1.9375 c 0.10691,0 0.22352,0.03565 0.3125,0 0.15149,-0.06068 0.29793,-0.117027 0.4375,-0.1875 V 60.125 c -0.023,8.4e-5 -0.0846,0 -0.0937,0 -0.0964,0 -0.28214,-0.02492 -0.4375,-0.03125 z"
       transform="rotate(-0.2265292,241229.57,42488.08)"
       id="path3905" />
  </g>
</svg>
