<?xml version="1.0" encoding="UTF-8" standalone="no"?>
<svg width="32px" height="32px" viewBox="0 0 32 32" version="1.1" xmlns="http://www.w3.org/2000/svg" xmlns:xlink="http://www.w3.org/1999/xlink" xmlns:sketch="http://www.bohemiancoding.com/sketch/ns">
    <!-- Generator: Sketch 3.0.3 (7891) - http://www.bohemiancoding.com/sketch -->
    <title>icon-statusbar-gps-focused</title>
    <desc>Created with Sketch.</desc>
    <defs></defs>
    <g id="Page-1" stroke="none" stroke-width="1" fill="none" fill-rule="evenodd" sketch:type="MSPage">
        <g id="statusbar_icons" sketch:type="MSArtboardGroup" transform="translate(-208.000000, -355.000000)" fill="#0091E5">
            <g id="gps" sketch:type="MSLayerGroup" transform="translate(228.000000, 366.807584) rotate(-43.000000) translate(-228.000000, -366.807584) translate(213.000000, 349.807584)">
                <rect id="Rectangle-20" sketch:type="MSShapeGroup" x="-1.13686838e-13" y="11.5744681" width="18" height="10.8510638" rx="8"></rect>
                <rect id="Rectangle-12" sketch:type="MSShapeGroup" x="5.25" y="23.8723404" width="7.5" height="2.89361702"></rect>
                <rect id="Rectangle-12" sketch:type="MSShapeGroup" x="5.25" y="27.4893617" width="7.5" height="2.89361702"></rect>
                <rect id="Rectangle-12" sketch:type="MSShapeGroup" x="5.25" y="31.106383" width="7.5" height="2.89361702"></rect>
                <rect id="Rectangle-12" sketch:type="MSShapeGroup" x="5.25" y="5.68434189e-14" width="7.5" height="2.89361702"></rect>
                <rect id="Rectangle-12" sketch:type="MSShapeGroup" x="5.25" y="3.61702128" width="7.5" height="2.89361702"></rect>
                <rect id="Rectangle-12" sketch:type="MSShapeGroup" x="5.25" y="7.23404255" width="7.5" height="2.89361702"></rect>
                <rect id="Rectangle-14" sketch:type="MSShapeGroup" x="8.25" y="7.95744681" width="1.5" height="18.0851064"></rect>
                <path d="M22.8207767,22.4136664 C22.6968303,22.4215353 22.5717874,22.4255319 22.4457767,22.4255319 C19.3391748,22.4255319 16.8207767,19.9964387 16.8207767,17 C16.8207767,14.0035613 19.3391748,11.5744681 22.4457767,11.5744681 C22.5717874,11.5744681 22.6968303,11.5784647 22.8207767,11.5863336 L22.8207767,22.4136664 Z" id="Oval-7" sketch:type="MSShapeGroup"></path>
                <path d="M20.625,17 L25.6776123,17" id="Line" stroke="#0091E5" stroke-linecap="square" sketch:type="MSShapeGroup"></path>
                <path d="M23.625,15.3419732 C23.8546734,15.2451831 24.1083357,15.1914894 24.375,15.1914894 C25.410534,15.1914894 26.25,16.0011871 26.25,17 C26.25,17.9988129 25.410534,18.8085106 24.375,18.8085106 C24.1083357,18.8085106 23.8546734,18.7548169 23.625,18.6580268 C24.2872143,18.3789531 24.75,17.7416048 24.75,17 C24.75,16.2583952 24.2872143,15.6210469 23.625,15.3419732 Z" id="Oval-8" sketch:type="MSShapeGroup"></path>
            </g>
        </g>
    </g>
</svg>