<?xml version="1.0" encoding="UTF-8" standalone="no"?>
<!-- Created with Inkscape (http://www.inkscape.org/) -->

<svg
   xmlns:dc="http://purl.org/dc/elements/1.1/"
   xmlns:cc="http://creativecommons.org/ns#"
   xmlns:rdf="http://www.w3.org/1999/02/22-rdf-syntax-ns#"
   xmlns:svg="http://www.w3.org/2000/svg"
   xmlns="http://www.w3.org/2000/svg"
   xmlns:xlink="http://www.w3.org/1999/xlink"
   xmlns:sodipodi="http://sodipodi.sourceforge.net/DTD/sodipodi-0.dtd"
   xmlns:inkscape="http://www.inkscape.org/namespaces/inkscape"
   width="90"
   height="90"
   id="svg3839"
   version="1.1"
   inkscape:version="0.92.1 unknown"
   sodipodi:docname="icon-app-browser.svg"
   inkscape:export-filename="C:\Users\Stephan\Desktop\Photoshop Zeugs\nemoux-master\icons\icon-l-components.png"
   inkscape:export-xdpi="90"
   inkscape:export-ydpi="90"
   viewBox="5 5 90 90">
  <defs
     id="defs3841">
    <radialGradient
       r="14.859289"
       fy="78.052773"
       fx="77.870583"
       cy="78.052773"
       cx="77.870583"
       gradientTransform="matrix(0.5174344,0.89622268,-0.873195,0.50413989,188.61436,261.92227)"
       gradientUnits="userSpaceOnUse"
       id="radialGradient4502"
       xlink:href="#linearGradient16667"
       inkscape:collect="always" />
    <linearGradient
       id="linearGradient16667">
      <stop
         style="stop-color:#fcff76;stop-opacity:1;"
         offset="0"
         id="stop16669" />
      <stop
         style="stop-color:#fce903;stop-opacity:1;"
         offset="1"
         id="stop16671" />
    </linearGradient>
    <linearGradient
       id="linearGradient16680">
      <stop
         id="stop16682"
         offset="0"
         style="stop-color:#9ea100;stop-opacity:1;" />
      <stop
         id="stop16684"
         offset="1"
         style="stop-color:#fbff04;stop-opacity:1;" />
    </linearGradient>
    <radialGradient
       r="14.859289"
       fy="78.052773"
       fx="77.870583"
       cy="78.052773"
       cx="77.870583"
       gradientTransform="matrix(0.5174344,0.89622268,-0.873195,0.50413989,206.30474,281.44269)"
       gradientUnits="userSpaceOnUse"
       id="radialGradient6346"
       xlink:href="#linearGradient16680"
       inkscape:collect="always" />
    <radialGradient
       inkscape:collect="always"
       xlink:href="#linearGradient5789"
       id="radialGradient5970"
       gradientUnits="userSpaceOnUse"
       gradientTransform="matrix(0.51318574,0.88886378,-0.86602518,0.50000039,105.50418,-30.189985)"
       cx="77.870583"
       cy="78.052773"
       fx="77.870583"
       fy="78.052773"
       r="14.859289" />
    <linearGradient
       id="linearGradient5789">
      <stop
         id="stop5791"
         offset="0"
         style="stop-color:#f7f7f7;stop-opacity:1;" />
      <stop
         id="stop5793"
         offset="1"
         style="stop-color:#d0d3d4;stop-opacity:1;" />
    </linearGradient>
    <radialGradient
       inkscape:collect="always"
       xlink:href="#linearGradient122968"
       id="radialGradient123008"
       gradientUnits="userSpaceOnUse"
       gradientTransform="matrix(0.51318574,0.88886378,-0.86602518,0.50000039,105.50418,-30.189985)"
       cx="77.870583"
       cy="78.052773"
       fx="77.870583"
       fy="78.052773"
       r="14.859289" />
    <linearGradient
       id="linearGradient122968">
      <stop
         id="stop122970"
         offset="0"
         style="stop-color:#9f9ca3;stop-opacity:1" />
      <stop
         id="stop122972"
         offset="1"
         style="stop-color:#484841;stop-opacity:1" />
    </linearGradient>
    <linearGradient
       inkscape:collect="always"
       xlink:href="#linearGradient122980"
       id="linearGradient123010"
       gradientUnits="userSpaceOnUse"
       gradientTransform="translate(-0.29770677,0.29770677)"
       x1="170.58598"
       y1="517.68085"
       x2="170.58598"
       y2="515.672" />
    <linearGradient
       inkscape:collect="always"
       id="linearGradient122980">
      <stop
         style="stop-color:#483e37;stop-opacity:1;"
         offset="0"
         id="stop122982" />
      <stop
         style="stop-color:#483e37;stop-opacity:0;"
         offset="1"
         id="stop122984" />
    </linearGradient>
    <linearGradient
       y2="515.672"
       x2="170.58598"
       y1="517.68085"
       x1="170.58598"
       gradientTransform="matrix(0.76215608,0,0,0.76215608,40.393563,123.40853)"
       gradientUnits="userSpaceOnUse"
       id="linearGradient6482"
       xlink:href="#linearGradient122980"
       inkscape:collect="always" />
    <radialGradient
       inkscape:collect="always"
       xlink:href="#linearGradient6059-7-0-3"
       id="radialGradient123406"
       gradientUnits="userSpaceOnUse"
       gradientTransform="matrix(0.51318574,0.88886378,-0.86602518,0.50000039,105.50418,-30.189985)"
       cx="77.870583"
       cy="78.052773"
       fx="77.870583"
       fy="78.052773"
       r="14.859289" />
    <linearGradient
       id="linearGradient6059-7-0-3">
      <stop
         style="stop-color:#ffffff;stop-opacity:1;"
         offset="0"
         id="stop6061-8-0-5" />
      <stop
         style="stop-color:#edeeee;stop-opacity:1;"
         offset="1"
         id="stop6063-1-3-5" />
    </linearGradient>
    <radialGradient
       r="14.859289"
       fy="78.052773"
       fx="77.870583"
       cy="78.052773"
       cx="77.870583"
       gradientTransform="matrix(0.51318574,0.88886378,-0.86602518,0.50000039,105.50418,-30.189985)"
       gradientUnits="userSpaceOnUse"
       id="radialGradient4313"
       xlink:href="#linearGradient5744"
       inkscape:collect="always" />
    <linearGradient
       id="linearGradient5744">
      <stop
         style="stop-color:#55b8ff;stop-opacity:1;"
         offset="0"
         id="stop5746" />
      <stop
         style="stop-color:#338eff;stop-opacity:1;"
         offset="1"
         id="stop5748" />
    </linearGradient>
  </defs>
  <sodipodi:namedview
     id="base"
     pagecolor="#ffffff"
     bordercolor="#666666"
     borderopacity="1.0"
     inkscape:pageopacity="0.0"
     inkscape:pageshadow="2"
     inkscape:zoom="5.8564"
     inkscape:cx="106.94766"
     inkscape:cy="58.678279"
     inkscape:document-units="px"
     inkscape:current-layer="layer1"
     showgrid="true"
     inkscape:window-width="1920"
     inkscape:window-height="1148"
     inkscape:window-x="-8"
     inkscape:window-y="-8"
     inkscape:window-maximized="1"
     viewbox-x="8"
     viewbox-y="-8">
    <inkscape:grid
       type="xygrid"
       id="grid3847"
       empspacing="5"
       visible="true"
       enabled="true"
       snapvisiblegridlinesonly="true" />
  </sodipodi:namedview>
  <metadata
     id="metadata3844">
    <rdf:RDF>
      <cc:Work
         rdf:about="">
        <dc:format>image/svg+xml</dc:format>
        <dc:type
           rdf:resource="http://purl.org/dc/dcmitype/StillImage" />
        <dc:title></dc:title>
      </cc:Work>
    </rdf:RDF>
  </metadata>
  <g
     inkscape:label="Ebene 1"
     inkscape:groupmode="layer"
     id="layer1"
     transform="translate(0,-962.36217)">
    <g
       transform="matrix(2.6698154,0,0,2.6698154,-275.18902,455.34129)"
       id="g4306"
       inkscape:export-filename="/home/qwazix/nemoux/iconset.png"
       inkscape:export-xdpi="300.10651"
       inkscape:export-ydpi="300.10651">
      <circle
         id="path5556"
         style="color:#000000;display:inline;overflow:visible;visibility:visible;fill:url(#radialGradient4313);fill-opacity:1;fill-rule:nonzero;stroke:none;stroke-width:2;marker:none;enable-background:accumulate"
         transform="matrix(1.008279,0,0,1.008279,43.076835,129.76566)"
         cx="78.078812"
         cy="78.223206"
         r="14.859289" />
      <path
         sodipodi:nodetypes="ccccccccccccc"
         inkscape:connector-curvature="0"
         id="path5571"
         d="m 130.52979,196.26016 c -0.0675,-0.24544 -0.49491,-0.1693 -0.67859,-0.20382 -0.16541,0.46918 0.55633,0.66843 0.52573,1.12012 0.30187,0.56668 -0.3696,0.82001 -0.71533,0.37836 -0.40781,-0.31836 -0.93533,-0.0592 -0.78306,0.46622 -0.0618,0.46914 -0.0614,0.94221 -0.0874,1.41195 0.215,0.4069 0.87688,0.3146 1.28807,0.39302 0.50302,0.1137 0.92064,-0.14924 0.94073,-0.67843 0.10005,-0.42974 0.60958,-0.5219 0.94131,-0.72978 0.36753,0.0861 0.95639,0.34054 0.67371,-0.20113 -0.3387,-0.3491 -0.74807,-0.6836 -1.05185,-1.09025 -0.29035,-0.32241 -0.55682,-0.90757 -1.05326,-0.86626 z"
         style="fill:#afe6e6;fill-opacity:1;stroke:none" />
      <path
         sodipodi:nodetypes="cccccccccccc"
         inkscape:connector-curvature="0"
         id="path5576"
         d="m 115.74809,194.80004 c -0.17241,0.63478 1.06581,1.60325 -0.30493,1.3343 -0.66737,-0.63034 -1.85681,-0.53689 -1.39646,0.58661 0.5128,1.01528 -1.09527,1.05333 -1.73237,1.14104 -0.95707,0.10769 -0.99835,1.35346 -1.77267,1.77944 -0.72049,0.45969 -0.90581,1.27934 -1.35464,1.9355 -0.81761,0.38579 -0.004,2.03097 -0.97018,1.8989 0.35635,-0.66507 -0.39536,-0.64942 -0.36989,-0.68877 0.53452,-1.10045 1.07961,-2.08317 1.79217,-2.99139 0.59651,-0.98053 1.4781,-1.74123 2.29731,-2.52835 0.64208,-0.72374 1.50879,-1.12655 2.27567,-1.69744 0.4381,-0.33704 0.95012,-0.58688 1.53599,-0.76984 z"
         style="fill:#afe6e6;fill-opacity:1;stroke:none" />
      <path
         inkscape:connector-curvature="0"
         id="path5581"
         d="m 111.43376,219.14409 c -0.50068,-0.67349 0.31748,-1.93767 0,-2.57263 -0.29851,-0.59704 -0.90944,-1.2018 -1.40325,-1.69559 -0.10713,-0.10713 -0.32235,-0.14695 -0.40929,-0.23388 -0.15563,-0.15563 -0.33593,-0.33595 -0.46775,-0.46776 -0.23169,-0.23169 -0.14778,-0.93871 -0.29234,-1.22783 -0.0886,-0.17697 -0.19139,-0.42527 -0.29235,-0.52622 -0.0353,-0.0353 0,-0.29537 0,-0.35082 0,-0.30543 -0.10859,-1.41989 0,-1.63712 0.13235,-0.26468 0.46318,-0.93093 0.58469,-1.05245 0.15996,-0.15995 -0.10567,-0.78259 0,-0.99397 0.2012,-0.40237 0.91612,-1.13044 1.3448,-1.34478 0.51554,-0.25777 1.09552,0.4016 1.34478,0.52622 0.18816,0.0941 0.86333,-0.0722 0.99397,0.0585 0.43553,0.43552 0.53009,1.05436 1.22784,1.40324 0.49208,0.24605 1.4994,-0.1962 1.87101,0.17542 0.10004,0.10005 0.12561,0.3097 0.17541,0.40927 0.0741,0.14819 0.20298,0.31992 0.29233,0.40929 0.0708,0.0708 -0.001,0.34946 0.0585,0.40928 0.40688,0.40688 0.17661,1.1109 0.99397,1.1109 0.36377,0 1.8819,0.0694 2.04641,0.23388 0.1777,0.17769 0.36465,0.36465 0.52622,0.52622 0.15423,0.15423 0.88537,0.35915 1.11091,0.58468 0.0488,0.0488 -0.0488,0.24364 0,0.29235 0.034,0.034 0.23335,0.58522 0.11693,0.70163 -0.0779,0.0779 -0.14011,0.31551 -0.23387,0.40929 -0.25812,0.25812 -0.4322,0.54913 -0.76009,0.87702 -0.1531,0.15311 -0.16205,0.49951 -0.29235,0.7601 -0.0369,0.0738 0.0562,0.29469 0,0.35081 -0.35545,0.35546 -0.067,1.52871 -0.46775,1.92947 -0.39435,0.39436 -1.34454,-2.4e-4 -1.46172,0.11694 -0.25019,0.25018 -0.34221,0.69304 -0.58469,0.9355 -0.0874,0.0874 -0.0363,0.85491 -0.23387,1.05244 -0.38404,0.38404 -2.23773,0.36672 -2.28029,0.40928 -0.0257,0.0257 -0.17496,0.81813 -0.40928,1.05244 -0.18812,0.18812 -0.71593,-0.24817 -0.76009,-0.29233 -0.50937,-0.50937 -2.5354,-1.35559 -2.33876,-2.33876 z"
         style="color:#000000;display:inline;overflow:visible;visibility:visible;fill:#afe6e6;fill-opacity:1;fill-rule:nonzero;stroke:none;stroke-width:1px;marker:none;enable-background:accumulate" />
      <path
         inkscape:connector-curvature="0"
         id="path5600"
         d="m 129.76969,199.96354 c -0.23868,0.12883 -0.1357,-0.021 -0.35082,0.40929 -0.0846,0.16932 -0.25809,0.4335 -0.3508,0.52622 -0.18515,0.18514 0.18514,0.92575 0,1.1109 -0.11693,0.11694 -0.29235,0.17541 -0.40928,0.29235 -0.0488,0.0488 -0.24363,-0.0488 -0.29235,0 -0.1525,0.1525 -0.44315,0.26774 -0.58469,0.40928 -0.0276,0.0276 0.0276,0.0893 0,0.11693 -0.0276,0.0276 -0.082,-0.0174 -0.11694,0 -0.14046,0.0702 -0.20643,0.2649 -0.29233,0.35082 -0.0563,0.0563 -0.21731,0.0419 -0.29235,0.11693 -0.24199,0.24199 0.0881,0.87619 -0.0585,1.16938 -0.10501,0.21014 -0.12415,0.30678 -0.23386,0.52622 -0.1241,0.24818 0.11211,1.69079 0.23386,1.81254 0.0389,0.0389 -0.0389,0.1949 0,0.23387 0.13452,0.13453 0.33201,0.37167 0.46775,0.64317 0.10692,0.21384 0.10355,0.51279 0.29234,0.70161 0.094,0.094 0.36356,0.24662 0.46776,0.35083 0.39188,0.39187 0.61825,0.79365 0.99397,1.16937 0.0426,0.0425 0.17621,0.0593 0.23387,0.11693 0.27298,0.27298 2.55341,-0.50699 2.63111,-0.58469 0.0292,-0.0292 -0.0292,-0.14616 0,-0.17539 0.45424,-0.45425 -0.70705,-0.9328 -0.23388,-1.16939 0.0493,-0.0246 0.35994,-0.0246 0.40928,0 0.0606,0.0303 0.30626,0.46776 0.17541,0.46776 -0.0975,0 0.16497,0.10646 0.23387,0.17541 0.0585,0.0585 0.0585,0.17539 0.11693,0.23387 0.16856,0.16855 0.53137,0.17798 0.76011,0.29235 0.0988,0.0494 0.2214,0.17539 0.29233,0.17539 0.11073,0 0.13458,0.0761 0.17542,0.11695 0.0489,0.0489 0.1786,0.12013 0.23387,0.1754 0.0857,0.0857 -0.0219,0.78204 -0.0585,0.81856 -0.0408,0.0408 -0.11694,0.0647 -0.11694,0.17542 0,0.74969 -0.11306,0.35855 0.23388,1.05244 0.0175,0.0349 -0.0276,0.0894 0,0.11693 0.0563,0.0563 0.2173,0.0419 0.29235,0.11694 0.003,0.003 0.091,0.61725 0.23387,0.76009 0.11431,0.1143 -0.11694,1.3956 -0.11694,1.52019 0,0.18315 -0.3092,0.42615 -0.40928,0.52622 -0.12864,0.12864 -0.0585,0.70291 -0.0585,0.93551 0,0.15591 0,0.31183 0,0.46775 0,0.0389 0,0.15591 0,0.11693 0,-0.0389 -0.039,-0.11693 0,-0.11693 0.12596,0 0.0207,0.19618 0.0585,0.23387 0.0865,0.0865 0.63225,0.24478 0.76009,0.11694 0.15475,-0.15474 0.40928,-1.09439 0.40928,-1.40325 0,-0.27111 0.26864,-0.38559 0.40929,-0.52622 0.20431,-0.20432 0.2275,-0.69526 0.46775,-0.93551 0.0371,-0.0371 -0.0243,-0.18519 0,-0.23387 0.24318,-0.48636 0.45601,-1.9762 0.70162,-2.22181 0.16362,-0.16362 0.0418,-3.06561 0.17541,-3.33273 0.0865,-0.17309 0.064,-2.6256 0,-2.68957 -0.0489,-0.0489 -0.0616,-0.23707 -0.11693,-0.29235 -0.65006,-0.65004 -0.53317,-1.70254 -1.11092,-2.28028 -0.0903,-0.0903 -0.0479,-0.28169 -0.11693,-0.35081 -0.18416,-0.18414 -0.34207,-0.22512 -0.52622,-0.40928 -0.14589,-0.14589 -0.21938,-0.57019 -0.35082,-0.70163 -0.0848,-0.0848 -0.83757,-0.13594 -1.11091,-0.40928 -0.14838,-0.14838 0.003,-0.96292 -0.1754,-1.05244 -0.63213,-0.31607 -3.14357,0.0447 -3.44966,0.35082 -0.0885,0.0885 -0.38094,-0.0588 -0.52622,-0.11695 z"
         style="color:#000000;display:inline;overflow:visible;visibility:visible;fill:#afe6e6;fill-opacity:1;fill-rule:nonzero;stroke:none;stroke-width:1px;marker:none;enable-background:accumulate" />
    </g>
  </g>
</svg>
