<?xml version="1.0" encoding="UTF-8" standalone="no"?>
<svg width="32px" height="32px" viewBox="0 0 32 32" version="1.1" xmlns="http://www.w3.org/2000/svg" xmlns:xlink="http://www.w3.org/1999/xlink" xmlns:sketch="http://www.bohemiancoding.com/sketch/ns">
    <!-- Generator: Sketch 3.0.3 (7891) - http://www.bohemiancoding.com/sketch -->
    <title>icon-statusbar-nfc-normal</title>
    <desc>Created with Sketch.</desc>
    <defs></defs>
    <g id="Page-1" stroke="none" stroke-width="1" fill="none" fill-rule="evenodd" sketch:type="MSPage">
        <g id="statusbar_icons" sketch:type="MSArtboardGroup" transform="translate(-132.000000, -287.000000)" fill="#FFFFFF">
            <g id="nfc" sketch:type="MSLayerGroup" transform="translate(148.000000, 302.572298) rotate(-49.000000) translate(-148.000000, -302.572298) translate(132.000000, 286.572298)">
                <path d="M15.4919223,0.00791391338 C15.6606363,0.00265100007 15.8300086,2.84217094e-14 16,2.84217094e-14 C24.8365564,2.84217094e-14 32,7.16344357 32,16 C32,24.8365564 24.8365564,32 16,32 C7.16344357,32 2.84217094e-14,24.8365564 2.84217094e-14,16 C2.84217094e-14,15.8300086 0.00265100007,15.6606363 0.00791391338,15.4919223 C0.267499682,23.5485006 6.88033519,30 15,30 C23.2842717,30 30,23.2842717 30,15 C30,6.88033519 23.5485006,0.267499682 15.4919223,0.00791391338 Z" id="Oval-2" sketch:type="MSShapeGroup"></path>
                <path d="M15.519157,4.71593342 C15.6786058,4.70925496 15.838909,4.70588235 16,4.70588235 C22.2375692,4.70588235 27.2941176,9.76243075 27.2941176,16 C27.2941176,22.2375692 22.2375692,27.2941176 16,27.2941176 C9.76243075,27.2941176 4.70588235,22.2375692 4.70588235,16 C4.70588235,15.838909 4.70925496,15.6786058 4.71593342,15.519157 C4.95676819,21.0233196 9.49530742,25.4117647 15.0588235,25.4117647 C20.7765953,25.4117647 25.4117647,20.7765953 25.4117647,15.0588235 C25.4117647,9.49530742 21.0233196,4.95676819 15.519157,4.71593342 Z" id="Oval-2" sketch:type="MSShapeGroup"></path>
                <circle id="Oval-6" sketch:type="MSShapeGroup" cx="15.9117647" cy="15.9117647" r="5.5"></circle>
            </g>
        </g>
    </g>
</svg>