<?xml version="1.0" encoding="UTF-8" standalone="no"?>
<!-- Created with Inkscape (http://www.inkscape.org/) -->

<svg
   xmlns:dc="http://purl.org/dc/elements/1.1/"
   xmlns:cc="http://creativecommons.org/ns#"
   xmlns:rdf="http://www.w3.org/1999/02/22-rdf-syntax-ns#"
   xmlns:svg="http://www.w3.org/2000/svg"
   xmlns="http://www.w3.org/2000/svg"
   xmlns:xlink="http://www.w3.org/1999/xlink"
   xmlns:sodipodi="http://sodipodi.sourceforge.net/DTD/sodipodi-0.dtd"
   xmlns:inkscape="http://www.inkscape.org/namespaces/inkscape"
   width="96"
   height="96"
   viewBox="5 5 90 90"
   id="svg3839"
   version="1.1"
   inkscape:version="0.92.1 unknown"
   sodipodi:docname="icon-app-settings.svg"
   inkscape:export-filename="C:\Users\Stephan\Desktop\Photoshop Zeugs\nemoux-master\icons\icon-l-settings.png"
   inkscape:export-xdpi="90"
   inkscape:export-ydpi="90">
  <defs
     id="defs3841">
    <linearGradient
       id="linearGradient5426">
      <stop
         id="stop5428"
         offset="0"
         style="stop-color:#0037d4;stop-opacity:1;" />
      <stop
         id="stop5430"
         offset="1"
         style="stop-color:#02008c;stop-opacity:1;" />
    </linearGradient>
    <linearGradient
       inkscape:collect="always"
       id="linearGradient5538">
      <stop
         style="stop-color:#011496;stop-opacity:1;"
         offset="0"
         id="stop5540" />
      <stop
         style="stop-color:#011496;stop-opacity:0;"
         offset="1"
         id="stop5542" />
    </linearGradient>
    <radialGradient
       inkscape:collect="always"
       xlink:href="#linearGradient5426"
       id="radialGradient5344"
       gradientUnits="userSpaceOnUse"
       gradientTransform="matrix(0.689998,0.689998,-0.70710883,0.70710473,79.514373,-30.895298)"
       cx="77.994781"
       cy="78.256454"
       fx="77.994781"
       fy="78.256454"
       r="14.859289" />
    <radialGradient
       inkscape:collect="always"
       xlink:href="#linearGradient5538"
       id="radialGradient5346"
       gradientUnits="userSpaceOnUse"
       gradientTransform="matrix(0,-0.78193564,1.4296973,-2.4356879e-5,-139.46463,335.84155)"
       cx="164.48473"
       cy="212.597"
       fx="164.48473"
       fy="212.597"
       r="13.732007" />
    <linearGradient
       id="linearGradient3837">
      <stop
         style="stop-color:#00d400;stop-opacity:1"
         offset="0"
         id="stop3840" />
      <stop
         style="stop-color:#008000;stop-opacity:1"
         offset="1"
         id="stop3842" />
    </linearGradient>
    <radialGradient
       r="14.859289"
       fy="78.052773"
       fx="77.870583"
       cy="78.052773"
       cx="77.870583"
       gradientTransform="matrix(1.3812662,2.3924232,-2.330952,1.3457771,124.30645,710.68316)"
       gradientUnits="userSpaceOnUse"
       id="radialGradient5935"
       xlink:href="#linearGradient3837"
       inkscape:collect="always" />
    <radialGradient
       inkscape:collect="always"
       xlink:href="#linearGradient3837"
       id="radialGradient5991"
       gradientUnits="userSpaceOnUse"
       gradientTransform="matrix(1.3812662,2.3924232,-2.330952,1.3457771,124.30645,710.68316)"
       cx="77.870583"
       cy="78.052773"
       fx="77.870583"
       fy="78.052773"
       r="14.859289" />
    <radialGradient
       inkscape:collect="always"
       xlink:href="#linearGradient3837"
       id="radialGradient6004"
       gradientUnits="userSpaceOnUse"
       gradientTransform="matrix(1.3827057,2.3924212,-2.3333813,1.345776,123.89192,710.59687)"
       cx="77.870583"
       cy="78.052773"
       fx="77.870583"
       fy="78.052773"
       r="14.859289" />
    <radialGradient
       r="14.859289"
       fy="78.052773"
       fx="77.870583"
       cy="78.052773"
       cx="77.870583"
       gradientTransform="matrix(0.51318574,0.88886378,-0.86602518,0.50000039,105.50418,-30.189985)"
       gradientUnits="userSpaceOnUse"
       id="radialGradient4317"
       xlink:href="#linearGradient5344"
       inkscape:collect="always" />
    <linearGradient
       id="linearGradient5344">
      <stop
         style="stop-color:#ffea55;stop-opacity:1;"
         offset="0"
         id="stop5346" />
      <stop
         style="stop-color:#ffe533;stop-opacity:1;"
         offset="1"
         id="stop5348" />
    </linearGradient>
    <linearGradient
       id="linearGradient121473">
      <stop
         style="stop-color:#313131;stop-opacity:1;"
         offset="0"
         id="stop121475" />
      <stop
         style="stop-color:#000000;stop-opacity:1;"
         offset="1"
         id="stop121477" />
    </linearGradient>
    <radialGradient
       r="14.859289"
       fy="78.052773"
       fx="77.870583"
       cy="78.052773"
       cx="77.870583"
       gradientTransform="matrix(0.51318574,0.88886378,-0.86602518,0.50000039,105.50418,-30.189985)"
       gradientUnits="userSpaceOnUse"
       id="radialGradient6068"
       xlink:href="#linearGradient121473"
       inkscape:collect="always" />
    <radialGradient
       r="14.859289"
       fy="78.052773"
       fx="77.870583"
       cy="78.052773"
       cx="77.870583"
       gradientTransform="matrix(0.51318574,0.88886378,-0.86602518,0.50000039,105.50418,-30.189985)"
       gradientUnits="userSpaceOnUse"
       id="radialGradient4304"
       xlink:href="#linearGradient6059"
       inkscape:collect="always" />
    <linearGradient
       id="linearGradient6059">
      <stop
         style="stop-color:#f3f3f3;stop-opacity:1;"
         offset="0"
         id="stop6061" />
      <stop
         style="stop-color:#cdcfcf;stop-opacity:1;"
         offset="1"
         id="stop6063" />
    </linearGradient>
    <radialGradient
       inkscape:collect="always"
       xlink:href="#linearGradient3882"
       id="radialGradient3888"
       cx="2184.9075"
       cy="-930.55658"
       fx="2184.9075"
       fy="-930.55658"
       r="40.306797"
       gradientUnits="userSpaceOnUse"
       gradientTransform="matrix(0.59752987,0.80194981,-0.80188328,0.59748072,133.16229,-2126.7531)" />
    <linearGradient
       id="linearGradient3882">
      <stop
         style="stop-color:#ffffff;stop-opacity:1;"
         offset="0"
         id="stop3884" />
      <stop
         style="stop-color:#f4f4f4;stop-opacity:1"
         offset="1"
         id="stop3886" />
    </linearGradient>
    <radialGradient
       r="14.859289"
       fy="-57.764675"
       fx="-316.19208"
       cy="-57.764675"
       cx="-316.19208"
       gradientTransform="matrix(0.49521926,0.85774582,-0.83570677,0.48249553,230.60276,707.18505)"
       gradientUnits="userSpaceOnUse"
       id="radialGradient16659"
       xlink:href="#linearGradient5789-2-1-1"
       inkscape:collect="always" />
    <linearGradient
       id="linearGradient5789-2-1-1">
      <stop
         id="stop5791-7-3-2"
         offset="0"
         style="stop-color:#ffffff;stop-opacity:1;" />
      <stop
         id="stop5793-2-8-6"
         offset="1"
         style="stop-color:#adb2b4;stop-opacity:1;" />
    </linearGradient>
  </defs>
  <sodipodi:namedview
     id="base"
     pagecolor="#ffffff"
     bordercolor="#666666"
     borderopacity="1.0"
     inkscape:pageopacity="0.0"
     inkscape:pageshadow="2"
     inkscape:zoom="5.6568542"
     inkscape:cx="77.646339"
     inkscape:cy="52.115744"
     inkscape:document-units="px"
     inkscape:current-layer="layer1"
     showgrid="true"
     inkscape:window-width="1920"
     inkscape:window-height="1148"
     inkscape:window-x="-8"
     inkscape:window-y="-8"
     inkscape:window-maximized="1">
    <inkscape:grid
       type="xygrid"
       id="grid3847"
       empspacing="5"
       visible="true"
       enabled="true"
       snapvisiblegridlinesonly="true"
       originx="0"
       originy="0"
       spacingx="1"
       spacingy="1" />
  </sodipodi:namedview>
  <metadata
     id="metadata3844">
    <rdf:RDF>
      <cc:Work
         rdf:about="">
        <dc:format>image/svg+xml</dc:format>
        <dc:type
           rdf:resource="http://purl.org/dc/dcmitype/StillImage" />
        <dc:title></dc:title>
      </cc:Work>
    </rdf:RDF>
  </metadata>
  <g
     inkscape:label="Ebene 1"
     inkscape:groupmode="layer"
     id="layer1"
     transform="translate(0,-952.36217)">
    <g
       transform="matrix(2.6694473,0,0,2.6722338,-276.20728,-87.246585)"
       id="g16637"
       inkscape:export-filename="/home/qwazix/nemoux/iconset.png"
       inkscape:export-xdpi="300.10651"
       inkscape:export-ydpi="300.10651">
      <path
         style="color:#000000;display:inline;overflow:visible;visibility:visible;fill:url(#radialGradient16659);fill-opacity:1;fill-rule:nonzero;stroke:none;stroke-width:3.17542434;marker:none;enable-background:accumulate"
         d="m 122.21593,392.78327 c -8.2745,0 -15,6.69425 -15,14.96875 0,8.2745 6.7255,14.96875 15,14.96875 8.2745,0 14.96875,-6.69425 14.96875,-14.96875 0,-8.2745 -6.69425,-14.96875 -14.96875,-14.96875 z m -0.53125,3.15625 h 1.0625 l 0.3125,1.09375 v 0.1875 l -0.0625,0.90625 1.4375,0.21875 0.21875,-0.875 0.0625,-0.15625 0.625,-0.9375 1,0.3125 -0.0312,1.15625 -0.0312,0.125 -0.34375,0.84375 1.3125,0.6875 0.46875,-0.78125 0.125,-0.125 0.875,-0.6875 0.84375,0.625 -0.375,1.0625 -0.0937,0.15625 -0.59375,0.65625 1.03125,1.0625 0.6875,-0.59375 0.15625,-0.0937 1.0625,-0.375 0.625,0.84375 -0.6875,0.875 -0.125,0.0937 -0.78125,0.5 0.6875,1.3125 0.84375,-0.34375 0.125,-0.0312 1.15625,-0.0312 0.3125,0.96875 -0.9375,0.65625 -0.15625,0.0625 -0.875,0.21875 0.21875,1.4375 0.90625,-0.0625 h 0.1875 l 1.09375,0.3125 v 1.0625 l -1.09375,0.3125 -0.1875,0.0312 -0.90625,-0.0937 -0.21875,1.46875 0.875,0.1875 0.15625,0.0937 0.9375,0.625 -0.3125,1 -1.15625,-0.0625 h -0.125 l -0.84375,-0.375 -0.6875,1.3125 0.78125,0.46875 0.125,0.125 0.6875,0.90625 -0.625,0.84375 -1.0625,-0.40625 -0.15625,-0.0625 -0.6875,-0.59375 -1.03125,1.03125 0.59375,0.6875 0.0937,0.125 0.375,1.09375 -0.84375,0.625 -0.875,-0.6875 -0.125,-0.15625 -0.46875,-0.78125 -1.3125,0.6875 0.34375,0.84375 0.0312,0.125 0.0312,1.1875 -1,0.3125 -0.625,-0.9375 -0.0625,-0.1875 -0.21875,-0.875 -1.4375,0.25 0.0625,0.90625 v 0.15625 l -0.3125,1.09375 h -1.0625 l -0.3125,-1.09375 -0.0312,-0.15625 0.0937,-0.90625 -1.46875,-0.25 -0.1875,0.875 -0.0937,0.1875 -0.625,0.9375 -1,-0.3125 0.0312,-1.1875 0.0312,-0.125 0.34375,-0.84375 -1.28125,-0.6875 -0.5,0.78125 -0.0937,0.15625 -0.90625,0.6875 -0.84375,-0.625 0.40625,-1.09375 0.0625,-0.125 0.59375,-0.6875 -1.03125,-1.03125 -0.6875,0.59375 -0.15625,0.0625 -1.0625,0.40625 -0.625,-0.84375 0.6875,-0.90625 0.15625,-0.125 0.78125,-0.46875 -0.6875,-1.3125 -0.84375,0.375 h -0.15625 l -1.15625,0.0625 -0.3125,-1 0.9375,-0.625 0.1875,-0.0937 0.84375,-0.1875 -0.21875,-1.46875 -0.90625,0.0937 -0.15625,-0.0312 -1.09375,-0.3125 v -1.0625 l 1.09375,-0.3125 h 0.15625 l 0.90625,0.0625 0.21875,-1.4375 -0.84375,-0.21875 -0.1875,-0.0625 -0.9375,-0.65625 0.3125,-0.96875 1.15625,0.0312 0.15625,0.0312 0.84375,0.34375 0.6875,-1.3125 -0.78125,-0.5 -0.15625,-0.0937 -0.6875,-0.875 0.625,-0.84375 1.0625,0.375 0.15625,0.0937 0.6875,0.59375 1.03125,-1.0625 -0.59375,-0.65625 -0.0625,-0.15625 -0.40625,-1.0625 0.84375,-0.625 0.90625,0.6875 0.0937,0.125 0.5,0.78125 1.28125,-0.6875 -0.34375,-0.84375 -0.0312,-0.125 -0.0312,-1.15625 1,-0.3125 0.625,0.9375 0.0937,0.15625 0.1875,0.875 1.46875,-0.21875 -0.0937,-0.90625 0.0312,-0.1875 z"
         id="path16543"
         inkscape:connector-curvature="0"
         sodipodi:nodetypes="sssssccccccccccccccccccccccccccccccccccccccccccccccccccccccccccccccccccccccccccccccccccccccccccccccccccccccccccccccccccccccccccccccccccccccccccccccccccccccccccccccccc" />
      <path
         inkscape:connector-curvature="0"
         style="color:#000000;display:inline;overflow:visible;visibility:visible;fill:#02dbe2;fill-opacity:1;fill-rule:nonzero;stroke:none;stroke-width:3.20171356;marker:none;enable-background:accumulate"
         d="m 121.06547,402.29725 1.10197,-0.40774 0.0549,-0.0132 1.37799,0.38475 0.0814,0.88606 -1.28484,0.62847 -0.0563,-0.003 -1.15791,-0.20092 -0.53051,1.14703 0.90478,0.74811 0.0392,0.0408 0.35478,1.38278 -0.72865,0.51324 -1.18808,-0.79543 -0.0256,-0.0504 -0.40457,-1.1006 -1.26093,0.1154 -0.19719,1.15565 -0.0162,0.054 -1.02323,0.99781 -0.81006,-0.37242 0.097,-1.42409 0.031,-0.0473 0.75331,-0.89988 -0.73078,-1.03161 -1.10197,0.40775 -0.0549,0.0133 -1.37798,-0.38477 -0.0814,-0.88603 1.28484,-0.62848 0.0563,0.003 1.15792,0.20094 0.5305,-1.14703 -0.90479,-0.74811 -0.0391,-0.0408 -0.35477,-1.38277 0.72863,-0.51324 1.18808,0.79541 0.0255,0.0504 0.40457,1.10058 1.26092,-0.11539 0.1972,-1.15565 0.0162,-0.054 1.02323,-0.99781 0.81005,0.37243 -0.097,1.4241 -0.031,0.0473 -0.7533,0.89986 z"
         id="path12044" />
    </g>
  </g>
</svg>
