<?xml version="1.0" encoding="UTF-8" standalone="no"?>
<!-- Created with Inkscape (http://www.inkscape.org/) -->

<svg
   xmlns:dc="http://purl.org/dc/elements/1.1/"
   xmlns:cc="http://creativecommons.org/ns#"
   xmlns:rdf="http://www.w3.org/1999/02/22-rdf-syntax-ns#"
   xmlns:svg="http://www.w3.org/2000/svg"
   xmlns="http://www.w3.org/2000/svg"
   xmlns:sodipodi="http://sodipodi.sourceforge.net/DTD/sodipodi-0.dtd"
   xmlns:inkscape="http://www.inkscape.org/namespaces/inkscape"
   width="640"
   height="640"
   id="svg3027"
   version="1.1"
   inkscape:version="0.48.3.1 r9886"
   sodipodi:docname="New document 2">
  <defs
     id="defs3029" />
  <sodipodi:namedview
     id="base"
     pagecolor="#ffffff"
     bordercolor="#666666"
     borderopacity="1.0"
     inkscape:pageopacity="0.0"
     inkscape:pageshadow="2"
     inkscape:zoom="0.35"
     inkscape:cx="375"
     inkscape:cy="520"
     inkscape:document-units="px"
     inkscape:current-layer="layer1"
     showgrid="false"
     inkscape:window-width="1280"
     inkscape:window-height="750"
     inkscape:window-x="0"
     inkscape:window-y="0"
     inkscape:window-maximized="1" />
  <metadata
     id="metadata3032">
    <rdf:RDF>
      <cc:Work
         rdf:about="">
        <dc:format>image/svg+xml</dc:format>
        <dc:type
           rdf:resource="http://purl.org/dc/dcmitype/StillImage" />
        <dc:title></dc:title>
      </cc:Work>
    </rdf:RDF>
  </metadata>
  <g
     inkscape:label="Layer 1"
     inkscape:groupmode="layer"
     id="layer1"
     transform="translate(0,-412.36218)">
    <path
       inkscape:connector-curvature="0"
       id="path3826"
       style="font-size:56.56915665px;font-style:normal;font-variant:normal;font-weight:normal;font-stretch:normal;line-height:125%;letter-spacing:0px;word-spacing:0px;fill:#373737;fill-opacity:1;stroke:none;font-family:Cynthe;-inkscape-font-specification:Cynthe"
       d="m 37.285718,983.55565 0,-86.36365 c 0,-4.67794 1.619302,-8.72622 4.857937,-12.14489 3.418568,-3.23851 7.556805,-4.85781 12.414773,-4.85797 l 0,-0.26972 69.090872,0 0,0.26972 c 4.67794,1.6e-4 8.72623,1.61946 12.14489,4.85797 3.41847,3.41867 5.12773,7.46695 5.12782,12.14489 l 0,86.36365 -17.27271,0 0,-78.53693 c -0.36006,-1.9791 -1.25956,-3.68839 -2.69883,-5.12782 -1.61943,-1.79917 -3.59854,-2.6988 -5.93747,-2.6989 l -51.8182,0 c -2.518967,10e-5 -4.588086,0.89973 -6.207419,2.6989 -1.439369,1.43943 -2.249051,3.14872 -2.428953,5.12782 l 0,78.53693 -17.27271,0"
       inkscape:export-filename="/home/paulo/Desktop/nemo.png"
       inkscape:export-xdpi="180"
       inkscape:export-ydpi="180" />
    <path
       sodipodi:nodetypes="cccccccccccscssccccccccccccccccc"
       inkscape:connector-curvature="0"
       id="path3828"
       style="font-size:56.56915665px;font-style:normal;font-variant:normal;font-weight:normal;font-stretch:normal;line-height:125%;letter-spacing:0px;word-spacing:0px;fill:#373737;fill-opacity:1;stroke:none;font-family:Cynthe;-inkscape-font-specification:Cynthe"
       d="m 253.31994,922.65621 c 2.33894,7e-5 8.51265,0.01 8.51265,0.01 0.13438,-5.87446 0.13438,-11.76555 -0.002,-17.64834 -0.36006,-1.97911 -1.25957,-3.68839 -2.69887,-5.12782 -1.6194,-1.79918 -3.5986,-2.69881 -5.93754,-2.6989 l -51.81814,0 c -2.51897,9e-5 -4.58808,0.89972 -6.20739,2.6989 -1.4394,1.43943 -2.24905,3.14871 -2.42898,5.12782 l -0.10087,17.82681 m 0.10087,60.71024 0,0 -0.26972,0 c -4.67801,0 -8.72629,-1.61933 -12.14486,-4.85797 -3.23864,-3.41857 -4.85797,-7.5568 -4.85797,-12.4148 l 0,-69.09088 c 0,-4.67794 1.61933,-8.72622 4.85797,-12.14489 3.41857,-3.2385 7.55677,-4.85781 12.41474,-4.85797 l 0,-0.26972 69.09091,0 0,0.003 c 4.67791,1.6e-4 8.72623,1.88667 12.14489,5.12517 3.41845,3.41867 5.12773,7.46695 5.12783,12.14489 l 3e-5,25.5323 c -1e-4,4.858 -0.35569,9.92706 -5.0922,13.38122 -5.08128,3.4261 -8.29413,4.08962 -12.18648,4.20839 l -69.20644,-0.006 0.12162,18.41809 c 0.17971,1.9792 0.98958,3.68852 2.42898,5.12786 1.61931,1.61936 3.68842,2.42901 6.20739,2.42895 l 77.6126,-0.0782 0.0389,17.33224 -86.2875,0.0192"
       inkscape:export-filename="/home/paulo/Desktop/nemo.png"
       inkscape:export-xdpi="180"
       inkscape:export-ydpi="180" />
    <path
       inkscape:connector-curvature="0"
       id="path3830"
       style="font-size:56.56915665px;font-style:normal;font-variant:normal;font-weight:normal;font-stretch:normal;line-height:125%;letter-spacing:0px;word-spacing:0px;fill:#373737;fill-opacity:1;stroke:none;font-family:Cynthe;-inkscape-font-specification:Cynthe"
       d="m 313.64928,983.55565 0,-86.36365 c 0,-4.67794 1.61934,-8.72622 4.85797,-12.14489 3.41851,-3.23851 7.55681,-4.85781 12.41474,-4.85797 l 0,-0.26972 120.9091,0 0,0.26972 c 4.67788,1.6e-4 8.72617,1.61946 12.14486,4.85797 3.41838,3.41867 5.12769,7.46695 5.12785,12.14489 l 0,86.36365 -17.27271,0 0,-78.53693 c -0.36005,-1.9791 -1.25962,-3.68839 -2.6989,-5.12782 -1.61943,-1.79917 -3.59859,-2.6988 -5.9375,-2.6989 l -43.18179,0 0,86.36365 -17.27271,0 0,-86.36365 -43.18179,0 c -2.51897,10e-5 -4.58809,0.89973 -6.20742,2.6989 -1.4394,1.43943 -2.24905,3.14872 -2.42899,5.12782 l 0,78.53693 -17.27271,0"
       inkscape:export-filename="/home/paulo/Desktop/nemo.png"
       inkscape:export-xdpi="180"
       inkscape:export-ydpi="180" />
    <path
       inkscape:connector-curvature="0"
       id="path3832"
       style="font-size:56.56915665px;font-style:normal;font-variant:normal;font-weight:normal;font-stretch:normal;line-height:125%;letter-spacing:0px;word-spacing:0px;fill:#373737;fill-opacity:1;stroke:none;font-family:Cynthe;-inkscape-font-specification:Cynthe"
       d="m 581.3765,966.28288 c 2.33888,6e-5 4.31804,-0.80959 5.93747,-2.42896 1.43931,-1.43933 2.33894,-3.14865 2.69884,-5.12785 l 0,-53.70735 c -0.36006,-1.9791 -1.25953,-3.68839 -2.69884,-5.12782 -1.61943,-1.79917 -3.59859,-2.6988 -5.93747,-2.6989 l -51.81819,0 c -2.51897,10e-5 -4.58809,0.89973 -6.20742,2.6989 -1.43937,1.43943 -2.24902,3.14872 -2.42895,5.12782 l 0,53.70735 c 0.17971,1.9792 0.98958,3.68852 2.42895,5.12785 1.61933,1.61937 3.68845,2.42902 6.20742,2.42896 l 51.81819,0 m -60.45456,17.27277 0,0 -0.26973,0 c -4.678,0 -8.72632,-1.61933 -12.14489,-4.85797 -3.23863,-3.41857 -4.85794,-7.5568 -4.85794,-12.4148 l 0,-69.09088 c 0,-4.67794 1.61931,-8.72622 4.85794,-12.14489 3.41857,-3.23851 7.55681,-4.85781 12.41478,-4.85797 l 0,-0.26972 69.0909,0 0,0.26972 c 4.67791,1.6e-4 8.7262,1.61946 12.14486,4.85797 3.41847,3.41867 5.12772,7.46695 5.12785,12.14489 l 0,69.09088 c -1.3e-4,4.858 -1.70938,8.99623 -5.12785,12.4148 -3.41866,3.23864 -7.46695,4.85797 -12.14486,4.85797 l 0,0 0,0 -69.0909,0"
       inkscape:export-filename="/home/paulo/Desktop/nemo.png"
       inkscape:export-xdpi="180"
       inkscape:export-ydpi="180" />
    <rect
       style="fill:#2a8fbd;fill-opacity:1;stroke:none"
       id="rect2989"
       width="285"
       height="31.92"
       x="179.3297"
       y="707.00732"
       ry="6.3840003"
       inkscape:export-filename="/home/paulo/Desktop/nemo.png"
       inkscape:export-xdpi="180"
       inkscape:export-ydpi="180" />
    <path
       sodipodi:type="arc"
       style="fill:none;stroke:#2a8fbd;stroke-width:4;stroke-miterlimit:4;stroke-opacity:1;stroke-dasharray:none"
       id="path3786"
       sodipodi:cx="195"
       sodipodi:cy="422.36218"
       sodipodi:rx="10"
       sodipodi:ry="10"
       d="m 205,422.36218 a 10,10 0 1 1 -20,0 10,10 0 1 1 20,0 z"
       transform="matrix(7.9800002,0,0,7.9800002,-1233.1303,-2780.0565)"
       inkscape:export-filename="/home/paulo/Desktop/nemo.png"
       inkscape:export-xdpi="180"
       inkscape:export-ydpi="180" />
    <rect
       style="fill:#2a8fbd;fill-opacity:1;stroke:none"
       id="rect2989-7"
       width="285"
       height="31.92"
       x="179.3297"
       y="758.18451"
       ry="6.3840003"
       inkscape:export-filename="/home/paulo/Desktop/nemo.png"
       inkscape:export-xdpi="180"
       inkscape:export-ydpi="180" />
    <rect
       style="fill:#2a8fbd;fill-opacity:1;stroke:none"
       id="rect2989-8"
       width="285"
       height="31.92"
       x="179.3297"
       y="809.35883"
       ry="6.3840003"
       inkscape:export-filename="/home/paulo/Desktop/nemo.png"
       inkscape:export-xdpi="180"
       inkscape:export-ydpi="180" />
    <rect
       style="fill:#2a8fbd;fill-opacity:1;stroke:none"
       id="rect2989-4"
       width="285"
       height="31.92"
       x="179.3297"
       y="655.86188"
       ry="6.3840003"
       inkscape:export-filename="/home/paulo/Desktop/nemo.png"
       inkscape:export-xdpi="180"
       inkscape:export-ydpi="180" />
  </g>
</svg>
